G04 #@! TF.GenerationSoftware,KiCad,Pcbnew,5.0.1+dfsg1-3~bpo9+1*
G04 #@! TF.CreationDate,2019-01-18T15:45:32+07:00*
G04 #@! TF.ProjectId,DEV BOARD,44455620424F4152442E6B696361645F,rev?*
G04 #@! TF.SameCoordinates,PX6539160PY6d28560*
G04 #@! TF.FileFunction,Soldermask,Bot*
G04 #@! TF.FilePolarity,Negative*
%FSLAX46Y46*%
G04 Gerber Fmt 4.6, Leading zero omitted, Abs format (unit mm)*
G04 Created by KiCad (PCBNEW 5.0.1+dfsg1-3~bpo9+1) date Fri 18 Jan 2019 03:45:32 PM +07*
%MOMM*%
%LPD*%
G01*
G04 APERTURE LIST*
%ADD10C,0.100000*%
G04 APERTURE END LIST*
D10*
G36*
X38594612Y2981963D02*
X38822096Y2887736D01*
X39026831Y2750936D01*
X39200936Y2576831D01*
X39337736Y2372096D01*
X39431963Y2144612D01*
X39480000Y1903115D01*
X39480000Y1656885D01*
X39431963Y1415388D01*
X39337736Y1187904D01*
X39200936Y983169D01*
X39026831Y809064D01*
X38822096Y672264D01*
X38594612Y578037D01*
X38353115Y530000D01*
X38106885Y530000D01*
X37865388Y578037D01*
X37637904Y672264D01*
X37433169Y809064D01*
X37259064Y983169D01*
X37122264Y1187904D01*
X37028037Y1415388D01*
X36980000Y1656885D01*
X36980000Y1903115D01*
X37028037Y2144612D01*
X37122264Y2372096D01*
X37259064Y2576831D01*
X37433169Y2750936D01*
X37637904Y2887736D01*
X37865388Y2981963D01*
X38106885Y3030000D01*
X38353115Y3030000D01*
X38594612Y2981963D01*
X38594612Y2981963D01*
G37*
G36*
X31094612Y2981963D02*
X31322096Y2887736D01*
X31526831Y2750936D01*
X31700936Y2576831D01*
X31837736Y2372096D01*
X31931963Y2144612D01*
X31980000Y1903115D01*
X31980000Y1656885D01*
X31931963Y1415388D01*
X31837736Y1187904D01*
X31700936Y983169D01*
X31526831Y809064D01*
X31322096Y672264D01*
X31094612Y578037D01*
X30853115Y530000D01*
X30606885Y530000D01*
X30365388Y578037D01*
X30137904Y672264D01*
X29933169Y809064D01*
X29759064Y983169D01*
X29622264Y1187904D01*
X29528037Y1415388D01*
X29480000Y1656885D01*
X29480000Y1903115D01*
X29528037Y2144612D01*
X29622264Y2372096D01*
X29759064Y2576831D01*
X29933169Y2750936D01*
X30137904Y2887736D01*
X30365388Y2981963D01*
X30606885Y3030000D01*
X30853115Y3030000D01*
X31094612Y2981963D01*
X31094612Y2981963D01*
G37*
G36*
X8246950Y4152283D02*
X8403655Y4136849D01*
X8604722Y4075856D01*
X8705257Y4045359D01*
X8796126Y3996788D01*
X8983213Y3896788D01*
X9226845Y3696845D01*
X9426788Y3453213D01*
X9478342Y3356762D01*
X9575359Y3175257D01*
X9595154Y3110000D01*
X9666849Y2873655D01*
X9697741Y2560000D01*
X9666849Y2246345D01*
X9635988Y2144611D01*
X9575359Y1944743D01*
X9521174Y1843371D01*
X9426788Y1666787D01*
X9226845Y1423155D01*
X8983213Y1223212D01*
X8917156Y1187904D01*
X8705257Y1074641D01*
X8604722Y1044144D01*
X8403655Y983151D01*
X8246950Y967717D01*
X8168598Y960000D01*
X7511402Y960000D01*
X7433050Y967717D01*
X7276345Y983151D01*
X7075278Y1044144D01*
X6974743Y1074641D01*
X6762844Y1187904D01*
X6696787Y1223212D01*
X6453155Y1423155D01*
X6253212Y1666787D01*
X6158826Y1843371D01*
X6104641Y1944743D01*
X6044012Y2144611D01*
X6013151Y2246345D01*
X5982259Y2560000D01*
X6013151Y2873655D01*
X6084846Y3110000D01*
X6104641Y3175257D01*
X6201658Y3356762D01*
X6253212Y3453213D01*
X6453155Y3696845D01*
X6696787Y3896788D01*
X6883874Y3996788D01*
X6974743Y4045359D01*
X7075278Y4075856D01*
X7276345Y4136849D01*
X7433050Y4152283D01*
X7511402Y4160000D01*
X8168598Y4160000D01*
X8246950Y4152283D01*
X8246950Y4152283D01*
G37*
G36*
X13896950Y4252283D02*
X14053655Y4236849D01*
X14254722Y4175856D01*
X14355257Y4145359D01*
X14485989Y4075481D01*
X14633213Y3996788D01*
X14876845Y3796845D01*
X15076788Y3553213D01*
X15130239Y3453213D01*
X15225359Y3275257D01*
X15255693Y3175257D01*
X15316849Y2973655D01*
X15347741Y2660000D01*
X15316849Y2346345D01*
X15313970Y2336855D01*
X15225359Y2044743D01*
X15149657Y1903115D01*
X15076788Y1766787D01*
X14876845Y1523155D01*
X14633213Y1323212D01*
X14589470Y1299831D01*
X14355257Y1174641D01*
X14254722Y1144144D01*
X14053655Y1083151D01*
X13896950Y1067717D01*
X13818598Y1060000D01*
X13161402Y1060000D01*
X13083050Y1067717D01*
X12926345Y1083151D01*
X12725278Y1144144D01*
X12624743Y1174641D01*
X12390530Y1299831D01*
X12346787Y1323212D01*
X12103155Y1523155D01*
X11903212Y1766787D01*
X11830343Y1903115D01*
X11754641Y2044743D01*
X11666030Y2336855D01*
X11663151Y2346345D01*
X11632259Y2660000D01*
X11663151Y2973655D01*
X11724307Y3175257D01*
X11754641Y3275257D01*
X11849761Y3453213D01*
X11903212Y3553213D01*
X12103155Y3796845D01*
X12346787Y3996788D01*
X12494011Y4075481D01*
X12624743Y4145359D01*
X12725278Y4175856D01*
X12926345Y4236849D01*
X13083050Y4252283D01*
X13161402Y4260000D01*
X13818598Y4260000D01*
X13896950Y4252283D01*
X13896950Y4252283D01*
G37*
G36*
X87746630Y2847701D02*
X87906855Y2799097D01*
X88054520Y2720169D01*
X88183949Y2613949D01*
X88290169Y2484520D01*
X88369097Y2336855D01*
X88417701Y2176630D01*
X88434112Y2010000D01*
X88417701Y1843370D01*
X88369097Y1683145D01*
X88290169Y1535480D01*
X88183949Y1406051D01*
X88054520Y1299831D01*
X87906855Y1220903D01*
X87746630Y1172299D01*
X87621752Y1160000D01*
X87538248Y1160000D01*
X87413370Y1172299D01*
X87253145Y1220903D01*
X87105480Y1299831D01*
X86976051Y1406051D01*
X86869831Y1535480D01*
X86790903Y1683145D01*
X86742299Y1843370D01*
X86725888Y2010000D01*
X86742299Y2176630D01*
X86790903Y2336855D01*
X86869831Y2484520D01*
X86976051Y2613949D01*
X87105480Y2720169D01*
X87253145Y2799097D01*
X87413370Y2847701D01*
X87538248Y2860000D01*
X87621752Y2860000D01*
X87746630Y2847701D01*
X87746630Y2847701D01*
G37*
G36*
X72506630Y2847701D02*
X72666855Y2799097D01*
X72814520Y2720169D01*
X72943949Y2613949D01*
X73050169Y2484520D01*
X73129097Y2336855D01*
X73177701Y2176630D01*
X73194112Y2010000D01*
X73177701Y1843370D01*
X73129097Y1683145D01*
X73050169Y1535480D01*
X72943949Y1406051D01*
X72814520Y1299831D01*
X72666855Y1220903D01*
X72506630Y1172299D01*
X72381752Y1160000D01*
X72298248Y1160000D01*
X72173370Y1172299D01*
X72013145Y1220903D01*
X71865480Y1299831D01*
X71736051Y1406051D01*
X71629831Y1535480D01*
X71550903Y1683145D01*
X71502299Y1843370D01*
X71485888Y2010000D01*
X71502299Y2176630D01*
X71550903Y2336855D01*
X71629831Y2484520D01*
X71736051Y2613949D01*
X71865480Y2720169D01*
X72013145Y2799097D01*
X72173370Y2847701D01*
X72298248Y2860000D01*
X72381752Y2860000D01*
X72506630Y2847701D01*
X72506630Y2847701D01*
G37*
G36*
X49646630Y2847701D02*
X49806855Y2799097D01*
X49954520Y2720169D01*
X50083949Y2613949D01*
X50190169Y2484520D01*
X50269097Y2336855D01*
X50317701Y2176630D01*
X50334112Y2010000D01*
X50317701Y1843370D01*
X50269097Y1683145D01*
X50190169Y1535480D01*
X50083949Y1406051D01*
X49954520Y1299831D01*
X49806855Y1220903D01*
X49646630Y1172299D01*
X49521752Y1160000D01*
X49438248Y1160000D01*
X49313370Y1172299D01*
X49153145Y1220903D01*
X49005480Y1299831D01*
X48876051Y1406051D01*
X48769831Y1535480D01*
X48690903Y1683145D01*
X48642299Y1843370D01*
X48625888Y2010000D01*
X48642299Y2176630D01*
X48690903Y2336855D01*
X48769831Y2484520D01*
X48876051Y2613949D01*
X49005480Y2720169D01*
X49153145Y2799097D01*
X49313370Y2847701D01*
X49438248Y2860000D01*
X49521752Y2860000D01*
X49646630Y2847701D01*
X49646630Y2847701D01*
G37*
G36*
X52186630Y2847701D02*
X52346855Y2799097D01*
X52494520Y2720169D01*
X52623949Y2613949D01*
X52730169Y2484520D01*
X52809097Y2336855D01*
X52857701Y2176630D01*
X52874112Y2010000D01*
X52857701Y1843370D01*
X52809097Y1683145D01*
X52730169Y1535480D01*
X52623949Y1406051D01*
X52494520Y1299831D01*
X52346855Y1220903D01*
X52186630Y1172299D01*
X52061752Y1160000D01*
X51978248Y1160000D01*
X51853370Y1172299D01*
X51693145Y1220903D01*
X51545480Y1299831D01*
X51416051Y1406051D01*
X51309831Y1535480D01*
X51230903Y1683145D01*
X51182299Y1843370D01*
X51165888Y2010000D01*
X51182299Y2176630D01*
X51230903Y2336855D01*
X51309831Y2484520D01*
X51416051Y2613949D01*
X51545480Y2720169D01*
X51693145Y2799097D01*
X51853370Y2847701D01*
X51978248Y2860000D01*
X52061752Y2860000D01*
X52186630Y2847701D01*
X52186630Y2847701D01*
G37*
G36*
X54726630Y2847701D02*
X54886855Y2799097D01*
X55034520Y2720169D01*
X55163949Y2613949D01*
X55270169Y2484520D01*
X55349097Y2336855D01*
X55397701Y2176630D01*
X55414112Y2010000D01*
X55397701Y1843370D01*
X55349097Y1683145D01*
X55270169Y1535480D01*
X55163949Y1406051D01*
X55034520Y1299831D01*
X54886855Y1220903D01*
X54726630Y1172299D01*
X54601752Y1160000D01*
X54518248Y1160000D01*
X54393370Y1172299D01*
X54233145Y1220903D01*
X54085480Y1299831D01*
X53956051Y1406051D01*
X53849831Y1535480D01*
X53770903Y1683145D01*
X53722299Y1843370D01*
X53705888Y2010000D01*
X53722299Y2176630D01*
X53770903Y2336855D01*
X53849831Y2484520D01*
X53956051Y2613949D01*
X54085480Y2720169D01*
X54233145Y2799097D01*
X54393370Y2847701D01*
X54518248Y2860000D01*
X54601752Y2860000D01*
X54726630Y2847701D01*
X54726630Y2847701D01*
G37*
G36*
X57266630Y2847701D02*
X57426855Y2799097D01*
X57574520Y2720169D01*
X57703949Y2613949D01*
X57810169Y2484520D01*
X57889097Y2336855D01*
X57937701Y2176630D01*
X57954112Y2010000D01*
X57937701Y1843370D01*
X57889097Y1683145D01*
X57810169Y1535480D01*
X57703949Y1406051D01*
X57574520Y1299831D01*
X57426855Y1220903D01*
X57266630Y1172299D01*
X57141752Y1160000D01*
X57058248Y1160000D01*
X56933370Y1172299D01*
X56773145Y1220903D01*
X56625480Y1299831D01*
X56496051Y1406051D01*
X56389831Y1535480D01*
X56310903Y1683145D01*
X56262299Y1843370D01*
X56245888Y2010000D01*
X56262299Y2176630D01*
X56310903Y2336855D01*
X56389831Y2484520D01*
X56496051Y2613949D01*
X56625480Y2720169D01*
X56773145Y2799097D01*
X56933370Y2847701D01*
X57058248Y2860000D01*
X57141752Y2860000D01*
X57266630Y2847701D01*
X57266630Y2847701D01*
G37*
G36*
X59806630Y2847701D02*
X59966855Y2799097D01*
X60114520Y2720169D01*
X60243949Y2613949D01*
X60350169Y2484520D01*
X60429097Y2336855D01*
X60477701Y2176630D01*
X60494112Y2010000D01*
X60477701Y1843370D01*
X60429097Y1683145D01*
X60350169Y1535480D01*
X60243949Y1406051D01*
X60114520Y1299831D01*
X59966855Y1220903D01*
X59806630Y1172299D01*
X59681752Y1160000D01*
X59598248Y1160000D01*
X59473370Y1172299D01*
X59313145Y1220903D01*
X59165480Y1299831D01*
X59036051Y1406051D01*
X58929831Y1535480D01*
X58850903Y1683145D01*
X58802299Y1843370D01*
X58785888Y2010000D01*
X58802299Y2176630D01*
X58850903Y2336855D01*
X58929831Y2484520D01*
X59036051Y2613949D01*
X59165480Y2720169D01*
X59313145Y2799097D01*
X59473370Y2847701D01*
X59598248Y2860000D01*
X59681752Y2860000D01*
X59806630Y2847701D01*
X59806630Y2847701D01*
G37*
G36*
X62346630Y2847701D02*
X62506855Y2799097D01*
X62654520Y2720169D01*
X62783949Y2613949D01*
X62890169Y2484520D01*
X62969097Y2336855D01*
X63017701Y2176630D01*
X63034112Y2010000D01*
X63017701Y1843370D01*
X62969097Y1683145D01*
X62890169Y1535480D01*
X62783949Y1406051D01*
X62654520Y1299831D01*
X62506855Y1220903D01*
X62346630Y1172299D01*
X62221752Y1160000D01*
X62138248Y1160000D01*
X62013370Y1172299D01*
X61853145Y1220903D01*
X61705480Y1299831D01*
X61576051Y1406051D01*
X61469831Y1535480D01*
X61390903Y1683145D01*
X61342299Y1843370D01*
X61325888Y2010000D01*
X61342299Y2176630D01*
X61390903Y2336855D01*
X61469831Y2484520D01*
X61576051Y2613949D01*
X61705480Y2720169D01*
X61853145Y2799097D01*
X62013370Y2847701D01*
X62138248Y2860000D01*
X62221752Y2860000D01*
X62346630Y2847701D01*
X62346630Y2847701D01*
G37*
G36*
X64886630Y2847701D02*
X65046855Y2799097D01*
X65194520Y2720169D01*
X65323949Y2613949D01*
X65430169Y2484520D01*
X65509097Y2336855D01*
X65557701Y2176630D01*
X65574112Y2010000D01*
X65557701Y1843370D01*
X65509097Y1683145D01*
X65430169Y1535480D01*
X65323949Y1406051D01*
X65194520Y1299831D01*
X65046855Y1220903D01*
X64886630Y1172299D01*
X64761752Y1160000D01*
X64678248Y1160000D01*
X64553370Y1172299D01*
X64393145Y1220903D01*
X64245480Y1299831D01*
X64116051Y1406051D01*
X64009831Y1535480D01*
X63930903Y1683145D01*
X63882299Y1843370D01*
X63865888Y2010000D01*
X63882299Y2176630D01*
X63930903Y2336855D01*
X64009831Y2484520D01*
X64116051Y2613949D01*
X64245480Y2720169D01*
X64393145Y2799097D01*
X64553370Y2847701D01*
X64678248Y2860000D01*
X64761752Y2860000D01*
X64886630Y2847701D01*
X64886630Y2847701D01*
G37*
G36*
X69966630Y2847701D02*
X70126855Y2799097D01*
X70274520Y2720169D01*
X70403949Y2613949D01*
X70510169Y2484520D01*
X70589097Y2336855D01*
X70637701Y2176630D01*
X70654112Y2010000D01*
X70637701Y1843370D01*
X70589097Y1683145D01*
X70510169Y1535480D01*
X70403949Y1406051D01*
X70274520Y1299831D01*
X70126855Y1220903D01*
X69966630Y1172299D01*
X69841752Y1160000D01*
X69758248Y1160000D01*
X69633370Y1172299D01*
X69473145Y1220903D01*
X69325480Y1299831D01*
X69196051Y1406051D01*
X69089831Y1535480D01*
X69010903Y1683145D01*
X68962299Y1843370D01*
X68945888Y2010000D01*
X68962299Y2176630D01*
X69010903Y2336855D01*
X69089831Y2484520D01*
X69196051Y2613949D01*
X69325480Y2720169D01*
X69473145Y2799097D01*
X69633370Y2847701D01*
X69758248Y2860000D01*
X69841752Y2860000D01*
X69966630Y2847701D01*
X69966630Y2847701D01*
G37*
G36*
X75046630Y2847701D02*
X75206855Y2799097D01*
X75354520Y2720169D01*
X75483949Y2613949D01*
X75590169Y2484520D01*
X75669097Y2336855D01*
X75717701Y2176630D01*
X75734112Y2010000D01*
X75717701Y1843370D01*
X75669097Y1683145D01*
X75590169Y1535480D01*
X75483949Y1406051D01*
X75354520Y1299831D01*
X75206855Y1220903D01*
X75046630Y1172299D01*
X74921752Y1160000D01*
X74838248Y1160000D01*
X74713370Y1172299D01*
X74553145Y1220903D01*
X74405480Y1299831D01*
X74276051Y1406051D01*
X74169831Y1535480D01*
X74090903Y1683145D01*
X74042299Y1843370D01*
X74025888Y2010000D01*
X74042299Y2176630D01*
X74090903Y2336855D01*
X74169831Y2484520D01*
X74276051Y2613949D01*
X74405480Y2720169D01*
X74553145Y2799097D01*
X74713370Y2847701D01*
X74838248Y2860000D01*
X74921752Y2860000D01*
X75046630Y2847701D01*
X75046630Y2847701D01*
G37*
G36*
X77586630Y2847701D02*
X77746855Y2799097D01*
X77894520Y2720169D01*
X78023949Y2613949D01*
X78130169Y2484520D01*
X78209097Y2336855D01*
X78257701Y2176630D01*
X78274112Y2010000D01*
X78257701Y1843370D01*
X78209097Y1683145D01*
X78130169Y1535480D01*
X78023949Y1406051D01*
X77894520Y1299831D01*
X77746855Y1220903D01*
X77586630Y1172299D01*
X77461752Y1160000D01*
X77378248Y1160000D01*
X77253370Y1172299D01*
X77093145Y1220903D01*
X76945480Y1299831D01*
X76816051Y1406051D01*
X76709831Y1535480D01*
X76630903Y1683145D01*
X76582299Y1843370D01*
X76565888Y2010000D01*
X76582299Y2176630D01*
X76630903Y2336855D01*
X76709831Y2484520D01*
X76816051Y2613949D01*
X76945480Y2720169D01*
X77093145Y2799097D01*
X77253370Y2847701D01*
X77378248Y2860000D01*
X77461752Y2860000D01*
X77586630Y2847701D01*
X77586630Y2847701D01*
G37*
G36*
X80126630Y2847701D02*
X80286855Y2799097D01*
X80434520Y2720169D01*
X80563949Y2613949D01*
X80670169Y2484520D01*
X80749097Y2336855D01*
X80797701Y2176630D01*
X80814112Y2010000D01*
X80797701Y1843370D01*
X80749097Y1683145D01*
X80670169Y1535480D01*
X80563949Y1406051D01*
X80434520Y1299831D01*
X80286855Y1220903D01*
X80126630Y1172299D01*
X80001752Y1160000D01*
X79918248Y1160000D01*
X79793370Y1172299D01*
X79633145Y1220903D01*
X79485480Y1299831D01*
X79356051Y1406051D01*
X79249831Y1535480D01*
X79170903Y1683145D01*
X79122299Y1843370D01*
X79105888Y2010000D01*
X79122299Y2176630D01*
X79170903Y2336855D01*
X79249831Y2484520D01*
X79356051Y2613949D01*
X79485480Y2720169D01*
X79633145Y2799097D01*
X79793370Y2847701D01*
X79918248Y2860000D01*
X80001752Y2860000D01*
X80126630Y2847701D01*
X80126630Y2847701D01*
G37*
G36*
X82666630Y2847701D02*
X82826855Y2799097D01*
X82974520Y2720169D01*
X83103949Y2613949D01*
X83210169Y2484520D01*
X83289097Y2336855D01*
X83337701Y2176630D01*
X83354112Y2010000D01*
X83337701Y1843370D01*
X83289097Y1683145D01*
X83210169Y1535480D01*
X83103949Y1406051D01*
X82974520Y1299831D01*
X82826855Y1220903D01*
X82666630Y1172299D01*
X82541752Y1160000D01*
X82458248Y1160000D01*
X82333370Y1172299D01*
X82173145Y1220903D01*
X82025480Y1299831D01*
X81896051Y1406051D01*
X81789831Y1535480D01*
X81710903Y1683145D01*
X81662299Y1843370D01*
X81645888Y2010000D01*
X81662299Y2176630D01*
X81710903Y2336855D01*
X81789831Y2484520D01*
X81896051Y2613949D01*
X82025480Y2720169D01*
X82173145Y2799097D01*
X82333370Y2847701D01*
X82458248Y2860000D01*
X82541752Y2860000D01*
X82666630Y2847701D01*
X82666630Y2847701D01*
G37*
G36*
X85206630Y2847701D02*
X85366855Y2799097D01*
X85514520Y2720169D01*
X85643949Y2613949D01*
X85750169Y2484520D01*
X85829097Y2336855D01*
X85877701Y2176630D01*
X85894112Y2010000D01*
X85877701Y1843370D01*
X85829097Y1683145D01*
X85750169Y1535480D01*
X85643949Y1406051D01*
X85514520Y1299831D01*
X85366855Y1220903D01*
X85206630Y1172299D01*
X85081752Y1160000D01*
X84998248Y1160000D01*
X84873370Y1172299D01*
X84713145Y1220903D01*
X84565480Y1299831D01*
X84436051Y1406051D01*
X84329831Y1535480D01*
X84250903Y1683145D01*
X84202299Y1843370D01*
X84185888Y2010000D01*
X84202299Y2176630D01*
X84250903Y2336855D01*
X84329831Y2484520D01*
X84436051Y2613949D01*
X84565480Y2720169D01*
X84713145Y2799097D01*
X84873370Y2847701D01*
X84998248Y2860000D01*
X85081752Y2860000D01*
X85206630Y2847701D01*
X85206630Y2847701D01*
G37*
G36*
X67426630Y2847701D02*
X67586855Y2799097D01*
X67734520Y2720169D01*
X67863949Y2613949D01*
X67970169Y2484520D01*
X68049097Y2336855D01*
X68097701Y2176630D01*
X68114112Y2010000D01*
X68097701Y1843370D01*
X68049097Y1683145D01*
X67970169Y1535480D01*
X67863949Y1406051D01*
X67734520Y1299831D01*
X67586855Y1220903D01*
X67426630Y1172299D01*
X67301752Y1160000D01*
X67218248Y1160000D01*
X67093370Y1172299D01*
X66933145Y1220903D01*
X66785480Y1299831D01*
X66656051Y1406051D01*
X66549831Y1535480D01*
X66470903Y1683145D01*
X66422299Y1843370D01*
X66405888Y2010000D01*
X66422299Y2176630D01*
X66470903Y2336855D01*
X66549831Y2484520D01*
X66656051Y2613949D01*
X66785480Y2720169D01*
X66933145Y2799097D01*
X67093370Y2847701D01*
X67218248Y2860000D01*
X67301752Y2860000D01*
X67426630Y2847701D01*
X67426630Y2847701D01*
G37*
G36*
X45163378Y5293141D02*
X45527354Y5142378D01*
X45854929Y4923499D01*
X46133499Y4644929D01*
X46352378Y4317354D01*
X46503141Y3953378D01*
X46580000Y3566984D01*
X46580000Y3173016D01*
X46503141Y2786622D01*
X46352378Y2422646D01*
X46133499Y2095071D01*
X45854929Y1816501D01*
X45527354Y1597622D01*
X45163378Y1446859D01*
X44776984Y1370000D01*
X44383016Y1370000D01*
X43996622Y1446859D01*
X43632646Y1597622D01*
X43305071Y1816501D01*
X43026501Y2095071D01*
X42807622Y2422646D01*
X42656859Y2786622D01*
X42580000Y3173016D01*
X42580000Y3566984D01*
X42656859Y3953378D01*
X42807622Y4317354D01*
X43026501Y4644929D01*
X43305071Y4923499D01*
X43632646Y5142378D01*
X43996622Y5293141D01*
X44383016Y5370000D01*
X44776984Y5370000D01*
X45163378Y5293141D01*
X45163378Y5293141D01*
G37*
G36*
X35049048Y6088296D02*
X35049051Y6088295D01*
X35331802Y6002524D01*
X35331804Y6002523D01*
X35592389Y5863237D01*
X35820792Y5675792D01*
X36008237Y5447389D01*
X36108308Y5260169D01*
X36147524Y5186802D01*
X36161000Y5142377D01*
X36233296Y4904048D01*
X36262257Y4610000D01*
X36233296Y4315952D01*
X36147523Y4033196D01*
X36008237Y3772611D01*
X35820792Y3544208D01*
X35592389Y3356763D01*
X35331804Y3217477D01*
X35331802Y3217476D01*
X35192620Y3175256D01*
X35049048Y3131704D01*
X34828684Y3110000D01*
X34166316Y3110000D01*
X33945952Y3131704D01*
X33802380Y3175256D01*
X33663198Y3217476D01*
X33663196Y3217477D01*
X33402611Y3356763D01*
X33174208Y3544208D01*
X32986763Y3772611D01*
X32847477Y4033196D01*
X32761704Y4315952D01*
X32732743Y4610000D01*
X32761704Y4904048D01*
X32834000Y5142377D01*
X32847476Y5186802D01*
X32886692Y5260169D01*
X32986763Y5447389D01*
X33174208Y5675792D01*
X33402611Y5863237D01*
X33663196Y6002523D01*
X33663198Y6002524D01*
X33945949Y6088295D01*
X33945952Y6088296D01*
X34166316Y6110000D01*
X34828684Y6110000D01*
X35049048Y6088296D01*
X35049048Y6088296D01*
G37*
G36*
X77586630Y5387701D02*
X77746855Y5339097D01*
X77894520Y5260169D01*
X78023949Y5153949D01*
X78130169Y5024520D01*
X78209097Y4876855D01*
X78257701Y4716630D01*
X78274112Y4550000D01*
X78257701Y4383370D01*
X78209097Y4223145D01*
X78130169Y4075480D01*
X78023949Y3946051D01*
X77894520Y3839831D01*
X77746855Y3760903D01*
X77586630Y3712299D01*
X77461752Y3700000D01*
X77378248Y3700000D01*
X77253370Y3712299D01*
X77093145Y3760903D01*
X76945480Y3839831D01*
X76816051Y3946051D01*
X76709831Y4075480D01*
X76630903Y4223145D01*
X76582299Y4383370D01*
X76565888Y4550000D01*
X76582299Y4716630D01*
X76630903Y4876855D01*
X76709831Y5024520D01*
X76816051Y5153949D01*
X76945480Y5260169D01*
X77093145Y5339097D01*
X77253370Y5387701D01*
X77378248Y5400000D01*
X77461752Y5400000D01*
X77586630Y5387701D01*
X77586630Y5387701D01*
G37*
G36*
X87746630Y5387701D02*
X87906855Y5339097D01*
X88054520Y5260169D01*
X88183949Y5153949D01*
X88290169Y5024520D01*
X88369097Y4876855D01*
X88417701Y4716630D01*
X88434112Y4550000D01*
X88417701Y4383370D01*
X88369097Y4223145D01*
X88290169Y4075480D01*
X88183949Y3946051D01*
X88054520Y3839831D01*
X87906855Y3760903D01*
X87746630Y3712299D01*
X87621752Y3700000D01*
X87538248Y3700000D01*
X87413370Y3712299D01*
X87253145Y3760903D01*
X87105480Y3839831D01*
X86976051Y3946051D01*
X86869831Y4075480D01*
X86790903Y4223145D01*
X86742299Y4383370D01*
X86725888Y4550000D01*
X86742299Y4716630D01*
X86790903Y4876855D01*
X86869831Y5024520D01*
X86976051Y5153949D01*
X87105480Y5260169D01*
X87253145Y5339097D01*
X87413370Y5387701D01*
X87538248Y5400000D01*
X87621752Y5400000D01*
X87746630Y5387701D01*
X87746630Y5387701D01*
G37*
G36*
X82666630Y5387701D02*
X82826855Y5339097D01*
X82974520Y5260169D01*
X83103949Y5153949D01*
X83210169Y5024520D01*
X83289097Y4876855D01*
X83337701Y4716630D01*
X83354112Y4550000D01*
X83337701Y4383370D01*
X83289097Y4223145D01*
X83210169Y4075480D01*
X83103949Y3946051D01*
X82974520Y3839831D01*
X82826855Y3760903D01*
X82666630Y3712299D01*
X82541752Y3700000D01*
X82458248Y3700000D01*
X82333370Y3712299D01*
X82173145Y3760903D01*
X82025480Y3839831D01*
X81896051Y3946051D01*
X81789831Y4075480D01*
X81710903Y4223145D01*
X81662299Y4383370D01*
X81645888Y4550000D01*
X81662299Y4716630D01*
X81710903Y4876855D01*
X81789831Y5024520D01*
X81896051Y5153949D01*
X82025480Y5260169D01*
X82173145Y5339097D01*
X82333370Y5387701D01*
X82458248Y5400000D01*
X82541752Y5400000D01*
X82666630Y5387701D01*
X82666630Y5387701D01*
G37*
G36*
X85206630Y5387701D02*
X85366855Y5339097D01*
X85514520Y5260169D01*
X85643949Y5153949D01*
X85750169Y5024520D01*
X85829097Y4876855D01*
X85877701Y4716630D01*
X85894112Y4550000D01*
X85877701Y4383370D01*
X85829097Y4223145D01*
X85750169Y4075480D01*
X85643949Y3946051D01*
X85514520Y3839831D01*
X85366855Y3760903D01*
X85206630Y3712299D01*
X85081752Y3700000D01*
X84998248Y3700000D01*
X84873370Y3712299D01*
X84713145Y3760903D01*
X84565480Y3839831D01*
X84436051Y3946051D01*
X84329831Y4075480D01*
X84250903Y4223145D01*
X84202299Y4383370D01*
X84185888Y4550000D01*
X84202299Y4716630D01*
X84250903Y4876855D01*
X84329831Y5024520D01*
X84436051Y5153949D01*
X84565480Y5260169D01*
X84713145Y5339097D01*
X84873370Y5387701D01*
X84998248Y5400000D01*
X85081752Y5400000D01*
X85206630Y5387701D01*
X85206630Y5387701D01*
G37*
G36*
X80126630Y5387701D02*
X80286855Y5339097D01*
X80434520Y5260169D01*
X80563949Y5153949D01*
X80670169Y5024520D01*
X80749097Y4876855D01*
X80797701Y4716630D01*
X80814112Y4550000D01*
X80797701Y4383370D01*
X80749097Y4223145D01*
X80670169Y4075480D01*
X80563949Y3946051D01*
X80434520Y3839831D01*
X80286855Y3760903D01*
X80126630Y3712299D01*
X80001752Y3700000D01*
X79918248Y3700000D01*
X79793370Y3712299D01*
X79633145Y3760903D01*
X79485480Y3839831D01*
X79356051Y3946051D01*
X79249831Y4075480D01*
X79170903Y4223145D01*
X79122299Y4383370D01*
X79105888Y4550000D01*
X79122299Y4716630D01*
X79170903Y4876855D01*
X79249831Y5024520D01*
X79356051Y5153949D01*
X79485480Y5260169D01*
X79633145Y5339097D01*
X79793370Y5387701D01*
X79918248Y5400000D01*
X80001752Y5400000D01*
X80126630Y5387701D01*
X80126630Y5387701D01*
G37*
G36*
X52186630Y5387701D02*
X52346855Y5339097D01*
X52494520Y5260169D01*
X52623949Y5153949D01*
X52730169Y5024520D01*
X52809097Y4876855D01*
X52857701Y4716630D01*
X52874112Y4550000D01*
X52857701Y4383370D01*
X52809097Y4223145D01*
X52730169Y4075480D01*
X52623949Y3946051D01*
X52494520Y3839831D01*
X52346855Y3760903D01*
X52186630Y3712299D01*
X52061752Y3700000D01*
X51978248Y3700000D01*
X51853370Y3712299D01*
X51693145Y3760903D01*
X51545480Y3839831D01*
X51416051Y3946051D01*
X51309831Y4075480D01*
X51230903Y4223145D01*
X51182299Y4383370D01*
X51165888Y4550000D01*
X51182299Y4716630D01*
X51230903Y4876855D01*
X51309831Y5024520D01*
X51416051Y5153949D01*
X51545480Y5260169D01*
X51693145Y5339097D01*
X51853370Y5387701D01*
X51978248Y5400000D01*
X52061752Y5400000D01*
X52186630Y5387701D01*
X52186630Y5387701D01*
G37*
G36*
X54726630Y5387701D02*
X54886855Y5339097D01*
X55034520Y5260169D01*
X55163949Y5153949D01*
X55270169Y5024520D01*
X55349097Y4876855D01*
X55397701Y4716630D01*
X55414112Y4550000D01*
X55397701Y4383370D01*
X55349097Y4223145D01*
X55270169Y4075480D01*
X55163949Y3946051D01*
X55034520Y3839831D01*
X54886855Y3760903D01*
X54726630Y3712299D01*
X54601752Y3700000D01*
X54518248Y3700000D01*
X54393370Y3712299D01*
X54233145Y3760903D01*
X54085480Y3839831D01*
X53956051Y3946051D01*
X53849831Y4075480D01*
X53770903Y4223145D01*
X53722299Y4383370D01*
X53705888Y4550000D01*
X53722299Y4716630D01*
X53770903Y4876855D01*
X53849831Y5024520D01*
X53956051Y5153949D01*
X54085480Y5260169D01*
X54233145Y5339097D01*
X54393370Y5387701D01*
X54518248Y5400000D01*
X54601752Y5400000D01*
X54726630Y5387701D01*
X54726630Y5387701D01*
G37*
G36*
X57266630Y5387701D02*
X57426855Y5339097D01*
X57574520Y5260169D01*
X57703949Y5153949D01*
X57810169Y5024520D01*
X57889097Y4876855D01*
X57937701Y4716630D01*
X57954112Y4550000D01*
X57937701Y4383370D01*
X57889097Y4223145D01*
X57810169Y4075480D01*
X57703949Y3946051D01*
X57574520Y3839831D01*
X57426855Y3760903D01*
X57266630Y3712299D01*
X57141752Y3700000D01*
X57058248Y3700000D01*
X56933370Y3712299D01*
X56773145Y3760903D01*
X56625480Y3839831D01*
X56496051Y3946051D01*
X56389831Y4075480D01*
X56310903Y4223145D01*
X56262299Y4383370D01*
X56245888Y4550000D01*
X56262299Y4716630D01*
X56310903Y4876855D01*
X56389831Y5024520D01*
X56496051Y5153949D01*
X56625480Y5260169D01*
X56773145Y5339097D01*
X56933370Y5387701D01*
X57058248Y5400000D01*
X57141752Y5400000D01*
X57266630Y5387701D01*
X57266630Y5387701D01*
G37*
G36*
X69966630Y5387701D02*
X70126855Y5339097D01*
X70274520Y5260169D01*
X70403949Y5153949D01*
X70510169Y5024520D01*
X70589097Y4876855D01*
X70637701Y4716630D01*
X70654112Y4550000D01*
X70637701Y4383370D01*
X70589097Y4223145D01*
X70510169Y4075480D01*
X70403949Y3946051D01*
X70274520Y3839831D01*
X70126855Y3760903D01*
X69966630Y3712299D01*
X69841752Y3700000D01*
X69758248Y3700000D01*
X69633370Y3712299D01*
X69473145Y3760903D01*
X69325480Y3839831D01*
X69196051Y3946051D01*
X69089831Y4075480D01*
X69010903Y4223145D01*
X68962299Y4383370D01*
X68945888Y4550000D01*
X68962299Y4716630D01*
X69010903Y4876855D01*
X69089831Y5024520D01*
X69196051Y5153949D01*
X69325480Y5260169D01*
X69473145Y5339097D01*
X69633370Y5387701D01*
X69758248Y5400000D01*
X69841752Y5400000D01*
X69966630Y5387701D01*
X69966630Y5387701D01*
G37*
G36*
X62346630Y5387701D02*
X62506855Y5339097D01*
X62654520Y5260169D01*
X62783949Y5153949D01*
X62890169Y5024520D01*
X62969097Y4876855D01*
X63017701Y4716630D01*
X63034112Y4550000D01*
X63017701Y4383370D01*
X62969097Y4223145D01*
X62890169Y4075480D01*
X62783949Y3946051D01*
X62654520Y3839831D01*
X62506855Y3760903D01*
X62346630Y3712299D01*
X62221752Y3700000D01*
X62138248Y3700000D01*
X62013370Y3712299D01*
X61853145Y3760903D01*
X61705480Y3839831D01*
X61576051Y3946051D01*
X61469831Y4075480D01*
X61390903Y4223145D01*
X61342299Y4383370D01*
X61325888Y4550000D01*
X61342299Y4716630D01*
X61390903Y4876855D01*
X61469831Y5024520D01*
X61576051Y5153949D01*
X61705480Y5260169D01*
X61853145Y5339097D01*
X62013370Y5387701D01*
X62138248Y5400000D01*
X62221752Y5400000D01*
X62346630Y5387701D01*
X62346630Y5387701D01*
G37*
G36*
X72506630Y5387701D02*
X72666855Y5339097D01*
X72814520Y5260169D01*
X72943949Y5153949D01*
X73050169Y5024520D01*
X73129097Y4876855D01*
X73177701Y4716630D01*
X73194112Y4550000D01*
X73177701Y4383370D01*
X73129097Y4223145D01*
X73050169Y4075480D01*
X72943949Y3946051D01*
X72814520Y3839831D01*
X72666855Y3760903D01*
X72506630Y3712299D01*
X72381752Y3700000D01*
X72298248Y3700000D01*
X72173370Y3712299D01*
X72013145Y3760903D01*
X71865480Y3839831D01*
X71736051Y3946051D01*
X71629831Y4075480D01*
X71550903Y4223145D01*
X71502299Y4383370D01*
X71485888Y4550000D01*
X71502299Y4716630D01*
X71550903Y4876855D01*
X71629831Y5024520D01*
X71736051Y5153949D01*
X71865480Y5260169D01*
X72013145Y5339097D01*
X72173370Y5387701D01*
X72298248Y5400000D01*
X72381752Y5400000D01*
X72506630Y5387701D01*
X72506630Y5387701D01*
G37*
G36*
X64886630Y5387701D02*
X65046855Y5339097D01*
X65194520Y5260169D01*
X65323949Y5153949D01*
X65430169Y5024520D01*
X65509097Y4876855D01*
X65557701Y4716630D01*
X65574112Y4550000D01*
X65557701Y4383370D01*
X65509097Y4223145D01*
X65430169Y4075480D01*
X65323949Y3946051D01*
X65194520Y3839831D01*
X65046855Y3760903D01*
X64886630Y3712299D01*
X64761752Y3700000D01*
X64678248Y3700000D01*
X64553370Y3712299D01*
X64393145Y3760903D01*
X64245480Y3839831D01*
X64116051Y3946051D01*
X64009831Y4075480D01*
X63930903Y4223145D01*
X63882299Y4383370D01*
X63865888Y4550000D01*
X63882299Y4716630D01*
X63930903Y4876855D01*
X64009831Y5024520D01*
X64116051Y5153949D01*
X64245480Y5260169D01*
X64393145Y5339097D01*
X64553370Y5387701D01*
X64678248Y5400000D01*
X64761752Y5400000D01*
X64886630Y5387701D01*
X64886630Y5387701D01*
G37*
G36*
X75046630Y5387701D02*
X75206855Y5339097D01*
X75354520Y5260169D01*
X75483949Y5153949D01*
X75590169Y5024520D01*
X75669097Y4876855D01*
X75717701Y4716630D01*
X75734112Y4550000D01*
X75717701Y4383370D01*
X75669097Y4223145D01*
X75590169Y4075480D01*
X75483949Y3946051D01*
X75354520Y3839831D01*
X75206855Y3760903D01*
X75046630Y3712299D01*
X74921752Y3700000D01*
X74838248Y3700000D01*
X74713370Y3712299D01*
X74553145Y3760903D01*
X74405480Y3839831D01*
X74276051Y3946051D01*
X74169831Y4075480D01*
X74090903Y4223145D01*
X74042299Y4383370D01*
X74025888Y4550000D01*
X74042299Y4716630D01*
X74090903Y4876855D01*
X74169831Y5024520D01*
X74276051Y5153949D01*
X74405480Y5260169D01*
X74553145Y5339097D01*
X74713370Y5387701D01*
X74838248Y5400000D01*
X74921752Y5400000D01*
X75046630Y5387701D01*
X75046630Y5387701D01*
G37*
G36*
X50330000Y3700000D02*
X48630000Y3700000D01*
X48630000Y5400000D01*
X50330000Y5400000D01*
X50330000Y3700000D01*
X50330000Y3700000D01*
G37*
G36*
X67426630Y5387701D02*
X67586855Y5339097D01*
X67734520Y5260169D01*
X67863949Y5153949D01*
X67970169Y5024520D01*
X68049097Y4876855D01*
X68097701Y4716630D01*
X68114112Y4550000D01*
X68097701Y4383370D01*
X68049097Y4223145D01*
X67970169Y4075480D01*
X67863949Y3946051D01*
X67734520Y3839831D01*
X67586855Y3760903D01*
X67426630Y3712299D01*
X67301752Y3700000D01*
X67218248Y3700000D01*
X67093370Y3712299D01*
X66933145Y3760903D01*
X66785480Y3839831D01*
X66656051Y3946051D01*
X66549831Y4075480D01*
X66470903Y4223145D01*
X66422299Y4383370D01*
X66405888Y4550000D01*
X66422299Y4716630D01*
X66470903Y4876855D01*
X66549831Y5024520D01*
X66656051Y5153949D01*
X66785480Y5260169D01*
X66933145Y5339097D01*
X67093370Y5387701D01*
X67218248Y5400000D01*
X67301752Y5400000D01*
X67426630Y5387701D01*
X67426630Y5387701D01*
G37*
G36*
X59806630Y5387701D02*
X59966855Y5339097D01*
X60114520Y5260169D01*
X60243949Y5153949D01*
X60350169Y5024520D01*
X60429097Y4876855D01*
X60477701Y4716630D01*
X60494112Y4550000D01*
X60477701Y4383370D01*
X60429097Y4223145D01*
X60350169Y4075480D01*
X60243949Y3946051D01*
X60114520Y3839831D01*
X59966855Y3760903D01*
X59806630Y3712299D01*
X59681752Y3700000D01*
X59598248Y3700000D01*
X59473370Y3712299D01*
X59313145Y3760903D01*
X59165480Y3839831D01*
X59036051Y3946051D01*
X58929831Y4075480D01*
X58850903Y4223145D01*
X58802299Y4383370D01*
X58785888Y4550000D01*
X58802299Y4716630D01*
X58850903Y4876855D01*
X58929831Y5024520D01*
X59036051Y5153949D01*
X59165480Y5260169D01*
X59313145Y5339097D01*
X59473370Y5387701D01*
X59598248Y5400000D01*
X59681752Y5400000D01*
X59806630Y5387701D01*
X59806630Y5387701D01*
G37*
G36*
X11044183Y6333100D02*
X11171574Y6280332D01*
X11286224Y6203726D01*
X11383726Y6106224D01*
X11453016Y6002523D01*
X11460332Y5991574D01*
X11513100Y5864183D01*
X11540000Y5728945D01*
X11540000Y5591055D01*
X11513100Y5455817D01*
X11464752Y5339097D01*
X11460332Y5328426D01*
X11414725Y5260169D01*
X11383725Y5213775D01*
X11286225Y5116275D01*
X11171574Y5039668D01*
X11044183Y4986900D01*
X10908945Y4960000D01*
X10771055Y4960000D01*
X10635817Y4986900D01*
X10508426Y5039668D01*
X10393775Y5116275D01*
X10296275Y5213775D01*
X10265276Y5260169D01*
X10219668Y5328426D01*
X10215248Y5339097D01*
X10166900Y5455817D01*
X10140000Y5591055D01*
X10140000Y5728945D01*
X10166900Y5864183D01*
X10219668Y5991574D01*
X10226984Y6002523D01*
X10296274Y6106224D01*
X10393776Y6203726D01*
X10508426Y6280332D01*
X10635817Y6333100D01*
X10771055Y6360000D01*
X10908945Y6360000D01*
X11044183Y6333100D01*
X11044183Y6333100D01*
G37*
G36*
X13694183Y6333100D02*
X13821574Y6280332D01*
X13936224Y6203726D01*
X14033726Y6106224D01*
X14103016Y6002523D01*
X14110332Y5991574D01*
X14163100Y5864183D01*
X14190000Y5728945D01*
X14190000Y5591055D01*
X14163100Y5455817D01*
X14114752Y5339097D01*
X14110332Y5328426D01*
X14064725Y5260169D01*
X14033725Y5213775D01*
X13936225Y5116275D01*
X13821574Y5039668D01*
X13694183Y4986900D01*
X13558945Y4960000D01*
X13421055Y4960000D01*
X13285817Y4986900D01*
X13158426Y5039668D01*
X13043775Y5116275D01*
X12946275Y5213775D01*
X12915276Y5260169D01*
X12869668Y5328426D01*
X12865248Y5339097D01*
X12816900Y5455817D01*
X12790000Y5591055D01*
X12790000Y5728945D01*
X12816900Y5864183D01*
X12869668Y5991574D01*
X12876984Y6002523D01*
X12946274Y6106224D01*
X13043776Y6203726D01*
X13158426Y6280332D01*
X13285817Y6333100D01*
X13421055Y6360000D01*
X13558945Y6360000D01*
X13694183Y6333100D01*
X13694183Y6333100D01*
G37*
G36*
X47530000Y7430000D02*
X47130000Y7430000D01*
X47130000Y8230000D01*
X47530000Y8230000D01*
X47530000Y7430000D01*
X47530000Y7430000D01*
G37*
G36*
X49180000Y7430000D02*
X48680000Y7430000D01*
X48680000Y8230000D01*
X49180000Y8230000D01*
X49180000Y7430000D01*
X49180000Y7430000D01*
G37*
G36*
X48330000Y7430000D02*
X47930000Y7430000D01*
X47930000Y8230000D01*
X48330000Y8230000D01*
X48330000Y7430000D01*
X48330000Y7430000D01*
G37*
G36*
X46780000Y7430000D02*
X46280000Y7430000D01*
X46280000Y8230000D01*
X46780000Y8230000D01*
X46780000Y7430000D01*
X46780000Y7430000D01*
G37*
G36*
X85136630Y9127701D02*
X85296855Y9079097D01*
X85444520Y9000169D01*
X85573949Y8893949D01*
X85680169Y8764520D01*
X85759097Y8616855D01*
X85807701Y8456630D01*
X85824112Y8290000D01*
X85807701Y8123370D01*
X85759097Y7963145D01*
X85680169Y7815480D01*
X85573949Y7686051D01*
X85444520Y7579831D01*
X85296855Y7500903D01*
X85136630Y7452299D01*
X85011752Y7440000D01*
X84928248Y7440000D01*
X84803370Y7452299D01*
X84643145Y7500903D01*
X84495480Y7579831D01*
X84366051Y7686051D01*
X84259831Y7815480D01*
X84180903Y7963145D01*
X84132299Y8123370D01*
X84115888Y8290000D01*
X84132299Y8456630D01*
X84180903Y8616855D01*
X84259831Y8764520D01*
X84366051Y8893949D01*
X84495480Y9000169D01*
X84643145Y9079097D01*
X84803370Y9127701D01*
X84928248Y9140000D01*
X85011752Y9140000D01*
X85136630Y9127701D01*
X85136630Y9127701D01*
G37*
G36*
X83280000Y7440000D02*
X81580000Y7440000D01*
X81580000Y9140000D01*
X83280000Y9140000D01*
X83280000Y7440000D01*
X83280000Y7440000D01*
G37*
G36*
X87676630Y9127701D02*
X87836855Y9079097D01*
X87984520Y9000169D01*
X88113949Y8893949D01*
X88220169Y8764520D01*
X88299097Y8616855D01*
X88347701Y8456630D01*
X88364112Y8290000D01*
X88347701Y8123370D01*
X88299097Y7963145D01*
X88220169Y7815480D01*
X88113949Y7686051D01*
X87984520Y7579831D01*
X87836855Y7500903D01*
X87676630Y7452299D01*
X87551752Y7440000D01*
X87468248Y7440000D01*
X87343370Y7452299D01*
X87183145Y7500903D01*
X87035480Y7579831D01*
X86906051Y7686051D01*
X86799831Y7815480D01*
X86720903Y7963145D01*
X86672299Y8123370D01*
X86655888Y8290000D01*
X86672299Y8456630D01*
X86720903Y8616855D01*
X86799831Y8764520D01*
X86906051Y8893949D01*
X87035480Y9000169D01*
X87183145Y9079097D01*
X87343370Y9127701D01*
X87468248Y9140000D01*
X87551752Y9140000D01*
X87676630Y9127701D01*
X87676630Y9127701D01*
G37*
G36*
X13694183Y8833100D02*
X13821574Y8780332D01*
X13845239Y8764520D01*
X13936225Y8703725D01*
X14033725Y8606225D01*
X14110332Y8491574D01*
X14163100Y8364183D01*
X14190000Y8228945D01*
X14190000Y8091055D01*
X14163100Y7955817D01*
X14110332Y7828426D01*
X14033726Y7713776D01*
X13936224Y7616274D01*
X13821574Y7539668D01*
X13694183Y7486900D01*
X13558945Y7460000D01*
X13421055Y7460000D01*
X13285817Y7486900D01*
X13158426Y7539668D01*
X13043776Y7616274D01*
X12946274Y7713776D01*
X12869668Y7828426D01*
X12816900Y7955817D01*
X12790000Y8091055D01*
X12790000Y8228945D01*
X12816900Y8364183D01*
X12869668Y8491574D01*
X12946275Y8606225D01*
X13043775Y8703725D01*
X13134762Y8764520D01*
X13158426Y8780332D01*
X13285817Y8833100D01*
X13421055Y8860000D01*
X13558945Y8860000D01*
X13694183Y8833100D01*
X13694183Y8833100D01*
G37*
G36*
X11044183Y8833100D02*
X11171574Y8780332D01*
X11195239Y8764520D01*
X11286225Y8703725D01*
X11383725Y8606225D01*
X11460332Y8491574D01*
X11513100Y8364183D01*
X11540000Y8228945D01*
X11540000Y8091055D01*
X11513100Y7955817D01*
X11460332Y7828426D01*
X11383726Y7713776D01*
X11286224Y7616274D01*
X11171574Y7539668D01*
X11044183Y7486900D01*
X10908945Y7460000D01*
X10771055Y7460000D01*
X10635817Y7486900D01*
X10508426Y7539668D01*
X10393776Y7616274D01*
X10296274Y7713776D01*
X10219668Y7828426D01*
X10166900Y7955817D01*
X10140000Y8091055D01*
X10140000Y8228945D01*
X10166900Y8364183D01*
X10219668Y8491574D01*
X10296275Y8606225D01*
X10393775Y8703725D01*
X10484762Y8764520D01*
X10508426Y8780332D01*
X10635817Y8833100D01*
X10771055Y8860000D01*
X10908945Y8860000D01*
X11044183Y8833100D01*
X11044183Y8833100D01*
G37*
G36*
X8170000Y7800000D02*
X7370000Y7800000D01*
X7370000Y8700000D01*
X8170000Y8700000D01*
X8170000Y7800000D01*
X8170000Y7800000D01*
G37*
G36*
X57790000Y8034392D02*
X56890000Y8034392D01*
X56890000Y8834392D01*
X57790000Y8834392D01*
X57790000Y8034392D01*
X57790000Y8034392D01*
G37*
G36*
X56370000Y8034392D02*
X55470000Y8034392D01*
X55470000Y8834392D01*
X56370000Y8834392D01*
X56370000Y8034392D01*
X56370000Y8034392D01*
G37*
G36*
X54570000Y8034392D02*
X53670000Y8034392D01*
X53670000Y8834392D01*
X54570000Y8834392D01*
X54570000Y8034392D01*
X54570000Y8034392D01*
G37*
G36*
X59590000Y8034392D02*
X58690000Y8034392D01*
X58690000Y8834392D01*
X59590000Y8834392D01*
X59590000Y8034392D01*
X59590000Y8034392D01*
G37*
G36*
X51197649Y9802283D02*
X51236827Y9798424D01*
X51312228Y9775551D01*
X51387629Y9752679D01*
X51526608Y9678392D01*
X51648422Y9578422D01*
X51748392Y9456608D01*
X51822679Y9317629D01*
X51826055Y9306499D01*
X51868424Y9166827D01*
X51883870Y9010000D01*
X51868424Y8853173D01*
X51846328Y8780332D01*
X51822679Y8702371D01*
X51748392Y8563392D01*
X51648422Y8441578D01*
X51526608Y8341608D01*
X51387629Y8267321D01*
X51312227Y8244448D01*
X51236827Y8221576D01*
X51197649Y8217717D01*
X51119295Y8210000D01*
X51040705Y8210000D01*
X50962351Y8217717D01*
X50923173Y8221576D01*
X50847773Y8244448D01*
X50772371Y8267321D01*
X50633392Y8341608D01*
X50511578Y8441578D01*
X50411608Y8563392D01*
X50337321Y8702371D01*
X50313672Y8780332D01*
X50291576Y8853173D01*
X50276130Y9010000D01*
X50291576Y9166827D01*
X50333945Y9306499D01*
X50337321Y9317629D01*
X50411608Y9456608D01*
X50511578Y9578422D01*
X50633392Y9678392D01*
X50772371Y9752679D01*
X50847772Y9775551D01*
X50923173Y9798424D01*
X50962351Y9802283D01*
X51040705Y9810000D01*
X51119295Y9810000D01*
X51197649Y9802283D01*
X51197649Y9802283D01*
G37*
G36*
X44260000Y8210000D02*
X42660000Y8210000D01*
X42660000Y9810000D01*
X44260000Y9810000D01*
X44260000Y8210000D01*
X44260000Y8210000D01*
G37*
G36*
X39470000Y8610000D02*
X36970000Y8610000D01*
X36970000Y11610000D01*
X39470000Y11610000D01*
X39470000Y8610000D01*
X39470000Y8610000D01*
G37*
G36*
X35740000Y8610000D02*
X33240000Y8610000D01*
X33240000Y11610000D01*
X35740000Y11610000D01*
X35740000Y8610000D01*
X35740000Y8610000D01*
G37*
G36*
X31970000Y8610000D02*
X29470000Y8610000D01*
X29470000Y11610000D01*
X31970000Y11610000D01*
X31970000Y8610000D01*
X31970000Y8610000D01*
G37*
G36*
X78363378Y12783141D02*
X78727354Y12632378D01*
X79054929Y12413499D01*
X79333499Y12134929D01*
X79552378Y11807354D01*
X79703141Y11443378D01*
X79780000Y11056984D01*
X79780000Y10663016D01*
X79703141Y10276622D01*
X79552378Y9912646D01*
X79333499Y9585071D01*
X79054929Y9306501D01*
X78727354Y9087622D01*
X78363378Y8936859D01*
X77976984Y8860000D01*
X77583016Y8860000D01*
X77196622Y8936859D01*
X76832646Y9087622D01*
X76505071Y9306501D01*
X76226501Y9585071D01*
X76007622Y9912646D01*
X75856859Y10276622D01*
X75780000Y10663016D01*
X75780000Y11056984D01*
X75856859Y11443378D01*
X76007622Y11807354D01*
X76226501Y12134929D01*
X76505071Y12413499D01*
X76832646Y12632378D01*
X77196622Y12783141D01*
X77583016Y12860000D01*
X77976984Y12860000D01*
X78363378Y12783141D01*
X78363378Y12783141D01*
G37*
G36*
X46780000Y9230000D02*
X46280000Y9230000D01*
X46280000Y10030000D01*
X46780000Y10030000D01*
X46780000Y9230000D01*
X46780000Y9230000D01*
G37*
G36*
X47530000Y9230000D02*
X47130000Y9230000D01*
X47130000Y10030000D01*
X47530000Y10030000D01*
X47530000Y9230000D01*
X47530000Y9230000D01*
G37*
G36*
X49180000Y9230000D02*
X48680000Y9230000D01*
X48680000Y10030000D01*
X49180000Y10030000D01*
X49180000Y9230000D01*
X49180000Y9230000D01*
G37*
G36*
X48330000Y9230000D02*
X47930000Y9230000D01*
X47930000Y10030000D01*
X48330000Y10030000D01*
X48330000Y9230000D01*
X48330000Y9230000D01*
G37*
G36*
X57790000Y9394392D02*
X56890000Y9394392D01*
X56890000Y10194392D01*
X57790000Y10194392D01*
X57790000Y9394392D01*
X57790000Y9394392D01*
G37*
G36*
X54570000Y9394392D02*
X53670000Y9394392D01*
X53670000Y10194392D01*
X54570000Y10194392D01*
X54570000Y9394392D01*
X54570000Y9394392D01*
G37*
G36*
X56370000Y9394392D02*
X55470000Y9394392D01*
X55470000Y10194392D01*
X56370000Y10194392D01*
X56370000Y9394392D01*
X56370000Y9394392D01*
G37*
G36*
X59590000Y9394392D02*
X58690000Y9394392D01*
X58690000Y10194392D01*
X59590000Y10194392D01*
X59590000Y9394392D01*
X59590000Y9394392D01*
G37*
G36*
X13694183Y10833100D02*
X13821574Y10780332D01*
X13849645Y10761576D01*
X13936225Y10703725D01*
X14033725Y10606225D01*
X14110332Y10491574D01*
X14163100Y10364183D01*
X14190000Y10228945D01*
X14190000Y10091055D01*
X14163100Y9955817D01*
X14110332Y9828426D01*
X14033725Y9713775D01*
X13936225Y9616275D01*
X13821574Y9539668D01*
X13694183Y9486900D01*
X13558945Y9460000D01*
X13421055Y9460000D01*
X13285817Y9486900D01*
X13158426Y9539668D01*
X13043775Y9616275D01*
X12946275Y9713775D01*
X12869668Y9828426D01*
X12816900Y9955817D01*
X12790000Y10091055D01*
X12790000Y10228945D01*
X12816900Y10364183D01*
X12869668Y10491574D01*
X12946275Y10606225D01*
X13043775Y10703725D01*
X13130356Y10761576D01*
X13158426Y10780332D01*
X13285817Y10833100D01*
X13421055Y10860000D01*
X13558945Y10860000D01*
X13694183Y10833100D01*
X13694183Y10833100D01*
G37*
G36*
X11044183Y10833100D02*
X11171574Y10780332D01*
X11199645Y10761576D01*
X11286225Y10703725D01*
X11383725Y10606225D01*
X11460332Y10491574D01*
X11513100Y10364183D01*
X11540000Y10228945D01*
X11540000Y10091055D01*
X11513100Y9955817D01*
X11460332Y9828426D01*
X11383725Y9713775D01*
X11286225Y9616275D01*
X11171574Y9539668D01*
X11044183Y9486900D01*
X10908945Y9460000D01*
X10771055Y9460000D01*
X10635817Y9486900D01*
X10508426Y9539668D01*
X10393775Y9616275D01*
X10296275Y9713775D01*
X10219668Y9828426D01*
X10166900Y9955817D01*
X10140000Y10091055D01*
X10140000Y10228945D01*
X10166900Y10364183D01*
X10219668Y10491574D01*
X10296275Y10606225D01*
X10393775Y10703725D01*
X10480356Y10761576D01*
X10508426Y10780332D01*
X10635817Y10833100D01*
X10771055Y10860000D01*
X10908945Y10860000D01*
X11044183Y10833100D01*
X11044183Y10833100D01*
G37*
G36*
X8170000Y9600000D02*
X7370000Y9600000D01*
X7370000Y10500000D01*
X8170000Y10500000D01*
X8170000Y9600000D01*
X8170000Y9600000D01*
G37*
G36*
X51197649Y12342283D02*
X51236827Y12338424D01*
X51312228Y12315551D01*
X51387629Y12292679D01*
X51526608Y12218392D01*
X51648422Y12118422D01*
X51748392Y11996608D01*
X51822679Y11857629D01*
X51868424Y11706826D01*
X51883870Y11550000D01*
X51868424Y11393174D01*
X51822679Y11242371D01*
X51748392Y11103392D01*
X51648422Y10981578D01*
X51526608Y10881608D01*
X51387629Y10807321D01*
X51312228Y10784449D01*
X51236827Y10761576D01*
X51197649Y10757717D01*
X51119295Y10750000D01*
X51040705Y10750000D01*
X50962351Y10757717D01*
X50923173Y10761576D01*
X50847772Y10784449D01*
X50772371Y10807321D01*
X50633392Y10881608D01*
X50511578Y10981578D01*
X50411608Y11103392D01*
X50337321Y11242371D01*
X50291576Y11393174D01*
X50276130Y11550000D01*
X50291576Y11706826D01*
X50337321Y11857629D01*
X50411608Y11996608D01*
X50511578Y12118422D01*
X50633392Y12218392D01*
X50772371Y12292679D01*
X50847772Y12315551D01*
X50923173Y12338424D01*
X50962351Y12342283D01*
X51040705Y12350000D01*
X51119295Y12350000D01*
X51197649Y12342283D01*
X51197649Y12342283D01*
G37*
G36*
X43577649Y12342283D02*
X43616827Y12338424D01*
X43692228Y12315551D01*
X43767629Y12292679D01*
X43906608Y12218392D01*
X44028422Y12118422D01*
X44128392Y11996608D01*
X44202679Y11857629D01*
X44248424Y11706826D01*
X44263870Y11550000D01*
X44248424Y11393174D01*
X44202679Y11242371D01*
X44128392Y11103392D01*
X44028422Y10981578D01*
X43906608Y10881608D01*
X43767629Y10807321D01*
X43692228Y10784449D01*
X43616827Y10761576D01*
X43577649Y10757717D01*
X43499295Y10750000D01*
X43420705Y10750000D01*
X43342351Y10757717D01*
X43303173Y10761576D01*
X43227772Y10784449D01*
X43152371Y10807321D01*
X43013392Y10881608D01*
X42891578Y10981578D01*
X42791608Y11103392D01*
X42717321Y11242371D01*
X42671576Y11393174D01*
X42656130Y11550000D01*
X42671576Y11706826D01*
X42717321Y11857629D01*
X42791608Y11996608D01*
X42891578Y12118422D01*
X43013392Y12218392D01*
X43152371Y12292679D01*
X43227772Y12315551D01*
X43303173Y12338424D01*
X43342351Y12342283D01*
X43420705Y12350000D01*
X43499295Y12350000D01*
X43577649Y12342283D01*
X43577649Y12342283D01*
G37*
G36*
X47540000Y10800000D02*
X47140000Y10800000D01*
X47140000Y11600000D01*
X47540000Y11600000D01*
X47540000Y10800000D01*
X47540000Y10800000D01*
G37*
G36*
X48340000Y10800000D02*
X47940000Y10800000D01*
X47940000Y11600000D01*
X48340000Y11600000D01*
X48340000Y10800000D01*
X48340000Y10800000D01*
G37*
G36*
X46790000Y10800000D02*
X46290000Y10800000D01*
X46290000Y11600000D01*
X46790000Y11600000D01*
X46790000Y10800000D01*
X46790000Y10800000D01*
G37*
G36*
X49190000Y10800000D02*
X48690000Y10800000D01*
X48690000Y11600000D01*
X49190000Y11600000D01*
X49190000Y10800000D01*
X49190000Y10800000D01*
G37*
G36*
X87676630Y12717701D02*
X87836855Y12669097D01*
X87984520Y12590169D01*
X88113949Y12483949D01*
X88220169Y12354520D01*
X88299097Y12206855D01*
X88347701Y12046630D01*
X88364112Y11880000D01*
X88347701Y11713370D01*
X88299097Y11553145D01*
X88220169Y11405480D01*
X88113949Y11276051D01*
X87984520Y11169831D01*
X87836855Y11090903D01*
X87676630Y11042299D01*
X87551752Y11030000D01*
X87468248Y11030000D01*
X87343370Y11042299D01*
X87183145Y11090903D01*
X87035480Y11169831D01*
X86906051Y11276051D01*
X86799831Y11405480D01*
X86720903Y11553145D01*
X86672299Y11713370D01*
X86655888Y11880000D01*
X86672299Y12046630D01*
X86720903Y12206855D01*
X86799831Y12354520D01*
X86906051Y12483949D01*
X87035480Y12590169D01*
X87183145Y12669097D01*
X87343370Y12717701D01*
X87468248Y12730000D01*
X87551752Y12730000D01*
X87676630Y12717701D01*
X87676630Y12717701D01*
G37*
G36*
X85136630Y12717701D02*
X85296855Y12669097D01*
X85444520Y12590169D01*
X85573949Y12483949D01*
X85680169Y12354520D01*
X85759097Y12206855D01*
X85807701Y12046630D01*
X85824112Y11880000D01*
X85807701Y11713370D01*
X85759097Y11553145D01*
X85680169Y11405480D01*
X85573949Y11276051D01*
X85444520Y11169831D01*
X85296855Y11090903D01*
X85136630Y11042299D01*
X85011752Y11030000D01*
X84928248Y11030000D01*
X84803370Y11042299D01*
X84643145Y11090903D01*
X84495480Y11169831D01*
X84366051Y11276051D01*
X84259831Y11405480D01*
X84180903Y11553145D01*
X84132299Y11713370D01*
X84115888Y11880000D01*
X84132299Y12046630D01*
X84180903Y12206855D01*
X84259831Y12354520D01*
X84366051Y12483949D01*
X84495480Y12590169D01*
X84643145Y12669097D01*
X84803370Y12717701D01*
X84928248Y12730000D01*
X85011752Y12730000D01*
X85136630Y12717701D01*
X85136630Y12717701D01*
G37*
G36*
X83280000Y11030000D02*
X81580000Y11030000D01*
X81580000Y12730000D01*
X83280000Y12730000D01*
X83280000Y11030000D01*
X83280000Y11030000D01*
G37*
G36*
X14190000Y11950000D02*
X12790000Y11950000D01*
X12790000Y13350000D01*
X14190000Y13350000D01*
X14190000Y11950000D01*
X14190000Y11950000D01*
G37*
G36*
X11044183Y13333100D02*
X11171574Y13280332D01*
X11286225Y13203725D01*
X11383725Y13106225D01*
X11460332Y12991574D01*
X11513100Y12864183D01*
X11540000Y12728945D01*
X11540000Y12591055D01*
X11513100Y12455817D01*
X11460332Y12328426D01*
X11383725Y12213775D01*
X11286225Y12116275D01*
X11171574Y12039668D01*
X11044183Y11986900D01*
X10908945Y11960000D01*
X10771055Y11960000D01*
X10635817Y11986900D01*
X10508426Y12039668D01*
X10393775Y12116275D01*
X10296275Y12213775D01*
X10219668Y12328426D01*
X10166900Y12455817D01*
X10140000Y12591055D01*
X10140000Y12728945D01*
X10166900Y12864183D01*
X10219668Y12991574D01*
X10296275Y13106225D01*
X10393775Y13203725D01*
X10508426Y13280332D01*
X10635817Y13333100D01*
X10771055Y13360000D01*
X10908945Y13360000D01*
X11044183Y13333100D01*
X11044183Y13333100D01*
G37*
G36*
X49190000Y12600000D02*
X48690000Y12600000D01*
X48690000Y13400000D01*
X49190000Y13400000D01*
X49190000Y12600000D01*
X49190000Y12600000D01*
G37*
G36*
X47540000Y12600000D02*
X47140000Y12600000D01*
X47140000Y13400000D01*
X47540000Y13400000D01*
X47540000Y12600000D01*
X47540000Y12600000D01*
G37*
G36*
X48340000Y12600000D02*
X47940000Y12600000D01*
X47940000Y13400000D01*
X48340000Y13400000D01*
X48340000Y12600000D01*
X48340000Y12600000D01*
G37*
G36*
X46790000Y12600000D02*
X46290000Y12600000D01*
X46290000Y13400000D01*
X46790000Y13400000D01*
X46790000Y12600000D01*
X46790000Y12600000D01*
G37*
G36*
X38062866Y12610000D02*
X37322866Y12610000D01*
X37322866Y14050000D01*
X38062866Y14050000D01*
X38062866Y12610000D01*
X38062866Y12610000D01*
G37*
G36*
X35412866Y13190000D02*
X34612866Y13190000D01*
X34612866Y14090000D01*
X35412866Y14090000D01*
X35412866Y13190000D01*
X35412866Y13190000D01*
G37*
G36*
X83160000Y13280000D02*
X82360000Y13280000D01*
X82360000Y14180000D01*
X83160000Y14180000D01*
X83160000Y13280000D01*
X83160000Y13280000D01*
G37*
G36*
X85890000Y13280000D02*
X85090000Y13280000D01*
X85090000Y14180000D01*
X85890000Y14180000D01*
X85890000Y13280000D01*
X85890000Y13280000D01*
G37*
G36*
X84530000Y13280000D02*
X83730000Y13280000D01*
X83730000Y14180000D01*
X84530000Y14180000D01*
X84530000Y13280000D01*
X84530000Y13280000D01*
G37*
G36*
X51197649Y14882283D02*
X51236827Y14878424D01*
X51312228Y14855551D01*
X51387629Y14832679D01*
X51526608Y14758392D01*
X51648422Y14658422D01*
X51748392Y14536608D01*
X51822679Y14397629D01*
X51868424Y14246826D01*
X51883870Y14090000D01*
X51868424Y13933174D01*
X51822679Y13782371D01*
X51748392Y13643392D01*
X51648422Y13521578D01*
X51526608Y13421608D01*
X51387629Y13347321D01*
X51312228Y13324449D01*
X51236827Y13301576D01*
X51197649Y13297717D01*
X51119295Y13290000D01*
X51040705Y13290000D01*
X50962351Y13297717D01*
X50923173Y13301576D01*
X50847772Y13324449D01*
X50772371Y13347321D01*
X50633392Y13421608D01*
X50511578Y13521578D01*
X50411608Y13643392D01*
X50337321Y13782371D01*
X50291576Y13933174D01*
X50276130Y14090000D01*
X50291576Y14246826D01*
X50337321Y14397629D01*
X50411608Y14536608D01*
X50511578Y14658422D01*
X50633392Y14758392D01*
X50772371Y14832679D01*
X50847772Y14855551D01*
X50923173Y14878424D01*
X50962351Y14882283D01*
X51040705Y14890000D01*
X51119295Y14890000D01*
X51197649Y14882283D01*
X51197649Y14882283D01*
G37*
G36*
X43577649Y14882283D02*
X43616827Y14878424D01*
X43692228Y14855551D01*
X43767629Y14832679D01*
X43906608Y14758392D01*
X44028422Y14658422D01*
X44128392Y14536608D01*
X44202679Y14397629D01*
X44248424Y14246826D01*
X44263870Y14090000D01*
X44248424Y13933174D01*
X44202679Y13782371D01*
X44128392Y13643392D01*
X44028422Y13521578D01*
X43906608Y13421608D01*
X43767629Y13347321D01*
X43692228Y13324449D01*
X43616827Y13301576D01*
X43577649Y13297717D01*
X43499295Y13290000D01*
X43420705Y13290000D01*
X43342351Y13297717D01*
X43303173Y13301576D01*
X43227772Y13324449D01*
X43152371Y13347321D01*
X43013392Y13421608D01*
X42891578Y13521578D01*
X42791608Y13643392D01*
X42717321Y13782371D01*
X42671576Y13933174D01*
X42656130Y14090000D01*
X42671576Y14246826D01*
X42717321Y14397629D01*
X42791608Y14536608D01*
X42891578Y14658422D01*
X43013392Y14758392D01*
X43152371Y14832679D01*
X43227772Y14855551D01*
X43303173Y14878424D01*
X43342351Y14882283D01*
X43420705Y14890000D01*
X43499295Y14890000D01*
X43577649Y14882283D01*
X43577649Y14882283D01*
G37*
G36*
X13896950Y17242283D02*
X14053655Y17226849D01*
X14254722Y17165856D01*
X14355257Y17135359D01*
X14465175Y17076606D01*
X14633213Y16986788D01*
X14876845Y16786845D01*
X15076788Y16543213D01*
X15114225Y16473173D01*
X15225359Y16265257D01*
X15225359Y16265256D01*
X15316849Y15963655D01*
X15347741Y15650000D01*
X15316849Y15336345D01*
X15255856Y15135278D01*
X15225359Y15034743D01*
X15201443Y14990000D01*
X15076788Y14756787D01*
X14876845Y14513155D01*
X14633213Y14313212D01*
X14509015Y14246827D01*
X14355257Y14164641D01*
X14254722Y14134144D01*
X14053655Y14073151D01*
X13896950Y14057717D01*
X13818598Y14050000D01*
X13161402Y14050000D01*
X13083050Y14057717D01*
X12926345Y14073151D01*
X12725278Y14134144D01*
X12624743Y14164641D01*
X12470985Y14246827D01*
X12346787Y14313212D01*
X12103155Y14513155D01*
X11903212Y14756787D01*
X11778557Y14990000D01*
X11754641Y15034743D01*
X11724144Y15135278D01*
X11663151Y15336345D01*
X11632259Y15650000D01*
X11663151Y15963655D01*
X11754641Y16265256D01*
X11754641Y16265257D01*
X11865775Y16473173D01*
X11903212Y16543213D01*
X12103155Y16786845D01*
X12346787Y16986788D01*
X12514825Y17076606D01*
X12624743Y17135359D01*
X12725278Y17165856D01*
X12926345Y17226849D01*
X13083050Y17242283D01*
X13161402Y17250000D01*
X13818598Y17250000D01*
X13896950Y17242283D01*
X13896950Y17242283D01*
G37*
G36*
X8246950Y17252283D02*
X8403655Y17236849D01*
X8530331Y17198422D01*
X8705257Y17145359D01*
X8833880Y17076608D01*
X8983213Y16996788D01*
X9226845Y16796845D01*
X9426788Y16553213D01*
X9432133Y16543213D01*
X9575359Y16275257D01*
X9603225Y16183394D01*
X9666849Y15973655D01*
X9697741Y15660000D01*
X9666849Y15346345D01*
X9658857Y15320000D01*
X9575359Y15044743D01*
X9546098Y14990000D01*
X9426788Y14766787D01*
X9226845Y14523155D01*
X8983213Y14323212D01*
X8964504Y14313212D01*
X8705257Y14174641D01*
X8672291Y14164641D01*
X8403655Y14083151D01*
X8302122Y14073151D01*
X8168598Y14060000D01*
X7511402Y14060000D01*
X7377878Y14073151D01*
X7276345Y14083151D01*
X7007709Y14164641D01*
X6974743Y14174641D01*
X6715496Y14313212D01*
X6696787Y14323212D01*
X6453155Y14523155D01*
X6253212Y14766787D01*
X6133902Y14990000D01*
X6104641Y15044743D01*
X6021143Y15320000D01*
X6013151Y15346345D01*
X5982259Y15660000D01*
X6013151Y15973655D01*
X6076775Y16183394D01*
X6104641Y16275257D01*
X6247867Y16543213D01*
X6253212Y16553213D01*
X6453155Y16796845D01*
X6696787Y16996788D01*
X6846120Y17076608D01*
X6974743Y17145359D01*
X7149669Y17198422D01*
X7276345Y17236849D01*
X7433050Y17252283D01*
X7511402Y17260000D01*
X8168598Y17260000D01*
X8246950Y17252283D01*
X8246950Y17252283D01*
G37*
G36*
X39012866Y14710000D02*
X38272866Y14710000D01*
X38272866Y16150000D01*
X39012866Y16150000D01*
X39012866Y14710000D01*
X39012866Y14710000D01*
G37*
G36*
X37112866Y14710000D02*
X36372866Y14710000D01*
X36372866Y16150000D01*
X37112866Y16150000D01*
X37112866Y14710000D01*
X37112866Y14710000D01*
G37*
G36*
X35412866Y14990000D02*
X34612866Y14990000D01*
X34612866Y15890000D01*
X35412866Y15890000D01*
X35412866Y14990000D01*
X35412866Y14990000D01*
G37*
G36*
X85890000Y15080000D02*
X85090000Y15080000D01*
X85090000Y15980000D01*
X85890000Y15980000D01*
X85890000Y15080000D01*
X85890000Y15080000D01*
G37*
G36*
X84530000Y15080000D02*
X83730000Y15080000D01*
X83730000Y15980000D01*
X84530000Y15980000D01*
X84530000Y15080000D01*
X84530000Y15080000D01*
G37*
G36*
X83160000Y15080000D02*
X82360000Y15080000D01*
X82360000Y15980000D01*
X83160000Y15980000D01*
X83160000Y15080000D01*
X83160000Y15080000D01*
G37*
G36*
X64790000Y15320000D02*
X63890000Y15320000D01*
X63890000Y16120000D01*
X64790000Y16120000D01*
X64790000Y15320000D01*
X64790000Y15320000D01*
G37*
G36*
X62990000Y15320000D02*
X62090000Y15320000D01*
X62090000Y16120000D01*
X62990000Y16120000D01*
X62990000Y15320000D01*
X62990000Y15320000D01*
G37*
G36*
X43693352Y17399257D02*
X43838941Y17338952D01*
X43969973Y17251399D01*
X44081399Y17139973D01*
X44168952Y17008941D01*
X44229257Y16863352D01*
X44260000Y16708795D01*
X44260000Y16551205D01*
X44229257Y16396648D01*
X44168952Y16251059D01*
X44081399Y16120027D01*
X43969973Y16008601D01*
X43838941Y15921048D01*
X43693352Y15860743D01*
X43538795Y15830000D01*
X43381205Y15830000D01*
X43226648Y15860743D01*
X43081059Y15921048D01*
X42950027Y16008601D01*
X42838601Y16120027D01*
X42751048Y16251059D01*
X42690743Y16396648D01*
X42660000Y16551205D01*
X42660000Y16708795D01*
X42690743Y16863352D01*
X42751048Y17008941D01*
X42838601Y17139973D01*
X42950027Y17251399D01*
X43081059Y17338952D01*
X43226648Y17399257D01*
X43381205Y17430000D01*
X43538795Y17430000D01*
X43693352Y17399257D01*
X43693352Y17399257D01*
G37*
G36*
X51197649Y17422283D02*
X51236827Y17418424D01*
X51300012Y17399257D01*
X51387629Y17372679D01*
X51526608Y17298392D01*
X51648422Y17198422D01*
X51748392Y17076608D01*
X51822679Y16937629D01*
X51822679Y16937628D01*
X51868419Y16786845D01*
X51868424Y16786826D01*
X51883870Y16630000D01*
X51868424Y16473174D01*
X51822679Y16322371D01*
X51748392Y16183392D01*
X51648422Y16061578D01*
X51526608Y15961608D01*
X51387629Y15887321D01*
X51312227Y15864448D01*
X51236827Y15841576D01*
X51197649Y15837717D01*
X51119295Y15830000D01*
X51040705Y15830000D01*
X50962351Y15837717D01*
X50923173Y15841576D01*
X50847773Y15864448D01*
X50772371Y15887321D01*
X50633392Y15961608D01*
X50511578Y16061578D01*
X50411608Y16183392D01*
X50337321Y16322371D01*
X50291576Y16473174D01*
X50276130Y16630000D01*
X50291576Y16786826D01*
X50291582Y16786845D01*
X50337321Y16937628D01*
X50337321Y16937629D01*
X50411608Y17076608D01*
X50511578Y17198422D01*
X50633392Y17298392D01*
X50772371Y17372679D01*
X50859988Y17399257D01*
X50923173Y17418424D01*
X50962351Y17422283D01*
X51040705Y17430000D01*
X51119295Y17430000D01*
X51197649Y17422283D01*
X51197649Y17422283D01*
G37*
G36*
X71800000Y16570000D02*
X70900000Y16570000D01*
X70900000Y17370000D01*
X71800000Y17370000D01*
X71800000Y16570000D01*
X71800000Y16570000D01*
G37*
G36*
X73600000Y16570000D02*
X72700000Y16570000D01*
X72700000Y17370000D01*
X73600000Y17370000D01*
X73600000Y16570000D01*
X73600000Y16570000D01*
G37*
G36*
X64800000Y16680000D02*
X63900000Y16680000D01*
X63900000Y17480000D01*
X64800000Y17480000D01*
X64800000Y16680000D01*
X64800000Y16680000D01*
G37*
G36*
X63000000Y16680000D02*
X62100000Y16680000D01*
X62100000Y17480000D01*
X63000000Y17480000D01*
X63000000Y16680000D01*
X63000000Y16680000D01*
G37*
G36*
X14263199Y21241066D02*
X14407534Y21212356D01*
X14680517Y21099283D01*
X14811879Y21011509D01*
X14926197Y20935124D01*
X15135124Y20726197D01*
X15135126Y20726194D01*
X15273456Y20519170D01*
X15299284Y20480515D01*
X15302590Y20472534D01*
X15412356Y20207534D01*
X15470000Y19917737D01*
X15470000Y19622263D01*
X15412356Y19332466D01*
X15299283Y19059483D01*
X15137313Y18817080D01*
X15135124Y18813803D01*
X14926197Y18604876D01*
X14926194Y18604874D01*
X14680517Y18440717D01*
X14407534Y18327644D01*
X14310935Y18308429D01*
X14117739Y18270000D01*
X13822261Y18270000D01*
X13629065Y18308429D01*
X13532466Y18327644D01*
X13259483Y18440717D01*
X13013806Y18604874D01*
X13013803Y18604876D01*
X12804876Y18813803D01*
X12802687Y18817080D01*
X12640717Y19059483D01*
X12527644Y19332466D01*
X12470000Y19622263D01*
X12470000Y19917737D01*
X12527644Y20207534D01*
X12637410Y20472534D01*
X12640716Y20480515D01*
X12666545Y20519170D01*
X12804874Y20726194D01*
X12804876Y20726197D01*
X13013803Y20935124D01*
X13128121Y21011509D01*
X13259483Y21099283D01*
X13532466Y21212356D01*
X13676801Y21241066D01*
X13822261Y21270000D01*
X14117739Y21270000D01*
X14263199Y21241066D01*
X14263199Y21241066D01*
G37*
G36*
X85480000Y18885000D02*
X64280000Y18885000D01*
X64280000Y20885000D01*
X85480000Y20885000D01*
X85480000Y18885000D01*
X85480000Y18885000D01*
G37*
G36*
X58457766Y19590000D02*
X57717766Y19590000D01*
X57717766Y21030000D01*
X58457766Y21030000D01*
X58457766Y19590000D01*
X58457766Y19590000D01*
G37*
G36*
X54567766Y19600000D02*
X53827766Y19600000D01*
X53827766Y21040000D01*
X54567766Y21040000D01*
X54567766Y19600000D01*
X54567766Y19600000D01*
G37*
G36*
X6145770Y22094628D02*
X6261689Y22071571D01*
X6443678Y21996189D01*
X6607463Y21886751D01*
X6746751Y21747463D01*
X6856189Y21583678D01*
X6931571Y21401689D01*
X6954628Y21285770D01*
X6970000Y21208493D01*
X6970000Y21011507D01*
X6958648Y20954437D01*
X6931571Y20818311D01*
X6856189Y20636322D01*
X6746751Y20472537D01*
X6607463Y20333249D01*
X6443678Y20223811D01*
X6261689Y20148429D01*
X6145770Y20125372D01*
X6068493Y20110000D01*
X5871507Y20110000D01*
X5794230Y20125372D01*
X5678311Y20148429D01*
X5496322Y20223811D01*
X5332537Y20333249D01*
X5193249Y20472537D01*
X5083811Y20636322D01*
X5008429Y20818311D01*
X4981352Y20954437D01*
X4970000Y21011507D01*
X4970000Y21208493D01*
X4985372Y21285770D01*
X5008429Y21401689D01*
X5083811Y21583678D01*
X5193249Y21747463D01*
X5332537Y21886751D01*
X5496322Y21996189D01*
X5678311Y22071571D01*
X5794230Y22094628D01*
X5871507Y22110000D01*
X6068493Y22110000D01*
X6145770Y22094628D01*
X6145770Y22094628D01*
G37*
G36*
X11380456Y23752749D02*
X11698936Y23620830D01*
X11985560Y23429314D01*
X12229314Y23185560D01*
X12420830Y22898936D01*
X12552749Y22580456D01*
X12620000Y22242360D01*
X12620000Y21897640D01*
X12552749Y21559544D01*
X12420830Y21241064D01*
X12229314Y20954440D01*
X11985560Y20710686D01*
X11698936Y20519170D01*
X11380456Y20387251D01*
X11042360Y20320000D01*
X10697640Y20320000D01*
X10359544Y20387251D01*
X10041064Y20519170D01*
X9754440Y20710686D01*
X9510686Y20954440D01*
X9319170Y21241064D01*
X9187251Y21559544D01*
X9120000Y21897640D01*
X9120000Y22242360D01*
X9187251Y22580456D01*
X9319170Y22898936D01*
X9510686Y23185560D01*
X9754440Y23429314D01*
X10041064Y23620830D01*
X10359544Y23752749D01*
X10697640Y23820000D01*
X11042360Y23820000D01*
X11380456Y23752749D01*
X11380456Y23752749D01*
G37*
G36*
X59407766Y21690000D02*
X58667766Y21690000D01*
X58667766Y23130000D01*
X59407766Y23130000D01*
X59407766Y21690000D01*
X59407766Y21690000D01*
G37*
G36*
X57507766Y21690000D02*
X56767766Y21690000D01*
X56767766Y23130000D01*
X57507766Y23130000D01*
X57507766Y21690000D01*
X57507766Y21690000D01*
G37*
G36*
X53617766Y21700000D02*
X52877766Y21700000D01*
X52877766Y23140000D01*
X53617766Y23140000D01*
X53617766Y21700000D01*
X53617766Y21700000D01*
G37*
G36*
X55517766Y21700000D02*
X54777766Y21700000D01*
X54777766Y23140000D01*
X55517766Y23140000D01*
X55517766Y21700000D01*
X55517766Y21700000D01*
G37*
G36*
X19915099Y24426751D02*
X20041689Y24401571D01*
X20223678Y24326189D01*
X20387463Y24216751D01*
X20526751Y24077463D01*
X20636189Y23913678D01*
X20711571Y23731689D01*
X20750000Y23538491D01*
X20750000Y23341509D01*
X20711571Y23148311D01*
X20636189Y22966322D01*
X20526751Y22802537D01*
X20387463Y22663249D01*
X20223678Y22553811D01*
X20041689Y22478429D01*
X19925770Y22455372D01*
X19848493Y22440000D01*
X19651507Y22440000D01*
X19574230Y22455372D01*
X19458311Y22478429D01*
X19276322Y22553811D01*
X19112537Y22663249D01*
X18973249Y22802537D01*
X18863811Y22966322D01*
X18788429Y23148311D01*
X18750000Y23341509D01*
X18750000Y23538491D01*
X18788429Y23731689D01*
X18863811Y23913678D01*
X18973249Y24077463D01*
X19112537Y24216751D01*
X19276322Y24326189D01*
X19458311Y24401571D01*
X19584901Y24426751D01*
X19651507Y24440000D01*
X19848493Y24440000D01*
X19915099Y24426751D01*
X19915099Y24426751D01*
G37*
G36*
X41040000Y22470000D02*
X40240000Y22470000D01*
X40240000Y23370000D01*
X41040000Y23370000D01*
X41040000Y22470000D01*
X41040000Y22470000D01*
G37*
G36*
X6145770Y24634628D02*
X6261689Y24611571D01*
X6443678Y24536189D01*
X6607463Y24426751D01*
X6746751Y24287463D01*
X6856189Y24123678D01*
X6931571Y23941689D01*
X6937143Y23913675D01*
X6969154Y23752748D01*
X6970000Y23748491D01*
X6970000Y23551509D01*
X6931571Y23358311D01*
X6856189Y23176322D01*
X6746751Y23012537D01*
X6607463Y22873249D01*
X6443678Y22763811D01*
X6261689Y22688429D01*
X6145770Y22665372D01*
X6068493Y22650000D01*
X5871507Y22650000D01*
X5794230Y22665372D01*
X5678311Y22688429D01*
X5496322Y22763811D01*
X5332537Y22873249D01*
X5193249Y23012537D01*
X5083811Y23176322D01*
X5008429Y23358311D01*
X4970000Y23551509D01*
X4970000Y23748491D01*
X4970847Y23752748D01*
X5002857Y23913675D01*
X5008429Y23941689D01*
X5083811Y24123678D01*
X5193249Y24287463D01*
X5332537Y24426751D01*
X5496322Y24536189D01*
X5678311Y24611571D01*
X5794230Y24634628D01*
X5871507Y24650000D01*
X6068493Y24650000D01*
X6145770Y24634628D01*
X6145770Y24634628D01*
G37*
G36*
X42735000Y23480000D02*
X41685000Y23480000D01*
X41685000Y24780000D01*
X42735000Y24780000D01*
X42735000Y23480000D01*
X42735000Y23480000D01*
G37*
G36*
X59507766Y23550000D02*
X58607766Y23550000D01*
X58607766Y24350000D01*
X59507766Y24350000D01*
X59507766Y23550000D01*
X59507766Y23550000D01*
G37*
G36*
X55547766Y23550000D02*
X54647766Y23550000D01*
X54647766Y24350000D01*
X55547766Y24350000D01*
X55547766Y23550000D01*
X55547766Y23550000D01*
G37*
G36*
X57707766Y23550000D02*
X56807766Y23550000D01*
X56807766Y24350000D01*
X57707766Y24350000D01*
X57707766Y23550000D01*
X57707766Y23550000D01*
G37*
G36*
X53747766Y23550000D02*
X52847766Y23550000D01*
X52847766Y24350000D01*
X53747766Y24350000D01*
X53747766Y23550000D01*
X53747766Y23550000D01*
G37*
G36*
X17385770Y25694628D02*
X17501689Y25671571D01*
X17683678Y25596189D01*
X17847463Y25486751D01*
X17986751Y25347463D01*
X18096189Y25183678D01*
X18171571Y25001689D01*
X18210000Y24808491D01*
X18210000Y24611509D01*
X18171571Y24418311D01*
X18096189Y24236322D01*
X17986751Y24072537D01*
X17847463Y23933249D01*
X17683678Y23823811D01*
X17501689Y23748429D01*
X17385770Y23725372D01*
X17308493Y23710000D01*
X17111507Y23710000D01*
X17034230Y23725372D01*
X16918311Y23748429D01*
X16736322Y23823811D01*
X16572537Y23933249D01*
X16433249Y24072537D01*
X16323811Y24236322D01*
X16248429Y24418311D01*
X16210000Y24611509D01*
X16210000Y24808491D01*
X16248429Y25001689D01*
X16323811Y25183678D01*
X16433249Y25347463D01*
X16572537Y25486751D01*
X16736322Y25596189D01*
X16918311Y25671571D01*
X17034230Y25694628D01*
X17111507Y25710000D01*
X17308493Y25710000D01*
X17385770Y25694628D01*
X17385770Y25694628D01*
G37*
G36*
X41040000Y24270000D02*
X40240000Y24270000D01*
X40240000Y25170000D01*
X41040000Y25170000D01*
X41040000Y24270000D01*
X41040000Y24270000D01*
G37*
G36*
X19925770Y26964628D02*
X20041689Y26941571D01*
X20223678Y26866189D01*
X20387463Y26756751D01*
X20526751Y26617463D01*
X20636189Y26453678D01*
X20711571Y26271689D01*
X20750000Y26078491D01*
X20750000Y25881509D01*
X20711571Y25688311D01*
X20636189Y25506322D01*
X20526751Y25342537D01*
X20387463Y25203249D01*
X20223678Y25093811D01*
X20041689Y25018429D01*
X19925770Y24995372D01*
X19848493Y24980000D01*
X19651507Y24980000D01*
X19574230Y24995372D01*
X19458311Y25018429D01*
X19276322Y25093811D01*
X19112537Y25203249D01*
X18973249Y25342537D01*
X18863811Y25506322D01*
X18788429Y25688311D01*
X18750000Y25881509D01*
X18750000Y26078491D01*
X18788429Y26271689D01*
X18863811Y26453678D01*
X18973249Y26617463D01*
X19112537Y26756751D01*
X19276322Y26866189D01*
X19458311Y26941571D01*
X19574230Y26964628D01*
X19651507Y26980000D01*
X19848493Y26980000D01*
X19925770Y26964628D01*
X19925770Y26964628D01*
G37*
G36*
X41050000Y25700000D02*
X40250000Y25700000D01*
X40250000Y26600000D01*
X41050000Y26600000D01*
X41050000Y25700000D01*
X41050000Y25700000D01*
G37*
G36*
X47286630Y27567701D02*
X47446855Y27519097D01*
X47594520Y27440169D01*
X47723949Y27333949D01*
X47830169Y27204520D01*
X47909097Y27056855D01*
X47957701Y26896630D01*
X47974112Y26730000D01*
X47957701Y26563370D01*
X47909097Y26403145D01*
X47830169Y26255480D01*
X47723949Y26126051D01*
X47594520Y26019831D01*
X47446855Y25940903D01*
X47286630Y25892299D01*
X47161752Y25880000D01*
X47078248Y25880000D01*
X46953370Y25892299D01*
X46793145Y25940903D01*
X46645480Y26019831D01*
X46516051Y26126051D01*
X46409831Y26255480D01*
X46330903Y26403145D01*
X46282299Y26563370D01*
X46265888Y26730000D01*
X46282299Y26896630D01*
X46330903Y27056855D01*
X46409831Y27204520D01*
X46516051Y27333949D01*
X46645480Y27440169D01*
X46793145Y27519097D01*
X46953370Y27567701D01*
X47078248Y27580000D01*
X47161752Y27580000D01*
X47286630Y27567701D01*
X47286630Y27567701D01*
G37*
G36*
X42735000Y26180000D02*
X41685000Y26180000D01*
X41685000Y27480000D01*
X42735000Y27480000D01*
X42735000Y26180000D01*
X42735000Y26180000D01*
G37*
G36*
X17385770Y28234628D02*
X17501689Y28211571D01*
X17683678Y28136189D01*
X17847463Y28026751D01*
X17986751Y27887463D01*
X18096189Y27723678D01*
X18171571Y27541689D01*
X18210000Y27348491D01*
X18210000Y27151509D01*
X18171571Y26958311D01*
X18096189Y26776322D01*
X17986751Y26612537D01*
X17847463Y26473249D01*
X17683678Y26363811D01*
X17501689Y26288429D01*
X17385770Y26265372D01*
X17308493Y26250000D01*
X17111507Y26250000D01*
X17034230Y26265372D01*
X16918311Y26288429D01*
X16736322Y26363811D01*
X16572537Y26473249D01*
X16433249Y26612537D01*
X16323811Y26776322D01*
X16248429Y26958311D01*
X16210000Y27151509D01*
X16210000Y27348491D01*
X16248429Y27541689D01*
X16323811Y27723678D01*
X16433249Y27887463D01*
X16572537Y28026751D01*
X16736322Y28136189D01*
X16918311Y28211571D01*
X17034230Y28234628D01*
X17111507Y28250000D01*
X17308493Y28250000D01*
X17385770Y28234628D01*
X17385770Y28234628D01*
G37*
G36*
X12050000Y26690000D02*
X11250000Y26690000D01*
X11250000Y27590000D01*
X12050000Y27590000D01*
X12050000Y26690000D01*
X12050000Y26690000D01*
G37*
G36*
X10690000Y26690000D02*
X9890000Y26690000D01*
X9890000Y27590000D01*
X10690000Y27590000D01*
X10690000Y26690000D01*
X10690000Y26690000D01*
G37*
G36*
X13400000Y26700000D02*
X12600000Y26700000D01*
X12600000Y27600000D01*
X13400000Y27600000D01*
X13400000Y26700000D01*
X13400000Y26700000D01*
G37*
G36*
X41050000Y27500000D02*
X40250000Y27500000D01*
X40250000Y28400000D01*
X41050000Y28400000D01*
X41050000Y27500000D01*
X41050000Y27500000D01*
G37*
G36*
X19925770Y29504628D02*
X20041689Y29481571D01*
X20223678Y29406189D01*
X20387463Y29296751D01*
X20526751Y29157463D01*
X20636189Y28993678D01*
X20711571Y28811689D01*
X20750000Y28618491D01*
X20750000Y28421509D01*
X20711571Y28228311D01*
X20636189Y28046322D01*
X20526751Y27882537D01*
X20387463Y27743249D01*
X20223678Y27633811D01*
X20041689Y27558429D01*
X19925770Y27535372D01*
X19848493Y27520000D01*
X19651507Y27520000D01*
X19574230Y27535372D01*
X19458311Y27558429D01*
X19276322Y27633811D01*
X19112537Y27743249D01*
X18973249Y27882537D01*
X18863811Y28046322D01*
X18788429Y28228311D01*
X18750000Y28421509D01*
X18750000Y28618491D01*
X18788429Y28811689D01*
X18863811Y28993678D01*
X18973249Y29157463D01*
X19112537Y29296751D01*
X19276322Y29406189D01*
X19458311Y29481571D01*
X19574230Y29504628D01*
X19651507Y29520000D01*
X19848493Y29520000D01*
X19925770Y29504628D01*
X19925770Y29504628D01*
G37*
G36*
X47970000Y28420000D02*
X46270000Y28420000D01*
X46270000Y30120000D01*
X47970000Y30120000D01*
X47970000Y28420000D01*
X47970000Y28420000D01*
G37*
G36*
X10690000Y28490000D02*
X9890000Y28490000D01*
X9890000Y29390000D01*
X10690000Y29390000D01*
X10690000Y28490000D01*
X10690000Y28490000D01*
G37*
G36*
X12050000Y28490000D02*
X11250000Y28490000D01*
X11250000Y29390000D01*
X12050000Y29390000D01*
X12050000Y28490000D01*
X12050000Y28490000D01*
G37*
G36*
X13400000Y28500000D02*
X12600000Y28500000D01*
X12600000Y29400000D01*
X13400000Y29400000D01*
X13400000Y28500000D01*
X13400000Y28500000D01*
G37*
G36*
X17385770Y30774628D02*
X17501689Y30751571D01*
X17683678Y30676189D01*
X17847463Y30566751D01*
X17986751Y30427463D01*
X18096189Y30263678D01*
X18171571Y30081689D01*
X18210000Y29888491D01*
X18210000Y29691509D01*
X18171571Y29498311D01*
X18096189Y29316322D01*
X17986751Y29152537D01*
X17847463Y29013249D01*
X17683678Y28903811D01*
X17501689Y28828429D01*
X17385770Y28805372D01*
X17308493Y28790000D01*
X17111507Y28790000D01*
X17034230Y28805372D01*
X16918311Y28828429D01*
X16736322Y28903811D01*
X16572537Y29013249D01*
X16433249Y29152537D01*
X16323811Y29316322D01*
X16248429Y29498311D01*
X16210000Y29691509D01*
X16210000Y29888491D01*
X16248429Y30081689D01*
X16323811Y30263678D01*
X16433249Y30427463D01*
X16572537Y30566751D01*
X16736322Y30676189D01*
X16918311Y30751571D01*
X17034230Y30774628D01*
X17111507Y30790000D01*
X17308493Y30790000D01*
X17385770Y30774628D01*
X17385770Y30774628D01*
G37*
G36*
X19925770Y32044628D02*
X20041689Y32021571D01*
X20223678Y31946189D01*
X20387463Y31836751D01*
X20526751Y31697463D01*
X20636189Y31533678D01*
X20711571Y31351689D01*
X20715885Y31330000D01*
X20750000Y31158493D01*
X20750000Y30961507D01*
X20734628Y30884230D01*
X20711571Y30768311D01*
X20636189Y30586322D01*
X20526751Y30422537D01*
X20387463Y30283249D01*
X20223678Y30173811D01*
X20041689Y30098429D01*
X19925770Y30075372D01*
X19848493Y30060000D01*
X19651507Y30060000D01*
X19574230Y30075372D01*
X19458311Y30098429D01*
X19276322Y30173811D01*
X19112537Y30283249D01*
X18973249Y30422537D01*
X18863811Y30586322D01*
X18788429Y30768311D01*
X18765372Y30884230D01*
X18750000Y30961507D01*
X18750000Y31158493D01*
X18784115Y31330000D01*
X18788429Y31351689D01*
X18863811Y31533678D01*
X18973249Y31697463D01*
X19112537Y31836751D01*
X19276322Y31946189D01*
X19458311Y32021571D01*
X19574230Y32044628D01*
X19651507Y32060000D01*
X19848493Y32060000D01*
X19925770Y32044628D01*
X19925770Y32044628D01*
G37*
G36*
X85480000Y30675000D02*
X64280000Y30675000D01*
X64280000Y32675000D01*
X85480000Y32675000D01*
X85480000Y30675000D01*
X85480000Y30675000D01*
G37*
G36*
X6145770Y32794628D02*
X6261689Y32771571D01*
X6443678Y32696189D01*
X6607463Y32586751D01*
X6746751Y32447463D01*
X6856189Y32283678D01*
X6931571Y32101689D01*
X6939863Y32060000D01*
X6962502Y31946189D01*
X6970000Y31908491D01*
X6970000Y31711509D01*
X6931571Y31518311D01*
X6856189Y31336322D01*
X6746751Y31172537D01*
X6607463Y31033249D01*
X6443678Y30923811D01*
X6261689Y30848429D01*
X6145770Y30825372D01*
X6068493Y30810000D01*
X5871507Y30810000D01*
X5794230Y30825372D01*
X5678311Y30848429D01*
X5496322Y30923811D01*
X5332537Y31033249D01*
X5193249Y31172537D01*
X5083811Y31336322D01*
X5008429Y31518311D01*
X4970000Y31711509D01*
X4970000Y31908491D01*
X4977499Y31946189D01*
X5000137Y32060000D01*
X5008429Y32101689D01*
X5083811Y32283678D01*
X5193249Y32447463D01*
X5332537Y32586751D01*
X5496322Y32696189D01*
X5678311Y32771571D01*
X5794230Y32794628D01*
X5871507Y32810000D01*
X6068493Y32810000D01*
X6145770Y32794628D01*
X6145770Y32794628D01*
G37*
G36*
X18210000Y31330000D02*
X16210000Y31330000D01*
X16210000Y33330000D01*
X18210000Y33330000D01*
X18210000Y31330000D01*
X18210000Y31330000D01*
G37*
G36*
X11380456Y35152749D02*
X11698936Y35020830D01*
X11985560Y34829314D01*
X12229314Y34585560D01*
X12420830Y34298936D01*
X12552749Y33980456D01*
X12620000Y33642360D01*
X12620000Y33297640D01*
X12552749Y32959544D01*
X12420830Y32641064D01*
X12229314Y32354440D01*
X11985560Y32110686D01*
X11698936Y31919170D01*
X11380456Y31787251D01*
X11042360Y31720000D01*
X10697640Y31720000D01*
X10359544Y31787251D01*
X10041064Y31919170D01*
X9754440Y32110686D01*
X9510686Y32354440D01*
X9319170Y32641064D01*
X9187251Y32959544D01*
X9120000Y33297640D01*
X9120000Y33642360D01*
X9187251Y33980456D01*
X9319170Y34298936D01*
X9510686Y34585560D01*
X9754440Y34829314D01*
X10041064Y35020830D01*
X10359544Y35152749D01*
X10697640Y35220000D01*
X11042360Y35220000D01*
X11380456Y35152749D01*
X11380456Y35152749D01*
G37*
G36*
X51300000Y32300000D02*
X48800000Y32300000D01*
X48800000Y34100000D01*
X51300000Y34100000D01*
X51300000Y32300000D01*
X51300000Y32300000D01*
G37*
G36*
X55300000Y32300000D02*
X52800000Y32300000D01*
X52800000Y34100000D01*
X55300000Y34100000D01*
X55300000Y32300000D01*
X55300000Y32300000D01*
G37*
G36*
X6145770Y35334628D02*
X6261689Y35311571D01*
X6443678Y35236189D01*
X6607463Y35126751D01*
X6746751Y34987463D01*
X6856189Y34823678D01*
X6931571Y34641689D01*
X6970000Y34448491D01*
X6970000Y34251509D01*
X6931571Y34058311D01*
X6856189Y33876322D01*
X6746751Y33712537D01*
X6607463Y33573249D01*
X6443678Y33463811D01*
X6261689Y33388429D01*
X6145770Y33365372D01*
X6068493Y33350000D01*
X5871507Y33350000D01*
X5794230Y33365372D01*
X5678311Y33388429D01*
X5496322Y33463811D01*
X5332537Y33573249D01*
X5193249Y33712537D01*
X5083811Y33876322D01*
X5008429Y34058311D01*
X4970000Y34251509D01*
X4970000Y34448491D01*
X5008429Y34641689D01*
X5083811Y34823678D01*
X5193249Y34987463D01*
X5332537Y35126751D01*
X5496322Y35236189D01*
X5678311Y35311571D01*
X5794230Y35334628D01*
X5871507Y35350000D01*
X6068493Y35350000D01*
X6145770Y35334628D01*
X6145770Y35334628D01*
G37*
G36*
X33400000Y33780000D02*
X32700000Y33780000D01*
X32700000Y35780000D01*
X33400000Y35780000D01*
X33400000Y33780000D01*
X33400000Y33780000D01*
G37*
G36*
X31390000Y35905000D02*
X31392402Y35880614D01*
X31399515Y35857165D01*
X31411066Y35835554D01*
X31426612Y35816612D01*
X31445554Y35801066D01*
X31467165Y35789515D01*
X31490614Y35782402D01*
X31515000Y35780000D01*
X32300000Y35780000D01*
X32300000Y33780000D01*
X31600000Y33780000D01*
X31600000Y34645000D01*
X31597598Y34669386D01*
X31590485Y34692835D01*
X31578934Y34714446D01*
X31563388Y34733388D01*
X31544446Y34748934D01*
X31522835Y34760485D01*
X31499386Y34767598D01*
X31475000Y34770000D01*
X30190000Y34770000D01*
X30190000Y36170000D01*
X31390000Y36170000D01*
X31390000Y35905000D01*
X31390000Y35905000D01*
G37*
G36*
X34500000Y33780000D02*
X33800000Y33780000D01*
X33800000Y35780000D01*
X34500000Y35780000D01*
X34500000Y33780000D01*
X34500000Y33780000D01*
G37*
G36*
X35600000Y33780000D02*
X34900000Y33780000D01*
X34900000Y35780000D01*
X35600000Y35780000D01*
X35600000Y33780000D01*
X35600000Y33780000D01*
G37*
G36*
X37800000Y33780000D02*
X37100000Y33780000D01*
X37100000Y35780000D01*
X37800000Y35780000D01*
X37800000Y33780000D01*
X37800000Y33780000D01*
G37*
G36*
X38900000Y33780000D02*
X38200000Y33780000D01*
X38200000Y35780000D01*
X38900000Y35780000D01*
X38900000Y33780000D01*
X38900000Y33780000D01*
G37*
G36*
X40000000Y33780000D02*
X39300000Y33780000D01*
X39300000Y35780000D01*
X40000000Y35780000D01*
X40000000Y33780000D01*
X40000000Y33780000D01*
G37*
G36*
X41100000Y33780000D02*
X40400000Y33780000D01*
X40400000Y35780000D01*
X41100000Y35780000D01*
X41100000Y33780000D01*
X41100000Y33780000D01*
G37*
G36*
X36700000Y33780000D02*
X36000000Y33780000D01*
X36000000Y35780000D01*
X36700000Y35780000D01*
X36700000Y33780000D01*
X36700000Y33780000D01*
G37*
G36*
X14310935Y37231571D02*
X14407534Y37212356D01*
X14555895Y37150903D01*
X14673234Y37102300D01*
X14680517Y37099283D01*
X14922920Y36937313D01*
X14926197Y36935124D01*
X15135124Y36726197D01*
X15135126Y36726194D01*
X15299283Y36480517D01*
X15412356Y36207534D01*
X15470000Y35917737D01*
X15470000Y35622263D01*
X15412356Y35332466D01*
X15299283Y35059483D01*
X15165992Y34860000D01*
X15135124Y34813803D01*
X14926197Y34604876D01*
X14926194Y34604874D01*
X14680517Y34440717D01*
X14407534Y34327644D01*
X14310935Y34308429D01*
X14117739Y34270000D01*
X13822261Y34270000D01*
X13629065Y34308429D01*
X13532466Y34327644D01*
X13259483Y34440717D01*
X13013806Y34604874D01*
X13013803Y34604876D01*
X12804876Y34813803D01*
X12774008Y34860000D01*
X12640717Y35059483D01*
X12527644Y35332466D01*
X12470000Y35622263D01*
X12470000Y35917737D01*
X12527644Y36207534D01*
X12640717Y36480517D01*
X12804874Y36726194D01*
X12804876Y36726197D01*
X13013803Y36935124D01*
X13017080Y36937313D01*
X13259483Y37099283D01*
X13266767Y37102300D01*
X13384105Y37150903D01*
X13532466Y37212356D01*
X13629065Y37231571D01*
X13822261Y37270000D01*
X14117739Y37270000D01*
X14310935Y37231571D01*
X14310935Y37231571D01*
G37*
G36*
X19226016Y34460000D02*
X16726016Y34460000D01*
X16726016Y35460000D01*
X19226016Y35460000D01*
X19226016Y34460000D01*
X19226016Y34460000D01*
G37*
G36*
X78150000Y34560000D02*
X77250000Y34560000D01*
X77250000Y35360000D01*
X78150000Y35360000D01*
X78150000Y34560000D01*
X78150000Y34560000D01*
G37*
G36*
X79950000Y34560000D02*
X79050000Y34560000D01*
X79050000Y35360000D01*
X79950000Y35360000D01*
X79950000Y34560000D01*
X79950000Y34560000D01*
G37*
G36*
X46100000Y34860000D02*
X44700000Y34860000D01*
X44700000Y36060000D01*
X46100000Y36060000D01*
X46100000Y34860000D01*
X46100000Y34860000D01*
G37*
G36*
X21900000Y35090000D02*
X21100000Y35090000D01*
X21100000Y35990000D01*
X21900000Y35990000D01*
X21900000Y35090000D01*
X21900000Y35090000D01*
G37*
G36*
X20540000Y35090000D02*
X19740000Y35090000D01*
X19740000Y35990000D01*
X20540000Y35990000D01*
X20540000Y35090000D01*
X20540000Y35090000D01*
G37*
G36*
X8710000Y36480000D02*
X5210000Y36480000D01*
X5210000Y39980000D01*
X8710000Y39980000D01*
X8710000Y36480000D01*
X8710000Y36480000D01*
G37*
G36*
X20540000Y36890000D02*
X19740000Y36890000D01*
X19740000Y37790000D01*
X20540000Y37790000D01*
X20540000Y36890000D01*
X20540000Y36890000D01*
G37*
G36*
X21900000Y36890000D02*
X21100000Y36890000D01*
X21100000Y37790000D01*
X21900000Y37790000D01*
X21900000Y36890000D01*
X21900000Y36890000D01*
G37*
G36*
X82086630Y38777701D02*
X82246855Y38729097D01*
X82394520Y38650169D01*
X82523949Y38543949D01*
X82630169Y38414520D01*
X82709097Y38266855D01*
X82757701Y38106630D01*
X82774112Y37940000D01*
X82757701Y37773370D01*
X82709097Y37613145D01*
X82630169Y37465480D01*
X82523949Y37336051D01*
X82394520Y37229831D01*
X82246855Y37150903D01*
X82086630Y37102299D01*
X81961752Y37090000D01*
X81878248Y37090000D01*
X81753370Y37102299D01*
X81593145Y37150903D01*
X81445480Y37229831D01*
X81316051Y37336051D01*
X81209831Y37465480D01*
X81130903Y37613145D01*
X81082299Y37773370D01*
X81065888Y37940000D01*
X81082299Y38106630D01*
X81130903Y38266855D01*
X81209831Y38414520D01*
X81316051Y38543949D01*
X81445480Y38650169D01*
X81593145Y38729097D01*
X81753370Y38777701D01*
X81878248Y38790000D01*
X81961752Y38790000D01*
X82086630Y38777701D01*
X82086630Y38777701D01*
G37*
G36*
X79546630Y38777701D02*
X79706855Y38729097D01*
X79854520Y38650169D01*
X79983949Y38543949D01*
X80090169Y38414520D01*
X80169097Y38266855D01*
X80217701Y38106630D01*
X80234112Y37940000D01*
X80217701Y37773370D01*
X80169097Y37613145D01*
X80090169Y37465480D01*
X79983949Y37336051D01*
X79854520Y37229831D01*
X79706855Y37150903D01*
X79546630Y37102299D01*
X79421752Y37090000D01*
X79338248Y37090000D01*
X79213370Y37102299D01*
X79053145Y37150903D01*
X78905480Y37229831D01*
X78776051Y37336051D01*
X78669831Y37465480D01*
X78590903Y37613145D01*
X78542299Y37773370D01*
X78525888Y37940000D01*
X78542299Y38106630D01*
X78590903Y38266855D01*
X78669831Y38414520D01*
X78776051Y38543949D01*
X78905480Y38650169D01*
X79053145Y38729097D01*
X79213370Y38777701D01*
X79338248Y38790000D01*
X79421752Y38790000D01*
X79546630Y38777701D01*
X79546630Y38777701D01*
G37*
G36*
X87850000Y37090000D02*
X86150000Y37090000D01*
X86150000Y38790000D01*
X87850000Y38790000D01*
X87850000Y37090000D01*
X87850000Y37090000D01*
G37*
G36*
X84626630Y38777701D02*
X84786855Y38729097D01*
X84934520Y38650169D01*
X85063949Y38543949D01*
X85170169Y38414520D01*
X85249097Y38266855D01*
X85297701Y38106630D01*
X85314112Y37940000D01*
X85297701Y37773370D01*
X85249097Y37613145D01*
X85170169Y37465480D01*
X85063949Y37336051D01*
X84934520Y37229831D01*
X84786855Y37150903D01*
X84626630Y37102299D01*
X84501752Y37090000D01*
X84418248Y37090000D01*
X84293370Y37102299D01*
X84133145Y37150903D01*
X83985480Y37229831D01*
X83856051Y37336051D01*
X83749831Y37465480D01*
X83670903Y37613145D01*
X83622299Y37773370D01*
X83605888Y37940000D01*
X83622299Y38106630D01*
X83670903Y38266855D01*
X83749831Y38414520D01*
X83856051Y38543949D01*
X83985480Y38650169D01*
X84133145Y38729097D01*
X84293370Y38777701D01*
X84418248Y38790000D01*
X84501752Y38790000D01*
X84626630Y38777701D01*
X84626630Y38777701D01*
G37*
G36*
X19226016Y37460000D02*
X16726016Y37460000D01*
X16726016Y38460000D01*
X19226016Y38460000D01*
X19226016Y37460000D01*
X19226016Y37460000D01*
G37*
G36*
X28233378Y43463141D02*
X28597354Y43312378D01*
X28924929Y43093499D01*
X29203499Y42814929D01*
X29422378Y42487354D01*
X29573141Y42123378D01*
X29650000Y41736984D01*
X29650000Y41343016D01*
X29573141Y40956622D01*
X29422378Y40592646D01*
X29203499Y40265071D01*
X28924929Y39986501D01*
X28597354Y39767622D01*
X28233378Y39616859D01*
X27846984Y39540000D01*
X27453016Y39540000D01*
X27066622Y39616859D01*
X26702646Y39767622D01*
X26375071Y39986501D01*
X26096501Y40265071D01*
X25877622Y40592646D01*
X25726859Y40956622D01*
X25650000Y41343016D01*
X25650000Y41736984D01*
X25726859Y42123378D01*
X25877622Y42487354D01*
X26096501Y42814929D01*
X26375071Y43093499D01*
X26702646Y43312378D01*
X27066622Y43463141D01*
X27453016Y43540000D01*
X27846984Y43540000D01*
X28233378Y43463141D01*
X28233378Y43463141D01*
G37*
G36*
X14310000Y39965000D02*
X12350000Y39965000D01*
X12350000Y43115000D01*
X14310000Y43115000D01*
X14310000Y39965000D01*
X14310000Y39965000D01*
G37*
G36*
X19230000Y39965000D02*
X17270000Y39965000D01*
X17270000Y43115000D01*
X19230000Y43115000D01*
X19230000Y39965000D01*
X19230000Y39965000D01*
G37*
G36*
X87860000Y40680000D02*
X86160000Y40680000D01*
X86160000Y42380000D01*
X87860000Y42380000D01*
X87860000Y40680000D01*
X87860000Y40680000D01*
G37*
G36*
X84636630Y42367701D02*
X84796855Y42319097D01*
X84944520Y42240169D01*
X85073949Y42133949D01*
X85180169Y42004520D01*
X85259097Y41856855D01*
X85307701Y41696630D01*
X85324112Y41530000D01*
X85307701Y41363370D01*
X85259097Y41203145D01*
X85180169Y41055480D01*
X85073949Y40926051D01*
X84944520Y40819831D01*
X84796855Y40740903D01*
X84636630Y40692299D01*
X84511752Y40680000D01*
X84428248Y40680000D01*
X84303370Y40692299D01*
X84143145Y40740903D01*
X83995480Y40819831D01*
X83866051Y40926051D01*
X83759831Y41055480D01*
X83680903Y41203145D01*
X83632299Y41363370D01*
X83615888Y41530000D01*
X83632299Y41696630D01*
X83680903Y41856855D01*
X83759831Y42004520D01*
X83866051Y42133949D01*
X83995480Y42240169D01*
X84143145Y42319097D01*
X84303370Y42367701D01*
X84428248Y42380000D01*
X84511752Y42380000D01*
X84636630Y42367701D01*
X84636630Y42367701D01*
G37*
G36*
X11710000Y41180000D02*
X8210000Y41180000D01*
X8210000Y44680000D01*
X11710000Y44680000D01*
X11710000Y41180000D01*
X11710000Y41180000D01*
G37*
G36*
X5710000Y41180000D02*
X2210000Y41180000D01*
X2210000Y44680000D01*
X5710000Y44680000D01*
X5710000Y41180000D01*
X5710000Y41180000D01*
G37*
G36*
X31360000Y43530000D02*
X30160000Y43530000D01*
X30160000Y45730000D01*
X31360000Y45730000D01*
X31360000Y43530000D01*
X31360000Y43530000D01*
G37*
G36*
X46940000Y43550000D02*
X45740000Y43550000D01*
X45740000Y45750000D01*
X46940000Y45750000D01*
X46940000Y43550000D01*
X46940000Y43550000D01*
G37*
G36*
X41731419Y45864520D02*
X41848767Y45841178D01*
X41903591Y45818469D01*
X41985257Y45784642D01*
X42108100Y45702561D01*
X42212561Y45598100D01*
X42294642Y45475257D01*
X42320027Y45413971D01*
X42351178Y45338767D01*
X42380000Y45193869D01*
X42380000Y45046131D01*
X42351178Y44901233D01*
X42327760Y44844697D01*
X42294642Y44764743D01*
X42212561Y44641900D01*
X42108100Y44537439D01*
X41985257Y44455358D01*
X41905303Y44422240D01*
X41848767Y44398822D01*
X41776318Y44384411D01*
X41703870Y44370000D01*
X41556130Y44370000D01*
X41483682Y44384411D01*
X41411233Y44398822D01*
X41354697Y44422240D01*
X41274743Y44455358D01*
X41151900Y44537439D01*
X41047439Y44641900D01*
X40965358Y44764743D01*
X40932240Y44844697D01*
X40908822Y44901233D01*
X40880000Y45046131D01*
X40880000Y45193869D01*
X40908822Y45338767D01*
X40939973Y45413971D01*
X40965358Y45475257D01*
X41047439Y45598100D01*
X41151900Y45702561D01*
X41274743Y45784642D01*
X41356409Y45818469D01*
X41411233Y45841178D01*
X41528581Y45864520D01*
X41556130Y45870000D01*
X41703870Y45870000D01*
X41731419Y45864520D01*
X41731419Y45864520D01*
G37*
G36*
X33671419Y45864520D02*
X33788767Y45841178D01*
X33843591Y45818469D01*
X33925257Y45784642D01*
X34048100Y45702561D01*
X34152561Y45598100D01*
X34234642Y45475257D01*
X34260027Y45413971D01*
X34291178Y45338767D01*
X34320000Y45193869D01*
X34320000Y45046131D01*
X34291178Y44901233D01*
X34267760Y44844697D01*
X34234642Y44764743D01*
X34152561Y44641900D01*
X34048100Y44537439D01*
X33925257Y44455358D01*
X33845303Y44422240D01*
X33788767Y44398822D01*
X33716318Y44384411D01*
X33643870Y44370000D01*
X33496130Y44370000D01*
X33423682Y44384411D01*
X33351233Y44398822D01*
X33294697Y44422240D01*
X33214743Y44455358D01*
X33091900Y44537439D01*
X32987439Y44641900D01*
X32905358Y44764743D01*
X32872240Y44844697D01*
X32848822Y44901233D01*
X32820000Y45046131D01*
X32820000Y45193869D01*
X32848822Y45338767D01*
X32879973Y45413971D01*
X32905358Y45475257D01*
X32987439Y45598100D01*
X33091900Y45702561D01*
X33214743Y45784642D01*
X33296409Y45818469D01*
X33351233Y45841178D01*
X33468581Y45864520D01*
X33496130Y45870000D01*
X33643870Y45870000D01*
X33671419Y45864520D01*
X33671419Y45864520D01*
G37*
G36*
X85176630Y46227701D02*
X85336855Y46179097D01*
X85484520Y46100169D01*
X85613949Y45993949D01*
X85720169Y45864520D01*
X85799097Y45716855D01*
X85847701Y45556630D01*
X85864112Y45390000D01*
X85847701Y45223370D01*
X85799097Y45063145D01*
X85720169Y44915480D01*
X85613949Y44786051D01*
X85484520Y44679831D01*
X85336855Y44600903D01*
X85176630Y44552299D01*
X85051752Y44540000D01*
X84968248Y44540000D01*
X84843370Y44552299D01*
X84683145Y44600903D01*
X84535480Y44679831D01*
X84406051Y44786051D01*
X84299831Y44915480D01*
X84220903Y45063145D01*
X84172299Y45223370D01*
X84155888Y45390000D01*
X84172299Y45556630D01*
X84220903Y45716855D01*
X84299831Y45864520D01*
X84406051Y45993949D01*
X84535480Y46100169D01*
X84683145Y46179097D01*
X84843370Y46227701D01*
X84968248Y46240000D01*
X85051752Y46240000D01*
X85176630Y46227701D01*
X85176630Y46227701D01*
G37*
G36*
X49616630Y46227701D02*
X49776855Y46179097D01*
X49924520Y46100169D01*
X50053949Y45993949D01*
X50160169Y45864520D01*
X50239097Y45716855D01*
X50287701Y45556630D01*
X50304112Y45390000D01*
X50287701Y45223370D01*
X50239097Y45063145D01*
X50160169Y44915480D01*
X50053949Y44786051D01*
X49924520Y44679831D01*
X49776855Y44600903D01*
X49616630Y44552299D01*
X49491752Y44540000D01*
X49408248Y44540000D01*
X49283370Y44552299D01*
X49123145Y44600903D01*
X48975480Y44679831D01*
X48846051Y44786051D01*
X48739831Y44915480D01*
X48660903Y45063145D01*
X48612299Y45223370D01*
X48595888Y45390000D01*
X48612299Y45556630D01*
X48660903Y45716855D01*
X48739831Y45864520D01*
X48846051Y45993949D01*
X48975480Y46100169D01*
X49123145Y46179097D01*
X49283370Y46227701D01*
X49408248Y46240000D01*
X49491752Y46240000D01*
X49616630Y46227701D01*
X49616630Y46227701D01*
G37*
G36*
X52156630Y46227701D02*
X52316855Y46179097D01*
X52464520Y46100169D01*
X52593949Y45993949D01*
X52700169Y45864520D01*
X52779097Y45716855D01*
X52827701Y45556630D01*
X52844112Y45390000D01*
X52827701Y45223370D01*
X52779097Y45063145D01*
X52700169Y44915480D01*
X52593949Y44786051D01*
X52464520Y44679831D01*
X52316855Y44600903D01*
X52156630Y44552299D01*
X52031752Y44540000D01*
X51948248Y44540000D01*
X51823370Y44552299D01*
X51663145Y44600903D01*
X51515480Y44679831D01*
X51386051Y44786051D01*
X51279831Y44915480D01*
X51200903Y45063145D01*
X51152299Y45223370D01*
X51135888Y45390000D01*
X51152299Y45556630D01*
X51200903Y45716855D01*
X51279831Y45864520D01*
X51386051Y45993949D01*
X51515480Y46100169D01*
X51663145Y46179097D01*
X51823370Y46227701D01*
X51948248Y46240000D01*
X52031752Y46240000D01*
X52156630Y46227701D01*
X52156630Y46227701D01*
G37*
G36*
X54696630Y46227701D02*
X54856855Y46179097D01*
X55004520Y46100169D01*
X55133949Y45993949D01*
X55240169Y45864520D01*
X55319097Y45716855D01*
X55367701Y45556630D01*
X55384112Y45390000D01*
X55367701Y45223370D01*
X55319097Y45063145D01*
X55240169Y44915480D01*
X55133949Y44786051D01*
X55004520Y44679831D01*
X54856855Y44600903D01*
X54696630Y44552299D01*
X54571752Y44540000D01*
X54488248Y44540000D01*
X54363370Y44552299D01*
X54203145Y44600903D01*
X54055480Y44679831D01*
X53926051Y44786051D01*
X53819831Y44915480D01*
X53740903Y45063145D01*
X53692299Y45223370D01*
X53675888Y45390000D01*
X53692299Y45556630D01*
X53740903Y45716855D01*
X53819831Y45864520D01*
X53926051Y45993949D01*
X54055480Y46100169D01*
X54203145Y46179097D01*
X54363370Y46227701D01*
X54488248Y46240000D01*
X54571752Y46240000D01*
X54696630Y46227701D01*
X54696630Y46227701D01*
G37*
G36*
X57236630Y46227701D02*
X57396855Y46179097D01*
X57544520Y46100169D01*
X57673949Y45993949D01*
X57780169Y45864520D01*
X57859097Y45716855D01*
X57907701Y45556630D01*
X57924112Y45390000D01*
X57907701Y45223370D01*
X57859097Y45063145D01*
X57780169Y44915480D01*
X57673949Y44786051D01*
X57544520Y44679831D01*
X57396855Y44600903D01*
X57236630Y44552299D01*
X57111752Y44540000D01*
X57028248Y44540000D01*
X56903370Y44552299D01*
X56743145Y44600903D01*
X56595480Y44679831D01*
X56466051Y44786051D01*
X56359831Y44915480D01*
X56280903Y45063145D01*
X56232299Y45223370D01*
X56215888Y45390000D01*
X56232299Y45556630D01*
X56280903Y45716855D01*
X56359831Y45864520D01*
X56466051Y45993949D01*
X56595480Y46100169D01*
X56743145Y46179097D01*
X56903370Y46227701D01*
X57028248Y46240000D01*
X57111752Y46240000D01*
X57236630Y46227701D01*
X57236630Y46227701D01*
G37*
G36*
X59776630Y46227701D02*
X59936855Y46179097D01*
X60084520Y46100169D01*
X60213949Y45993949D01*
X60320169Y45864520D01*
X60399097Y45716855D01*
X60447701Y45556630D01*
X60464112Y45390000D01*
X60447701Y45223370D01*
X60399097Y45063145D01*
X60320169Y44915480D01*
X60213949Y44786051D01*
X60084520Y44679831D01*
X59936855Y44600903D01*
X59776630Y44552299D01*
X59651752Y44540000D01*
X59568248Y44540000D01*
X59443370Y44552299D01*
X59283145Y44600903D01*
X59135480Y44679831D01*
X59006051Y44786051D01*
X58899831Y44915480D01*
X58820903Y45063145D01*
X58772299Y45223370D01*
X58755888Y45390000D01*
X58772299Y45556630D01*
X58820903Y45716855D01*
X58899831Y45864520D01*
X59006051Y45993949D01*
X59135480Y46100169D01*
X59283145Y46179097D01*
X59443370Y46227701D01*
X59568248Y46240000D01*
X59651752Y46240000D01*
X59776630Y46227701D01*
X59776630Y46227701D01*
G37*
G36*
X88400000Y44540000D02*
X86700000Y44540000D01*
X86700000Y46240000D01*
X88400000Y46240000D01*
X88400000Y44540000D01*
X88400000Y44540000D01*
G37*
G36*
X62316630Y46227701D02*
X62476855Y46179097D01*
X62624520Y46100169D01*
X62753949Y45993949D01*
X62860169Y45864520D01*
X62939097Y45716855D01*
X62987701Y45556630D01*
X63004112Y45390000D01*
X62987701Y45223370D01*
X62939097Y45063145D01*
X62860169Y44915480D01*
X62753949Y44786051D01*
X62624520Y44679831D01*
X62476855Y44600903D01*
X62316630Y44552299D01*
X62191752Y44540000D01*
X62108248Y44540000D01*
X61983370Y44552299D01*
X61823145Y44600903D01*
X61675480Y44679831D01*
X61546051Y44786051D01*
X61439831Y44915480D01*
X61360903Y45063145D01*
X61312299Y45223370D01*
X61295888Y45390000D01*
X61312299Y45556630D01*
X61360903Y45716855D01*
X61439831Y45864520D01*
X61546051Y45993949D01*
X61675480Y46100169D01*
X61823145Y46179097D01*
X61983370Y46227701D01*
X62108248Y46240000D01*
X62191752Y46240000D01*
X62316630Y46227701D01*
X62316630Y46227701D01*
G37*
G36*
X64856630Y46227701D02*
X65016855Y46179097D01*
X65164520Y46100169D01*
X65293949Y45993949D01*
X65400169Y45864520D01*
X65479097Y45716855D01*
X65527701Y45556630D01*
X65544112Y45390000D01*
X65527701Y45223370D01*
X65479097Y45063145D01*
X65400169Y44915480D01*
X65293949Y44786051D01*
X65164520Y44679831D01*
X65016855Y44600903D01*
X64856630Y44552299D01*
X64731752Y44540000D01*
X64648248Y44540000D01*
X64523370Y44552299D01*
X64363145Y44600903D01*
X64215480Y44679831D01*
X64086051Y44786051D01*
X63979831Y44915480D01*
X63900903Y45063145D01*
X63852299Y45223370D01*
X63835888Y45390000D01*
X63852299Y45556630D01*
X63900903Y45716855D01*
X63979831Y45864520D01*
X64086051Y45993949D01*
X64215480Y46100169D01*
X64363145Y46179097D01*
X64523370Y46227701D01*
X64648248Y46240000D01*
X64731752Y46240000D01*
X64856630Y46227701D01*
X64856630Y46227701D01*
G37*
G36*
X75016630Y46227701D02*
X75176855Y46179097D01*
X75324520Y46100169D01*
X75453949Y45993949D01*
X75560169Y45864520D01*
X75639097Y45716855D01*
X75687701Y45556630D01*
X75704112Y45390000D01*
X75687701Y45223370D01*
X75639097Y45063145D01*
X75560169Y44915480D01*
X75453949Y44786051D01*
X75324520Y44679831D01*
X75176855Y44600903D01*
X75016630Y44552299D01*
X74891752Y44540000D01*
X74808248Y44540000D01*
X74683370Y44552299D01*
X74523145Y44600903D01*
X74375480Y44679831D01*
X74246051Y44786051D01*
X74139831Y44915480D01*
X74060903Y45063145D01*
X74012299Y45223370D01*
X73995888Y45390000D01*
X74012299Y45556630D01*
X74060903Y45716855D01*
X74139831Y45864520D01*
X74246051Y45993949D01*
X74375480Y46100169D01*
X74523145Y46179097D01*
X74683370Y46227701D01*
X74808248Y46240000D01*
X74891752Y46240000D01*
X75016630Y46227701D01*
X75016630Y46227701D01*
G37*
G36*
X77556630Y46227701D02*
X77716855Y46179097D01*
X77864520Y46100169D01*
X77993949Y45993949D01*
X78100169Y45864520D01*
X78179097Y45716855D01*
X78227701Y45556630D01*
X78244112Y45390000D01*
X78227701Y45223370D01*
X78179097Y45063145D01*
X78100169Y44915480D01*
X77993949Y44786051D01*
X77864520Y44679831D01*
X77716855Y44600903D01*
X77556630Y44552299D01*
X77431752Y44540000D01*
X77348248Y44540000D01*
X77223370Y44552299D01*
X77063145Y44600903D01*
X76915480Y44679831D01*
X76786051Y44786051D01*
X76679831Y44915480D01*
X76600903Y45063145D01*
X76552299Y45223370D01*
X76535888Y45390000D01*
X76552299Y45556630D01*
X76600903Y45716855D01*
X76679831Y45864520D01*
X76786051Y45993949D01*
X76915480Y46100169D01*
X77063145Y46179097D01*
X77223370Y46227701D01*
X77348248Y46240000D01*
X77431752Y46240000D01*
X77556630Y46227701D01*
X77556630Y46227701D01*
G37*
G36*
X69936630Y46227701D02*
X70096855Y46179097D01*
X70244520Y46100169D01*
X70373949Y45993949D01*
X70480169Y45864520D01*
X70559097Y45716855D01*
X70607701Y45556630D01*
X70624112Y45390000D01*
X70607701Y45223370D01*
X70559097Y45063145D01*
X70480169Y44915480D01*
X70373949Y44786051D01*
X70244520Y44679831D01*
X70096855Y44600903D01*
X69936630Y44552299D01*
X69811752Y44540000D01*
X69728248Y44540000D01*
X69603370Y44552299D01*
X69443145Y44600903D01*
X69295480Y44679831D01*
X69166051Y44786051D01*
X69059831Y44915480D01*
X68980903Y45063145D01*
X68932299Y45223370D01*
X68915888Y45390000D01*
X68932299Y45556630D01*
X68980903Y45716855D01*
X69059831Y45864520D01*
X69166051Y45993949D01*
X69295480Y46100169D01*
X69443145Y46179097D01*
X69603370Y46227701D01*
X69728248Y46240000D01*
X69811752Y46240000D01*
X69936630Y46227701D01*
X69936630Y46227701D01*
G37*
G36*
X80096630Y46227701D02*
X80256855Y46179097D01*
X80404520Y46100169D01*
X80533949Y45993949D01*
X80640169Y45864520D01*
X80719097Y45716855D01*
X80767701Y45556630D01*
X80784112Y45390000D01*
X80767701Y45223370D01*
X80719097Y45063145D01*
X80640169Y44915480D01*
X80533949Y44786051D01*
X80404520Y44679831D01*
X80256855Y44600903D01*
X80096630Y44552299D01*
X79971752Y44540000D01*
X79888248Y44540000D01*
X79763370Y44552299D01*
X79603145Y44600903D01*
X79455480Y44679831D01*
X79326051Y44786051D01*
X79219831Y44915480D01*
X79140903Y45063145D01*
X79092299Y45223370D01*
X79075888Y45390000D01*
X79092299Y45556630D01*
X79140903Y45716855D01*
X79219831Y45864520D01*
X79326051Y45993949D01*
X79455480Y46100169D01*
X79603145Y46179097D01*
X79763370Y46227701D01*
X79888248Y46240000D01*
X79971752Y46240000D01*
X80096630Y46227701D01*
X80096630Y46227701D01*
G37*
G36*
X82636630Y46227701D02*
X82796855Y46179097D01*
X82944520Y46100169D01*
X83073949Y45993949D01*
X83180169Y45864520D01*
X83259097Y45716855D01*
X83307701Y45556630D01*
X83324112Y45390000D01*
X83307701Y45223370D01*
X83259097Y45063145D01*
X83180169Y44915480D01*
X83073949Y44786051D01*
X82944520Y44679831D01*
X82796855Y44600903D01*
X82636630Y44552299D01*
X82511752Y44540000D01*
X82428248Y44540000D01*
X82303370Y44552299D01*
X82143145Y44600903D01*
X81995480Y44679831D01*
X81866051Y44786051D01*
X81759831Y44915480D01*
X81680903Y45063145D01*
X81632299Y45223370D01*
X81615888Y45390000D01*
X81632299Y45556630D01*
X81680903Y45716855D01*
X81759831Y45864520D01*
X81866051Y45993949D01*
X81995480Y46100169D01*
X82143145Y46179097D01*
X82303370Y46227701D01*
X82428248Y46240000D01*
X82511752Y46240000D01*
X82636630Y46227701D01*
X82636630Y46227701D01*
G37*
G36*
X72476630Y46227701D02*
X72636855Y46179097D01*
X72784520Y46100169D01*
X72913949Y45993949D01*
X73020169Y45864520D01*
X73099097Y45716855D01*
X73147701Y45556630D01*
X73164112Y45390000D01*
X73147701Y45223370D01*
X73099097Y45063145D01*
X73020169Y44915480D01*
X72913949Y44786051D01*
X72784520Y44679831D01*
X72636855Y44600903D01*
X72476630Y44552299D01*
X72351752Y44540000D01*
X72268248Y44540000D01*
X72143370Y44552299D01*
X71983145Y44600903D01*
X71835480Y44679831D01*
X71706051Y44786051D01*
X71599831Y44915480D01*
X71520903Y45063145D01*
X71472299Y45223370D01*
X71455888Y45390000D01*
X71472299Y45556630D01*
X71520903Y45716855D01*
X71599831Y45864520D01*
X71706051Y45993949D01*
X71835480Y46100169D01*
X71983145Y46179097D01*
X72143370Y46227701D01*
X72268248Y46240000D01*
X72351752Y46240000D01*
X72476630Y46227701D01*
X72476630Y46227701D01*
G37*
G36*
X67396630Y46227701D02*
X67556855Y46179097D01*
X67704520Y46100169D01*
X67833949Y45993949D01*
X67940169Y45864520D01*
X68019097Y45716855D01*
X68067701Y45556630D01*
X68084112Y45390000D01*
X68067701Y45223370D01*
X68019097Y45063145D01*
X67940169Y44915480D01*
X67833949Y44786051D01*
X67704520Y44679831D01*
X67556855Y44600903D01*
X67396630Y44552299D01*
X67271752Y44540000D01*
X67188248Y44540000D01*
X67063370Y44552299D01*
X66903145Y44600903D01*
X66755480Y44679831D01*
X66626051Y44786051D01*
X66519831Y44915480D01*
X66440903Y45063145D01*
X66392299Y45223370D01*
X66375888Y45390000D01*
X66392299Y45556630D01*
X66440903Y45716855D01*
X66519831Y45864520D01*
X66626051Y45993949D01*
X66755480Y46100169D01*
X66903145Y46179097D01*
X67063370Y46227701D01*
X67188248Y46240000D01*
X67271752Y46240000D01*
X67396630Y46227701D01*
X67396630Y46227701D01*
G37*
G36*
X17396029Y47195531D02*
X17396032Y47195530D01*
X17396033Y47195530D01*
X17584534Y47138349D01*
X17584536Y47138348D01*
X17584539Y47138347D01*
X17758258Y47045493D01*
X17910528Y46920528D01*
X18035491Y46768260D01*
X18128348Y46594537D01*
X18185531Y46406030D01*
X18200000Y46259124D01*
X18200000Y45560877D01*
X18185531Y45413971D01*
X18185530Y45413968D01*
X18185530Y45413967D01*
X18128349Y45225465D01*
X18128347Y45225462D01*
X18128347Y45225461D01*
X18035493Y45051742D01*
X17910528Y44899472D01*
X17758260Y44774509D01*
X17758258Y44774508D01*
X17584535Y44681651D01*
X17396034Y44624470D01*
X17396033Y44624470D01*
X17396030Y44624469D01*
X17200000Y44605162D01*
X17003971Y44624469D01*
X17003968Y44624470D01*
X17003967Y44624470D01*
X16815466Y44681651D01*
X16641743Y44774508D01*
X16641741Y44774509D01*
X16489473Y44899472D01*
X16364510Y45051740D01*
X16271651Y45225467D01*
X16214469Y45413965D01*
X16200000Y45560876D01*
X16200000Y46259123D01*
X16214469Y46406029D01*
X16214470Y46406033D01*
X16271651Y46594534D01*
X16271652Y46594536D01*
X16271653Y46594539D01*
X16364507Y46768258D01*
X16489472Y46920528D01*
X16641740Y47045491D01*
X16815463Y47138348D01*
X16815465Y47138349D01*
X17003966Y47195530D01*
X17003967Y47195530D01*
X17003970Y47195531D01*
X17200000Y47214838D01*
X17396029Y47195531D01*
X17396029Y47195531D01*
G37*
G36*
X15660000Y44610000D02*
X13660000Y44610000D01*
X13660000Y47210000D01*
X15660000Y47210000D01*
X15660000Y44610000D01*
X15660000Y44610000D01*
G37*
G36*
X22810215Y46134432D02*
X22860262Y46113702D01*
X22905303Y46083607D01*
X22943607Y46045303D01*
X22973702Y46000262D01*
X22989518Y45962078D01*
X23001067Y45940473D01*
X23016612Y45921531D01*
X23035554Y45905986D01*
X23057165Y45894435D01*
X23080614Y45887322D01*
X23105001Y45884920D01*
X23129387Y45887322D01*
X23152836Y45894435D01*
X23174447Y45905987D01*
X23193389Y45921532D01*
X23208934Y45940474D01*
X23220485Y45962085D01*
X23227598Y45985534D01*
X23228530Y45995000D01*
X26231470Y45995000D01*
X26232402Y45985534D01*
X26239515Y45962085D01*
X26251066Y45940474D01*
X26266612Y45921532D01*
X26285554Y45905986D01*
X26307165Y45894435D01*
X26330614Y45887322D01*
X26355000Y45884920D01*
X26379386Y45887322D01*
X26402835Y45894435D01*
X26424446Y45905986D01*
X26443388Y45921532D01*
X26458934Y45940474D01*
X26470482Y45962078D01*
X26486298Y46000262D01*
X26516393Y46045303D01*
X26554697Y46083607D01*
X26599738Y46113702D01*
X26649785Y46134432D01*
X26702915Y46145000D01*
X26757085Y46145000D01*
X26810215Y46134432D01*
X26860262Y46113702D01*
X26905303Y46083607D01*
X26943607Y46045303D01*
X26973702Y46000262D01*
X26994432Y45950215D01*
X27005000Y45897085D01*
X27005000Y45842915D01*
X26994432Y45789785D01*
X26973702Y45739738D01*
X26943607Y45694697D01*
X26905303Y45656393D01*
X26860262Y45626298D01*
X26810215Y45605568D01*
X26757085Y45595000D01*
X26702915Y45595000D01*
X26649785Y45605568D01*
X26599738Y45626298D01*
X26554697Y45656393D01*
X26516393Y45694697D01*
X26486298Y45739738D01*
X26470482Y45777922D01*
X26458933Y45799527D01*
X26443388Y45818469D01*
X26424446Y45834014D01*
X26402835Y45845565D01*
X26379386Y45852678D01*
X26354999Y45855080D01*
X26330613Y45852678D01*
X26307164Y45845565D01*
X26285553Y45834013D01*
X26266611Y45818468D01*
X26251066Y45799526D01*
X26239515Y45777915D01*
X26232402Y45754466D01*
X26230000Y45730080D01*
X26230000Y44645000D01*
X23230000Y44645000D01*
X23230000Y45730080D01*
X23227598Y45754466D01*
X23220485Y45777915D01*
X23208934Y45799526D01*
X23193388Y45818468D01*
X23174446Y45834014D01*
X23152835Y45845565D01*
X23129386Y45852678D01*
X23105000Y45855080D01*
X23080614Y45852678D01*
X23057165Y45845565D01*
X23035554Y45834014D01*
X23016612Y45818468D01*
X23001066Y45799526D01*
X22989518Y45777922D01*
X22973702Y45739738D01*
X22943607Y45694697D01*
X22905303Y45656393D01*
X22860262Y45626298D01*
X22810215Y45605568D01*
X22757085Y45595000D01*
X22702915Y45595000D01*
X22649785Y45605568D01*
X22599738Y45626298D01*
X22554697Y45656393D01*
X22516393Y45694697D01*
X22486298Y45739738D01*
X22465568Y45789785D01*
X22455000Y45842915D01*
X22455000Y45897085D01*
X22465568Y45950215D01*
X22486298Y46000262D01*
X22516393Y46045303D01*
X22554697Y46083607D01*
X22599738Y46113702D01*
X22649785Y46134432D01*
X22702915Y46145000D01*
X22757085Y46145000D01*
X22810215Y46134432D01*
X22810215Y46134432D01*
G37*
G36*
X19550000Y45980000D02*
X18750000Y45980000D01*
X18750000Y46880000D01*
X19550000Y46880000D01*
X19550000Y45980000D01*
X19550000Y45980000D01*
G37*
G36*
X29280000Y46995000D02*
X27280000Y46995000D01*
X27280000Y48995000D01*
X29280000Y48995000D01*
X29280000Y46995000D01*
X29280000Y46995000D01*
G37*
G36*
X22180000Y46995000D02*
X20180000Y46995000D01*
X20180000Y48995000D01*
X22180000Y48995000D01*
X22180000Y46995000D01*
X22180000Y46995000D01*
G37*
G36*
X67396630Y48767701D02*
X67556855Y48719097D01*
X67704520Y48640169D01*
X67833949Y48533949D01*
X67940169Y48404520D01*
X68019097Y48256855D01*
X68067701Y48096630D01*
X68084112Y47930000D01*
X68067701Y47763370D01*
X68019097Y47603145D01*
X67940169Y47455480D01*
X67833949Y47326051D01*
X67704520Y47219831D01*
X67556855Y47140903D01*
X67396630Y47092299D01*
X67271752Y47080000D01*
X67188248Y47080000D01*
X67063370Y47092299D01*
X66903145Y47140903D01*
X66755480Y47219831D01*
X66626051Y47326051D01*
X66519831Y47455480D01*
X66440903Y47603145D01*
X66392299Y47763370D01*
X66375888Y47930000D01*
X66392299Y48096630D01*
X66440903Y48256855D01*
X66519831Y48404520D01*
X66626051Y48533949D01*
X66755480Y48640169D01*
X66903145Y48719097D01*
X67063370Y48767701D01*
X67188248Y48780000D01*
X67271752Y48780000D01*
X67396630Y48767701D01*
X67396630Y48767701D01*
G37*
G36*
X69936630Y48767701D02*
X70096855Y48719097D01*
X70244520Y48640169D01*
X70373949Y48533949D01*
X70480169Y48404520D01*
X70559097Y48256855D01*
X70607701Y48096630D01*
X70624112Y47930000D01*
X70607701Y47763370D01*
X70559097Y47603145D01*
X70480169Y47455480D01*
X70373949Y47326051D01*
X70244520Y47219831D01*
X70096855Y47140903D01*
X69936630Y47092299D01*
X69811752Y47080000D01*
X69728248Y47080000D01*
X69603370Y47092299D01*
X69443145Y47140903D01*
X69295480Y47219831D01*
X69166051Y47326051D01*
X69059831Y47455480D01*
X68980903Y47603145D01*
X68932299Y47763370D01*
X68915888Y47930000D01*
X68932299Y48096630D01*
X68980903Y48256855D01*
X69059831Y48404520D01*
X69166051Y48533949D01*
X69295480Y48640169D01*
X69443145Y48719097D01*
X69603370Y48767701D01*
X69728248Y48780000D01*
X69811752Y48780000D01*
X69936630Y48767701D01*
X69936630Y48767701D01*
G37*
G36*
X64856630Y48767701D02*
X65016855Y48719097D01*
X65164520Y48640169D01*
X65293949Y48533949D01*
X65400169Y48404520D01*
X65479097Y48256855D01*
X65527701Y48096630D01*
X65544112Y47930000D01*
X65527701Y47763370D01*
X65479097Y47603145D01*
X65400169Y47455480D01*
X65293949Y47326051D01*
X65164520Y47219831D01*
X65016855Y47140903D01*
X64856630Y47092299D01*
X64731752Y47080000D01*
X64648248Y47080000D01*
X64523370Y47092299D01*
X64363145Y47140903D01*
X64215480Y47219831D01*
X64086051Y47326051D01*
X63979831Y47455480D01*
X63900903Y47603145D01*
X63852299Y47763370D01*
X63835888Y47930000D01*
X63852299Y48096630D01*
X63900903Y48256855D01*
X63979831Y48404520D01*
X64086051Y48533949D01*
X64215480Y48640169D01*
X64363145Y48719097D01*
X64523370Y48767701D01*
X64648248Y48780000D01*
X64731752Y48780000D01*
X64856630Y48767701D01*
X64856630Y48767701D01*
G37*
G36*
X62316630Y48767701D02*
X62476855Y48719097D01*
X62624520Y48640169D01*
X62753949Y48533949D01*
X62860169Y48404520D01*
X62939097Y48256855D01*
X62987701Y48096630D01*
X63004112Y47930000D01*
X62987701Y47763370D01*
X62939097Y47603145D01*
X62860169Y47455480D01*
X62753949Y47326051D01*
X62624520Y47219831D01*
X62476855Y47140903D01*
X62316630Y47092299D01*
X62191752Y47080000D01*
X62108248Y47080000D01*
X61983370Y47092299D01*
X61823145Y47140903D01*
X61675480Y47219831D01*
X61546051Y47326051D01*
X61439831Y47455480D01*
X61360903Y47603145D01*
X61312299Y47763370D01*
X61295888Y47930000D01*
X61312299Y48096630D01*
X61360903Y48256855D01*
X61439831Y48404520D01*
X61546051Y48533949D01*
X61675480Y48640169D01*
X61823145Y48719097D01*
X61983370Y48767701D01*
X62108248Y48780000D01*
X62191752Y48780000D01*
X62316630Y48767701D01*
X62316630Y48767701D01*
G37*
G36*
X59776630Y48767701D02*
X59936855Y48719097D01*
X60084520Y48640169D01*
X60213949Y48533949D01*
X60320169Y48404520D01*
X60399097Y48256855D01*
X60447701Y48096630D01*
X60464112Y47930000D01*
X60447701Y47763370D01*
X60399097Y47603145D01*
X60320169Y47455480D01*
X60213949Y47326051D01*
X60084520Y47219831D01*
X59936855Y47140903D01*
X59776630Y47092299D01*
X59651752Y47080000D01*
X59568248Y47080000D01*
X59443370Y47092299D01*
X59283145Y47140903D01*
X59135480Y47219831D01*
X59006051Y47326051D01*
X58899831Y47455480D01*
X58820903Y47603145D01*
X58772299Y47763370D01*
X58755888Y47930000D01*
X58772299Y48096630D01*
X58820903Y48256855D01*
X58899831Y48404520D01*
X59006051Y48533949D01*
X59135480Y48640169D01*
X59283145Y48719097D01*
X59443370Y48767701D01*
X59568248Y48780000D01*
X59651752Y48780000D01*
X59776630Y48767701D01*
X59776630Y48767701D01*
G37*
G36*
X57236630Y48767701D02*
X57396855Y48719097D01*
X57544520Y48640169D01*
X57673949Y48533949D01*
X57780169Y48404520D01*
X57859097Y48256855D01*
X57907701Y48096630D01*
X57924112Y47930000D01*
X57907701Y47763370D01*
X57859097Y47603145D01*
X57780169Y47455480D01*
X57673949Y47326051D01*
X57544520Y47219831D01*
X57396855Y47140903D01*
X57236630Y47092299D01*
X57111752Y47080000D01*
X57028248Y47080000D01*
X56903370Y47092299D01*
X56743145Y47140903D01*
X56595480Y47219831D01*
X56466051Y47326051D01*
X56359831Y47455480D01*
X56280903Y47603145D01*
X56232299Y47763370D01*
X56215888Y47930000D01*
X56232299Y48096630D01*
X56280903Y48256855D01*
X56359831Y48404520D01*
X56466051Y48533949D01*
X56595480Y48640169D01*
X56743145Y48719097D01*
X56903370Y48767701D01*
X57028248Y48780000D01*
X57111752Y48780000D01*
X57236630Y48767701D01*
X57236630Y48767701D01*
G37*
G36*
X54696630Y48767701D02*
X54856855Y48719097D01*
X55004520Y48640169D01*
X55133949Y48533949D01*
X55240169Y48404520D01*
X55319097Y48256855D01*
X55367701Y48096630D01*
X55384112Y47930000D01*
X55367701Y47763370D01*
X55319097Y47603145D01*
X55240169Y47455480D01*
X55133949Y47326051D01*
X55004520Y47219831D01*
X54856855Y47140903D01*
X54696630Y47092299D01*
X54571752Y47080000D01*
X54488248Y47080000D01*
X54363370Y47092299D01*
X54203145Y47140903D01*
X54055480Y47219831D01*
X53926051Y47326051D01*
X53819831Y47455480D01*
X53740903Y47603145D01*
X53692299Y47763370D01*
X53675888Y47930000D01*
X53692299Y48096630D01*
X53740903Y48256855D01*
X53819831Y48404520D01*
X53926051Y48533949D01*
X54055480Y48640169D01*
X54203145Y48719097D01*
X54363370Y48767701D01*
X54488248Y48780000D01*
X54571752Y48780000D01*
X54696630Y48767701D01*
X54696630Y48767701D01*
G37*
G36*
X52156630Y48767701D02*
X52316855Y48719097D01*
X52464520Y48640169D01*
X52593949Y48533949D01*
X52700169Y48404520D01*
X52779097Y48256855D01*
X52827701Y48096630D01*
X52844112Y47930000D01*
X52827701Y47763370D01*
X52779097Y47603145D01*
X52700169Y47455480D01*
X52593949Y47326051D01*
X52464520Y47219831D01*
X52316855Y47140903D01*
X52156630Y47092299D01*
X52031752Y47080000D01*
X51948248Y47080000D01*
X51823370Y47092299D01*
X51663145Y47140903D01*
X51515480Y47219831D01*
X51386051Y47326051D01*
X51279831Y47455480D01*
X51200903Y47603145D01*
X51152299Y47763370D01*
X51135888Y47930000D01*
X51152299Y48096630D01*
X51200903Y48256855D01*
X51279831Y48404520D01*
X51386051Y48533949D01*
X51515480Y48640169D01*
X51663145Y48719097D01*
X51823370Y48767701D01*
X51948248Y48780000D01*
X52031752Y48780000D01*
X52156630Y48767701D01*
X52156630Y48767701D01*
G37*
G36*
X82636630Y48767701D02*
X82796855Y48719097D01*
X82944520Y48640169D01*
X83073949Y48533949D01*
X83180169Y48404520D01*
X83259097Y48256855D01*
X83307701Y48096630D01*
X83324112Y47930000D01*
X83307701Y47763370D01*
X83259097Y47603145D01*
X83180169Y47455480D01*
X83073949Y47326051D01*
X82944520Y47219831D01*
X82796855Y47140903D01*
X82636630Y47092299D01*
X82511752Y47080000D01*
X82428248Y47080000D01*
X82303370Y47092299D01*
X82143145Y47140903D01*
X81995480Y47219831D01*
X81866051Y47326051D01*
X81759831Y47455480D01*
X81680903Y47603145D01*
X81632299Y47763370D01*
X81615888Y47930000D01*
X81632299Y48096630D01*
X81680903Y48256855D01*
X81759831Y48404520D01*
X81866051Y48533949D01*
X81995480Y48640169D01*
X82143145Y48719097D01*
X82303370Y48767701D01*
X82428248Y48780000D01*
X82511752Y48780000D01*
X82636630Y48767701D01*
X82636630Y48767701D01*
G37*
G36*
X85176630Y48767701D02*
X85336855Y48719097D01*
X85484520Y48640169D01*
X85613949Y48533949D01*
X85720169Y48404520D01*
X85799097Y48256855D01*
X85847701Y48096630D01*
X85864112Y47930000D01*
X85847701Y47763370D01*
X85799097Y47603145D01*
X85720169Y47455480D01*
X85613949Y47326051D01*
X85484520Y47219831D01*
X85336855Y47140903D01*
X85176630Y47092299D01*
X85051752Y47080000D01*
X84968248Y47080000D01*
X84843370Y47092299D01*
X84683145Y47140903D01*
X84535480Y47219831D01*
X84406051Y47326051D01*
X84299831Y47455480D01*
X84220903Y47603145D01*
X84172299Y47763370D01*
X84155888Y47930000D01*
X84172299Y48096630D01*
X84220903Y48256855D01*
X84299831Y48404520D01*
X84406051Y48533949D01*
X84535480Y48640169D01*
X84683145Y48719097D01*
X84843370Y48767701D01*
X84968248Y48780000D01*
X85051752Y48780000D01*
X85176630Y48767701D01*
X85176630Y48767701D01*
G37*
G36*
X87716630Y48767701D02*
X87876855Y48719097D01*
X88024520Y48640169D01*
X88153949Y48533949D01*
X88260169Y48404520D01*
X88339097Y48256855D01*
X88387701Y48096630D01*
X88404112Y47930000D01*
X88387701Y47763370D01*
X88339097Y47603145D01*
X88260169Y47455480D01*
X88153949Y47326051D01*
X88024520Y47219831D01*
X87876855Y47140903D01*
X87716630Y47092299D01*
X87591752Y47080000D01*
X87508248Y47080000D01*
X87383370Y47092299D01*
X87223145Y47140903D01*
X87075480Y47219831D01*
X86946051Y47326051D01*
X86839831Y47455480D01*
X86760903Y47603145D01*
X86712299Y47763370D01*
X86695888Y47930000D01*
X86712299Y48096630D01*
X86760903Y48256855D01*
X86839831Y48404520D01*
X86946051Y48533949D01*
X87075480Y48640169D01*
X87223145Y48719097D01*
X87383370Y48767701D01*
X87508248Y48780000D01*
X87591752Y48780000D01*
X87716630Y48767701D01*
X87716630Y48767701D01*
G37*
G36*
X49616630Y48767701D02*
X49776855Y48719097D01*
X49924520Y48640169D01*
X50053949Y48533949D01*
X50160169Y48404520D01*
X50239097Y48256855D01*
X50287701Y48096630D01*
X50304112Y47930000D01*
X50287701Y47763370D01*
X50239097Y47603145D01*
X50160169Y47455480D01*
X50053949Y47326051D01*
X49924520Y47219831D01*
X49776855Y47140903D01*
X49616630Y47092299D01*
X49491752Y47080000D01*
X49408248Y47080000D01*
X49283370Y47092299D01*
X49123145Y47140903D01*
X48975480Y47219831D01*
X48846051Y47326051D01*
X48739831Y47455480D01*
X48660903Y47603145D01*
X48612299Y47763370D01*
X48595888Y47930000D01*
X48612299Y48096630D01*
X48660903Y48256855D01*
X48739831Y48404520D01*
X48846051Y48533949D01*
X48975480Y48640169D01*
X49123145Y48719097D01*
X49283370Y48767701D01*
X49408248Y48780000D01*
X49491752Y48780000D01*
X49616630Y48767701D01*
X49616630Y48767701D01*
G37*
G36*
X77556630Y48767701D02*
X77716855Y48719097D01*
X77864520Y48640169D01*
X77993949Y48533949D01*
X78100169Y48404520D01*
X78179097Y48256855D01*
X78227701Y48096630D01*
X78244112Y47930000D01*
X78227701Y47763370D01*
X78179097Y47603145D01*
X78100169Y47455480D01*
X77993949Y47326051D01*
X77864520Y47219831D01*
X77716855Y47140903D01*
X77556630Y47092299D01*
X77431752Y47080000D01*
X77348248Y47080000D01*
X77223370Y47092299D01*
X77063145Y47140903D01*
X76915480Y47219831D01*
X76786051Y47326051D01*
X76679831Y47455480D01*
X76600903Y47603145D01*
X76552299Y47763370D01*
X76535888Y47930000D01*
X76552299Y48096630D01*
X76600903Y48256855D01*
X76679831Y48404520D01*
X76786051Y48533949D01*
X76915480Y48640169D01*
X77063145Y48719097D01*
X77223370Y48767701D01*
X77348248Y48780000D01*
X77431752Y48780000D01*
X77556630Y48767701D01*
X77556630Y48767701D01*
G37*
G36*
X75016630Y48767701D02*
X75176855Y48719097D01*
X75324520Y48640169D01*
X75453949Y48533949D01*
X75560169Y48404520D01*
X75639097Y48256855D01*
X75687701Y48096630D01*
X75704112Y47930000D01*
X75687701Y47763370D01*
X75639097Y47603145D01*
X75560169Y47455480D01*
X75453949Y47326051D01*
X75324520Y47219831D01*
X75176855Y47140903D01*
X75016630Y47092299D01*
X74891752Y47080000D01*
X74808248Y47080000D01*
X74683370Y47092299D01*
X74523145Y47140903D01*
X74375480Y47219831D01*
X74246051Y47326051D01*
X74139831Y47455480D01*
X74060903Y47603145D01*
X74012299Y47763370D01*
X73995888Y47930000D01*
X74012299Y48096630D01*
X74060903Y48256855D01*
X74139831Y48404520D01*
X74246051Y48533949D01*
X74375480Y48640169D01*
X74523145Y48719097D01*
X74683370Y48767701D01*
X74808248Y48780000D01*
X74891752Y48780000D01*
X75016630Y48767701D01*
X75016630Y48767701D01*
G37*
G36*
X80096630Y48767701D02*
X80256855Y48719097D01*
X80404520Y48640169D01*
X80533949Y48533949D01*
X80640169Y48404520D01*
X80719097Y48256855D01*
X80767701Y48096630D01*
X80784112Y47930000D01*
X80767701Y47763370D01*
X80719097Y47603145D01*
X80640169Y47455480D01*
X80533949Y47326051D01*
X80404520Y47219831D01*
X80256855Y47140903D01*
X80096630Y47092299D01*
X79971752Y47080000D01*
X79888248Y47080000D01*
X79763370Y47092299D01*
X79603145Y47140903D01*
X79455480Y47219831D01*
X79326051Y47326051D01*
X79219831Y47455480D01*
X79140903Y47603145D01*
X79092299Y47763370D01*
X79075888Y47930000D01*
X79092299Y48096630D01*
X79140903Y48256855D01*
X79219831Y48404520D01*
X79326051Y48533949D01*
X79455480Y48640169D01*
X79603145Y48719097D01*
X79763370Y48767701D01*
X79888248Y48780000D01*
X79971752Y48780000D01*
X80096630Y48767701D01*
X80096630Y48767701D01*
G37*
G36*
X72476630Y48767701D02*
X72636855Y48719097D01*
X72784520Y48640169D01*
X72913949Y48533949D01*
X73020169Y48404520D01*
X73099097Y48256855D01*
X73147701Y48096630D01*
X73164112Y47930000D01*
X73147701Y47763370D01*
X73099097Y47603145D01*
X73020169Y47455480D01*
X72913949Y47326051D01*
X72784520Y47219831D01*
X72636855Y47140903D01*
X72476630Y47092299D01*
X72351752Y47080000D01*
X72268248Y47080000D01*
X72143370Y47092299D01*
X71983145Y47140903D01*
X71835480Y47219831D01*
X71706051Y47326051D01*
X71599831Y47455480D01*
X71520903Y47603145D01*
X71472299Y47763370D01*
X71455888Y47930000D01*
X71472299Y48096630D01*
X71520903Y48256855D01*
X71599831Y48404520D01*
X71706051Y48533949D01*
X71835480Y48640169D01*
X71983145Y48719097D01*
X72143370Y48767701D01*
X72268248Y48780000D01*
X72351752Y48780000D01*
X72476630Y48767701D01*
X72476630Y48767701D01*
G37*
G36*
X19550000Y47780000D02*
X18750000Y47780000D01*
X18750000Y48680000D01*
X19550000Y48680000D01*
X19550000Y47780000D01*
X19550000Y47780000D01*
G37*
M02*
