G04 #@! TF.GenerationSoftware,KiCad,Pcbnew,5.0.1+dfsg1-3~bpo9+1*
G04 #@! TF.CreationDate,2019-01-18T15:45:32+07:00*
G04 #@! TF.ProjectId,DEV BOARD,44455620424F4152442E6B696361645F,rev?*
G04 #@! TF.SameCoordinates,PX6539160PY6d28560*
G04 #@! TF.FileFunction,Copper,L3,Inr,Signal*
G04 #@! TF.FilePolarity,Positive*
%FSLAX46Y46*%
G04 Gerber Fmt 4.6, Leading zero omitted, Abs format (unit mm)*
G04 Created by KiCad (PCBNEW 5.0.1+dfsg1-3~bpo9+1) date Fri 18 Jan 2019 03:45:32 PM +07*
%MOMM*%
%LPD*%
G01*
G04 APERTURE LIST*
G04 #@! TA.AperFunction,ViaPad*
%ADD10R,1.700000X1.700000*%
G04 #@! TD*
G04 #@! TA.AperFunction,ViaPad*
%ADD11O,1.700000X1.700000*%
G04 #@! TD*
G04 #@! TA.AperFunction,ViaPad*
%ADD12C,4.000000*%
G04 #@! TD*
G04 #@! TA.AperFunction,ViaPad*
%ADD13R,2.000000X2.600000*%
G04 #@! TD*
G04 #@! TA.AperFunction,ViaPad*
%ADD14O,2.000000X2.600000*%
G04 #@! TD*
G04 #@! TA.AperFunction,ViaPad*
%ADD15C,0.550000*%
G04 #@! TD*
G04 #@! TA.AperFunction,ViaPad*
%ADD16R,2.000000X2.000000*%
G04 #@! TD*
G04 #@! TA.AperFunction,ViaPad*
%ADD17C,2.000000*%
G04 #@! TD*
G04 #@! TA.AperFunction,ViaPad*
%ADD18C,3.000000*%
G04 #@! TD*
G04 #@! TA.AperFunction,ViaPad*
%ADD19R,1.400000X1.400000*%
G04 #@! TD*
G04 #@! TA.AperFunction,ViaPad*
%ADD20C,1.400000*%
G04 #@! TD*
G04 #@! TA.AperFunction,ViaPad*
%ADD21O,3.700000X3.200000*%
G04 #@! TD*
G04 #@! TA.AperFunction,ViaPad*
%ADD22C,1.600000*%
G04 #@! TD*
G04 #@! TA.AperFunction,ViaPad*
%ADD23O,1.600000X1.600000*%
G04 #@! TD*
G04 #@! TA.AperFunction,ViaPad*
%ADD24R,1.600000X1.600000*%
G04 #@! TD*
G04 #@! TA.AperFunction,ViaPad*
%ADD25R,3.500000X3.500000*%
G04 #@! TD*
G04 #@! TA.AperFunction,ViaPad*
%ADD26O,3.500000X3.000000*%
G04 #@! TD*
G04 #@! TA.AperFunction,ViaPad*
%ADD27R,2.500000X3.000000*%
G04 #@! TD*
G04 #@! TA.AperFunction,ViaPad*
%ADD28C,2.500000*%
G04 #@! TD*
G04 #@! TA.AperFunction,ViaPad*
%ADD29C,0.400000*%
G04 #@! TD*
G04 #@! TA.AperFunction,ViaPad*
%ADD30C,0.500000*%
G04 #@! TD*
G04 #@! TA.AperFunction,ViaPad*
%ADD31C,1.000000*%
G04 #@! TD*
G04 #@! TA.AperFunction,Conductor*
%ADD32C,0.180000*%
G04 #@! TD*
G04 #@! TA.AperFunction,Conductor*
%ADD33C,0.400000*%
G04 #@! TD*
G04 #@! TA.AperFunction,Conductor*
%ADD34C,0.600000*%
G04 #@! TD*
G04 #@! TA.AperFunction,Conductor*
%ADD35C,0.300000*%
G04 #@! TD*
G04 #@! TA.AperFunction,Conductor*
%ADD36C,1.000000*%
G04 #@! TD*
G04 #@! TA.AperFunction,Conductor*
%ADD37C,0.500000*%
G04 #@! TD*
G04 APERTURE END LIST*
D10*
G04 #@! TO.N,3V3*
G04 #@! TO.C,VIO-3V*
X87010000Y41530000D03*
D11*
G04 #@! TO.N,3.3VIO*
X84470000Y41530000D03*
G04 #@! TD*
D12*
G04 #@! TO.N,GND*
G04 #@! TO.C,REF\002A\002A*
X27650000Y41540000D03*
G04 #@! TD*
G04 #@! TO.N,GND*
G04 #@! TO.C,REF\002A\002A*
X77780000Y10860000D03*
G04 #@! TD*
D13*
G04 #@! TO.N,Net-(BATT1-Pad1)*
G04 #@! TO.C,BATT*
X14660000Y45910000D03*
D14*
G04 #@! TO.N,GND*
X17200000Y45910000D03*
G04 #@! TD*
D10*
G04 #@! TO.N,Net-(C75-Pad1)*
G04 #@! TO.C,EXT-3V*
X47120000Y29270000D03*
D11*
G04 #@! TO.N,3V3*
X47120000Y26730000D03*
G04 #@! TD*
D10*
G04 #@! TO.N,PIN1/LCD_D00*
G04 #@! TO.C,GPIO1*
X49480000Y4550000D03*
D11*
G04 #@! TO.N,I2C_SDA*
X49480000Y2010000D03*
G04 #@! TO.N,PIN2/LCD_D01*
X52020000Y4550000D03*
G04 #@! TO.N,I2C_SCL*
X52020000Y2010000D03*
G04 #@! TO.N,PIN3/LCD_D02*
X54560000Y4550000D03*
G04 #@! TO.N,Net-(GPIO1-Pad6)*
X54560000Y2010000D03*
G04 #@! TO.N,PIN4/LCD_D03*
X57100000Y4550000D03*
G04 #@! TO.N,Net-(GPIO1-Pad8)*
X57100000Y2010000D03*
G04 #@! TO.N,PIN5/LCD_D04*
X59640000Y4550000D03*
G04 #@! TO.N,PIN26/LCD_CS*
X59640000Y2010000D03*
G04 #@! TO.N,PIN6/LCD_D05*
X62180000Y4550000D03*
G04 #@! TO.N,PIN25/LCD_RS*
X62180000Y2010000D03*
G04 #@! TO.N,PIN7/LCD_D06*
X64720000Y4550000D03*
G04 #@! TO.N,PIN24/LCD_WR*
X64720000Y2010000D03*
G04 #@! TO.N,PIN8/LCD_D07*
X67260000Y4550000D03*
G04 #@! TO.N,PIN23/LCD_DISP*
X67260000Y2010000D03*
G04 #@! TO.N,PIN9/LCD_D08/SSP2_MISO*
X69800000Y4550000D03*
G04 #@! TO.N,PIN22/LCD_EN/I2C_SCL*
X69800000Y2010000D03*
G04 #@! TO.N,PIN10/LCD_09*
X72340000Y4550000D03*
G04 #@! TO.N,PIN21/LCD_HSYNC/I2C_SDA*
X72340000Y2010000D03*
G04 #@! TO.N,PIN11/LCD_D10*
X74880000Y4550000D03*
G04 #@! TO.N,PIN20/LCD_VSYNC*
X74880000Y2010000D03*
G04 #@! TO.N,PIN12/LCD_D11*
X77420000Y4550000D03*
G04 #@! TO.N,PIN19/LCD_DOTCLK*
X77420000Y2010000D03*
G04 #@! TO.N,PIN13/LCD_D12*
X79960000Y4550000D03*
G04 #@! TO.N,PIN18/LCD_D17/USB_EN*
X79960000Y2010000D03*
G04 #@! TO.N,PIN14/LCD_D13*
X82500000Y4550000D03*
G04 #@! TO.N,PIN17/LCD_D16*
X82500000Y2010000D03*
G04 #@! TO.N,PIN15/LCD_D14*
X85040000Y4550000D03*
G04 #@! TO.N,PIN16/LCD_D15*
X85040000Y2010000D03*
G04 #@! TO.N,Net-(GPIO1-Pad31)*
X87580000Y4550000D03*
G04 #@! TO.N,Net-(GPIO1-Pad32)*
X87580000Y2010000D03*
G04 #@! TD*
D10*
G04 #@! TO.N,3V3*
G04 #@! TO.C,GPIO2*
X87550000Y45390000D03*
D11*
G04 #@! TO.N,USB_P*
X87550000Y47930000D03*
G04 #@! TO.N,3V3*
X85010000Y45390000D03*
G04 #@! TO.N,USB_N*
X85010000Y47930000D03*
G04 #@! TO.N,5V*
X82470000Y45390000D03*
G04 #@! TO.N,Net-(GPIO2-Pad6)*
X82470000Y47930000D03*
G04 #@! TO.N,5V*
X79930000Y45390000D03*
G04 #@! TO.N,Net-(GPIO2-Pad8)*
X79930000Y47930000D03*
G04 #@! TO.N,V_IN*
X77390000Y45390000D03*
G04 #@! TO.N,Net-(GPIO2-Pad10)*
X77390000Y47930000D03*
G04 #@! TO.N,V_IN*
X74850000Y45390000D03*
G04 #@! TO.N,PWM0/DUART_RXD*
X74850000Y47930000D03*
G04 #@! TO.N,BATT+*
X72310000Y45390000D03*
G04 #@! TO.N,PWM1/DUART_TXD*
X72310000Y47930000D03*
G04 #@! TO.N,GND*
X69770000Y45390000D03*
X69770000Y47930000D03*
X67230000Y45390000D03*
G04 #@! TO.N,PIN27/PWM2*
X67230000Y47930000D03*
G04 #@! TO.N,GND*
X64690000Y45390000D03*
G04 #@! TO.N,PIN28/SOFT_SDA*
X64690000Y47930000D03*
G04 #@! TO.N,GND*
X62150000Y45390000D03*
G04 #@! TO.N,PIN29/SOFT_SCL*
X62150000Y47930000D03*
G04 #@! TO.N,GND*
X59610000Y45390000D03*
G04 #@! TO.N,PIN30*
X59610000Y47930000D03*
G04 #@! TO.N,AUART1_TXD*
X57070000Y45390000D03*
G04 #@! TO.N,PIN31*
X57070000Y47930000D03*
G04 #@! TO.N,AUART1_RDX*
X54530000Y45390000D03*
G04 #@! TO.N,PIN32/LRADC1*
X54530000Y47930000D03*
G04 #@! TO.N,SSP2_MOSI*
X51990000Y45390000D03*
G04 #@! TO.N,PIN33/LRADC0*
X51990000Y47930000D03*
G04 #@! TO.N,SSP2_SCK*
X49450000Y45390000D03*
G04 #@! TO.N,PIN34/MIC*
X49450000Y47930000D03*
G04 #@! TD*
D15*
G04 #@! TO.N,*
G04 #@! TO.C,MUSB*
X22730000Y45870000D03*
X26730000Y45870000D03*
G04 #@! TD*
D16*
G04 #@! TO.N,/USB-ETHERNET CONTROLLER/TX+*
G04 #@! TO.C,ETHERNET*
X17210000Y32330000D03*
D17*
G04 #@! TO.N,/USB-ETHERNET CONTROLLER/TX-*
X19750000Y31060000D03*
G04 #@! TO.N,/USB-ETHERNET CONTROLLER/RX+*
X17210000Y29790000D03*
G04 #@! TO.N,Net-(C67-Pad2)*
X19750000Y28520000D03*
X17210000Y27250000D03*
G04 #@! TO.N,/USB-ETHERNET CONTROLLER/RX-*
X19750000Y25980000D03*
G04 #@! TO.N,Net-(J3-Pad7)*
X17210000Y24710000D03*
G04 #@! TO.N,GND*
X19750000Y23440000D03*
G04 #@! TO.N,3V3*
X5970000Y34350000D03*
G04 #@! TO.N,Net-(J3-Pad10)*
X5970000Y31810000D03*
G04 #@! TO.N,Net-(J3-Pad11)*
X5970000Y23650000D03*
G04 #@! TO.N,3V3*
X5970000Y21110000D03*
D18*
G04 #@! TO.N,GND*
X13970000Y35770000D03*
X13970000Y19770000D03*
G04 #@! TD*
D19*
G04 #@! TO.N,/USB-ETHERNET CONTROLLER/USB_PWR_2*
G04 #@! TO.C,USB*
X13490000Y12650000D03*
D20*
G04 #@! TO.N,/USB-ETHERNET CONTROLLER/USB2_N*
X13490000Y10160000D03*
G04 #@! TO.N,/USB-ETHERNET CONTROLLER/USB2_P*
X13490000Y8160000D03*
G04 #@! TO.N,GND*
X13490000Y5660000D03*
G04 #@! TO.N,/USB-ETHERNET CONTROLLER/USB_PWR_3*
X10840000Y12660000D03*
G04 #@! TO.N,/USB-ETHERNET CONTROLLER/USB3_N*
X10840000Y10160000D03*
G04 #@! TO.N,/USB-ETHERNET CONTROLLER/USB3_P*
X10840000Y8160000D03*
G04 #@! TO.N,GND*
X10840000Y5660000D03*
D21*
G04 #@! TO.N,Net-(R33-Pad2)*
X13490000Y2660000D03*
X13490000Y15650000D03*
X7840000Y2560000D03*
X7840000Y15660000D03*
G04 #@! TD*
D10*
G04 #@! TO.N,PIN22/LCD_EN/I2C_SCL*
G04 #@! TO.C,SCL*
X82430000Y11880000D03*
D11*
G04 #@! TO.N,I2C_SCL*
X84970000Y11880000D03*
G04 #@! TO.N,PIN29/SOFT_SCL*
X87510000Y11880000D03*
G04 #@! TD*
D10*
G04 #@! TO.N,PIN21/LCD_HSYNC/I2C_SDA*
G04 #@! TO.C,SDA*
X82430000Y8290000D03*
D11*
G04 #@! TO.N,I2C_SDA*
X84970000Y8290000D03*
G04 #@! TO.N,PIN28/SOFT_SDA*
X87510000Y8290000D03*
G04 #@! TD*
D22*
G04 #@! TO.N,3.3VIO*
G04 #@! TO.C,BOOT-SW*
X43460000Y16630000D03*
D23*
G04 #@! TO.N,Net-(RN1-Pad4)*
X51080000Y9010000D03*
G04 #@! TO.N,3.3VIO*
X43460000Y14090000D03*
G04 #@! TO.N,Net-(RN1-Pad3)*
X51080000Y11550000D03*
G04 #@! TO.N,3.3VIO*
X43460000Y11550000D03*
G04 #@! TO.N,Net-(RN1-Pad2)*
X51080000Y14090000D03*
D24*
G04 #@! TO.N,3.3VIO*
X43460000Y9010000D03*
D23*
G04 #@! TO.N,Net-(RN1-Pad1)*
X51080000Y16630000D03*
G04 #@! TD*
D10*
G04 #@! TO.N,PWM0/DUART_RXD*
G04 #@! TO.C,U_DEBUG*
X87000000Y37940000D03*
D11*
G04 #@! TO.N,PWM1/DUART_TXD*
X84460000Y37940000D03*
G04 #@! TO.N,GND*
X81920000Y37940000D03*
G04 #@! TO.N,DEBUG*
X79380000Y37940000D03*
G04 #@! TD*
D25*
G04 #@! TO.N,V_IN*
G04 #@! TO.C,VIN_5VDC*
X9960000Y42930000D03*
G04 #@! TO.N,GND*
X3960000Y42930000D03*
X6960000Y38230000D03*
G04 #@! TD*
D26*
G04 #@! TO.N,GND*
G04 #@! TO.C,VIDEO*
X34505000Y4610000D03*
D27*
G04 #@! TO.N,VIDEO*
X30720000Y10110000D03*
X38220000Y10110000D03*
X34490000Y10110000D03*
D26*
G04 #@! TO.N,GND*
X34490000Y4610000D03*
D28*
G04 #@! TO.N,*
X38230000Y1780000D03*
X30730000Y1780000D03*
G04 #@! TD*
D12*
G04 #@! TO.N,GND*
G04 #@! TO.C,REF\002A\002A*
X44580000Y3370000D03*
G04 #@! TD*
D29*
G04 #@! TO.N,GND*
X25980000Y19780000D03*
X25980000Y19370000D03*
X25980000Y18920000D03*
X26419685Y31514723D03*
X26820000Y27080000D03*
X26460000Y27080000D03*
X35940000Y14940000D03*
X80250000Y33290000D03*
X56640000Y40976210D03*
X56110000Y40976210D03*
X55610000Y40976210D03*
D30*
X25540000Y23640000D03*
X25610000Y24880000D03*
X60820000Y12840000D03*
D31*
X39322500Y27852500D03*
X37485000Y27852500D03*
X35647500Y27852500D03*
X39322500Y22340000D03*
X37485000Y22340000D03*
X35647500Y22340000D03*
X39322500Y24177500D03*
X37485000Y24177500D03*
X35647500Y24177500D03*
X35647500Y26015000D03*
X39322500Y26015000D03*
X37485000Y26015000D03*
D30*
X54630000Y28440000D03*
X54640000Y27080000D03*
X54690000Y25680000D03*
X49410000Y23290000D03*
X49410000Y22880000D03*
X49410000Y22370000D03*
X49410000Y21870000D03*
D29*
X58200000Y25170000D03*
X57120000Y31320000D03*
D30*
X40500000Y15910000D03*
D29*
X30250000Y31140000D03*
X29180000Y28530000D03*
X49800000Y7830000D03*
X57590000Y10460000D03*
X69960000Y9710000D03*
X61470000Y23140000D03*
D30*
X44939794Y36779166D03*
X35280000Y36010000D03*
X37440000Y44620000D03*
X57100000Y19471027D03*
X78490000Y17990000D03*
X64039965Y30535204D03*
X77479647Y33460369D03*
X82660000Y18434998D03*
X85275738Y33044434D03*
X83990000Y33130000D03*
D29*
G04 #@! TO.N,VIDEO*
X55420453Y31918565D03*
X53060000Y25700000D03*
X33930000Y13630000D03*
G04 #@! TO.N,/ARM_CPU/DCDC_VDDD*
X57870000Y14630000D03*
X60970000Y36990000D03*
G04 #@! TO.N,3.3VIO*
X50339632Y22684335D03*
D30*
X80610000Y36700000D03*
D29*
X57220000Y35990000D03*
D30*
X44120000Y38680000D03*
X44450000Y38970000D03*
X81340000Y14930000D03*
X68680000Y12750000D03*
X62330000Y36480000D03*
G04 #@! TO.N,2V5*
X64480000Y18620000D03*
D29*
X57000000Y25510000D03*
D30*
X76055000Y17990000D03*
D29*
X80090000Y17660000D03*
X84430000Y26890000D03*
X84340000Y24470000D03*
X74230000Y26790000D03*
X77250000Y23950000D03*
X74141381Y21224990D03*
X78200000Y33060000D03*
X84090222Y21096074D03*
X85810000Y20260000D03*
X82183376Y32956624D03*
D30*
G04 #@! TO.N,Net-(C10-Pad1)*
X53410000Y28970000D03*
G04 #@! TO.N,5V*
X21630000Y42550000D03*
X21320000Y42250000D03*
X16330000Y37420000D03*
D31*
X56460000Y28400000D03*
D30*
X22980000Y45040000D03*
X22980000Y44580000D03*
X20137783Y39653119D03*
X20108004Y40230824D03*
X20110000Y40860000D03*
X20100000Y41400000D03*
D29*
X27960000Y3170000D03*
D31*
X19500000Y18530000D03*
X19500000Y17700000D03*
D29*
G04 #@! TO.N,/ARM_CPU/DCDC_VDDA*
X58096202Y25810000D03*
X58460000Y33370000D03*
D30*
G04 #@! TO.N,/ARM_CPU/XTI*
X56650000Y15490000D03*
G04 #@! TO.N,/ARM_CPU/XTO*
X53300000Y19570000D03*
G04 #@! TO.N,BATT+*
X46640000Y36300000D03*
X46510000Y36780000D03*
X19140000Y45720000D03*
X19140000Y46300000D03*
X19140000Y46840000D03*
X52582585Y29360000D03*
X57620000Y28775000D03*
D29*
G04 #@! TO.N,/ARM_CPU/VDDXTAL*
X52300000Y10340000D03*
X56190000Y20420000D03*
D30*
G04 #@! TO.N,Net-(C40-Pad2)*
X78160000Y33940000D03*
D29*
X74230000Y31675000D03*
D30*
G04 #@! TO.N,3V3*
X31930000Y37670000D03*
X10510000Y18410000D03*
X38930000Y17720000D03*
X37570000Y17720000D03*
X36210000Y17720000D03*
X44420000Y24346250D03*
X27180000Y20430000D03*
X43850000Y27846250D03*
D29*
X27890000Y1570000D03*
G04 #@! TO.N,Net-(C47-Pad1)*
X46190000Y20430000D03*
X32330000Y19510000D03*
D30*
G04 #@! TO.N,Net-(C48-Pad1)*
X44100000Y28850000D03*
G04 #@! TO.N,Net-(C49-Pad1)*
X44030000Y29910000D03*
X35706274Y30886274D03*
D31*
G04 #@! TO.N,/USB-ETHERNET CONTROLLER/USB_PWR_2*
X18360000Y5360000D03*
X18970000Y7330000D03*
G04 #@! TO.N,/USB-ETHERNET CONTROLLER/USB_PWR_3*
X17710000Y15080000D03*
X17190000Y15600000D03*
D30*
G04 #@! TO.N,/USB-ETHERNET CONTROLLER/AVCC*
X30540000Y24346250D03*
X31020000Y24346250D03*
X25303998Y33070911D03*
X26100000Y22630000D03*
X25730000Y22260000D03*
X42850000Y30460000D03*
X44250000Y33260000D03*
X44240000Y33720000D03*
X34613750Y30794980D03*
X33020000Y26800000D03*
D29*
G04 #@! TO.N,/USB-ETHERNET CONTROLLER/RX-*
X40170000Y30623517D03*
G04 #@! TO.N,/USB-ETHERNET CONTROLLER/RX+*
X40686269Y30929243D03*
G04 #@! TO.N,/USB-ETHERNET CONTROLLER/TX-*
X38691524Y30663297D03*
G04 #@! TO.N,/USB-ETHERNET CONTROLLER/TX+*
X39184195Y30288627D03*
G04 #@! TO.N,Net-(C67-Pad2)*
X15090000Y27560000D03*
D30*
G04 #@! TO.N,Net-(C73-Pad1)*
X27580000Y38280000D03*
X25680000Y37710000D03*
D31*
G04 #@! TO.N,Net-(C75-Pad1)*
X26680928Y32444305D03*
X26180000Y32703319D03*
D29*
G04 #@! TO.N,PIN1/LCD_D00*
X48940000Y10420000D03*
G04 #@! TO.N,I2C_SDA*
X46410000Y15300000D03*
X50920000Y18790000D03*
X81676663Y13663143D03*
X52860000Y11400000D03*
G04 #@! TO.N,PIN2/LCD_D01*
X44709990Y10260000D03*
X48140000Y10250000D03*
G04 #@! TO.N,I2C_SCL*
X46090000Y19800000D03*
X81480000Y14230000D03*
X41936890Y12818820D03*
X52401483Y12651483D03*
G04 #@! TO.N,PIN26/LCD_CS*
X65763311Y7483311D03*
G04 #@! TO.N,PIN25/LCD_RS*
X75470000Y13320000D03*
X69040000Y7350000D03*
G04 #@! TO.N,PIN24/LCD_WR*
X68523652Y7044407D03*
G04 #@! TO.N,PIN23/LCD_DISP*
X68779486Y6260040D03*
G04 #@! TO.N,PIN9/LCD_D08/SSP2_MISO*
X69780000Y14190491D03*
G04 #@! TO.N,PIN22/LCD_EN/I2C_SCL*
X66090000Y8420000D03*
G04 #@! TO.N,PIN21/LCD_HSYNC/I2C_SDA*
X67559810Y9609810D03*
G04 #@! TO.N,PIN20/LCD_VSYNC*
X71078211Y6890000D03*
G04 #@! TO.N,PIN19/LCD_DOTCLK*
X70500000Y8300000D03*
D30*
G04 #@! TO.N,PIN13/LCD_D12*
X74920000Y7450000D03*
D29*
G04 #@! TO.N,PIN18/LCD_D17/USB_EN*
X47410000Y17470000D03*
X49657265Y17470000D03*
X63360000Y19210000D03*
X30579998Y19060000D03*
X69696483Y13516483D03*
X78480000Y6300000D03*
G04 #@! TO.N,PIN17/LCD_D16*
X68950000Y13570000D03*
D30*
G04 #@! TO.N,PIN16/LCD_D15*
X74440000Y8020000D03*
D29*
G04 #@! TO.N,USB_N*
X37790000Y31320000D03*
X61774309Y21963616D03*
G04 #@! TO.N,PWM0/DUART_RXD*
X57380000Y32790000D03*
X61980000Y23550000D03*
G04 #@! TO.N,PWM1/DUART_TXD*
X73580000Y44440000D03*
X62542651Y23758389D03*
G04 #@! TO.N,PIN27/PWM2*
X70524823Y44393633D03*
X57903549Y44300000D03*
G04 #@! TO.N,PIN28/SOFT_SDA*
X72500000Y42660000D03*
G04 #@! TO.N,PIN29/SOFT_SCL*
X73200000Y42520000D03*
G04 #@! TO.N,AUART1_TXD*
X52360000Y39050000D03*
X63240000Y24440000D03*
G04 #@! TO.N,AUART1_RDX*
X51203517Y39534335D03*
X63300000Y25600000D03*
G04 #@! TO.N,PIN32/LRADC1*
X50356483Y39244334D03*
X61860000Y25260000D03*
G04 #@! TO.N,SSP2_MOSI*
X49091411Y39218202D03*
X62899538Y27031638D03*
G04 #@! TO.N,PIN33/LRADC0*
X49700000Y39130000D03*
X61219901Y25613065D03*
G04 #@! TO.N,SSP2_SCK*
X48020000Y39525732D03*
X63600000Y27010000D03*
G04 #@! TO.N,PIN34/MIC*
X48510000Y39070000D03*
X61140000Y25000000D03*
G04 #@! TO.N,Net-(HOST_EN1-Pad2)*
X25380000Y46480000D03*
G04 #@! TO.N,Net-(J3-Pad10)*
X10300000Y26250000D03*
G04 #@! TO.N,Net-(J3-Pad11)*
X11650000Y26270000D03*
G04 #@! TO.N,SSP1_SCK*
X43964520Y44588547D03*
X64324195Y41999038D03*
X34720000Y41470000D03*
X34930765Y40059990D03*
G04 #@! TO.N,SSP1_DATA3*
X37180931Y39607872D03*
X41581792Y40575511D03*
X64800000Y40990000D03*
G04 #@! TO.N,SSP1_DATA2*
X43213987Y40259991D03*
X65350000Y41416326D03*
G04 #@! TO.N,SSP1_DATA1*
X65470000Y42849990D03*
X41036642Y42860730D03*
G04 #@! TO.N,SSP1_DATA0*
X66509002Y42566335D03*
X38740000Y42340000D03*
G04 #@! TO.N,SSP1_CMD*
X66900855Y42007703D03*
X36226220Y40393780D03*
G04 #@! TO.N,/ARM_CPU/RESET*
X67395460Y43635460D03*
X48070000Y44320000D03*
X46590000Y40200000D03*
G04 #@! TO.N,P_SWITCH*
X54810000Y10870000D03*
X53820000Y14730000D03*
X61988269Y22837676D03*
G04 #@! TO.N,LED1*
X69380825Y43674741D03*
X85500000Y39130000D03*
D30*
X78420000Y41630000D03*
D29*
X64580000Y39860000D03*
G04 #@! TO.N,CS*
X77050000Y34380000D03*
X72548863Y27481317D03*
G04 #@! TO.N,Net-(R22-Pad1)*
X45440000Y30860008D03*
X41830000Y30830000D03*
G04 #@! TO.N,Net-(R26-Pad2)*
X19920000Y20890000D03*
X27190000Y15110000D03*
X36203750Y19730000D03*
G04 #@! TO.N,Net-(R27-Pad2)*
X20720000Y20340000D03*
X26240000Y15130000D03*
X37137574Y19659687D03*
G04 #@! TO.N,/USB-ETHERNET CONTROLLER/USB2_N*
X31017320Y28256820D03*
G04 #@! TO.N,/USB-ETHERNET CONTROLLER/USB2_P*
X31233164Y27707706D03*
G04 #@! TO.N,/USB-ETHERNET CONTROLLER/USB3_N*
X30974594Y27177382D03*
G04 #@! TO.N,/USB-ETHERNET CONTROLLER/USB3_P*
X32189456Y27240632D03*
G04 #@! TO.N,DEBUG*
X64179253Y39413453D03*
X70226504Y43711175D03*
G04 #@! TO.N,CLK*
X69399145Y25838279D03*
G04 #@! TO.N,CLKN*
X69626604Y24916604D03*
G04 #@! TO.N,DQS0*
X79067190Y18380143D03*
G04 #@! TO.N,DQS1*
X73701630Y23554658D03*
G04 #@! TO.N,D00*
X83204703Y21620399D03*
G04 #@! TO.N,D02*
X82490000Y22130000D03*
G04 #@! TO.N,D01*
X83402954Y22238789D03*
G04 #@! TO.N,D03*
X83639875Y23188800D03*
G04 #@! TO.N,DQM0*
X72801763Y25052727D03*
G04 #@! TO.N,D04*
X82969615Y23754298D03*
G04 #@! TO.N,D05*
X83408812Y24247877D03*
G04 #@! TO.N,D06*
X82892135Y24800525D03*
G04 #@! TO.N,D07*
X83373683Y25176597D03*
G04 #@! TO.N,D08*
X83578597Y25912343D03*
G04 #@! TO.N,D09*
X83645546Y26568988D03*
G04 #@! TO.N,D10*
X82750000Y27350000D03*
G04 #@! TO.N,D11*
X83467540Y27467171D03*
G04 #@! TO.N,DQM1*
X73682234Y29498669D03*
G04 #@! TO.N,D12*
X83576152Y28176215D03*
G04 #@! TO.N,D13*
X81460000Y29040000D03*
G04 #@! TO.N,D15*
X81888468Y29912213D03*
G04 #@! TO.N,D14*
X82666062Y29320918D03*
G04 #@! TO.N,CASN*
X72671940Y25677564D03*
G04 #@! TO.N,RASN*
X72163679Y26933562D03*
G04 #@! TO.N,A12*
X75410000Y34200000D03*
G04 #@! TO.N,A11*
X75298630Y35681884D03*
G04 #@! TO.N,A10*
X71317395Y29330534D03*
G04 #@! TO.N,A09*
X74893994Y36394915D03*
G04 #@! TO.N,A08*
X73846385Y36811958D03*
G04 #@! TO.N,A07*
X72399814Y36888903D03*
G04 #@! TO.N,A06*
X69771818Y37116617D03*
G04 #@! TO.N,A05*
X69374646Y36425354D03*
G04 #@! TO.N,A04*
X68920271Y35939729D03*
G04 #@! TO.N,A03*
X70670000Y29259327D03*
G04 #@! TO.N,A02*
X70240418Y28740636D03*
G04 #@! TO.N,A01*
X69299687Y28704939D03*
G04 #@! TO.N,A00*
X68610298Y28453619D03*
G04 #@! TO.N,WEN*
X71942243Y25927823D03*
G04 #@! TO.N,CKE*
X76145000Y33630000D03*
G04 #@! TO.N,BA0*
X68972352Y23738410D03*
G04 #@! TO.N,BA1*
X68308214Y25732485D03*
G04 #@! TO.N,/USB-ETHERNET CONTROLLER/PRTCTL2*
X31788983Y15761017D03*
X31620000Y20609502D03*
G04 #@! TO.N,USB_P*
X37190000Y31420000D03*
X61938249Y21357248D03*
G04 #@! TO.N,/ARM_CPU/SJTAG_PSW*
X60380000Y8530000D03*
G04 #@! TD*
D32*
G04 #@! TO.N,3.3VIO*
X80610000Y36700000D02*
X80602974Y36707026D01*
X80602974Y36707026D02*
X80602974Y38597848D01*
X80602974Y38597848D02*
X82285126Y40280000D01*
X82285126Y40280000D02*
X83220000Y40280000D01*
X83220000Y40280000D02*
X84470000Y41530000D01*
D33*
X57220000Y35990000D02*
X57220000Y36060000D01*
X57220000Y36060000D02*
X57109989Y36170011D01*
X62330000Y36480000D02*
X62020011Y36170011D01*
X62020011Y36170011D02*
X57109989Y36170011D01*
X48937998Y37310000D02*
X55970000Y37310000D01*
X55970000Y37310000D02*
X57109989Y36170011D01*
X44450000Y38970000D02*
X47277998Y38970000D01*
X47277998Y38970000D02*
X48937998Y37310000D01*
D34*
X47930001Y6829999D02*
X45750000Y9010000D01*
X45750000Y9010000D02*
X43460000Y9010000D01*
X62870000Y8510000D02*
X61189999Y6829999D01*
X61189999Y6829999D02*
X47930001Y6829999D01*
X62870000Y9400000D02*
X62870000Y8510000D01*
X65960000Y12490000D02*
X62870000Y9400000D01*
X70990000Y12490000D02*
X65960000Y12490000D01*
X72560000Y14060000D02*
X71000001Y12500001D01*
X73430000Y14930000D02*
X72560000Y14060000D01*
X72560000Y14060000D02*
X70990000Y12490000D01*
X81340000Y14930000D02*
X73430000Y14930000D01*
X71000001Y12500001D02*
X68929999Y12500001D01*
X68929999Y12500001D02*
X68680000Y12750000D01*
X43460000Y11550000D02*
X43460000Y9010000D01*
X43460000Y14090000D02*
X43460000Y11550000D01*
X43460000Y16630000D02*
X43460000Y14090000D01*
D33*
G04 #@! TO.N,2V5*
X76260000Y18548553D02*
X76260000Y22960000D01*
X76260000Y22960000D02*
X77250000Y23950000D01*
X76055000Y17990000D02*
X76055000Y18343553D01*
X76055000Y18343553D02*
X76260000Y18548553D01*
X57000000Y25510000D02*
X57000000Y25227158D01*
X57000000Y25227158D02*
X57310000Y24917158D01*
D35*
X57310000Y24917158D02*
X58650000Y23577158D01*
D33*
X59150000Y20870000D02*
X59150000Y23077158D01*
X59150000Y23077158D02*
X57310000Y24917158D01*
X61800000Y18220000D02*
X59150000Y20870000D01*
X64480000Y18620000D02*
X64080000Y18220000D01*
X64080000Y18220000D02*
X61800000Y18220000D01*
X76055000Y17990000D02*
X65110000Y17990000D01*
X65110000Y17990000D02*
X64480000Y18620000D01*
X80090000Y22820000D02*
X78960000Y23950000D01*
X78960000Y23950000D02*
X77250000Y23950000D01*
X80090000Y17660000D02*
X80090000Y22820000D01*
X83044148Y20050000D02*
X82480000Y20050000D01*
X82480000Y20050000D02*
X80090000Y17660000D01*
X84090222Y21096074D02*
X83044148Y20050000D01*
X75730000Y30590000D02*
X75730000Y28290000D01*
X75730000Y28290000D02*
X74230000Y26790000D01*
X78200000Y33060000D02*
X75730000Y30590000D01*
X80750000Y32490000D02*
X78770000Y32490000D01*
X78770000Y32490000D02*
X78200000Y33060000D01*
X81216624Y32956624D02*
X80750000Y32490000D01*
X82183376Y32956624D02*
X81216624Y32956624D01*
X82183376Y32956624D02*
X82803376Y32956624D01*
X84970000Y30790000D02*
X84970000Y27430000D01*
X82803376Y32956624D02*
X84970000Y30790000D01*
X84970000Y27430000D02*
X84430000Y26890000D01*
X85010000Y26310000D02*
X85010000Y25140000D01*
X85010000Y25140000D02*
X84340000Y24470000D01*
X84430000Y26890000D02*
X85010000Y26310000D01*
X85810000Y20260000D02*
X85810000Y23000000D01*
X85810000Y23000000D02*
X84340000Y24470000D01*
X85810000Y20260000D02*
X84926296Y20260000D01*
X84926296Y20260000D02*
X84090222Y21096074D01*
D32*
G04 #@! TO.N,5V*
X56460000Y28400000D02*
X56460000Y29107106D01*
X56460000Y29107106D02*
X56374089Y29193017D01*
X56374089Y29193017D02*
X56369999Y29193017D01*
D33*
X27960000Y3170000D02*
X26680000Y3170000D01*
X24650000Y5200000D02*
X26680000Y3170000D01*
X26680000Y3170000D02*
X27891131Y3170000D01*
X24650000Y12550000D02*
X24650000Y5200000D01*
X19500000Y17700000D02*
X24650000Y12550000D01*
D36*
X43650000Y34970001D02*
X50593015Y34970001D01*
X23590000Y35110000D02*
X24496671Y34203329D01*
X24496671Y34203329D02*
X42883328Y34203329D01*
X42883328Y34203329D02*
X43650000Y34970001D01*
X72120000Y38590000D02*
X73071334Y38590000D01*
X73071334Y38590000D02*
X77361335Y42880001D01*
X77361335Y42880001D02*
X79520001Y42880001D01*
X79520001Y42880001D02*
X79930000Y43290000D01*
X79930000Y43290000D02*
X79930000Y45390000D01*
X68680000Y38590000D02*
X72120000Y38590000D01*
X65060001Y34970001D02*
X68680000Y38590000D01*
X50593015Y34970001D02*
X65060001Y34970001D01*
X50593015Y34970001D02*
X56369999Y29193017D01*
X56369999Y29193017D02*
X56369999Y28400000D01*
X23590000Y35110000D02*
X23590000Y21433998D01*
X23590000Y36200902D02*
X23590000Y35110000D01*
X20137783Y39653119D02*
X23590000Y36200902D01*
X23590000Y21433998D02*
X20356001Y18199999D01*
X20356001Y18199999D02*
X19999999Y18199999D01*
X19999999Y18199999D02*
X19500000Y17700000D01*
D33*
X22980000Y44580000D02*
X22980000Y44894999D01*
X20108004Y40230824D02*
X20108004Y39682898D01*
X20108004Y39682898D02*
X20137783Y39653119D01*
X20110000Y40860000D02*
X20110000Y40232820D01*
X20110000Y40232820D02*
X20108004Y40230824D01*
X20100000Y41400000D02*
X20100000Y40870000D01*
X20100000Y40870000D02*
X20110000Y40860000D01*
D36*
X20100000Y41400000D02*
X20100000Y39690902D01*
X20100000Y39690902D02*
X20137783Y39653119D01*
X19500000Y18530000D02*
X19500000Y17700000D01*
X82470000Y45390000D02*
X79930000Y45390000D01*
D32*
G04 #@! TO.N,/ARM_CPU/DCDC_VDDA*
X58096202Y26606202D02*
X58460000Y26970000D01*
X58460000Y26970000D02*
X58460000Y33370000D01*
X58096202Y25810000D02*
X58096202Y26606202D01*
D33*
G04 #@! TO.N,BATT+*
X37214488Y41575512D02*
X37030000Y41760000D01*
X37030000Y41760000D02*
X35370000Y43420000D01*
X37350001Y41439999D02*
X37030000Y41760000D01*
X39930000Y38450000D02*
X39930000Y40475512D01*
X39930000Y40475512D02*
X38965513Y41439999D01*
X38965513Y41439999D02*
X37350001Y41439999D01*
X40650001Y37729999D02*
X39930000Y38450000D01*
X46640000Y36300000D02*
X46640000Y36484962D01*
X46640000Y36484962D02*
X45394963Y37729999D01*
X45394963Y37729999D02*
X40650001Y37729999D01*
D35*
X57620000Y27710000D02*
X57620000Y28775000D01*
X56320000Y25140000D02*
X56320000Y26410000D01*
X56320000Y26410000D02*
X57620000Y27710000D01*
X55880000Y24700000D02*
X56320000Y25140000D01*
X52230000Y24700000D02*
X55880000Y24700000D01*
X51830000Y25100000D02*
X52230000Y24700000D01*
X51830000Y28607415D02*
X51830000Y25100000D01*
X52582585Y29360000D02*
X51830000Y28607415D01*
D33*
X21240000Y46040000D02*
X19400000Y46040000D01*
X19400000Y46040000D02*
X19140000Y46300000D01*
X25584999Y44794999D02*
X24099998Y46280000D01*
X24099998Y46280000D02*
X23709998Y46670000D01*
X21870000Y46670000D02*
X21240000Y46040000D01*
X23709998Y46670000D02*
X21870000Y46670000D01*
X29694999Y44794999D02*
X25584999Y44794999D01*
X35370000Y43420000D02*
X31069998Y43420000D01*
X31069998Y43420000D02*
X29694999Y44794999D01*
D34*
X19140000Y45720000D02*
X19140000Y46840000D01*
D36*
G04 #@! TO.N,3V3*
X84160001Y44540001D02*
X84160001Y44050001D01*
X85010000Y45390000D02*
X84160001Y44540001D01*
X77000000Y39720000D02*
X77000000Y37581998D01*
X84160001Y44050001D02*
X80360000Y40250000D01*
X77000000Y37581998D02*
X79131998Y35450000D01*
X84720174Y35450000D02*
X87217070Y32953104D01*
X77530000Y40250000D02*
X77000000Y39720000D01*
X80360000Y40250000D02*
X77530000Y40250000D01*
X87217070Y32953104D02*
X87217070Y19970000D01*
X79131998Y35450000D02*
X84720174Y35450000D01*
X83707061Y16459991D02*
X87217070Y19970000D01*
X48841024Y25880001D02*
X58261034Y16459991D01*
X58261034Y16459991D02*
X83707061Y16459991D01*
X47969999Y25880001D02*
X48841024Y25880001D01*
X47120000Y26730000D02*
X47969999Y25880001D01*
D33*
X17900000Y17270000D02*
X17900000Y16940000D01*
X17900000Y21503998D02*
X17900000Y17270000D01*
X17900000Y17270000D02*
X17900000Y16728490D01*
X17900000Y16728490D02*
X18009245Y16619245D01*
D34*
X19010008Y15618482D02*
X18009245Y16619245D01*
X20710000Y6280000D02*
X20710000Y13918490D01*
X20710000Y13918490D02*
X19010008Y15618482D01*
X25420000Y1570000D02*
X20710000Y6280000D01*
X27890000Y1570000D02*
X25420000Y1570000D01*
X28891141Y3200000D02*
X28891141Y2571141D01*
X28891141Y3200000D02*
X28891141Y3658860D01*
X28891141Y3658860D02*
X28099096Y4450905D01*
X27180000Y20430000D02*
X27180000Y16600002D01*
X27180000Y16600002D02*
X28099096Y15680906D01*
X28099096Y15680906D02*
X28099096Y4450905D01*
X28891141Y2571141D02*
X27960000Y1640000D01*
X27960000Y1640000D02*
X27890000Y1570000D01*
X29790000Y35530000D02*
X31930000Y37670000D01*
X22589999Y43600001D02*
X23430000Y42760000D01*
X23430000Y42760000D02*
X23430000Y38199392D01*
X26099392Y35530000D02*
X29790000Y35530000D01*
X23430000Y38199392D02*
X26099392Y35530000D01*
X5970000Y34350000D02*
X7975998Y34350000D01*
X7975998Y34350000D02*
X12035998Y38410000D01*
X14810000Y38410000D02*
X20000001Y43600001D01*
X12035998Y38410000D02*
X14810000Y38410000D01*
X20000001Y43600001D02*
X22589999Y43600001D01*
X43850000Y27846250D02*
X43850000Y26887940D01*
X43850000Y26887940D02*
X44007940Y26730000D01*
X44007940Y26730000D02*
X47120000Y26730000D01*
X43850000Y27846250D02*
X43850000Y26710000D01*
X43850000Y26710000D02*
X43850000Y24916250D01*
X47120000Y26730000D02*
X43870000Y26730000D01*
X43870000Y26730000D02*
X43850000Y26710000D01*
X43850000Y24916250D02*
X44420000Y24346250D01*
X27780000Y20430000D02*
X27180000Y20430000D01*
X36210000Y17720000D02*
X30490000Y17720000D01*
X30490000Y17720000D02*
X27780000Y20430000D01*
X38930000Y17720000D02*
X36210000Y17720000D01*
X44420000Y24346250D02*
X44420000Y23210000D01*
X44420000Y23210000D02*
X38930000Y17720000D01*
X47120000Y26730000D02*
X46803750Y26730000D01*
D33*
X5970000Y34350000D02*
X9550001Y30769999D01*
X9550001Y30769999D02*
X9550001Y29853997D01*
X9550001Y29853997D02*
X17900000Y21503998D01*
X23450000Y41580000D02*
X23450000Y38037972D01*
X23450000Y38037972D02*
X25957972Y35530000D01*
X25957972Y35530000D02*
X29790000Y35530000D01*
X40010000Y18800000D02*
X38930000Y17720000D01*
X40522501Y19312501D02*
X40010000Y18800000D01*
X37570000Y17720000D02*
X36210000Y17720000D01*
X38930000Y17720000D02*
X37570000Y17720000D01*
D36*
X87550000Y45390000D02*
X87550000Y42070000D01*
X87550000Y42070000D02*
X87010000Y41530000D01*
X85010000Y45390000D02*
X87550000Y45390000D01*
G04 #@! TO.N,/USB-ETHERNET CONTROLLER/USB_PWR_2*
X18970000Y7330000D02*
X18970000Y5970000D01*
X18970000Y5970000D02*
X18360000Y5360000D01*
X13490000Y12650000D02*
X13650000Y12650000D01*
X13650000Y12650000D02*
X18970000Y7330000D01*
G04 #@! TO.N,/USB-ETHERNET CONTROLLER/USB_PWR_3*
X10840000Y12660000D02*
X6913031Y12660000D01*
X6913031Y12660000D02*
X2180000Y17393031D01*
X2180000Y24170000D02*
X4040000Y26030000D01*
X8470001Y25049999D02*
X12390003Y25049999D01*
X2180000Y17393031D02*
X2180000Y24170000D01*
X4040000Y26030000D02*
X7490000Y26030000D01*
X7490000Y26030000D02*
X8470001Y25049999D01*
X12390003Y25049999D02*
X16563539Y20876463D01*
X16563539Y20876463D02*
X16563539Y16226461D01*
X16563539Y16226461D02*
X17190000Y15600000D01*
X17190000Y15600000D02*
X17210001Y15579999D01*
X17210001Y15579999D02*
X17710000Y15080000D01*
D34*
G04 #@! TO.N,/USB-ETHERNET CONTROLLER/AVCC*
X28130000Y24346250D02*
X27816250Y24346250D01*
X30540000Y24346250D02*
X28130000Y24346250D01*
X27816250Y24346250D02*
X25730000Y22260000D01*
D35*
X31490000Y24346250D02*
X31640000Y24346250D01*
X31020000Y24346250D02*
X31490000Y24346250D01*
D34*
X31490000Y24346250D02*
X30540000Y24346250D01*
X33020000Y26800000D02*
X33020000Y25726250D01*
X33020000Y25726250D02*
X31640000Y24346250D01*
X34613750Y30794980D02*
X36099725Y29309005D01*
X36099725Y29309005D02*
X41699005Y29309005D01*
X41699005Y29309005D02*
X42850000Y30460000D01*
D35*
X30540000Y24346250D02*
X31020000Y24346250D01*
X26100000Y22630000D02*
X25730000Y22260000D01*
X26510000Y25100000D02*
X26510000Y23040000D01*
X26510000Y23040000D02*
X26100000Y22630000D01*
X25303998Y26306002D02*
X26510000Y25100000D01*
X25303998Y33070911D02*
X25303998Y26306002D01*
D34*
X33020000Y26800000D02*
X33020000Y29201230D01*
X33020000Y29201230D02*
X34613750Y30794980D01*
D36*
G04 #@! TO.N,Net-(C75-Pad1)*
X26680928Y32444305D02*
X26527394Y32444305D01*
X26527394Y32444305D02*
X26553999Y32470910D01*
X26553999Y32470910D02*
X26553999Y32703319D01*
X40688195Y32703319D02*
X27350000Y32703319D01*
X27350000Y32703319D02*
X26553999Y32703319D01*
X26180000Y32703319D02*
X27350000Y32703319D01*
X47120000Y29270000D02*
X47120000Y31120000D01*
X47120000Y31120000D02*
X46479992Y31760008D01*
X46479992Y31760008D02*
X41631506Y31760008D01*
X41631506Y31760008D02*
X40688195Y32703319D01*
G04 #@! TO.N,V_IN*
X9960000Y42930000D02*
X9960000Y45680000D01*
X9960000Y45680000D02*
X12525011Y48245011D01*
X12525011Y48245011D02*
X44284989Y48245011D01*
X44284989Y48245011D02*
X46470000Y46060000D01*
X65698667Y37730001D02*
X68058676Y40090010D01*
X46470000Y46060000D02*
X46470000Y43750000D01*
X68058676Y40090010D02*
X72450010Y40090010D01*
X46470000Y43750000D02*
X48120000Y42100000D01*
X48120000Y42100000D02*
X58900001Y42100000D01*
X58900001Y42100000D02*
X63270000Y37730001D01*
X63270000Y37730001D02*
X65698667Y37730001D01*
X74850000Y42490000D02*
X74850000Y45390000D01*
X72450010Y40090010D02*
X74850000Y42490000D01*
X77390000Y45390000D02*
X74850000Y45390000D01*
G04 #@! TD*
D37*
G04 #@! TO.N,GND*
G36*
X45769997Y25379997D02*
X46059309Y25142564D01*
X46389383Y24966136D01*
X46747535Y24857492D01*
X46806262Y24851708D01*
X46820142Y24837828D01*
X46868681Y24778683D01*
X47104699Y24584988D01*
X47373970Y24441060D01*
X47666146Y24352429D01*
X47893861Y24330001D01*
X47893870Y24330001D01*
X47969998Y24322503D01*
X48046126Y24330001D01*
X48198994Y24330001D01*
X49240175Y23288820D01*
X49231897Y23276432D01*
X49137669Y23048946D01*
X49089632Y22807449D01*
X49089632Y22561221D01*
X49137669Y22319724D01*
X49231897Y22092238D01*
X49368694Y21887507D01*
X49542804Y21713397D01*
X49747535Y21576600D01*
X49975021Y21482372D01*
X50216518Y21434335D01*
X50462746Y21434335D01*
X50704243Y21482372D01*
X50931729Y21576600D01*
X50944117Y21584878D01*
X52226165Y20302830D01*
X52147955Y20185781D01*
X52049958Y19949196D01*
X52000000Y19698039D01*
X52000000Y19441961D01*
X52005199Y19415825D01*
X51890938Y19586828D01*
X51716828Y19760938D01*
X51512097Y19897735D01*
X51284611Y19991963D01*
X51043114Y20040000D01*
X50796886Y20040000D01*
X50555389Y19991963D01*
X50327903Y19897735D01*
X50123172Y19760938D01*
X49949062Y19586828D01*
X49812265Y19382097D01*
X49718037Y19154611D01*
X49670000Y18913114D01*
X49670000Y18720000D01*
X49534151Y18720000D01*
X49292654Y18671963D01*
X49065168Y18577735D01*
X48860437Y18440938D01*
X48686327Y18266828D01*
X48549530Y18062097D01*
X48533633Y18023717D01*
X48517735Y18062097D01*
X48380938Y18266828D01*
X48206828Y18440938D01*
X48002097Y18577735D01*
X47774611Y18671963D01*
X47533114Y18720000D01*
X47286886Y18720000D01*
X47045389Y18671963D01*
X46817903Y18577735D01*
X46613172Y18440938D01*
X46439062Y18266828D01*
X46302265Y18062097D01*
X46208037Y17834611D01*
X46160000Y17593114D01*
X46160000Y17346886D01*
X46208037Y17105389D01*
X46302265Y16877903D01*
X46439062Y16673172D01*
X46569465Y16542769D01*
X46533114Y16550000D01*
X46286886Y16550000D01*
X46045389Y16501963D01*
X45817903Y16407735D01*
X45613172Y16270938D01*
X45439062Y16096828D01*
X45302265Y15892097D01*
X45208037Y15664611D01*
X45160000Y15423114D01*
X45160000Y15176886D01*
X45208037Y14935389D01*
X45302265Y14707903D01*
X45439062Y14503172D01*
X45613172Y14329062D01*
X45817903Y14192265D01*
X46045389Y14098037D01*
X46286886Y14050000D01*
X46533114Y14050000D01*
X46774611Y14098037D01*
X47002097Y14192265D01*
X47206828Y14329062D01*
X47380938Y14503172D01*
X47517735Y14707903D01*
X47611963Y14935389D01*
X47660000Y15176886D01*
X47660000Y15423114D01*
X47611963Y15664611D01*
X47517735Y15892097D01*
X47380938Y16096828D01*
X47250535Y16227231D01*
X47286886Y16220000D01*
X47533114Y16220000D01*
X47774611Y16268037D01*
X48002097Y16362265D01*
X48206828Y16499062D01*
X48380938Y16673172D01*
X48517735Y16877903D01*
X48533633Y16916283D01*
X48549530Y16877903D01*
X48686327Y16673172D01*
X48860437Y16499062D01*
X49065168Y16362265D01*
X49255170Y16283563D01*
X49256768Y16267337D01*
X49362553Y15918610D01*
X49534339Y15597222D01*
X49729022Y15360000D01*
X49534339Y15122778D01*
X49362553Y14801390D01*
X49256768Y14452663D01*
X49221049Y14090000D01*
X49256768Y13727337D01*
X49362553Y13378610D01*
X49534339Y13057222D01*
X49729022Y12820000D01*
X49534339Y12582778D01*
X49362553Y12261390D01*
X49256768Y11912663D01*
X49229606Y11636882D01*
X49063114Y11670000D01*
X48816886Y11670000D01*
X48575389Y11621963D01*
X48347903Y11527735D01*
X48296466Y11493366D01*
X48263114Y11500000D01*
X48016886Y11500000D01*
X47775389Y11451963D01*
X47547903Y11357735D01*
X47343172Y11220938D01*
X47169062Y11046828D01*
X47032265Y10842097D01*
X46938037Y10614611D01*
X46890000Y10373114D01*
X46890000Y10126886D01*
X46938037Y9885389D01*
X47032265Y9657903D01*
X47074512Y9594677D01*
X46751491Y9917697D01*
X46709213Y9969213D01*
X46503649Y10137915D01*
X46269122Y10263272D01*
X46014646Y10340467D01*
X45959990Y10345850D01*
X45959990Y10383114D01*
X45911953Y10624611D01*
X45817725Y10852097D01*
X45680928Y11056828D01*
X45506818Y11230938D01*
X45302087Y11367735D01*
X45301042Y11368168D01*
X45318951Y11550000D01*
X45283232Y11912663D01*
X45177447Y12261390D01*
X45005661Y12582778D01*
X44810978Y12820000D01*
X45005661Y13057222D01*
X45177447Y13378610D01*
X45283232Y13727337D01*
X45318951Y14090000D01*
X45283232Y14452663D01*
X45177447Y14801390D01*
X45005661Y15122778D01*
X44810000Y15361192D01*
X44810000Y15363705D01*
X44896989Y15450694D01*
X45099448Y15753697D01*
X45238905Y16090375D01*
X45310000Y16447791D01*
X45310000Y16812209D01*
X45238905Y17169625D01*
X45099448Y17506303D01*
X44896989Y17809306D01*
X44639306Y18066989D01*
X44336303Y18269448D01*
X43999625Y18408905D01*
X43642209Y18480000D01*
X43277791Y18480000D01*
X42920375Y18408905D01*
X42583697Y18269448D01*
X42280694Y18066989D01*
X42023011Y17809306D01*
X41820552Y17506303D01*
X41681095Y17169625D01*
X41610000Y16812209D01*
X41610000Y16447791D01*
X41681095Y16090375D01*
X41820552Y15753697D01*
X42023011Y15450694D01*
X42110000Y15363705D01*
X42110000Y15361193D01*
X41914339Y15122778D01*
X41742553Y14801390D01*
X41636768Y14452663D01*
X41601049Y14090000D01*
X41607182Y14027726D01*
X41572279Y14020783D01*
X41344793Y13926555D01*
X41140062Y13789758D01*
X40965952Y13615648D01*
X40829155Y13410917D01*
X40734927Y13183431D01*
X40686890Y12941934D01*
X40686890Y12695706D01*
X40734927Y12454209D01*
X40829155Y12226723D01*
X40965952Y12021992D01*
X41140062Y11847882D01*
X41344793Y11711085D01*
X41572279Y11616857D01*
X41606954Y11609960D01*
X41601049Y11550000D01*
X41636768Y11187337D01*
X41742553Y10838610D01*
X41901614Y10541028D01*
X41782733Y10396171D01*
X41685233Y10213762D01*
X41625193Y10015836D01*
X41604920Y9810000D01*
X41604920Y8210000D01*
X41625193Y8004164D01*
X41685233Y7806238D01*
X41782733Y7623829D01*
X41913946Y7463946D01*
X42073829Y7332733D01*
X42256238Y7235233D01*
X42454164Y7175193D01*
X42660000Y7154920D01*
X44260000Y7154920D01*
X44465836Y7175193D01*
X44663762Y7235233D01*
X44846171Y7332733D01*
X45006054Y7463946D01*
X45137267Y7623829D01*
X45156601Y7660000D01*
X45190812Y7660000D01*
X46928514Y5922297D01*
X46970788Y5870786D01*
X47022299Y5828512D01*
X47022302Y5828509D01*
X47176351Y5702084D01*
X47243587Y5666146D01*
X47410879Y5576727D01*
X47587062Y5523282D01*
X47574920Y5400000D01*
X47574920Y3700000D01*
X47595193Y3494164D01*
X47655233Y3296238D01*
X47752733Y3113829D01*
X47851376Y2993633D01*
X47716136Y2740617D01*
X47607492Y2382465D01*
X47570807Y2010000D01*
X47607492Y1637535D01*
X47716136Y1279383D01*
X47795983Y1130000D01*
X40445767Y1130000D01*
X40530000Y1553470D01*
X40530000Y2006530D01*
X40441613Y2450885D01*
X40268234Y2869459D01*
X40016527Y3246165D01*
X39696165Y3566527D01*
X39319459Y3818234D01*
X38900885Y3991613D01*
X38456530Y4080000D01*
X38003470Y4080000D01*
X37559115Y3991613D01*
X37140541Y3818234D01*
X36763835Y3566527D01*
X36443473Y3246165D01*
X36191766Y2869459D01*
X36018387Y2450885D01*
X35930000Y2006530D01*
X35930000Y1553470D01*
X36014233Y1130000D01*
X32945767Y1130000D01*
X33030000Y1553470D01*
X33030000Y2006530D01*
X32941613Y2450885D01*
X32768234Y2869459D01*
X32516527Y3246165D01*
X32196165Y3566527D01*
X31819459Y3818234D01*
X31400885Y3991613D01*
X30956530Y4080000D01*
X30503470Y4080000D01*
X30192876Y4018220D01*
X30144413Y4177981D01*
X30091094Y4277735D01*
X30019056Y4412510D01*
X29964607Y4478856D01*
X29850354Y4618073D01*
X29798833Y4660356D01*
X29449096Y5010093D01*
X29449096Y7556979D01*
X29470000Y7554920D01*
X31970000Y7554920D01*
X32175836Y7575193D01*
X32373762Y7635233D01*
X32556171Y7732733D01*
X32605000Y7772806D01*
X32653829Y7732733D01*
X32836238Y7635233D01*
X33034164Y7575193D01*
X33240000Y7554920D01*
X35740000Y7554920D01*
X35945836Y7575193D01*
X36143762Y7635233D01*
X36326171Y7732733D01*
X36355000Y7756392D01*
X36383829Y7732733D01*
X36566238Y7635233D01*
X36764164Y7575193D01*
X36970000Y7554920D01*
X39470000Y7554920D01*
X39675836Y7575193D01*
X39873762Y7635233D01*
X40056171Y7732733D01*
X40216054Y7863946D01*
X40347267Y8023829D01*
X40444767Y8206238D01*
X40504807Y8404164D01*
X40525080Y8610000D01*
X40525080Y11610000D01*
X40504807Y11815836D01*
X40444767Y12013762D01*
X40347267Y12196171D01*
X40216054Y12356054D01*
X40056171Y12487267D01*
X39873762Y12584767D01*
X39675836Y12644807D01*
X39470000Y12665080D01*
X36970000Y12665080D01*
X36764164Y12644807D01*
X36566238Y12584767D01*
X36383829Y12487267D01*
X36355000Y12463608D01*
X36326171Y12487267D01*
X36143762Y12584767D01*
X35945836Y12644807D01*
X35740000Y12665080D01*
X34732846Y12665080D01*
X34900938Y12833172D01*
X35037735Y13037903D01*
X35131963Y13265389D01*
X35180000Y13506886D01*
X35180000Y13753114D01*
X35131963Y13994611D01*
X35037735Y14222097D01*
X34900938Y14426828D01*
X34726828Y14600938D01*
X34522097Y14737735D01*
X34294611Y14831963D01*
X34053114Y14880000D01*
X33806886Y14880000D01*
X33565389Y14831963D01*
X33337903Y14737735D01*
X33133172Y14600938D01*
X32959062Y14426828D01*
X32822265Y14222097D01*
X32728037Y13994611D01*
X32680000Y13753114D01*
X32680000Y13506886D01*
X32728037Y13265389D01*
X32822265Y13037903D01*
X32959062Y12833172D01*
X33133172Y12659062D01*
X33139046Y12655137D01*
X33034164Y12644807D01*
X32836238Y12584767D01*
X32653829Y12487267D01*
X32605000Y12447194D01*
X32556171Y12487267D01*
X32373762Y12584767D01*
X32175836Y12644807D01*
X31970000Y12665080D01*
X29470000Y12665080D01*
X29449096Y12663021D01*
X29449096Y15614588D01*
X29455628Y15680907D01*
X29443165Y15807447D01*
X29429563Y15945552D01*
X29352368Y16200028D01*
X29284817Y16326408D01*
X29227011Y16434556D01*
X29100586Y16588605D01*
X29100579Y16588612D01*
X29058308Y16640119D01*
X29006802Y16682389D01*
X28530000Y17159190D01*
X28530000Y17770812D01*
X29488509Y16812303D01*
X29530787Y16760787D01*
X29582302Y16718510D01*
X29736350Y16592085D01*
X29856747Y16527732D01*
X29970878Y16466728D01*
X30225354Y16389533D01*
X30423679Y16370000D01*
X30423681Y16370000D01*
X30490000Y16363468D01*
X30556319Y16370000D01*
X30692531Y16370000D01*
X30681248Y16353114D01*
X30587020Y16125628D01*
X30538983Y15884131D01*
X30538983Y15637903D01*
X30587020Y15396406D01*
X30681248Y15168920D01*
X30818045Y14964189D01*
X30992155Y14790079D01*
X31196886Y14653282D01*
X31424372Y14559054D01*
X31665869Y14511017D01*
X31912097Y14511017D01*
X32153594Y14559054D01*
X32381080Y14653282D01*
X32585811Y14790079D01*
X32759921Y14964189D01*
X32896718Y15168920D01*
X32990946Y15396406D01*
X33038983Y15637903D01*
X33038983Y15884131D01*
X32990946Y16125628D01*
X32896718Y16353114D01*
X32885435Y16370000D01*
X38863681Y16370000D01*
X38930000Y16363468D01*
X38996319Y16370000D01*
X38996321Y16370000D01*
X39194646Y16389533D01*
X39449122Y16466728D01*
X39683649Y16592085D01*
X39889213Y16760787D01*
X39931491Y16812303D01*
X43042302Y19923114D01*
X44840000Y19923114D01*
X44840000Y19676886D01*
X44888037Y19435389D01*
X44982265Y19207903D01*
X45119062Y19003172D01*
X45293172Y18829062D01*
X45497903Y18692265D01*
X45725389Y18598037D01*
X45966886Y18550000D01*
X46213114Y18550000D01*
X46454611Y18598037D01*
X46682097Y18692265D01*
X46886828Y18829062D01*
X47060938Y19003172D01*
X47197735Y19207903D01*
X47291963Y19435389D01*
X47340000Y19676886D01*
X47340000Y19923114D01*
X47337739Y19934481D01*
X47391963Y20065389D01*
X47440000Y20306886D01*
X47440000Y20553114D01*
X47391963Y20794611D01*
X47297735Y21022097D01*
X47160938Y21226828D01*
X46986828Y21400938D01*
X46782097Y21537735D01*
X46554611Y21631963D01*
X46313114Y21680000D01*
X46066886Y21680000D01*
X45825389Y21631963D01*
X45597903Y21537735D01*
X45393172Y21400938D01*
X45219062Y21226828D01*
X45082265Y21022097D01*
X44988037Y20794611D01*
X44940000Y20553114D01*
X44940000Y20306886D01*
X44942261Y20295519D01*
X44888037Y20164611D01*
X44840000Y19923114D01*
X43042302Y19923114D01*
X45327697Y22208509D01*
X45379213Y22250787D01*
X45547915Y22456351D01*
X45673272Y22690878D01*
X45750467Y22945354D01*
X45770000Y23143679D01*
X45770000Y23143688D01*
X45776531Y23209999D01*
X45770000Y23276310D01*
X45770000Y24279931D01*
X45776532Y24346250D01*
X45768523Y24427564D01*
X45750467Y24610896D01*
X45681253Y24839062D01*
X45673272Y24865373D01*
X45547915Y25099899D01*
X45513146Y25142265D01*
X45379212Y25305463D01*
X45327696Y25347741D01*
X45295437Y25380000D01*
X45769995Y25380000D01*
X45769997Y25379997D01*
X45769997Y25379997D01*
G37*
X45769997Y25379997D02*
X46059309Y25142564D01*
X46389383Y24966136D01*
X46747535Y24857492D01*
X46806262Y24851708D01*
X46820142Y24837828D01*
X46868681Y24778683D01*
X47104699Y24584988D01*
X47373970Y24441060D01*
X47666146Y24352429D01*
X47893861Y24330001D01*
X47893870Y24330001D01*
X47969998Y24322503D01*
X48046126Y24330001D01*
X48198994Y24330001D01*
X49240175Y23288820D01*
X49231897Y23276432D01*
X49137669Y23048946D01*
X49089632Y22807449D01*
X49089632Y22561221D01*
X49137669Y22319724D01*
X49231897Y22092238D01*
X49368694Y21887507D01*
X49542804Y21713397D01*
X49747535Y21576600D01*
X49975021Y21482372D01*
X50216518Y21434335D01*
X50462746Y21434335D01*
X50704243Y21482372D01*
X50931729Y21576600D01*
X50944117Y21584878D01*
X52226165Y20302830D01*
X52147955Y20185781D01*
X52049958Y19949196D01*
X52000000Y19698039D01*
X52000000Y19441961D01*
X52005199Y19415825D01*
X51890938Y19586828D01*
X51716828Y19760938D01*
X51512097Y19897735D01*
X51284611Y19991963D01*
X51043114Y20040000D01*
X50796886Y20040000D01*
X50555389Y19991963D01*
X50327903Y19897735D01*
X50123172Y19760938D01*
X49949062Y19586828D01*
X49812265Y19382097D01*
X49718037Y19154611D01*
X49670000Y18913114D01*
X49670000Y18720000D01*
X49534151Y18720000D01*
X49292654Y18671963D01*
X49065168Y18577735D01*
X48860437Y18440938D01*
X48686327Y18266828D01*
X48549530Y18062097D01*
X48533633Y18023717D01*
X48517735Y18062097D01*
X48380938Y18266828D01*
X48206828Y18440938D01*
X48002097Y18577735D01*
X47774611Y18671963D01*
X47533114Y18720000D01*
X47286886Y18720000D01*
X47045389Y18671963D01*
X46817903Y18577735D01*
X46613172Y18440938D01*
X46439062Y18266828D01*
X46302265Y18062097D01*
X46208037Y17834611D01*
X46160000Y17593114D01*
X46160000Y17346886D01*
X46208037Y17105389D01*
X46302265Y16877903D01*
X46439062Y16673172D01*
X46569465Y16542769D01*
X46533114Y16550000D01*
X46286886Y16550000D01*
X46045389Y16501963D01*
X45817903Y16407735D01*
X45613172Y16270938D01*
X45439062Y16096828D01*
X45302265Y15892097D01*
X45208037Y15664611D01*
X45160000Y15423114D01*
X45160000Y15176886D01*
X45208037Y14935389D01*
X45302265Y14707903D01*
X45439062Y14503172D01*
X45613172Y14329062D01*
X45817903Y14192265D01*
X46045389Y14098037D01*
X46286886Y14050000D01*
X46533114Y14050000D01*
X46774611Y14098037D01*
X47002097Y14192265D01*
X47206828Y14329062D01*
X47380938Y14503172D01*
X47517735Y14707903D01*
X47611963Y14935389D01*
X47660000Y15176886D01*
X47660000Y15423114D01*
X47611963Y15664611D01*
X47517735Y15892097D01*
X47380938Y16096828D01*
X47250535Y16227231D01*
X47286886Y16220000D01*
X47533114Y16220000D01*
X47774611Y16268037D01*
X48002097Y16362265D01*
X48206828Y16499062D01*
X48380938Y16673172D01*
X48517735Y16877903D01*
X48533633Y16916283D01*
X48549530Y16877903D01*
X48686327Y16673172D01*
X48860437Y16499062D01*
X49065168Y16362265D01*
X49255170Y16283563D01*
X49256768Y16267337D01*
X49362553Y15918610D01*
X49534339Y15597222D01*
X49729022Y15360000D01*
X49534339Y15122778D01*
X49362553Y14801390D01*
X49256768Y14452663D01*
X49221049Y14090000D01*
X49256768Y13727337D01*
X49362553Y13378610D01*
X49534339Y13057222D01*
X49729022Y12820000D01*
X49534339Y12582778D01*
X49362553Y12261390D01*
X49256768Y11912663D01*
X49229606Y11636882D01*
X49063114Y11670000D01*
X48816886Y11670000D01*
X48575389Y11621963D01*
X48347903Y11527735D01*
X48296466Y11493366D01*
X48263114Y11500000D01*
X48016886Y11500000D01*
X47775389Y11451963D01*
X47547903Y11357735D01*
X47343172Y11220938D01*
X47169062Y11046828D01*
X47032265Y10842097D01*
X46938037Y10614611D01*
X46890000Y10373114D01*
X46890000Y10126886D01*
X46938037Y9885389D01*
X47032265Y9657903D01*
X47074512Y9594677D01*
X46751491Y9917697D01*
X46709213Y9969213D01*
X46503649Y10137915D01*
X46269122Y10263272D01*
X46014646Y10340467D01*
X45959990Y10345850D01*
X45959990Y10383114D01*
X45911953Y10624611D01*
X45817725Y10852097D01*
X45680928Y11056828D01*
X45506818Y11230938D01*
X45302087Y11367735D01*
X45301042Y11368168D01*
X45318951Y11550000D01*
X45283232Y11912663D01*
X45177447Y12261390D01*
X45005661Y12582778D01*
X44810978Y12820000D01*
X45005661Y13057222D01*
X45177447Y13378610D01*
X45283232Y13727337D01*
X45318951Y14090000D01*
X45283232Y14452663D01*
X45177447Y14801390D01*
X45005661Y15122778D01*
X44810000Y15361192D01*
X44810000Y15363705D01*
X44896989Y15450694D01*
X45099448Y15753697D01*
X45238905Y16090375D01*
X45310000Y16447791D01*
X45310000Y16812209D01*
X45238905Y17169625D01*
X45099448Y17506303D01*
X44896989Y17809306D01*
X44639306Y18066989D01*
X44336303Y18269448D01*
X43999625Y18408905D01*
X43642209Y18480000D01*
X43277791Y18480000D01*
X42920375Y18408905D01*
X42583697Y18269448D01*
X42280694Y18066989D01*
X42023011Y17809306D01*
X41820552Y17506303D01*
X41681095Y17169625D01*
X41610000Y16812209D01*
X41610000Y16447791D01*
X41681095Y16090375D01*
X41820552Y15753697D01*
X42023011Y15450694D01*
X42110000Y15363705D01*
X42110000Y15361193D01*
X41914339Y15122778D01*
X41742553Y14801390D01*
X41636768Y14452663D01*
X41601049Y14090000D01*
X41607182Y14027726D01*
X41572279Y14020783D01*
X41344793Y13926555D01*
X41140062Y13789758D01*
X40965952Y13615648D01*
X40829155Y13410917D01*
X40734927Y13183431D01*
X40686890Y12941934D01*
X40686890Y12695706D01*
X40734927Y12454209D01*
X40829155Y12226723D01*
X40965952Y12021992D01*
X41140062Y11847882D01*
X41344793Y11711085D01*
X41572279Y11616857D01*
X41606954Y11609960D01*
X41601049Y11550000D01*
X41636768Y11187337D01*
X41742553Y10838610D01*
X41901614Y10541028D01*
X41782733Y10396171D01*
X41685233Y10213762D01*
X41625193Y10015836D01*
X41604920Y9810000D01*
X41604920Y8210000D01*
X41625193Y8004164D01*
X41685233Y7806238D01*
X41782733Y7623829D01*
X41913946Y7463946D01*
X42073829Y7332733D01*
X42256238Y7235233D01*
X42454164Y7175193D01*
X42660000Y7154920D01*
X44260000Y7154920D01*
X44465836Y7175193D01*
X44663762Y7235233D01*
X44846171Y7332733D01*
X45006054Y7463946D01*
X45137267Y7623829D01*
X45156601Y7660000D01*
X45190812Y7660000D01*
X46928514Y5922297D01*
X46970788Y5870786D01*
X47022299Y5828512D01*
X47022302Y5828509D01*
X47176351Y5702084D01*
X47243587Y5666146D01*
X47410879Y5576727D01*
X47587062Y5523282D01*
X47574920Y5400000D01*
X47574920Y3700000D01*
X47595193Y3494164D01*
X47655233Y3296238D01*
X47752733Y3113829D01*
X47851376Y2993633D01*
X47716136Y2740617D01*
X47607492Y2382465D01*
X47570807Y2010000D01*
X47607492Y1637535D01*
X47716136Y1279383D01*
X47795983Y1130000D01*
X40445767Y1130000D01*
X40530000Y1553470D01*
X40530000Y2006530D01*
X40441613Y2450885D01*
X40268234Y2869459D01*
X40016527Y3246165D01*
X39696165Y3566527D01*
X39319459Y3818234D01*
X38900885Y3991613D01*
X38456530Y4080000D01*
X38003470Y4080000D01*
X37559115Y3991613D01*
X37140541Y3818234D01*
X36763835Y3566527D01*
X36443473Y3246165D01*
X36191766Y2869459D01*
X36018387Y2450885D01*
X35930000Y2006530D01*
X35930000Y1553470D01*
X36014233Y1130000D01*
X32945767Y1130000D01*
X33030000Y1553470D01*
X33030000Y2006530D01*
X32941613Y2450885D01*
X32768234Y2869459D01*
X32516527Y3246165D01*
X32196165Y3566527D01*
X31819459Y3818234D01*
X31400885Y3991613D01*
X30956530Y4080000D01*
X30503470Y4080000D01*
X30192876Y4018220D01*
X30144413Y4177981D01*
X30091094Y4277735D01*
X30019056Y4412510D01*
X29964607Y4478856D01*
X29850354Y4618073D01*
X29798833Y4660356D01*
X29449096Y5010093D01*
X29449096Y7556979D01*
X29470000Y7554920D01*
X31970000Y7554920D01*
X32175836Y7575193D01*
X32373762Y7635233D01*
X32556171Y7732733D01*
X32605000Y7772806D01*
X32653829Y7732733D01*
X32836238Y7635233D01*
X33034164Y7575193D01*
X33240000Y7554920D01*
X35740000Y7554920D01*
X35945836Y7575193D01*
X36143762Y7635233D01*
X36326171Y7732733D01*
X36355000Y7756392D01*
X36383829Y7732733D01*
X36566238Y7635233D01*
X36764164Y7575193D01*
X36970000Y7554920D01*
X39470000Y7554920D01*
X39675836Y7575193D01*
X39873762Y7635233D01*
X40056171Y7732733D01*
X40216054Y7863946D01*
X40347267Y8023829D01*
X40444767Y8206238D01*
X40504807Y8404164D01*
X40525080Y8610000D01*
X40525080Y11610000D01*
X40504807Y11815836D01*
X40444767Y12013762D01*
X40347267Y12196171D01*
X40216054Y12356054D01*
X40056171Y12487267D01*
X39873762Y12584767D01*
X39675836Y12644807D01*
X39470000Y12665080D01*
X36970000Y12665080D01*
X36764164Y12644807D01*
X36566238Y12584767D01*
X36383829Y12487267D01*
X36355000Y12463608D01*
X36326171Y12487267D01*
X36143762Y12584767D01*
X35945836Y12644807D01*
X35740000Y12665080D01*
X34732846Y12665080D01*
X34900938Y12833172D01*
X35037735Y13037903D01*
X35131963Y13265389D01*
X35180000Y13506886D01*
X35180000Y13753114D01*
X35131963Y13994611D01*
X35037735Y14222097D01*
X34900938Y14426828D01*
X34726828Y14600938D01*
X34522097Y14737735D01*
X34294611Y14831963D01*
X34053114Y14880000D01*
X33806886Y14880000D01*
X33565389Y14831963D01*
X33337903Y14737735D01*
X33133172Y14600938D01*
X32959062Y14426828D01*
X32822265Y14222097D01*
X32728037Y13994611D01*
X32680000Y13753114D01*
X32680000Y13506886D01*
X32728037Y13265389D01*
X32822265Y13037903D01*
X32959062Y12833172D01*
X33133172Y12659062D01*
X33139046Y12655137D01*
X33034164Y12644807D01*
X32836238Y12584767D01*
X32653829Y12487267D01*
X32605000Y12447194D01*
X32556171Y12487267D01*
X32373762Y12584767D01*
X32175836Y12644807D01*
X31970000Y12665080D01*
X29470000Y12665080D01*
X29449096Y12663021D01*
X29449096Y15614588D01*
X29455628Y15680907D01*
X29443165Y15807447D01*
X29429563Y15945552D01*
X29352368Y16200028D01*
X29284817Y16326408D01*
X29227011Y16434556D01*
X29100586Y16588605D01*
X29100579Y16588612D01*
X29058308Y16640119D01*
X29006802Y16682389D01*
X28530000Y17159190D01*
X28530000Y17770812D01*
X29488509Y16812303D01*
X29530787Y16760787D01*
X29582302Y16718510D01*
X29736350Y16592085D01*
X29856747Y16527732D01*
X29970878Y16466728D01*
X30225354Y16389533D01*
X30423679Y16370000D01*
X30423681Y16370000D01*
X30490000Y16363468D01*
X30556319Y16370000D01*
X30692531Y16370000D01*
X30681248Y16353114D01*
X30587020Y16125628D01*
X30538983Y15884131D01*
X30538983Y15637903D01*
X30587020Y15396406D01*
X30681248Y15168920D01*
X30818045Y14964189D01*
X30992155Y14790079D01*
X31196886Y14653282D01*
X31424372Y14559054D01*
X31665869Y14511017D01*
X31912097Y14511017D01*
X32153594Y14559054D01*
X32381080Y14653282D01*
X32585811Y14790079D01*
X32759921Y14964189D01*
X32896718Y15168920D01*
X32990946Y15396406D01*
X33038983Y15637903D01*
X33038983Y15884131D01*
X32990946Y16125628D01*
X32896718Y16353114D01*
X32885435Y16370000D01*
X38863681Y16370000D01*
X38930000Y16363468D01*
X38996319Y16370000D01*
X38996321Y16370000D01*
X39194646Y16389533D01*
X39449122Y16466728D01*
X39683649Y16592085D01*
X39889213Y16760787D01*
X39931491Y16812303D01*
X43042302Y19923114D01*
X44840000Y19923114D01*
X44840000Y19676886D01*
X44888037Y19435389D01*
X44982265Y19207903D01*
X45119062Y19003172D01*
X45293172Y18829062D01*
X45497903Y18692265D01*
X45725389Y18598037D01*
X45966886Y18550000D01*
X46213114Y18550000D01*
X46454611Y18598037D01*
X46682097Y18692265D01*
X46886828Y18829062D01*
X47060938Y19003172D01*
X47197735Y19207903D01*
X47291963Y19435389D01*
X47340000Y19676886D01*
X47340000Y19923114D01*
X47337739Y19934481D01*
X47391963Y20065389D01*
X47440000Y20306886D01*
X47440000Y20553114D01*
X47391963Y20794611D01*
X47297735Y21022097D01*
X47160938Y21226828D01*
X46986828Y21400938D01*
X46782097Y21537735D01*
X46554611Y21631963D01*
X46313114Y21680000D01*
X46066886Y21680000D01*
X45825389Y21631963D01*
X45597903Y21537735D01*
X45393172Y21400938D01*
X45219062Y21226828D01*
X45082265Y21022097D01*
X44988037Y20794611D01*
X44940000Y20553114D01*
X44940000Y20306886D01*
X44942261Y20295519D01*
X44888037Y20164611D01*
X44840000Y19923114D01*
X43042302Y19923114D01*
X45327697Y22208509D01*
X45379213Y22250787D01*
X45547915Y22456351D01*
X45673272Y22690878D01*
X45750467Y22945354D01*
X45770000Y23143679D01*
X45770000Y23143688D01*
X45776531Y23209999D01*
X45770000Y23276310D01*
X45770000Y24279931D01*
X45776532Y24346250D01*
X45768523Y24427564D01*
X45750467Y24610896D01*
X45681253Y24839062D01*
X45673272Y24865373D01*
X45547915Y25099899D01*
X45513146Y25142265D01*
X45379212Y25305463D01*
X45327696Y25347741D01*
X45295437Y25380000D01*
X45769995Y25380000D01*
X45769997Y25379997D01*
G36*
X5763178Y11617822D02*
X5811713Y11558682D01*
X5870853Y11510147D01*
X6047731Y11364987D01*
X6317002Y11221059D01*
X6609178Y11132428D01*
X6913031Y11102501D01*
X6989169Y11110000D01*
X9370062Y11110000D01*
X9289170Y10988936D01*
X9157251Y10670456D01*
X9090000Y10332360D01*
X9090000Y9987640D01*
X9157251Y9649544D01*
X9289170Y9331064D01*
X9403471Y9160000D01*
X9289170Y8988936D01*
X9157251Y8670456D01*
X9090000Y8332360D01*
X9090000Y7987640D01*
X9157251Y7649544D01*
X9289170Y7331064D01*
X9480686Y7044440D01*
X9724440Y6800686D01*
X10011064Y6609170D01*
X10329544Y6477251D01*
X10667640Y6410000D01*
X11012360Y6410000D01*
X11350456Y6477251D01*
X11668936Y6609170D01*
X11955560Y6800686D01*
X12165000Y7010126D01*
X12374440Y6800686D01*
X12661064Y6609170D01*
X12979544Y6477251D01*
X13317640Y6410000D01*
X13662360Y6410000D01*
X14000456Y6477251D01*
X14318936Y6609170D01*
X14605560Y6800686D01*
X14849314Y7044440D01*
X15040830Y7331064D01*
X15172749Y7649544D01*
X15240000Y7987640D01*
X15240000Y8332360D01*
X15172749Y8670456D01*
X15040830Y8988936D01*
X14926529Y9160000D01*
X14935117Y9172853D01*
X17420000Y6687969D01*
X17420000Y6612030D01*
X17371937Y6563968D01*
X17371932Y6563964D01*
X17156036Y6348068D01*
X17113518Y6284435D01*
X17064987Y6225300D01*
X17028923Y6157829D01*
X16986408Y6094200D01*
X16957121Y6023497D01*
X16921059Y5956028D01*
X16898854Y5882827D01*
X16869565Y5812118D01*
X16854633Y5737050D01*
X16832429Y5663852D01*
X16824931Y5587728D01*
X16810000Y5512662D01*
X16810000Y5436128D01*
X16802502Y5360000D01*
X16810000Y5283872D01*
X16810000Y5207338D01*
X16824931Y5132272D01*
X16832429Y5056148D01*
X16854633Y4982950D01*
X16869565Y4907882D01*
X16898854Y4837173D01*
X16921059Y4763972D01*
X16957121Y4696503D01*
X16986408Y4625800D01*
X17028923Y4562171D01*
X17064987Y4494700D01*
X17113519Y4435563D01*
X17156036Y4371932D01*
X17210152Y4317816D01*
X17258682Y4258682D01*
X17317816Y4210152D01*
X17371932Y4156036D01*
X17435563Y4113519D01*
X17494700Y4064987D01*
X17562171Y4028923D01*
X17625800Y3986408D01*
X17696503Y3957121D01*
X17763972Y3921059D01*
X17837173Y3898854D01*
X17907882Y3869565D01*
X17982950Y3854633D01*
X18056148Y3832429D01*
X18132272Y3824931D01*
X18207338Y3810000D01*
X18283872Y3810000D01*
X18360000Y3802502D01*
X18436128Y3810000D01*
X18512662Y3810000D01*
X18587728Y3824931D01*
X18663852Y3832429D01*
X18737050Y3854633D01*
X18812118Y3869565D01*
X18882827Y3898854D01*
X18956028Y3921059D01*
X19023497Y3957121D01*
X19094200Y3986408D01*
X19157829Y4028923D01*
X19225300Y4064987D01*
X19284435Y4113518D01*
X19348068Y4156036D01*
X19563964Y4371932D01*
X19563968Y4371937D01*
X20012177Y4820147D01*
X20071318Y4868682D01*
X20134790Y4946022D01*
X23950811Y1130000D01*
X15912517Y1130000D01*
X15954056Y1180615D01*
X16200127Y1640982D01*
X16351657Y2140509D01*
X16402822Y2660000D01*
X16351657Y3179491D01*
X16200127Y3679018D01*
X15954056Y4139385D01*
X15622899Y4542899D01*
X15219385Y4874056D01*
X14759018Y5120127D01*
X14259491Y5271657D01*
X13870185Y5310000D01*
X13109815Y5310000D01*
X12720509Y5271657D01*
X12220982Y5120127D01*
X11760615Y4874056D01*
X11357101Y4542899D01*
X11025944Y4139385D01*
X10779873Y3679018D01*
X10649833Y3250333D01*
X10550127Y3579018D01*
X10304056Y4039385D01*
X9972899Y4442899D01*
X9569385Y4774056D01*
X9109018Y5020127D01*
X8609491Y5171657D01*
X8220185Y5210000D01*
X7459815Y5210000D01*
X7070509Y5171657D01*
X6570982Y5020127D01*
X6110615Y4774056D01*
X5707101Y4442899D01*
X5375944Y4039385D01*
X5129873Y3579018D01*
X4978343Y3079491D01*
X4927178Y2560000D01*
X4978343Y2040509D01*
X5129873Y1540982D01*
X5349547Y1130000D01*
X1150000Y1130000D01*
X1150000Y16231001D01*
X5763178Y11617822D01*
X5763178Y11617822D01*
G37*
X5763178Y11617822D02*
X5811713Y11558682D01*
X5870853Y11510147D01*
X6047731Y11364987D01*
X6317002Y11221059D01*
X6609178Y11132428D01*
X6913031Y11102501D01*
X6989169Y11110000D01*
X9370062Y11110000D01*
X9289170Y10988936D01*
X9157251Y10670456D01*
X9090000Y10332360D01*
X9090000Y9987640D01*
X9157251Y9649544D01*
X9289170Y9331064D01*
X9403471Y9160000D01*
X9289170Y8988936D01*
X9157251Y8670456D01*
X9090000Y8332360D01*
X9090000Y7987640D01*
X9157251Y7649544D01*
X9289170Y7331064D01*
X9480686Y7044440D01*
X9724440Y6800686D01*
X10011064Y6609170D01*
X10329544Y6477251D01*
X10667640Y6410000D01*
X11012360Y6410000D01*
X11350456Y6477251D01*
X11668936Y6609170D01*
X11955560Y6800686D01*
X12165000Y7010126D01*
X12374440Y6800686D01*
X12661064Y6609170D01*
X12979544Y6477251D01*
X13317640Y6410000D01*
X13662360Y6410000D01*
X14000456Y6477251D01*
X14318936Y6609170D01*
X14605560Y6800686D01*
X14849314Y7044440D01*
X15040830Y7331064D01*
X15172749Y7649544D01*
X15240000Y7987640D01*
X15240000Y8332360D01*
X15172749Y8670456D01*
X15040830Y8988936D01*
X14926529Y9160000D01*
X14935117Y9172853D01*
X17420000Y6687969D01*
X17420000Y6612030D01*
X17371937Y6563968D01*
X17371932Y6563964D01*
X17156036Y6348068D01*
X17113518Y6284435D01*
X17064987Y6225300D01*
X17028923Y6157829D01*
X16986408Y6094200D01*
X16957121Y6023497D01*
X16921059Y5956028D01*
X16898854Y5882827D01*
X16869565Y5812118D01*
X16854633Y5737050D01*
X16832429Y5663852D01*
X16824931Y5587728D01*
X16810000Y5512662D01*
X16810000Y5436128D01*
X16802502Y5360000D01*
X16810000Y5283872D01*
X16810000Y5207338D01*
X16824931Y5132272D01*
X16832429Y5056148D01*
X16854633Y4982950D01*
X16869565Y4907882D01*
X16898854Y4837173D01*
X16921059Y4763972D01*
X16957121Y4696503D01*
X16986408Y4625800D01*
X17028923Y4562171D01*
X17064987Y4494700D01*
X17113519Y4435563D01*
X17156036Y4371932D01*
X17210152Y4317816D01*
X17258682Y4258682D01*
X17317816Y4210152D01*
X17371932Y4156036D01*
X17435563Y4113519D01*
X17494700Y4064987D01*
X17562171Y4028923D01*
X17625800Y3986408D01*
X17696503Y3957121D01*
X17763972Y3921059D01*
X17837173Y3898854D01*
X17907882Y3869565D01*
X17982950Y3854633D01*
X18056148Y3832429D01*
X18132272Y3824931D01*
X18207338Y3810000D01*
X18283872Y3810000D01*
X18360000Y3802502D01*
X18436128Y3810000D01*
X18512662Y3810000D01*
X18587728Y3824931D01*
X18663852Y3832429D01*
X18737050Y3854633D01*
X18812118Y3869565D01*
X18882827Y3898854D01*
X18956028Y3921059D01*
X19023497Y3957121D01*
X19094200Y3986408D01*
X19157829Y4028923D01*
X19225300Y4064987D01*
X19284435Y4113518D01*
X19348068Y4156036D01*
X19563964Y4371932D01*
X19563968Y4371937D01*
X20012177Y4820147D01*
X20071318Y4868682D01*
X20134790Y4946022D01*
X23950811Y1130000D01*
X15912517Y1130000D01*
X15954056Y1180615D01*
X16200127Y1640982D01*
X16351657Y2140509D01*
X16402822Y2660000D01*
X16351657Y3179491D01*
X16200127Y3679018D01*
X15954056Y4139385D01*
X15622899Y4542899D01*
X15219385Y4874056D01*
X14759018Y5120127D01*
X14259491Y5271657D01*
X13870185Y5310000D01*
X13109815Y5310000D01*
X12720509Y5271657D01*
X12220982Y5120127D01*
X11760615Y4874056D01*
X11357101Y4542899D01*
X11025944Y4139385D01*
X10779873Y3679018D01*
X10649833Y3250333D01*
X10550127Y3579018D01*
X10304056Y4039385D01*
X9972899Y4442899D01*
X9569385Y4774056D01*
X9109018Y5020127D01*
X8609491Y5171657D01*
X8220185Y5210000D01*
X7459815Y5210000D01*
X7070509Y5171657D01*
X6570982Y5020127D01*
X6110615Y4774056D01*
X5707101Y4442899D01*
X5375944Y4039385D01*
X5129873Y3579018D01*
X4978343Y3079491D01*
X4927178Y2560000D01*
X4978343Y2040509D01*
X5129873Y1540982D01*
X5349547Y1130000D01*
X1150000Y1130000D01*
X1150000Y16231001D01*
X5763178Y11617822D01*
G36*
X25210878Y21006729D02*
X25465354Y20929534D01*
X25730000Y20903468D01*
X25918511Y20922035D01*
X25849533Y20694646D01*
X25823468Y20430000D01*
X25830000Y20363678D01*
X25830001Y16666331D01*
X25823468Y16600002D01*
X25849534Y16335356D01*
X25853334Y16322828D01*
X25647903Y16237735D01*
X25443172Y16100938D01*
X25269062Y15926828D01*
X25132265Y15722097D01*
X25038037Y15494611D01*
X24990000Y15253114D01*
X24990000Y15006886D01*
X25038037Y14765389D01*
X25132265Y14537903D01*
X25269062Y14333172D01*
X25443172Y14159062D01*
X25647903Y14022265D01*
X25875389Y13928037D01*
X26116886Y13880000D01*
X26363114Y13880000D01*
X26604611Y13928037D01*
X26690858Y13963762D01*
X26749096Y13939639D01*
X26749097Y4868670D01*
X25900000Y5717766D01*
X25900000Y12488595D01*
X25906048Y12550000D01*
X25881913Y12795043D01*
X25810437Y13030669D01*
X25775698Y13095661D01*
X25694366Y13247823D01*
X25538160Y13438160D01*
X25490464Y13477303D01*
X21657899Y17309867D01*
X24632178Y20284145D01*
X24691318Y20332680D01*
X24885013Y20568698D01*
X25028941Y20837969D01*
X25098375Y21066862D01*
X25210878Y21006729D01*
X25210878Y21006729D01*
G37*
X25210878Y21006729D02*
X25465354Y20929534D01*
X25730000Y20903468D01*
X25918511Y20922035D01*
X25849533Y20694646D01*
X25823468Y20430000D01*
X25830000Y20363678D01*
X25830001Y16666331D01*
X25823468Y16600002D01*
X25849534Y16335356D01*
X25853334Y16322828D01*
X25647903Y16237735D01*
X25443172Y16100938D01*
X25269062Y15926828D01*
X25132265Y15722097D01*
X25038037Y15494611D01*
X24990000Y15253114D01*
X24990000Y15006886D01*
X25038037Y14765389D01*
X25132265Y14537903D01*
X25269062Y14333172D01*
X25443172Y14159062D01*
X25647903Y14022265D01*
X25875389Y13928037D01*
X26116886Y13880000D01*
X26363114Y13880000D01*
X26604611Y13928037D01*
X26690858Y13963762D01*
X26749096Y13939639D01*
X26749097Y4868670D01*
X25900000Y5717766D01*
X25900000Y12488595D01*
X25906048Y12550000D01*
X25881913Y12795043D01*
X25810437Y13030669D01*
X25775698Y13095661D01*
X25694366Y13247823D01*
X25538160Y13438160D01*
X25490464Y13477303D01*
X21657899Y17309867D01*
X24632178Y20284145D01*
X24691318Y20332680D01*
X24885013Y20568698D01*
X25028941Y20837969D01*
X25098375Y21066862D01*
X25210878Y21006729D01*
G36*
X74220000Y13443114D02*
X74220000Y13196886D01*
X74268037Y12955389D01*
X74362265Y12727903D01*
X74499062Y12523172D01*
X74673172Y12349062D01*
X74877903Y12212265D01*
X75105389Y12118037D01*
X75346886Y12070000D01*
X75593114Y12070000D01*
X75834611Y12118037D01*
X76062097Y12212265D01*
X76266828Y12349062D01*
X76440938Y12523172D01*
X76577735Y12727903D01*
X76671963Y12955389D01*
X76720000Y13196886D01*
X76720000Y13443114D01*
X76692772Y13580000D01*
X80410955Y13580000D01*
X80426663Y13556491D01*
X80426663Y13540029D01*
X80474700Y13298532D01*
X80568928Y13071046D01*
X80580813Y13053259D01*
X80545193Y12935836D01*
X80524920Y12730000D01*
X80524920Y11030000D01*
X80545193Y10824164D01*
X80605233Y10626238D01*
X80702733Y10443829D01*
X80833946Y10283946D01*
X80993829Y10152733D01*
X81120548Y10085000D01*
X80993829Y10017267D01*
X80833946Y9886054D01*
X80702733Y9726171D01*
X80605233Y9543762D01*
X80545193Y9345836D01*
X80524920Y9140000D01*
X80524920Y7440000D01*
X80545193Y7234164D01*
X80605233Y7036238D01*
X80702733Y6853829D01*
X80833946Y6693946D01*
X80993829Y6562733D01*
X81176238Y6465233D01*
X81374164Y6405193D01*
X81580000Y6384920D01*
X82003624Y6384920D01*
X81769383Y6313864D01*
X81439309Y6137436D01*
X81230000Y5965660D01*
X81020691Y6137436D01*
X80690617Y6313864D01*
X80332465Y6422508D01*
X80053337Y6450000D01*
X79866663Y6450000D01*
X79727381Y6436282D01*
X79681963Y6664611D01*
X79587735Y6892097D01*
X79450938Y7096828D01*
X79276828Y7270938D01*
X79072097Y7407735D01*
X78844611Y7501963D01*
X78603114Y7550000D01*
X78356886Y7550000D01*
X78115389Y7501963D01*
X77887903Y7407735D01*
X77683172Y7270938D01*
X77509062Y7096828D01*
X77372265Y6892097D01*
X77278037Y6664611D01*
X77233523Y6440826D01*
X77047535Y6422508D01*
X76689383Y6313864D01*
X76359309Y6137436D01*
X76150000Y5965660D01*
X75940691Y6137436D01*
X75610617Y6313864D01*
X75575523Y6324510D01*
X75748702Y6440224D01*
X75929776Y6621298D01*
X76072045Y6834219D01*
X76170042Y7070804D01*
X76220000Y7321961D01*
X76220000Y7578039D01*
X76170042Y7829196D01*
X76072045Y8065781D01*
X75929776Y8278702D01*
X75748702Y8459776D01*
X75632898Y8537154D01*
X75592045Y8635781D01*
X75449776Y8848702D01*
X75268702Y9029776D01*
X75055781Y9172045D01*
X74819196Y9270042D01*
X74568039Y9320000D01*
X74311961Y9320000D01*
X74060804Y9270042D01*
X73824219Y9172045D01*
X73611298Y9029776D01*
X73430224Y8848702D01*
X73287955Y8635781D01*
X73189958Y8399196D01*
X73140000Y8148039D01*
X73140000Y7891961D01*
X73189958Y7640804D01*
X73287955Y7404219D01*
X73430224Y7191298D01*
X73611298Y7010224D01*
X73727102Y6932846D01*
X73767955Y6834219D01*
X73910224Y6621298D01*
X74091298Y6440224D01*
X74239498Y6341200D01*
X74149383Y6313864D01*
X73819309Y6137436D01*
X73610000Y5965660D01*
X73400691Y6137436D01*
X73070617Y6313864D01*
X72712465Y6422508D01*
X72433337Y6450000D01*
X72248947Y6450000D01*
X72280174Y6525389D01*
X72328211Y6766886D01*
X72328211Y7013114D01*
X72280174Y7254611D01*
X72185946Y7482097D01*
X72049149Y7686828D01*
X71875039Y7860938D01*
X71709196Y7971751D01*
X71750000Y8176886D01*
X71750000Y8423114D01*
X71701963Y8664611D01*
X71607735Y8892097D01*
X71470938Y9096828D01*
X71296828Y9270938D01*
X71092097Y9407735D01*
X70864611Y9501963D01*
X70623114Y9550000D01*
X70376886Y9550000D01*
X70135389Y9501963D01*
X69907903Y9407735D01*
X69703172Y9270938D01*
X69529062Y9096828D01*
X69392265Y8892097D01*
X69298037Y8664611D01*
X69280539Y8576643D01*
X69163114Y8600000D01*
X68916886Y8600000D01*
X68675389Y8551963D01*
X68447903Y8457735D01*
X68243172Y8320938D01*
X68170979Y8248745D01*
X68159041Y8246370D01*
X67931555Y8152142D01*
X67726824Y8015345D01*
X67552714Y7841235D01*
X67415917Y7636504D01*
X67321689Y7409018D01*
X67273652Y7167521D01*
X67273652Y6921293D01*
X67321689Y6679796D01*
X67415917Y6452310D01*
X67421978Y6443239D01*
X67353337Y6450000D01*
X67166663Y6450000D01*
X66887535Y6422508D01*
X66529383Y6313864D01*
X66199309Y6137436D01*
X65990000Y5965660D01*
X65780691Y6137436D01*
X65578279Y6245627D01*
X65640197Y6233311D01*
X65886425Y6233311D01*
X66127922Y6281348D01*
X66355408Y6375576D01*
X66560139Y6512373D01*
X66734249Y6686483D01*
X66871046Y6891214D01*
X66965274Y7118700D01*
X67013311Y7360197D01*
X67013311Y7575545D01*
X67060938Y7623172D01*
X67197735Y7827903D01*
X67291963Y8055389D01*
X67340000Y8296886D01*
X67340000Y8379044D01*
X67436696Y8359810D01*
X67682924Y8359810D01*
X67924421Y8407847D01*
X68151907Y8502075D01*
X68356638Y8638872D01*
X68530748Y8812982D01*
X68667545Y9017713D01*
X68761773Y9245199D01*
X68809810Y9486696D01*
X68809810Y9732924D01*
X68761773Y9974421D01*
X68667545Y10201907D01*
X68530748Y10406638D01*
X68356638Y10580748D01*
X68151907Y10717545D01*
X67924421Y10811773D01*
X67682924Y10859810D01*
X67436696Y10859810D01*
X67195199Y10811773D01*
X66967713Y10717545D01*
X66762982Y10580748D01*
X66588872Y10406638D01*
X66452075Y10201907D01*
X66357847Y9974421D01*
X66309810Y9732924D01*
X66309810Y9650766D01*
X66213114Y9670000D01*
X65966886Y9670000D01*
X65725389Y9621963D01*
X65497903Y9527735D01*
X65293172Y9390938D01*
X65119062Y9216828D01*
X64982265Y9012097D01*
X64888037Y8784611D01*
X64840000Y8543114D01*
X64840000Y8327766D01*
X64792373Y8280139D01*
X64655576Y8075408D01*
X64561348Y7847922D01*
X64513311Y7606425D01*
X64513311Y7360197D01*
X64561348Y7118700D01*
X64655576Y6891214D01*
X64792373Y6686483D01*
X64966483Y6512373D01*
X65108051Y6417780D01*
X65092465Y6422508D01*
X64813337Y6450000D01*
X64626663Y6450000D01*
X64347535Y6422508D01*
X63989383Y6313864D01*
X63659309Y6137436D01*
X63450000Y5965660D01*
X63240691Y6137436D01*
X62910617Y6313864D01*
X62659291Y6390103D01*
X63777702Y7508513D01*
X63829213Y7550787D01*
X63871487Y7602298D01*
X63871490Y7602301D01*
X63997915Y7756350D01*
X64088609Y7926028D01*
X64123272Y7990878D01*
X64200467Y8245354D01*
X64220000Y8443680D01*
X64220000Y8443688D01*
X64226531Y8509999D01*
X64220000Y8576310D01*
X64220000Y8840812D01*
X66519189Y11140000D01*
X70923681Y11140000D01*
X70990000Y11133468D01*
X71056319Y11140000D01*
X71056321Y11140000D01*
X71254646Y11159533D01*
X71509122Y11236728D01*
X71743649Y11362085D01*
X71949213Y11530787D01*
X71953721Y11536280D01*
X71959214Y11540788D01*
X72001492Y11592304D01*
X73561489Y13152301D01*
X73561489Y13152302D01*
X73989187Y13580000D01*
X74247228Y13580000D01*
X74220000Y13443114D01*
X74220000Y13443114D01*
G37*
X74220000Y13443114D02*
X74220000Y13196886D01*
X74268037Y12955389D01*
X74362265Y12727903D01*
X74499062Y12523172D01*
X74673172Y12349062D01*
X74877903Y12212265D01*
X75105389Y12118037D01*
X75346886Y12070000D01*
X75593114Y12070000D01*
X75834611Y12118037D01*
X76062097Y12212265D01*
X76266828Y12349062D01*
X76440938Y12523172D01*
X76577735Y12727903D01*
X76671963Y12955389D01*
X76720000Y13196886D01*
X76720000Y13443114D01*
X76692772Y13580000D01*
X80410955Y13580000D01*
X80426663Y13556491D01*
X80426663Y13540029D01*
X80474700Y13298532D01*
X80568928Y13071046D01*
X80580813Y13053259D01*
X80545193Y12935836D01*
X80524920Y12730000D01*
X80524920Y11030000D01*
X80545193Y10824164D01*
X80605233Y10626238D01*
X80702733Y10443829D01*
X80833946Y10283946D01*
X80993829Y10152733D01*
X81120548Y10085000D01*
X80993829Y10017267D01*
X80833946Y9886054D01*
X80702733Y9726171D01*
X80605233Y9543762D01*
X80545193Y9345836D01*
X80524920Y9140000D01*
X80524920Y7440000D01*
X80545193Y7234164D01*
X80605233Y7036238D01*
X80702733Y6853829D01*
X80833946Y6693946D01*
X80993829Y6562733D01*
X81176238Y6465233D01*
X81374164Y6405193D01*
X81580000Y6384920D01*
X82003624Y6384920D01*
X81769383Y6313864D01*
X81439309Y6137436D01*
X81230000Y5965660D01*
X81020691Y6137436D01*
X80690617Y6313864D01*
X80332465Y6422508D01*
X80053337Y6450000D01*
X79866663Y6450000D01*
X79727381Y6436282D01*
X79681963Y6664611D01*
X79587735Y6892097D01*
X79450938Y7096828D01*
X79276828Y7270938D01*
X79072097Y7407735D01*
X78844611Y7501963D01*
X78603114Y7550000D01*
X78356886Y7550000D01*
X78115389Y7501963D01*
X77887903Y7407735D01*
X77683172Y7270938D01*
X77509062Y7096828D01*
X77372265Y6892097D01*
X77278037Y6664611D01*
X77233523Y6440826D01*
X77047535Y6422508D01*
X76689383Y6313864D01*
X76359309Y6137436D01*
X76150000Y5965660D01*
X75940691Y6137436D01*
X75610617Y6313864D01*
X75575523Y6324510D01*
X75748702Y6440224D01*
X75929776Y6621298D01*
X76072045Y6834219D01*
X76170042Y7070804D01*
X76220000Y7321961D01*
X76220000Y7578039D01*
X76170042Y7829196D01*
X76072045Y8065781D01*
X75929776Y8278702D01*
X75748702Y8459776D01*
X75632898Y8537154D01*
X75592045Y8635781D01*
X75449776Y8848702D01*
X75268702Y9029776D01*
X75055781Y9172045D01*
X74819196Y9270042D01*
X74568039Y9320000D01*
X74311961Y9320000D01*
X74060804Y9270042D01*
X73824219Y9172045D01*
X73611298Y9029776D01*
X73430224Y8848702D01*
X73287955Y8635781D01*
X73189958Y8399196D01*
X73140000Y8148039D01*
X73140000Y7891961D01*
X73189958Y7640804D01*
X73287955Y7404219D01*
X73430224Y7191298D01*
X73611298Y7010224D01*
X73727102Y6932846D01*
X73767955Y6834219D01*
X73910224Y6621298D01*
X74091298Y6440224D01*
X74239498Y6341200D01*
X74149383Y6313864D01*
X73819309Y6137436D01*
X73610000Y5965660D01*
X73400691Y6137436D01*
X73070617Y6313864D01*
X72712465Y6422508D01*
X72433337Y6450000D01*
X72248947Y6450000D01*
X72280174Y6525389D01*
X72328211Y6766886D01*
X72328211Y7013114D01*
X72280174Y7254611D01*
X72185946Y7482097D01*
X72049149Y7686828D01*
X71875039Y7860938D01*
X71709196Y7971751D01*
X71750000Y8176886D01*
X71750000Y8423114D01*
X71701963Y8664611D01*
X71607735Y8892097D01*
X71470938Y9096828D01*
X71296828Y9270938D01*
X71092097Y9407735D01*
X70864611Y9501963D01*
X70623114Y9550000D01*
X70376886Y9550000D01*
X70135389Y9501963D01*
X69907903Y9407735D01*
X69703172Y9270938D01*
X69529062Y9096828D01*
X69392265Y8892097D01*
X69298037Y8664611D01*
X69280539Y8576643D01*
X69163114Y8600000D01*
X68916886Y8600000D01*
X68675389Y8551963D01*
X68447903Y8457735D01*
X68243172Y8320938D01*
X68170979Y8248745D01*
X68159041Y8246370D01*
X67931555Y8152142D01*
X67726824Y8015345D01*
X67552714Y7841235D01*
X67415917Y7636504D01*
X67321689Y7409018D01*
X67273652Y7167521D01*
X67273652Y6921293D01*
X67321689Y6679796D01*
X67415917Y6452310D01*
X67421978Y6443239D01*
X67353337Y6450000D01*
X67166663Y6450000D01*
X66887535Y6422508D01*
X66529383Y6313864D01*
X66199309Y6137436D01*
X65990000Y5965660D01*
X65780691Y6137436D01*
X65578279Y6245627D01*
X65640197Y6233311D01*
X65886425Y6233311D01*
X66127922Y6281348D01*
X66355408Y6375576D01*
X66560139Y6512373D01*
X66734249Y6686483D01*
X66871046Y6891214D01*
X66965274Y7118700D01*
X67013311Y7360197D01*
X67013311Y7575545D01*
X67060938Y7623172D01*
X67197735Y7827903D01*
X67291963Y8055389D01*
X67340000Y8296886D01*
X67340000Y8379044D01*
X67436696Y8359810D01*
X67682924Y8359810D01*
X67924421Y8407847D01*
X68151907Y8502075D01*
X68356638Y8638872D01*
X68530748Y8812982D01*
X68667545Y9017713D01*
X68761773Y9245199D01*
X68809810Y9486696D01*
X68809810Y9732924D01*
X68761773Y9974421D01*
X68667545Y10201907D01*
X68530748Y10406638D01*
X68356638Y10580748D01*
X68151907Y10717545D01*
X67924421Y10811773D01*
X67682924Y10859810D01*
X67436696Y10859810D01*
X67195199Y10811773D01*
X66967713Y10717545D01*
X66762982Y10580748D01*
X66588872Y10406638D01*
X66452075Y10201907D01*
X66357847Y9974421D01*
X66309810Y9732924D01*
X66309810Y9650766D01*
X66213114Y9670000D01*
X65966886Y9670000D01*
X65725389Y9621963D01*
X65497903Y9527735D01*
X65293172Y9390938D01*
X65119062Y9216828D01*
X64982265Y9012097D01*
X64888037Y8784611D01*
X64840000Y8543114D01*
X64840000Y8327766D01*
X64792373Y8280139D01*
X64655576Y8075408D01*
X64561348Y7847922D01*
X64513311Y7606425D01*
X64513311Y7360197D01*
X64561348Y7118700D01*
X64655576Y6891214D01*
X64792373Y6686483D01*
X64966483Y6512373D01*
X65108051Y6417780D01*
X65092465Y6422508D01*
X64813337Y6450000D01*
X64626663Y6450000D01*
X64347535Y6422508D01*
X63989383Y6313864D01*
X63659309Y6137436D01*
X63450000Y5965660D01*
X63240691Y6137436D01*
X62910617Y6313864D01*
X62659291Y6390103D01*
X63777702Y7508513D01*
X63829213Y7550787D01*
X63871487Y7602298D01*
X63871490Y7602301D01*
X63997915Y7756350D01*
X64088609Y7926028D01*
X64123272Y7990878D01*
X64200467Y8245354D01*
X64220000Y8443680D01*
X64220000Y8443688D01*
X64226531Y8509999D01*
X64220000Y8576310D01*
X64220000Y8840812D01*
X66519189Y11140000D01*
X70923681Y11140000D01*
X70990000Y11133468D01*
X71056319Y11140000D01*
X71056321Y11140000D01*
X71254646Y11159533D01*
X71509122Y11236728D01*
X71743649Y11362085D01*
X71949213Y11530787D01*
X71953721Y11536280D01*
X71959214Y11540788D01*
X72001492Y11592304D01*
X73561489Y13152301D01*
X73561489Y13152302D01*
X73989187Y13580000D01*
X74247228Y13580000D01*
X74220000Y13443114D01*
G36*
X52290224Y18741298D02*
X52471298Y18560224D01*
X52684219Y18417955D01*
X52920804Y18319958D01*
X53171961Y18270000D01*
X53428039Y18270000D01*
X53679196Y18319958D01*
X53915781Y18417955D01*
X54032830Y18496164D01*
X55945937Y16583057D01*
X55821298Y16499776D01*
X55640224Y16318702D01*
X55497955Y16105781D01*
X55399958Y15869196D01*
X55350000Y15618039D01*
X55350000Y15361961D01*
X55399958Y15110804D01*
X55497955Y14874219D01*
X55640224Y14661298D01*
X55821298Y14480224D01*
X56034219Y14337955D01*
X56270804Y14239958D01*
X56521961Y14190000D01*
X56699264Y14190000D01*
X56762265Y14037903D01*
X56899062Y13833172D01*
X57073172Y13659062D01*
X57277903Y13522265D01*
X57505389Y13428037D01*
X57746886Y13380000D01*
X57993114Y13380000D01*
X58234611Y13428037D01*
X58462097Y13522265D01*
X58666828Y13659062D01*
X58840938Y13833172D01*
X58977735Y14037903D01*
X59071963Y14265389D01*
X59120000Y14506886D01*
X59120000Y14753114D01*
X59088795Y14909991D01*
X68757393Y14909991D01*
X68677394Y14790264D01*
X68585389Y14771963D01*
X68357903Y14677735D01*
X68153172Y14540938D01*
X67979062Y14366828D01*
X67842265Y14162097D01*
X67748037Y13934611D01*
X67729218Y13840000D01*
X66026319Y13840000D01*
X65960000Y13846532D01*
X65893681Y13840000D01*
X65893679Y13840000D01*
X65695354Y13820467D01*
X65440878Y13743272D01*
X65347039Y13693114D01*
X65206350Y13617915D01*
X65052301Y13491490D01*
X65052298Y13491487D01*
X65000787Y13449213D01*
X64958513Y13397702D01*
X61962299Y10401487D01*
X61910787Y10359212D01*
X61868513Y10307701D01*
X61868510Y10307698D01*
X61742085Y10153649D01*
X61689481Y10055233D01*
X61616728Y9919121D01*
X61539533Y9664645D01*
X61523410Y9500938D01*
X61513468Y9400000D01*
X61520000Y9333681D01*
X61520000Y9069189D01*
X61512682Y9061870D01*
X61487735Y9122097D01*
X61350938Y9326828D01*
X61176828Y9500938D01*
X60972097Y9637735D01*
X60744611Y9731963D01*
X60503114Y9780000D01*
X60256886Y9780000D01*
X60015389Y9731963D01*
X59787903Y9637735D01*
X59583172Y9500938D01*
X59409062Y9326828D01*
X59272265Y9122097D01*
X59178037Y8894611D01*
X59130000Y8653114D01*
X59130000Y8406886D01*
X59175131Y8179999D01*
X52734048Y8179999D01*
X52797447Y8298610D01*
X52903232Y8647337D01*
X52938951Y9010000D01*
X52915519Y9247915D01*
X53096828Y9369062D01*
X53270938Y9543172D01*
X53407735Y9747903D01*
X53501963Y9975389D01*
X53550000Y10216886D01*
X53550000Y10357682D01*
X53643376Y10420074D01*
X53702265Y10277903D01*
X53839062Y10073172D01*
X54013172Y9899062D01*
X54217903Y9762265D01*
X54445389Y9668037D01*
X54686886Y9620000D01*
X54933114Y9620000D01*
X55174611Y9668037D01*
X55402097Y9762265D01*
X55606828Y9899062D01*
X55780938Y10073172D01*
X55917735Y10277903D01*
X56011963Y10505389D01*
X56060000Y10746886D01*
X56060000Y10993114D01*
X56011963Y11234611D01*
X55917735Y11462097D01*
X55780938Y11666828D01*
X55606828Y11840938D01*
X55402097Y11977735D01*
X55174611Y12071963D01*
X54933114Y12120000D01*
X54686886Y12120000D01*
X54445389Y12071963D01*
X54217903Y11977735D01*
X54026624Y11849926D01*
X53967735Y11992097D01*
X53830938Y12196828D01*
X53656828Y12370938D01*
X53624469Y12392560D01*
X53651483Y12528369D01*
X53651483Y12774597D01*
X53603446Y13016094D01*
X53509218Y13243580D01*
X53372421Y13448311D01*
X53198311Y13622421D01*
X52993580Y13759218D01*
X52909790Y13793925D01*
X52916830Y13865404D01*
X53023172Y13759062D01*
X53227903Y13622265D01*
X53455389Y13528037D01*
X53696886Y13480000D01*
X53943114Y13480000D01*
X54184611Y13528037D01*
X54412097Y13622265D01*
X54616828Y13759062D01*
X54790938Y13933172D01*
X54927735Y14137903D01*
X55021963Y14365389D01*
X55070000Y14606886D01*
X55070000Y14853114D01*
X55021963Y15094611D01*
X54927735Y15322097D01*
X54790938Y15526828D01*
X54616828Y15700938D01*
X54412097Y15837735D01*
X54184611Y15931963D01*
X53943114Y15980000D01*
X53696886Y15980000D01*
X53455389Y15931963D01*
X53227903Y15837735D01*
X53023172Y15700938D01*
X52849062Y15526828D01*
X52712265Y15322097D01*
X52627939Y15118516D01*
X52625661Y15122778D01*
X52430978Y15360000D01*
X52625661Y15597222D01*
X52797447Y15918610D01*
X52903232Y16267337D01*
X52938951Y16630000D01*
X52903232Y16992663D01*
X52797447Y17341390D01*
X52625661Y17662778D01*
X52394477Y17944477D01*
X52112778Y18175661D01*
X52035608Y18216909D01*
X52121963Y18425389D01*
X52170000Y18666886D01*
X52170000Y18913114D01*
X52167702Y18924665D01*
X52290224Y18741298D01*
X52290224Y18741298D01*
G37*
X52290224Y18741298D02*
X52471298Y18560224D01*
X52684219Y18417955D01*
X52920804Y18319958D01*
X53171961Y18270000D01*
X53428039Y18270000D01*
X53679196Y18319958D01*
X53915781Y18417955D01*
X54032830Y18496164D01*
X55945937Y16583057D01*
X55821298Y16499776D01*
X55640224Y16318702D01*
X55497955Y16105781D01*
X55399958Y15869196D01*
X55350000Y15618039D01*
X55350000Y15361961D01*
X55399958Y15110804D01*
X55497955Y14874219D01*
X55640224Y14661298D01*
X55821298Y14480224D01*
X56034219Y14337955D01*
X56270804Y14239958D01*
X56521961Y14190000D01*
X56699264Y14190000D01*
X56762265Y14037903D01*
X56899062Y13833172D01*
X57073172Y13659062D01*
X57277903Y13522265D01*
X57505389Y13428037D01*
X57746886Y13380000D01*
X57993114Y13380000D01*
X58234611Y13428037D01*
X58462097Y13522265D01*
X58666828Y13659062D01*
X58840938Y13833172D01*
X58977735Y14037903D01*
X59071963Y14265389D01*
X59120000Y14506886D01*
X59120000Y14753114D01*
X59088795Y14909991D01*
X68757393Y14909991D01*
X68677394Y14790264D01*
X68585389Y14771963D01*
X68357903Y14677735D01*
X68153172Y14540938D01*
X67979062Y14366828D01*
X67842265Y14162097D01*
X67748037Y13934611D01*
X67729218Y13840000D01*
X66026319Y13840000D01*
X65960000Y13846532D01*
X65893681Y13840000D01*
X65893679Y13840000D01*
X65695354Y13820467D01*
X65440878Y13743272D01*
X65347039Y13693114D01*
X65206350Y13617915D01*
X65052301Y13491490D01*
X65052298Y13491487D01*
X65000787Y13449213D01*
X64958513Y13397702D01*
X61962299Y10401487D01*
X61910787Y10359212D01*
X61868513Y10307701D01*
X61868510Y10307698D01*
X61742085Y10153649D01*
X61689481Y10055233D01*
X61616728Y9919121D01*
X61539533Y9664645D01*
X61523410Y9500938D01*
X61513468Y9400000D01*
X61520000Y9333681D01*
X61520000Y9069189D01*
X61512682Y9061870D01*
X61487735Y9122097D01*
X61350938Y9326828D01*
X61176828Y9500938D01*
X60972097Y9637735D01*
X60744611Y9731963D01*
X60503114Y9780000D01*
X60256886Y9780000D01*
X60015389Y9731963D01*
X59787903Y9637735D01*
X59583172Y9500938D01*
X59409062Y9326828D01*
X59272265Y9122097D01*
X59178037Y8894611D01*
X59130000Y8653114D01*
X59130000Y8406886D01*
X59175131Y8179999D01*
X52734048Y8179999D01*
X52797447Y8298610D01*
X52903232Y8647337D01*
X52938951Y9010000D01*
X52915519Y9247915D01*
X53096828Y9369062D01*
X53270938Y9543172D01*
X53407735Y9747903D01*
X53501963Y9975389D01*
X53550000Y10216886D01*
X53550000Y10357682D01*
X53643376Y10420074D01*
X53702265Y10277903D01*
X53839062Y10073172D01*
X54013172Y9899062D01*
X54217903Y9762265D01*
X54445389Y9668037D01*
X54686886Y9620000D01*
X54933114Y9620000D01*
X55174611Y9668037D01*
X55402097Y9762265D01*
X55606828Y9899062D01*
X55780938Y10073172D01*
X55917735Y10277903D01*
X56011963Y10505389D01*
X56060000Y10746886D01*
X56060000Y10993114D01*
X56011963Y11234611D01*
X55917735Y11462097D01*
X55780938Y11666828D01*
X55606828Y11840938D01*
X55402097Y11977735D01*
X55174611Y12071963D01*
X54933114Y12120000D01*
X54686886Y12120000D01*
X54445389Y12071963D01*
X54217903Y11977735D01*
X54026624Y11849926D01*
X53967735Y11992097D01*
X53830938Y12196828D01*
X53656828Y12370938D01*
X53624469Y12392560D01*
X53651483Y12528369D01*
X53651483Y12774597D01*
X53603446Y13016094D01*
X53509218Y13243580D01*
X53372421Y13448311D01*
X53198311Y13622421D01*
X52993580Y13759218D01*
X52909790Y13793925D01*
X52916830Y13865404D01*
X53023172Y13759062D01*
X53227903Y13622265D01*
X53455389Y13528037D01*
X53696886Y13480000D01*
X53943114Y13480000D01*
X54184611Y13528037D01*
X54412097Y13622265D01*
X54616828Y13759062D01*
X54790938Y13933172D01*
X54927735Y14137903D01*
X55021963Y14365389D01*
X55070000Y14606886D01*
X55070000Y14853114D01*
X55021963Y15094611D01*
X54927735Y15322097D01*
X54790938Y15526828D01*
X54616828Y15700938D01*
X54412097Y15837735D01*
X54184611Y15931963D01*
X53943114Y15980000D01*
X53696886Y15980000D01*
X53455389Y15931963D01*
X53227903Y15837735D01*
X53023172Y15700938D01*
X52849062Y15526828D01*
X52712265Y15322097D01*
X52627939Y15118516D01*
X52625661Y15122778D01*
X52430978Y15360000D01*
X52625661Y15597222D01*
X52797447Y15918610D01*
X52903232Y16267337D01*
X52938951Y16630000D01*
X52903232Y16992663D01*
X52797447Y17341390D01*
X52625661Y17662778D01*
X52394477Y17944477D01*
X52112778Y18175661D01*
X52035608Y18216909D01*
X52121963Y18425389D01*
X52170000Y18666886D01*
X52170000Y18913114D01*
X52167702Y18924665D01*
X52290224Y18741298D01*
G36*
X15013539Y20234432D02*
X15013540Y17974083D01*
X14759018Y18110127D01*
X14259491Y18261657D01*
X13870185Y18300000D01*
X13109815Y18300000D01*
X12720509Y18261657D01*
X12220982Y18110127D01*
X11760615Y17864056D01*
X11645686Y17769735D01*
X11662045Y17794219D01*
X11760042Y18030804D01*
X11810000Y18281961D01*
X11810000Y18538039D01*
X11760042Y18789196D01*
X11662045Y19025781D01*
X11519776Y19238702D01*
X11431620Y19326858D01*
X11686730Y19377602D01*
X12196297Y19588672D01*
X12654896Y19895098D01*
X13044902Y20285104D01*
X13351328Y20743703D01*
X13562398Y21253270D01*
X13634122Y21613850D01*
X15013539Y20234432D01*
X15013539Y20234432D01*
G37*
X15013539Y20234432D02*
X15013540Y17974083D01*
X14759018Y18110127D01*
X14259491Y18261657D01*
X13870185Y18300000D01*
X13109815Y18300000D01*
X12720509Y18261657D01*
X12220982Y18110127D01*
X11760615Y17864056D01*
X11645686Y17769735D01*
X11662045Y17794219D01*
X11760042Y18030804D01*
X11810000Y18281961D01*
X11810000Y18538039D01*
X11760042Y18789196D01*
X11662045Y19025781D01*
X11519776Y19238702D01*
X11431620Y19326858D01*
X11686730Y19377602D01*
X12196297Y19588672D01*
X12654896Y19895098D01*
X13044902Y20285104D01*
X13351328Y20743703D01*
X13562398Y21253270D01*
X13634122Y21613850D01*
X15013539Y20234432D01*
G36*
X57900001Y22559390D02*
X57900000Y20931398D01*
X57893953Y20870000D01*
X57900000Y20808602D01*
X57900000Y20808596D01*
X57918087Y20624958D01*
X57989563Y20389332D01*
X58105634Y20172178D01*
X58261840Y19981840D01*
X58309543Y19942691D01*
X60242242Y18009991D01*
X58903065Y18009991D01*
X57212586Y19700469D01*
X57297735Y19827903D01*
X57391963Y20055389D01*
X57440000Y20296886D01*
X57440000Y20543114D01*
X57391963Y20784611D01*
X57297735Y21012097D01*
X57160938Y21216828D01*
X56986828Y21390938D01*
X56782097Y21527735D01*
X56554611Y21621963D01*
X56313114Y21670000D01*
X56066886Y21670000D01*
X55825389Y21621963D01*
X55597903Y21527735D01*
X55470469Y21442586D01*
X53413055Y23500000D01*
X55821053Y23500000D01*
X55880000Y23494194D01*
X55938947Y23500000D01*
X55938950Y23500000D01*
X56115241Y23517363D01*
X56341442Y23585981D01*
X56549910Y23697409D01*
X56666390Y23793002D01*
X57900001Y22559390D01*
X57900001Y22559390D01*
G37*
X57900001Y22559390D02*
X57900000Y20931398D01*
X57893953Y20870000D01*
X57900000Y20808602D01*
X57900000Y20808596D01*
X57918087Y20624958D01*
X57989563Y20389332D01*
X58105634Y20172178D01*
X58261840Y19981840D01*
X58309543Y19942691D01*
X60242242Y18009991D01*
X58903065Y18009991D01*
X57212586Y19700469D01*
X57297735Y19827903D01*
X57391963Y20055389D01*
X57440000Y20296886D01*
X57440000Y20543114D01*
X57391963Y20784611D01*
X57297735Y21012097D01*
X57160938Y21216828D01*
X56986828Y21390938D01*
X56782097Y21527735D01*
X56554611Y21621963D01*
X56313114Y21670000D01*
X56066886Y21670000D01*
X55825389Y21621963D01*
X55597903Y21527735D01*
X55470469Y21442586D01*
X53413055Y23500000D01*
X55821053Y23500000D01*
X55880000Y23494194D01*
X55938947Y23500000D01*
X55938950Y23500000D01*
X56115241Y23517363D01*
X56341442Y23585981D01*
X56549910Y23697409D01*
X56666390Y23793002D01*
X57900001Y22559390D01*
G36*
X84228473Y19215634D02*
X84255974Y19200934D01*
X83065031Y18009991D01*
X82207758Y18009991D01*
X82996420Y18798654D01*
X83044148Y18793953D01*
X83105546Y18800000D01*
X83105553Y18800000D01*
X83289191Y18818087D01*
X83524817Y18889563D01*
X83741971Y19005634D01*
X83932308Y19161840D01*
X83971456Y19209542D01*
X84090654Y19328740D01*
X84228473Y19215634D01*
X84228473Y19215634D01*
G37*
X84228473Y19215634D02*
X84255974Y19200934D01*
X83065031Y18009991D01*
X82207758Y18009991D01*
X82996420Y18798654D01*
X83044148Y18793953D01*
X83105546Y18800000D01*
X83105553Y18800000D01*
X83289191Y18818087D01*
X83524817Y18889563D01*
X83741971Y19005634D01*
X83932308Y19161840D01*
X83971456Y19209542D01*
X84090654Y19328740D01*
X84228473Y19215634D01*
G36*
X35098238Y28401303D02*
X35140512Y28349792D01*
X35192023Y28307518D01*
X35192026Y28307515D01*
X35346075Y28181090D01*
X35456789Y28121913D01*
X35580603Y28055733D01*
X35835079Y27978538D01*
X36033404Y27959005D01*
X36033406Y27959005D01*
X36099725Y27952473D01*
X36166044Y27959005D01*
X41632686Y27959005D01*
X41699005Y27952473D01*
X41765324Y27959005D01*
X41765326Y27959005D01*
X41963651Y27978538D01*
X42218127Y28055733D01*
X42452654Y28181090D01*
X42570053Y28277437D01*
X42519533Y28110895D01*
X42500000Y27912570D01*
X42500000Y26954259D01*
X42493468Y26887940D01*
X42500000Y26821621D01*
X42500000Y26776321D01*
X42493468Y26710000D01*
X42500000Y26643681D01*
X42500000Y24982569D01*
X42493468Y24916250D01*
X42500000Y24849931D01*
X42500000Y24849929D01*
X42508264Y24766029D01*
X42519534Y24651604D01*
X42596729Y24397128D01*
X42722085Y24162601D01*
X42848510Y24008552D01*
X42848514Y24008548D01*
X42890788Y23957037D01*
X42942300Y23914762D01*
X43070000Y23787062D01*
X43070000Y23769188D01*
X38370812Y19070000D01*
X38246307Y19070000D01*
X38339537Y19295076D01*
X38387574Y19536573D01*
X38387574Y19782801D01*
X38339537Y20024298D01*
X38245309Y20251784D01*
X38108512Y20456515D01*
X37934402Y20630625D01*
X37729671Y20767422D01*
X37502185Y20861650D01*
X37260688Y20909687D01*
X37014460Y20909687D01*
X36772963Y20861650D01*
X36755537Y20854432D01*
X36568361Y20931963D01*
X36326864Y20980000D01*
X36080636Y20980000D01*
X35839139Y20931963D01*
X35611653Y20837735D01*
X35406922Y20700938D01*
X35232812Y20526828D01*
X35096015Y20322097D01*
X35001787Y20094611D01*
X34953750Y19853114D01*
X34953750Y19606886D01*
X35001787Y19365389D01*
X35096015Y19137903D01*
X35141386Y19070000D01*
X33500736Y19070000D01*
X33531963Y19145389D01*
X33580000Y19386886D01*
X33580000Y19633114D01*
X33531963Y19874611D01*
X33437735Y20102097D01*
X33300938Y20306828D01*
X33126828Y20480938D01*
X32922097Y20617735D01*
X32870000Y20639314D01*
X32870000Y20732616D01*
X32821963Y20974113D01*
X32727735Y21201599D01*
X32590938Y21406330D01*
X32416828Y21580440D01*
X32212097Y21717237D01*
X31984611Y21811465D01*
X31743114Y21859502D01*
X31496886Y21859502D01*
X31255389Y21811465D01*
X31027903Y21717237D01*
X30823172Y21580440D01*
X30649062Y21406330D01*
X30512265Y21201599D01*
X30418037Y20974113D01*
X30370000Y20732616D01*
X30370000Y20486388D01*
X30407057Y20300089D01*
X30215387Y20261963D01*
X29987901Y20167735D01*
X29966052Y20153136D01*
X28781491Y21337697D01*
X28739213Y21389213D01*
X28533649Y21557915D01*
X28299122Y21683272D01*
X28044646Y21760467D01*
X27846321Y21780000D01*
X27846319Y21780000D01*
X27780000Y21786532D01*
X27713681Y21780000D01*
X27246321Y21780000D01*
X27180000Y21786532D01*
X27164160Y21784972D01*
X28375439Y22996250D01*
X31556321Y22996250D01*
X31565001Y22997105D01*
X31640000Y22989718D01*
X31904646Y23015784D01*
X32159122Y23092979D01*
X32393649Y23218335D01*
X32547698Y23344760D01*
X33927697Y24724759D01*
X33979213Y24767037D01*
X34052275Y24856063D01*
X34147915Y24972600D01*
X34273272Y25207127D01*
X34292744Y25271318D01*
X34350467Y25461604D01*
X34370000Y25659929D01*
X34370000Y25659931D01*
X34376532Y25726250D01*
X34370000Y25792569D01*
X34370000Y28642042D01*
X34613750Y28885791D01*
X35098238Y28401303D01*
X35098238Y28401303D01*
G37*
X35098238Y28401303D02*
X35140512Y28349792D01*
X35192023Y28307518D01*
X35192026Y28307515D01*
X35346075Y28181090D01*
X35456789Y28121913D01*
X35580603Y28055733D01*
X35835079Y27978538D01*
X36033404Y27959005D01*
X36033406Y27959005D01*
X36099725Y27952473D01*
X36166044Y27959005D01*
X41632686Y27959005D01*
X41699005Y27952473D01*
X41765324Y27959005D01*
X41765326Y27959005D01*
X41963651Y27978538D01*
X42218127Y28055733D01*
X42452654Y28181090D01*
X42570053Y28277437D01*
X42519533Y28110895D01*
X42500000Y27912570D01*
X42500000Y26954259D01*
X42493468Y26887940D01*
X42500000Y26821621D01*
X42500000Y26776321D01*
X42493468Y26710000D01*
X42500000Y26643681D01*
X42500000Y24982569D01*
X42493468Y24916250D01*
X42500000Y24849931D01*
X42500000Y24849929D01*
X42508264Y24766029D01*
X42519534Y24651604D01*
X42596729Y24397128D01*
X42722085Y24162601D01*
X42848510Y24008552D01*
X42848514Y24008548D01*
X42890788Y23957037D01*
X42942300Y23914762D01*
X43070000Y23787062D01*
X43070000Y23769188D01*
X38370812Y19070000D01*
X38246307Y19070000D01*
X38339537Y19295076D01*
X38387574Y19536573D01*
X38387574Y19782801D01*
X38339537Y20024298D01*
X38245309Y20251784D01*
X38108512Y20456515D01*
X37934402Y20630625D01*
X37729671Y20767422D01*
X37502185Y20861650D01*
X37260688Y20909687D01*
X37014460Y20909687D01*
X36772963Y20861650D01*
X36755537Y20854432D01*
X36568361Y20931963D01*
X36326864Y20980000D01*
X36080636Y20980000D01*
X35839139Y20931963D01*
X35611653Y20837735D01*
X35406922Y20700938D01*
X35232812Y20526828D01*
X35096015Y20322097D01*
X35001787Y20094611D01*
X34953750Y19853114D01*
X34953750Y19606886D01*
X35001787Y19365389D01*
X35096015Y19137903D01*
X35141386Y19070000D01*
X33500736Y19070000D01*
X33531963Y19145389D01*
X33580000Y19386886D01*
X33580000Y19633114D01*
X33531963Y19874611D01*
X33437735Y20102097D01*
X33300938Y20306828D01*
X33126828Y20480938D01*
X32922097Y20617735D01*
X32870000Y20639314D01*
X32870000Y20732616D01*
X32821963Y20974113D01*
X32727735Y21201599D01*
X32590938Y21406330D01*
X32416828Y21580440D01*
X32212097Y21717237D01*
X31984611Y21811465D01*
X31743114Y21859502D01*
X31496886Y21859502D01*
X31255389Y21811465D01*
X31027903Y21717237D01*
X30823172Y21580440D01*
X30649062Y21406330D01*
X30512265Y21201599D01*
X30418037Y20974113D01*
X30370000Y20732616D01*
X30370000Y20486388D01*
X30407057Y20300089D01*
X30215387Y20261963D01*
X29987901Y20167735D01*
X29966052Y20153136D01*
X28781491Y21337697D01*
X28739213Y21389213D01*
X28533649Y21557915D01*
X28299122Y21683272D01*
X28044646Y21760467D01*
X27846321Y21780000D01*
X27846319Y21780000D01*
X27780000Y21786532D01*
X27713681Y21780000D01*
X27246321Y21780000D01*
X27180000Y21786532D01*
X27164160Y21784972D01*
X28375439Y22996250D01*
X31556321Y22996250D01*
X31565001Y22997105D01*
X31640000Y22989718D01*
X31904646Y23015784D01*
X32159122Y23092979D01*
X32393649Y23218335D01*
X32547698Y23344760D01*
X33927697Y24724759D01*
X33979213Y24767037D01*
X34052275Y24856063D01*
X34147915Y24972600D01*
X34273272Y25207127D01*
X34292744Y25271318D01*
X34350467Y25461604D01*
X34370000Y25659929D01*
X34370000Y25659931D01*
X34376532Y25726250D01*
X34370000Y25792569D01*
X34370000Y28642042D01*
X34613750Y28885791D01*
X35098238Y28401303D01*
G36*
X71149814Y37012017D02*
X71149814Y36765789D01*
X71197851Y36524292D01*
X71292079Y36296806D01*
X71428876Y36092075D01*
X71602986Y35917965D01*
X71807717Y35781168D01*
X72035203Y35686940D01*
X72276700Y35638903D01*
X72522928Y35638903D01*
X72764425Y35686940D01*
X72991911Y35781168D01*
X73065521Y35830353D01*
X73254288Y35704223D01*
X73481774Y35609995D01*
X73723271Y35561958D01*
X73959185Y35561958D01*
X74070048Y35451095D01*
X74096667Y35317273D01*
X74190895Y35089787D01*
X74327692Y34885056D01*
X74349684Y34863064D01*
X74302265Y34792097D01*
X74208037Y34564611D01*
X74160000Y34323114D01*
X74160000Y34076886D01*
X74208037Y33835389D01*
X74302265Y33607903D01*
X74439062Y33403172D01*
X74613172Y33229062D01*
X74817903Y33092265D01*
X75045389Y32998037D01*
X75066740Y32993790D01*
X75174062Y32833172D01*
X75348172Y32659062D01*
X75552903Y32522265D01*
X75780389Y32428037D01*
X75796972Y32424738D01*
X75426070Y32053837D01*
X75337735Y32267097D01*
X75200938Y32471828D01*
X75026828Y32645938D01*
X74822097Y32782735D01*
X74594611Y32876963D01*
X74353114Y32925000D01*
X74106886Y32925000D01*
X73865389Y32876963D01*
X73637903Y32782735D01*
X73433172Y32645938D01*
X73259062Y32471828D01*
X73122265Y32267097D01*
X73028037Y32039611D01*
X72980000Y31798114D01*
X72980000Y31551886D01*
X73028037Y31310389D01*
X73122265Y31082903D01*
X73259062Y30878172D01*
X73416862Y30720372D01*
X73317623Y30700632D01*
X73090137Y30606404D01*
X72885406Y30469607D01*
X72711296Y30295497D01*
X72574499Y30090766D01*
X72480271Y29863280D01*
X72470358Y29813442D01*
X72425130Y29922631D01*
X72288333Y30127362D01*
X72114223Y30301472D01*
X71909492Y30438269D01*
X71682006Y30532497D01*
X71440509Y30580534D01*
X71194281Y30580534D01*
X70952784Y30532497D01*
X70863193Y30495387D01*
X70793114Y30509327D01*
X70546886Y30509327D01*
X70305389Y30461290D01*
X70077903Y30367062D01*
X69873172Y30230265D01*
X69699062Y30056155D01*
X69606956Y29918308D01*
X69422801Y29954939D01*
X69176573Y29954939D01*
X68935076Y29906902D01*
X68707590Y29812674D01*
X68544378Y29703619D01*
X68487184Y29703619D01*
X68245687Y29655582D01*
X68018201Y29561354D01*
X67813470Y29424557D01*
X67639360Y29250447D01*
X67502563Y29045716D01*
X67408335Y28818230D01*
X67360298Y28576733D01*
X67360298Y28330505D01*
X67408335Y28089008D01*
X67502563Y27861522D01*
X67639360Y27656791D01*
X67813470Y27482681D01*
X68018201Y27345884D01*
X68245687Y27251656D01*
X68487184Y27203619D01*
X68733412Y27203619D01*
X68974909Y27251656D01*
X69202395Y27345884D01*
X69365607Y27454939D01*
X69422801Y27454939D01*
X69664298Y27502976D01*
X69813142Y27564630D01*
X69875807Y27538673D01*
X70117304Y27490636D01*
X70363532Y27490636D01*
X70605029Y27538673D01*
X70832515Y27632901D01*
X71037246Y27769698D01*
X71211356Y27943808D01*
X71302713Y28080534D01*
X71440509Y28080534D01*
X71446710Y28081767D01*
X71441128Y28073414D01*
X71372811Y27908482D01*
X71366851Y27904500D01*
X71192741Y27730390D01*
X71055944Y27525659D01*
X70961716Y27298173D01*
X70913679Y27056676D01*
X70913679Y26810448D01*
X70940050Y26677874D01*
X70834508Y26519920D01*
X70740280Y26292434D01*
X70692243Y26050937D01*
X70692243Y25804709D01*
X70740280Y25563212D01*
X70834508Y25335726D01*
X70971305Y25130995D01*
X71145415Y24956885D01*
X71350146Y24820088D01*
X71577632Y24725860D01*
X71592896Y24722824D01*
X71599800Y24688116D01*
X71694028Y24460630D01*
X71830825Y24255899D01*
X72004935Y24081789D01*
X72209666Y23944992D01*
X72437152Y23850764D01*
X72484180Y23841410D01*
X72451630Y23677772D01*
X72451630Y23431544D01*
X72499667Y23190047D01*
X72593895Y22962561D01*
X72730692Y22757830D01*
X72904802Y22583720D01*
X73109533Y22446923D01*
X73337019Y22352695D01*
X73523621Y22315577D01*
X73344553Y22195928D01*
X73170443Y22021818D01*
X73033646Y21817087D01*
X72939418Y21589601D01*
X72891381Y21348104D01*
X72891381Y21101876D01*
X72939418Y20860379D01*
X73033646Y20632893D01*
X73170443Y20428162D01*
X73344553Y20254052D01*
X73549284Y20117255D01*
X73776770Y20023027D01*
X74018267Y19974990D01*
X74264495Y19974990D01*
X74505992Y20023027D01*
X74733478Y20117255D01*
X74938209Y20254052D01*
X75010000Y20325843D01*
X75010000Y19240000D01*
X65629226Y19240000D01*
X65489776Y19448702D01*
X65308702Y19629776D01*
X65095781Y19772045D01*
X64859196Y19870042D01*
X64608039Y19920000D01*
X64388955Y19920000D01*
X64330938Y20006828D01*
X64156828Y20180938D01*
X63952097Y20317735D01*
X63724611Y20411963D01*
X63483114Y20460000D01*
X63236886Y20460000D01*
X62995389Y20411963D01*
X62767903Y20317735D01*
X62563172Y20180938D01*
X62389062Y20006828D01*
X62252265Y19802097D01*
X62174181Y19613586D01*
X61647093Y20140674D01*
X61815135Y20107248D01*
X62061363Y20107248D01*
X62302860Y20155285D01*
X62530346Y20249513D01*
X62735077Y20386310D01*
X62909187Y20560420D01*
X63045984Y20765151D01*
X63140212Y20992637D01*
X63188249Y21234134D01*
X63188249Y21480362D01*
X63140212Y21721859D01*
X63045984Y21949345D01*
X63024309Y21981784D01*
X63024309Y22086730D01*
X63016407Y22126454D01*
X63096004Y22245579D01*
X63190232Y22473065D01*
X63238269Y22714562D01*
X63238269Y22719825D01*
X63339479Y22787451D01*
X63513589Y22961561D01*
X63650386Y23166292D01*
X63695739Y23275784D01*
X63832097Y23332265D01*
X64036828Y23469062D01*
X64210938Y23643172D01*
X64347735Y23847903D01*
X64441963Y24075389D01*
X64490000Y24316886D01*
X64490000Y24563114D01*
X64441963Y24804611D01*
X64376882Y24961729D01*
X64407735Y25007903D01*
X64501963Y25235389D01*
X64550000Y25476886D01*
X64550000Y25723114D01*
X64523647Y25855599D01*
X67058214Y25855599D01*
X67058214Y25609371D01*
X67106251Y25367874D01*
X67200479Y25140388D01*
X67337276Y24935657D01*
X67511386Y24761547D01*
X67716117Y24624750D01*
X67943603Y24530522D01*
X67991850Y24520925D01*
X67864617Y24330507D01*
X67770389Y24103021D01*
X67722352Y23861524D01*
X67722352Y23615296D01*
X67770389Y23373799D01*
X67864617Y23146313D01*
X68001414Y22941582D01*
X68175524Y22767472D01*
X68380255Y22630675D01*
X68607741Y22536447D01*
X68849238Y22488410D01*
X69095466Y22488410D01*
X69336963Y22536447D01*
X69564449Y22630675D01*
X69769180Y22767472D01*
X69943290Y22941582D01*
X70080087Y23146313D01*
X70174315Y23373799D01*
X70222352Y23615296D01*
X70222352Y23811309D01*
X70423432Y23945666D01*
X70597542Y24119776D01*
X70734339Y24324507D01*
X70828567Y24551993D01*
X70876604Y24793490D01*
X70876604Y25039718D01*
X70828567Y25281215D01*
X70734339Y25508701D01*
X70637041Y25654317D01*
X70649145Y25715165D01*
X70649145Y25961393D01*
X70601108Y26202890D01*
X70506880Y26430376D01*
X70370083Y26635107D01*
X70195973Y26809217D01*
X69991242Y26946014D01*
X69763756Y27040242D01*
X69522259Y27088279D01*
X69276031Y27088279D01*
X69034534Y27040242D01*
X68807048Y26946014D01*
X68744997Y26904553D01*
X68672825Y26934448D01*
X68431328Y26982485D01*
X68185100Y26982485D01*
X67943603Y26934448D01*
X67716117Y26840220D01*
X67511386Y26703423D01*
X67337276Y26529313D01*
X67200479Y26324582D01*
X67106251Y26097096D01*
X67058214Y25855599D01*
X64523647Y25855599D01*
X64501963Y25964611D01*
X64449363Y26091597D01*
X64570938Y26213172D01*
X64707735Y26417903D01*
X64801963Y26645389D01*
X64850000Y26886886D01*
X64850000Y27133114D01*
X64801963Y27374611D01*
X64707735Y27602097D01*
X64570938Y27806828D01*
X64396828Y27980938D01*
X64192097Y28117735D01*
X63964611Y28211963D01*
X63723114Y28260000D01*
X63476886Y28260000D01*
X63290110Y28222848D01*
X63264149Y28233601D01*
X63022652Y28281638D01*
X62776424Y28281638D01*
X62534927Y28233601D01*
X62307441Y28139373D01*
X62102710Y28002576D01*
X61928600Y27828466D01*
X61791803Y27623735D01*
X61697575Y27396249D01*
X61649538Y27154752D01*
X61649538Y26908524D01*
X61675644Y26777280D01*
X61584512Y26815028D01*
X61343015Y26863065D01*
X61096787Y26863065D01*
X60855290Y26815028D01*
X60627804Y26720800D01*
X60423073Y26584003D01*
X60248963Y26409893D01*
X60112166Y26205162D01*
X60017938Y25977676D01*
X59969901Y25736179D01*
X59969901Y25489951D01*
X59976407Y25457244D01*
X59938037Y25364611D01*
X59890000Y25123114D01*
X59890000Y24876886D01*
X59938037Y24635389D01*
X60032265Y24407903D01*
X60169062Y24203172D01*
X60343172Y24029062D01*
X60547903Y23892265D01*
X60756412Y23805897D01*
X60730000Y23673114D01*
X60730000Y23426886D01*
X60778037Y23185389D01*
X60781353Y23177385D01*
X60738269Y22960790D01*
X60738269Y22714562D01*
X60746171Y22674838D01*
X60666574Y22555713D01*
X60572346Y22328227D01*
X60524309Y22086730D01*
X60524309Y21840502D01*
X60572346Y21599005D01*
X60666574Y21371519D01*
X60688249Y21339080D01*
X60688249Y21234134D01*
X60721675Y21066091D01*
X60400000Y21387766D01*
X60400000Y23015760D01*
X60406047Y23077158D01*
X60400000Y23138556D01*
X60400000Y23138563D01*
X60381913Y23322201D01*
X60310437Y23557827D01*
X60194366Y23774981D01*
X60038160Y23965318D01*
X59990463Y24004462D01*
X59024446Y24970478D01*
X59067140Y25013172D01*
X59203937Y25217903D01*
X59298165Y25445389D01*
X59346202Y25686886D01*
X59346202Y25933114D01*
X59298165Y26174611D01*
X59292740Y26187707D01*
X59412461Y26333586D01*
X59518318Y26531630D01*
X59552826Y26645389D01*
X59583504Y26746520D01*
X59587852Y26790669D01*
X59600000Y26914006D01*
X59600000Y26914012D01*
X59605514Y26969999D01*
X59600000Y27025986D01*
X59600000Y32855797D01*
X59661963Y33005389D01*
X59710000Y33246886D01*
X59710000Y33420001D01*
X64983873Y33420001D01*
X65060001Y33412503D01*
X65136129Y33420001D01*
X65136139Y33420001D01*
X65363854Y33442429D01*
X65656030Y33531060D01*
X65925301Y33674988D01*
X66161319Y33868683D01*
X66209858Y33927828D01*
X67758973Y35476943D01*
X67812536Y35347632D01*
X67949333Y35142901D01*
X68123443Y34968791D01*
X68328174Y34831994D01*
X68555660Y34737766D01*
X68797157Y34689729D01*
X69043385Y34689729D01*
X69284882Y34737766D01*
X69512368Y34831994D01*
X69717099Y34968791D01*
X69891209Y35142901D01*
X70028006Y35347632D01*
X70034261Y35362733D01*
X70171474Y35454416D01*
X70345584Y35628526D01*
X70482381Y35833257D01*
X70576609Y36060743D01*
X70599676Y36176709D01*
X70742756Y36319789D01*
X70879553Y36524520D01*
X70973781Y36752006D01*
X71021818Y36993503D01*
X71021818Y37040000D01*
X71155380Y37040000D01*
X71149814Y37012017D01*
X71149814Y37012017D01*
G37*
X71149814Y37012017D02*
X71149814Y36765789D01*
X71197851Y36524292D01*
X71292079Y36296806D01*
X71428876Y36092075D01*
X71602986Y35917965D01*
X71807717Y35781168D01*
X72035203Y35686940D01*
X72276700Y35638903D01*
X72522928Y35638903D01*
X72764425Y35686940D01*
X72991911Y35781168D01*
X73065521Y35830353D01*
X73254288Y35704223D01*
X73481774Y35609995D01*
X73723271Y35561958D01*
X73959185Y35561958D01*
X74070048Y35451095D01*
X74096667Y35317273D01*
X74190895Y35089787D01*
X74327692Y34885056D01*
X74349684Y34863064D01*
X74302265Y34792097D01*
X74208037Y34564611D01*
X74160000Y34323114D01*
X74160000Y34076886D01*
X74208037Y33835389D01*
X74302265Y33607903D01*
X74439062Y33403172D01*
X74613172Y33229062D01*
X74817903Y33092265D01*
X75045389Y32998037D01*
X75066740Y32993790D01*
X75174062Y32833172D01*
X75348172Y32659062D01*
X75552903Y32522265D01*
X75780389Y32428037D01*
X75796972Y32424738D01*
X75426070Y32053837D01*
X75337735Y32267097D01*
X75200938Y32471828D01*
X75026828Y32645938D01*
X74822097Y32782735D01*
X74594611Y32876963D01*
X74353114Y32925000D01*
X74106886Y32925000D01*
X73865389Y32876963D01*
X73637903Y32782735D01*
X73433172Y32645938D01*
X73259062Y32471828D01*
X73122265Y32267097D01*
X73028037Y32039611D01*
X72980000Y31798114D01*
X72980000Y31551886D01*
X73028037Y31310389D01*
X73122265Y31082903D01*
X73259062Y30878172D01*
X73416862Y30720372D01*
X73317623Y30700632D01*
X73090137Y30606404D01*
X72885406Y30469607D01*
X72711296Y30295497D01*
X72574499Y30090766D01*
X72480271Y29863280D01*
X72470358Y29813442D01*
X72425130Y29922631D01*
X72288333Y30127362D01*
X72114223Y30301472D01*
X71909492Y30438269D01*
X71682006Y30532497D01*
X71440509Y30580534D01*
X71194281Y30580534D01*
X70952784Y30532497D01*
X70863193Y30495387D01*
X70793114Y30509327D01*
X70546886Y30509327D01*
X70305389Y30461290D01*
X70077903Y30367062D01*
X69873172Y30230265D01*
X69699062Y30056155D01*
X69606956Y29918308D01*
X69422801Y29954939D01*
X69176573Y29954939D01*
X68935076Y29906902D01*
X68707590Y29812674D01*
X68544378Y29703619D01*
X68487184Y29703619D01*
X68245687Y29655582D01*
X68018201Y29561354D01*
X67813470Y29424557D01*
X67639360Y29250447D01*
X67502563Y29045716D01*
X67408335Y28818230D01*
X67360298Y28576733D01*
X67360298Y28330505D01*
X67408335Y28089008D01*
X67502563Y27861522D01*
X67639360Y27656791D01*
X67813470Y27482681D01*
X68018201Y27345884D01*
X68245687Y27251656D01*
X68487184Y27203619D01*
X68733412Y27203619D01*
X68974909Y27251656D01*
X69202395Y27345884D01*
X69365607Y27454939D01*
X69422801Y27454939D01*
X69664298Y27502976D01*
X69813142Y27564630D01*
X69875807Y27538673D01*
X70117304Y27490636D01*
X70363532Y27490636D01*
X70605029Y27538673D01*
X70832515Y27632901D01*
X71037246Y27769698D01*
X71211356Y27943808D01*
X71302713Y28080534D01*
X71440509Y28080534D01*
X71446710Y28081767D01*
X71441128Y28073414D01*
X71372811Y27908482D01*
X71366851Y27904500D01*
X71192741Y27730390D01*
X71055944Y27525659D01*
X70961716Y27298173D01*
X70913679Y27056676D01*
X70913679Y26810448D01*
X70940050Y26677874D01*
X70834508Y26519920D01*
X70740280Y26292434D01*
X70692243Y26050937D01*
X70692243Y25804709D01*
X70740280Y25563212D01*
X70834508Y25335726D01*
X70971305Y25130995D01*
X71145415Y24956885D01*
X71350146Y24820088D01*
X71577632Y24725860D01*
X71592896Y24722824D01*
X71599800Y24688116D01*
X71694028Y24460630D01*
X71830825Y24255899D01*
X72004935Y24081789D01*
X72209666Y23944992D01*
X72437152Y23850764D01*
X72484180Y23841410D01*
X72451630Y23677772D01*
X72451630Y23431544D01*
X72499667Y23190047D01*
X72593895Y22962561D01*
X72730692Y22757830D01*
X72904802Y22583720D01*
X73109533Y22446923D01*
X73337019Y22352695D01*
X73523621Y22315577D01*
X73344553Y22195928D01*
X73170443Y22021818D01*
X73033646Y21817087D01*
X72939418Y21589601D01*
X72891381Y21348104D01*
X72891381Y21101876D01*
X72939418Y20860379D01*
X73033646Y20632893D01*
X73170443Y20428162D01*
X73344553Y20254052D01*
X73549284Y20117255D01*
X73776770Y20023027D01*
X74018267Y19974990D01*
X74264495Y19974990D01*
X74505992Y20023027D01*
X74733478Y20117255D01*
X74938209Y20254052D01*
X75010000Y20325843D01*
X75010000Y19240000D01*
X65629226Y19240000D01*
X65489776Y19448702D01*
X65308702Y19629776D01*
X65095781Y19772045D01*
X64859196Y19870042D01*
X64608039Y19920000D01*
X64388955Y19920000D01*
X64330938Y20006828D01*
X64156828Y20180938D01*
X63952097Y20317735D01*
X63724611Y20411963D01*
X63483114Y20460000D01*
X63236886Y20460000D01*
X62995389Y20411963D01*
X62767903Y20317735D01*
X62563172Y20180938D01*
X62389062Y20006828D01*
X62252265Y19802097D01*
X62174181Y19613586D01*
X61647093Y20140674D01*
X61815135Y20107248D01*
X62061363Y20107248D01*
X62302860Y20155285D01*
X62530346Y20249513D01*
X62735077Y20386310D01*
X62909187Y20560420D01*
X63045984Y20765151D01*
X63140212Y20992637D01*
X63188249Y21234134D01*
X63188249Y21480362D01*
X63140212Y21721859D01*
X63045984Y21949345D01*
X63024309Y21981784D01*
X63024309Y22086730D01*
X63016407Y22126454D01*
X63096004Y22245579D01*
X63190232Y22473065D01*
X63238269Y22714562D01*
X63238269Y22719825D01*
X63339479Y22787451D01*
X63513589Y22961561D01*
X63650386Y23166292D01*
X63695739Y23275784D01*
X63832097Y23332265D01*
X64036828Y23469062D01*
X64210938Y23643172D01*
X64347735Y23847903D01*
X64441963Y24075389D01*
X64490000Y24316886D01*
X64490000Y24563114D01*
X64441963Y24804611D01*
X64376882Y24961729D01*
X64407735Y25007903D01*
X64501963Y25235389D01*
X64550000Y25476886D01*
X64550000Y25723114D01*
X64523647Y25855599D01*
X67058214Y25855599D01*
X67058214Y25609371D01*
X67106251Y25367874D01*
X67200479Y25140388D01*
X67337276Y24935657D01*
X67511386Y24761547D01*
X67716117Y24624750D01*
X67943603Y24530522D01*
X67991850Y24520925D01*
X67864617Y24330507D01*
X67770389Y24103021D01*
X67722352Y23861524D01*
X67722352Y23615296D01*
X67770389Y23373799D01*
X67864617Y23146313D01*
X68001414Y22941582D01*
X68175524Y22767472D01*
X68380255Y22630675D01*
X68607741Y22536447D01*
X68849238Y22488410D01*
X69095466Y22488410D01*
X69336963Y22536447D01*
X69564449Y22630675D01*
X69769180Y22767472D01*
X69943290Y22941582D01*
X70080087Y23146313D01*
X70174315Y23373799D01*
X70222352Y23615296D01*
X70222352Y23811309D01*
X70423432Y23945666D01*
X70597542Y24119776D01*
X70734339Y24324507D01*
X70828567Y24551993D01*
X70876604Y24793490D01*
X70876604Y25039718D01*
X70828567Y25281215D01*
X70734339Y25508701D01*
X70637041Y25654317D01*
X70649145Y25715165D01*
X70649145Y25961393D01*
X70601108Y26202890D01*
X70506880Y26430376D01*
X70370083Y26635107D01*
X70195973Y26809217D01*
X69991242Y26946014D01*
X69763756Y27040242D01*
X69522259Y27088279D01*
X69276031Y27088279D01*
X69034534Y27040242D01*
X68807048Y26946014D01*
X68744997Y26904553D01*
X68672825Y26934448D01*
X68431328Y26982485D01*
X68185100Y26982485D01*
X67943603Y26934448D01*
X67716117Y26840220D01*
X67511386Y26703423D01*
X67337276Y26529313D01*
X67200479Y26324582D01*
X67106251Y26097096D01*
X67058214Y25855599D01*
X64523647Y25855599D01*
X64501963Y25964611D01*
X64449363Y26091597D01*
X64570938Y26213172D01*
X64707735Y26417903D01*
X64801963Y26645389D01*
X64850000Y26886886D01*
X64850000Y27133114D01*
X64801963Y27374611D01*
X64707735Y27602097D01*
X64570938Y27806828D01*
X64396828Y27980938D01*
X64192097Y28117735D01*
X63964611Y28211963D01*
X63723114Y28260000D01*
X63476886Y28260000D01*
X63290110Y28222848D01*
X63264149Y28233601D01*
X63022652Y28281638D01*
X62776424Y28281638D01*
X62534927Y28233601D01*
X62307441Y28139373D01*
X62102710Y28002576D01*
X61928600Y27828466D01*
X61791803Y27623735D01*
X61697575Y27396249D01*
X61649538Y27154752D01*
X61649538Y26908524D01*
X61675644Y26777280D01*
X61584512Y26815028D01*
X61343015Y26863065D01*
X61096787Y26863065D01*
X60855290Y26815028D01*
X60627804Y26720800D01*
X60423073Y26584003D01*
X60248963Y26409893D01*
X60112166Y26205162D01*
X60017938Y25977676D01*
X59969901Y25736179D01*
X59969901Y25489951D01*
X59976407Y25457244D01*
X59938037Y25364611D01*
X59890000Y25123114D01*
X59890000Y24876886D01*
X59938037Y24635389D01*
X60032265Y24407903D01*
X60169062Y24203172D01*
X60343172Y24029062D01*
X60547903Y23892265D01*
X60756412Y23805897D01*
X60730000Y23673114D01*
X60730000Y23426886D01*
X60778037Y23185389D01*
X60781353Y23177385D01*
X60738269Y22960790D01*
X60738269Y22714562D01*
X60746171Y22674838D01*
X60666574Y22555713D01*
X60572346Y22328227D01*
X60524309Y22086730D01*
X60524309Y21840502D01*
X60572346Y21599005D01*
X60666574Y21371519D01*
X60688249Y21339080D01*
X60688249Y21234134D01*
X60721675Y21066091D01*
X60400000Y21387766D01*
X60400000Y23015760D01*
X60406047Y23077158D01*
X60400000Y23138556D01*
X60400000Y23138563D01*
X60381913Y23322201D01*
X60310437Y23557827D01*
X60194366Y23774981D01*
X60038160Y23965318D01*
X59990463Y24004462D01*
X59024446Y24970478D01*
X59067140Y25013172D01*
X59203937Y25217903D01*
X59298165Y25445389D01*
X59346202Y25686886D01*
X59346202Y25933114D01*
X59298165Y26174611D01*
X59292740Y26187707D01*
X59412461Y26333586D01*
X59518318Y26531630D01*
X59552826Y26645389D01*
X59583504Y26746520D01*
X59587852Y26790669D01*
X59600000Y26914006D01*
X59600000Y26914012D01*
X59605514Y26969999D01*
X59600000Y27025986D01*
X59600000Y32855797D01*
X59661963Y33005389D01*
X59710000Y33246886D01*
X59710000Y33420001D01*
X64983873Y33420001D01*
X65060001Y33412503D01*
X65136129Y33420001D01*
X65136139Y33420001D01*
X65363854Y33442429D01*
X65656030Y33531060D01*
X65925301Y33674988D01*
X66161319Y33868683D01*
X66209858Y33927828D01*
X67758973Y35476943D01*
X67812536Y35347632D01*
X67949333Y35142901D01*
X68123443Y34968791D01*
X68328174Y34831994D01*
X68555660Y34737766D01*
X68797157Y34689729D01*
X69043385Y34689729D01*
X69284882Y34737766D01*
X69512368Y34831994D01*
X69717099Y34968791D01*
X69891209Y35142901D01*
X70028006Y35347632D01*
X70034261Y35362733D01*
X70171474Y35454416D01*
X70345584Y35628526D01*
X70482381Y35833257D01*
X70576609Y36060743D01*
X70599676Y36176709D01*
X70742756Y36319789D01*
X70879553Y36524520D01*
X70973781Y36752006D01*
X71021818Y36993503D01*
X71021818Y37040000D01*
X71155380Y37040000D01*
X71149814Y37012017D01*
G36*
X18550000Y39767030D02*
X18542502Y39690902D01*
X18550000Y39614774D01*
X18550000Y39614764D01*
X18572429Y39387049D01*
X18594262Y39315075D01*
X18661059Y39094874D01*
X18804987Y38825602D01*
X18950147Y38648725D01*
X18998683Y38589584D01*
X19057823Y38541049D01*
X22040000Y35558871D01*
X22040000Y35186128D01*
X22032502Y35110000D01*
X22040000Y35033872D01*
X22040001Y22076030D01*
X21371808Y21407837D01*
X21312097Y21447735D01*
X21084611Y21541963D01*
X20972884Y21564187D01*
X20890938Y21686828D01*
X20716828Y21860938D01*
X20512097Y21997735D01*
X20284611Y22091963D01*
X20043114Y22140000D01*
X19796886Y22140000D01*
X19555389Y22091963D01*
X19327903Y21997735D01*
X19123172Y21860938D01*
X19103835Y21841601D01*
X19060437Y21984667D01*
X19032246Y22037409D01*
X18944366Y22201821D01*
X18788160Y22392158D01*
X18740464Y22431301D01*
X18239433Y22932332D01*
X18516799Y23117661D01*
X18802339Y23403201D01*
X19026686Y23738961D01*
X19140439Y24013584D01*
X19152037Y24008780D01*
X19548093Y23930000D01*
X19951907Y23930000D01*
X20347963Y24008780D01*
X20721039Y24163314D01*
X21056799Y24387661D01*
X21342339Y24673201D01*
X21566686Y25008961D01*
X21721220Y25382037D01*
X21800000Y25778093D01*
X21800000Y26181907D01*
X21721220Y26577963D01*
X21566686Y26951039D01*
X21366927Y27250000D01*
X21566686Y27548961D01*
X21721220Y27922037D01*
X21800000Y28318093D01*
X21800000Y28721907D01*
X21721220Y29117963D01*
X21566686Y29491039D01*
X21366927Y29790000D01*
X21566686Y30088961D01*
X21721220Y30462037D01*
X21800000Y30858093D01*
X21800000Y31261907D01*
X21721220Y31657963D01*
X21566686Y32031039D01*
X21342339Y32366799D01*
X21056799Y32652339D01*
X20721039Y32876686D01*
X20347963Y33031220D01*
X19951907Y33110000D01*
X19548093Y33110000D01*
X19265080Y33053706D01*
X19265080Y33330000D01*
X19244807Y33535836D01*
X19184767Y33733762D01*
X19087267Y33916171D01*
X18956054Y34076054D01*
X18796171Y34207267D01*
X18613762Y34304767D01*
X18415836Y34364807D01*
X18210000Y34385080D01*
X16210000Y34385080D01*
X16004164Y34364807D01*
X15806238Y34304767D01*
X15623829Y34207267D01*
X15463946Y34076054D01*
X15332733Y33916171D01*
X15235233Y33733762D01*
X15175193Y33535836D01*
X15154920Y33330000D01*
X15154920Y31330000D01*
X15175193Y31124164D01*
X15235233Y30926238D01*
X15332733Y30743829D01*
X15368256Y30700544D01*
X15238780Y30387963D01*
X15160000Y29991907D01*
X15160000Y29588093D01*
X15238780Y29192037D01*
X15393314Y28818961D01*
X15427841Y28767288D01*
X15213114Y28810000D01*
X14966886Y28810000D01*
X14725389Y28761963D01*
X14497903Y28667735D01*
X14293172Y28530938D01*
X14119062Y28356828D01*
X13982265Y28152097D01*
X13888037Y27924611D01*
X13840000Y27683114D01*
X13840000Y27436886D01*
X13866102Y27305662D01*
X10800001Y30371763D01*
X10800001Y30670000D01*
X11145776Y30670000D01*
X11686730Y30777602D01*
X12196297Y30988672D01*
X12654896Y31295098D01*
X13044902Y31685104D01*
X13351328Y32143703D01*
X13562398Y32653270D01*
X13670000Y33194224D01*
X13670000Y33745776D01*
X13562398Y34286730D01*
X13351328Y34796297D01*
X13044902Y35254896D01*
X12654896Y35644902D01*
X12196297Y35951328D01*
X11694405Y36159219D01*
X12595187Y37060000D01*
X14743681Y37060000D01*
X14810000Y37053468D01*
X14876319Y37060000D01*
X14876321Y37060000D01*
X15072300Y37079302D01*
X15079958Y37040804D01*
X15177955Y36804219D01*
X15320224Y36591298D01*
X15501298Y36410224D01*
X15714219Y36267955D01*
X15950804Y36169958D01*
X16201961Y36120000D01*
X16458039Y36120000D01*
X16709196Y36169958D01*
X16945781Y36267955D01*
X17158702Y36410224D01*
X17339776Y36591298D01*
X17482045Y36804219D01*
X17580042Y37040804D01*
X17630000Y37291961D01*
X17630000Y37548039D01*
X17580042Y37799196D01*
X17482045Y38035781D01*
X17339776Y38248702D01*
X17158702Y38429776D01*
X16945781Y38572045D01*
X16900139Y38590951D01*
X18550000Y40240812D01*
X18550000Y39767030D01*
X18550000Y39767030D01*
G37*
X18550000Y39767030D02*
X18542502Y39690902D01*
X18550000Y39614774D01*
X18550000Y39614764D01*
X18572429Y39387049D01*
X18594262Y39315075D01*
X18661059Y39094874D01*
X18804987Y38825602D01*
X18950147Y38648725D01*
X18998683Y38589584D01*
X19057823Y38541049D01*
X22040000Y35558871D01*
X22040000Y35186128D01*
X22032502Y35110000D01*
X22040000Y35033872D01*
X22040001Y22076030D01*
X21371808Y21407837D01*
X21312097Y21447735D01*
X21084611Y21541963D01*
X20972884Y21564187D01*
X20890938Y21686828D01*
X20716828Y21860938D01*
X20512097Y21997735D01*
X20284611Y22091963D01*
X20043114Y22140000D01*
X19796886Y22140000D01*
X19555389Y22091963D01*
X19327903Y21997735D01*
X19123172Y21860938D01*
X19103835Y21841601D01*
X19060437Y21984667D01*
X19032246Y22037409D01*
X18944366Y22201821D01*
X18788160Y22392158D01*
X18740464Y22431301D01*
X18239433Y22932332D01*
X18516799Y23117661D01*
X18802339Y23403201D01*
X19026686Y23738961D01*
X19140439Y24013584D01*
X19152037Y24008780D01*
X19548093Y23930000D01*
X19951907Y23930000D01*
X20347963Y24008780D01*
X20721039Y24163314D01*
X21056799Y24387661D01*
X21342339Y24673201D01*
X21566686Y25008961D01*
X21721220Y25382037D01*
X21800000Y25778093D01*
X21800000Y26181907D01*
X21721220Y26577963D01*
X21566686Y26951039D01*
X21366927Y27250000D01*
X21566686Y27548961D01*
X21721220Y27922037D01*
X21800000Y28318093D01*
X21800000Y28721907D01*
X21721220Y29117963D01*
X21566686Y29491039D01*
X21366927Y29790000D01*
X21566686Y30088961D01*
X21721220Y30462037D01*
X21800000Y30858093D01*
X21800000Y31261907D01*
X21721220Y31657963D01*
X21566686Y32031039D01*
X21342339Y32366799D01*
X21056799Y32652339D01*
X20721039Y32876686D01*
X20347963Y33031220D01*
X19951907Y33110000D01*
X19548093Y33110000D01*
X19265080Y33053706D01*
X19265080Y33330000D01*
X19244807Y33535836D01*
X19184767Y33733762D01*
X19087267Y33916171D01*
X18956054Y34076054D01*
X18796171Y34207267D01*
X18613762Y34304767D01*
X18415836Y34364807D01*
X18210000Y34385080D01*
X16210000Y34385080D01*
X16004164Y34364807D01*
X15806238Y34304767D01*
X15623829Y34207267D01*
X15463946Y34076054D01*
X15332733Y33916171D01*
X15235233Y33733762D01*
X15175193Y33535836D01*
X15154920Y33330000D01*
X15154920Y31330000D01*
X15175193Y31124164D01*
X15235233Y30926238D01*
X15332733Y30743829D01*
X15368256Y30700544D01*
X15238780Y30387963D01*
X15160000Y29991907D01*
X15160000Y29588093D01*
X15238780Y29192037D01*
X15393314Y28818961D01*
X15427841Y28767288D01*
X15213114Y28810000D01*
X14966886Y28810000D01*
X14725389Y28761963D01*
X14497903Y28667735D01*
X14293172Y28530938D01*
X14119062Y28356828D01*
X13982265Y28152097D01*
X13888037Y27924611D01*
X13840000Y27683114D01*
X13840000Y27436886D01*
X13866102Y27305662D01*
X10800001Y30371763D01*
X10800001Y30670000D01*
X11145776Y30670000D01*
X11686730Y30777602D01*
X12196297Y30988672D01*
X12654896Y31295098D01*
X13044902Y31685104D01*
X13351328Y32143703D01*
X13562398Y32653270D01*
X13670000Y33194224D01*
X13670000Y33745776D01*
X13562398Y34286730D01*
X13351328Y34796297D01*
X13044902Y35254896D01*
X12654896Y35644902D01*
X12196297Y35951328D01*
X11694405Y36159219D01*
X12595187Y37060000D01*
X14743681Y37060000D01*
X14810000Y37053468D01*
X14876319Y37060000D01*
X14876321Y37060000D01*
X15072300Y37079302D01*
X15079958Y37040804D01*
X15177955Y36804219D01*
X15320224Y36591298D01*
X15501298Y36410224D01*
X15714219Y36267955D01*
X15950804Y36169958D01*
X16201961Y36120000D01*
X16458039Y36120000D01*
X16709196Y36169958D01*
X16945781Y36267955D01*
X17158702Y36410224D01*
X17339776Y36591298D01*
X17482045Y36804219D01*
X17580042Y37040804D01*
X17630000Y37291961D01*
X17630000Y37548039D01*
X17580042Y37799196D01*
X17482045Y38035781D01*
X17339776Y38248702D01*
X17158702Y38429776D01*
X16945781Y38572045D01*
X16900139Y38590951D01*
X18550000Y40240812D01*
X18550000Y39767030D01*
G36*
X25310000Y24602944D02*
X25310001Y23749189D01*
X25140000Y23579188D01*
X25140000Y24772944D01*
X25310000Y24602944D01*
X25310000Y24602944D01*
G37*
X25310000Y24602944D02*
X25310001Y23749189D01*
X25140000Y23579188D01*
X25140000Y24772944D01*
X25310000Y24602944D01*
G36*
X8917823Y46829853D02*
X8858683Y46781318D01*
X8810148Y46722178D01*
X8810147Y46722177D01*
X8664987Y46545300D01*
X8521059Y46276028D01*
X8473916Y46120617D01*
X8432429Y45983853D01*
X8418198Y45839365D01*
X8407927Y45735080D01*
X8210000Y45735080D01*
X8004164Y45714807D01*
X7806238Y45654767D01*
X7623829Y45557267D01*
X7463946Y45426054D01*
X7332733Y45266171D01*
X7235233Y45083762D01*
X7175193Y44885836D01*
X7154920Y44680000D01*
X7154920Y41180000D01*
X7175193Y40974164D01*
X7235233Y40776238D01*
X7332733Y40593829D01*
X7463946Y40433946D01*
X7623829Y40302733D01*
X7806238Y40205233D01*
X8004164Y40145193D01*
X8210000Y40124920D01*
X11710000Y40124920D01*
X11915836Y40145193D01*
X12113762Y40205233D01*
X12296171Y40302733D01*
X12456054Y40433946D01*
X12587267Y40593829D01*
X12684767Y40776238D01*
X12744807Y40974164D01*
X12765080Y41180000D01*
X12765080Y44056855D01*
X12782733Y44023829D01*
X12913946Y43863946D01*
X13073829Y43732733D01*
X13256238Y43635233D01*
X13454164Y43575193D01*
X13660000Y43554920D01*
X15660000Y43554920D01*
X15865836Y43575193D01*
X16063762Y43635233D01*
X16246171Y43732733D01*
X16406054Y43863946D01*
X16537267Y44023829D01*
X16634767Y44206238D01*
X16694807Y44404164D01*
X16715080Y44610000D01*
X16715080Y46695011D01*
X17790000Y46695011D01*
X17790000Y45653680D01*
X17809533Y45455355D01*
X17886728Y45200879D01*
X18012085Y44966352D01*
X18180787Y44760788D01*
X18386351Y44592085D01*
X18620878Y44466728D01*
X18875354Y44389533D01*
X18879898Y44389086D01*
X14250812Y39760000D01*
X12102308Y39760000D01*
X12035997Y39766531D01*
X11969686Y39760000D01*
X11969677Y39760000D01*
X11771352Y39740467D01*
X11516876Y39663272D01*
X11417132Y39609958D01*
X11282348Y39537915D01*
X11128299Y39411490D01*
X11128296Y39411487D01*
X11076785Y39369213D01*
X11034511Y39317702D01*
X7467974Y35751164D01*
X7276799Y35942339D01*
X6941039Y36166686D01*
X6567963Y36321220D01*
X6171907Y36400000D01*
X5768093Y36400000D01*
X5372037Y36321220D01*
X4998961Y36166686D01*
X4663201Y35942339D01*
X4377661Y35656799D01*
X4153314Y35321039D01*
X3998780Y34947963D01*
X3920000Y34551907D01*
X3920000Y34148093D01*
X3998780Y33752037D01*
X4153314Y33378961D01*
X4353073Y33080000D01*
X4153314Y32781039D01*
X3998780Y32407963D01*
X3920000Y32011907D01*
X3920000Y31608093D01*
X3998780Y31212037D01*
X4153314Y30838961D01*
X4377661Y30503201D01*
X4663201Y30217661D01*
X4998961Y29993314D01*
X5372037Y29838780D01*
X5768093Y29760000D01*
X6171907Y29760000D01*
X6567963Y29838780D01*
X6941039Y29993314D01*
X7276799Y30217661D01*
X7562339Y30503201D01*
X7757281Y30794953D01*
X8300001Y30252232D01*
X8300001Y29915395D01*
X8293954Y29853997D01*
X8300001Y29792599D01*
X8300001Y29792592D01*
X8318088Y29608954D01*
X8389564Y29373328D01*
X8505636Y29156174D01*
X8661842Y28965837D01*
X8709539Y28926693D01*
X10142977Y27493255D01*
X9935389Y27451963D01*
X9707903Y27357735D01*
X9503172Y27220938D01*
X9329062Y27046828D01*
X9192265Y26842097D01*
X9098037Y26614611D01*
X9097934Y26614096D01*
X8639857Y27072173D01*
X8591318Y27131318D01*
X8355300Y27325013D01*
X8086029Y27468941D01*
X7793853Y27557572D01*
X7566138Y27580000D01*
X7566128Y27580000D01*
X7490000Y27587498D01*
X7413872Y27580000D01*
X4116127Y27580000D01*
X4039999Y27587498D01*
X3963871Y27580000D01*
X3963862Y27580000D01*
X3736147Y27557572D01*
X3443971Y27468941D01*
X3174700Y27325013D01*
X2938682Y27131318D01*
X2890147Y27072178D01*
X1150000Y25332030D01*
X1150000Y48830000D01*
X10917969Y48830000D01*
X8917823Y46829853D01*
X8917823Y46829853D01*
G37*
X8917823Y46829853D02*
X8858683Y46781318D01*
X8810148Y46722178D01*
X8810147Y46722177D01*
X8664987Y46545300D01*
X8521059Y46276028D01*
X8473916Y46120617D01*
X8432429Y45983853D01*
X8418198Y45839365D01*
X8407927Y45735080D01*
X8210000Y45735080D01*
X8004164Y45714807D01*
X7806238Y45654767D01*
X7623829Y45557267D01*
X7463946Y45426054D01*
X7332733Y45266171D01*
X7235233Y45083762D01*
X7175193Y44885836D01*
X7154920Y44680000D01*
X7154920Y41180000D01*
X7175193Y40974164D01*
X7235233Y40776238D01*
X7332733Y40593829D01*
X7463946Y40433946D01*
X7623829Y40302733D01*
X7806238Y40205233D01*
X8004164Y40145193D01*
X8210000Y40124920D01*
X11710000Y40124920D01*
X11915836Y40145193D01*
X12113762Y40205233D01*
X12296171Y40302733D01*
X12456054Y40433946D01*
X12587267Y40593829D01*
X12684767Y40776238D01*
X12744807Y40974164D01*
X12765080Y41180000D01*
X12765080Y44056855D01*
X12782733Y44023829D01*
X12913946Y43863946D01*
X13073829Y43732733D01*
X13256238Y43635233D01*
X13454164Y43575193D01*
X13660000Y43554920D01*
X15660000Y43554920D01*
X15865836Y43575193D01*
X16063762Y43635233D01*
X16246171Y43732733D01*
X16406054Y43863946D01*
X16537267Y44023829D01*
X16634767Y44206238D01*
X16694807Y44404164D01*
X16715080Y44610000D01*
X16715080Y46695011D01*
X17790000Y46695011D01*
X17790000Y45653680D01*
X17809533Y45455355D01*
X17886728Y45200879D01*
X18012085Y44966352D01*
X18180787Y44760788D01*
X18386351Y44592085D01*
X18620878Y44466728D01*
X18875354Y44389533D01*
X18879898Y44389086D01*
X14250812Y39760000D01*
X12102308Y39760000D01*
X12035997Y39766531D01*
X11969686Y39760000D01*
X11969677Y39760000D01*
X11771352Y39740467D01*
X11516876Y39663272D01*
X11417132Y39609958D01*
X11282348Y39537915D01*
X11128299Y39411490D01*
X11128296Y39411487D01*
X11076785Y39369213D01*
X11034511Y39317702D01*
X7467974Y35751164D01*
X7276799Y35942339D01*
X6941039Y36166686D01*
X6567963Y36321220D01*
X6171907Y36400000D01*
X5768093Y36400000D01*
X5372037Y36321220D01*
X4998961Y36166686D01*
X4663201Y35942339D01*
X4377661Y35656799D01*
X4153314Y35321039D01*
X3998780Y34947963D01*
X3920000Y34551907D01*
X3920000Y34148093D01*
X3998780Y33752037D01*
X4153314Y33378961D01*
X4353073Y33080000D01*
X4153314Y32781039D01*
X3998780Y32407963D01*
X3920000Y32011907D01*
X3920000Y31608093D01*
X3998780Y31212037D01*
X4153314Y30838961D01*
X4377661Y30503201D01*
X4663201Y30217661D01*
X4998961Y29993314D01*
X5372037Y29838780D01*
X5768093Y29760000D01*
X6171907Y29760000D01*
X6567963Y29838780D01*
X6941039Y29993314D01*
X7276799Y30217661D01*
X7562339Y30503201D01*
X7757281Y30794953D01*
X8300001Y30252232D01*
X8300001Y29915395D01*
X8293954Y29853997D01*
X8300001Y29792599D01*
X8300001Y29792592D01*
X8318088Y29608954D01*
X8389564Y29373328D01*
X8505636Y29156174D01*
X8661842Y28965837D01*
X8709539Y28926693D01*
X10142977Y27493255D01*
X9935389Y27451963D01*
X9707903Y27357735D01*
X9503172Y27220938D01*
X9329062Y27046828D01*
X9192265Y26842097D01*
X9098037Y26614611D01*
X9097934Y26614096D01*
X8639857Y27072173D01*
X8591318Y27131318D01*
X8355300Y27325013D01*
X8086029Y27468941D01*
X7793853Y27557572D01*
X7566138Y27580000D01*
X7566128Y27580000D01*
X7490000Y27587498D01*
X7413872Y27580000D01*
X4116127Y27580000D01*
X4039999Y27587498D01*
X3963871Y27580000D01*
X3963862Y27580000D01*
X3736147Y27557572D01*
X3443971Y27468941D01*
X3174700Y27325013D01*
X2938682Y27131318D01*
X2890147Y27072178D01*
X1150000Y25332030D01*
X1150000Y48830000D01*
X10917969Y48830000D01*
X8917823Y46829853D01*
G36*
X32112299Y30202717D02*
X32060788Y30160443D01*
X32018514Y30108932D01*
X32018510Y30108928D01*
X31892085Y29954879D01*
X31766729Y29720352D01*
X31689534Y29465876D01*
X31675224Y29320584D01*
X31609417Y29364555D01*
X31381931Y29458783D01*
X31140434Y29506820D01*
X30894206Y29506820D01*
X30652709Y29458783D01*
X30425223Y29364555D01*
X30220492Y29227758D01*
X30046382Y29053648D01*
X29909585Y28848917D01*
X29815357Y28621431D01*
X29767320Y28379934D01*
X29767320Y28133706D01*
X29815357Y27892209D01*
X29866526Y27768676D01*
X29772631Y27541993D01*
X29724594Y27300496D01*
X29724594Y27054268D01*
X29772631Y26812771D01*
X29866859Y26585285D01*
X30003656Y26380554D01*
X30177766Y26206444D01*
X30382497Y26069647D01*
X30609983Y25975419D01*
X30851480Y25927382D01*
X31097708Y25927382D01*
X31339205Y25975419D01*
X31374672Y25990110D01*
X31080812Y25696250D01*
X27882568Y25696250D01*
X27816249Y25702782D01*
X27749930Y25696250D01*
X27749929Y25696250D01*
X27561863Y25677727D01*
X27512591Y25769910D01*
X27362634Y25952634D01*
X27316841Y25990215D01*
X26503998Y26803058D01*
X26503998Y30889111D01*
X26527394Y30886807D01*
X26603522Y30894305D01*
X26833590Y30894305D01*
X26908645Y30909234D01*
X26984781Y30916733D01*
X27057988Y30938940D01*
X27133046Y30953870D01*
X27203750Y30983157D01*
X27276957Y31005364D01*
X27344428Y31041428D01*
X27415128Y31070713D01*
X27478756Y31113227D01*
X27546228Y31149292D01*
X27551135Y31153319D01*
X33062900Y31153319D01*
X32112299Y30202717D01*
X32112299Y30202717D01*
G37*
X32112299Y30202717D02*
X32060788Y30160443D01*
X32018514Y30108932D01*
X32018510Y30108928D01*
X31892085Y29954879D01*
X31766729Y29720352D01*
X31689534Y29465876D01*
X31675224Y29320584D01*
X31609417Y29364555D01*
X31381931Y29458783D01*
X31140434Y29506820D01*
X30894206Y29506820D01*
X30652709Y29458783D01*
X30425223Y29364555D01*
X30220492Y29227758D01*
X30046382Y29053648D01*
X29909585Y28848917D01*
X29815357Y28621431D01*
X29767320Y28379934D01*
X29767320Y28133706D01*
X29815357Y27892209D01*
X29866526Y27768676D01*
X29772631Y27541993D01*
X29724594Y27300496D01*
X29724594Y27054268D01*
X29772631Y26812771D01*
X29866859Y26585285D01*
X30003656Y26380554D01*
X30177766Y26206444D01*
X30382497Y26069647D01*
X30609983Y25975419D01*
X30851480Y25927382D01*
X31097708Y25927382D01*
X31339205Y25975419D01*
X31374672Y25990110D01*
X31080812Y25696250D01*
X27882568Y25696250D01*
X27816249Y25702782D01*
X27749930Y25696250D01*
X27749929Y25696250D01*
X27561863Y25677727D01*
X27512591Y25769910D01*
X27362634Y25952634D01*
X27316841Y25990215D01*
X26503998Y26803058D01*
X26503998Y30889111D01*
X26527394Y30886807D01*
X26603522Y30894305D01*
X26833590Y30894305D01*
X26908645Y30909234D01*
X26984781Y30916733D01*
X27057988Y30938940D01*
X27133046Y30953870D01*
X27203750Y30983157D01*
X27276957Y31005364D01*
X27344428Y31041428D01*
X27415128Y31070713D01*
X27478756Y31113227D01*
X27546228Y31149292D01*
X27551135Y31153319D01*
X33062900Y31153319D01*
X32112299Y30202717D01*
G36*
X54819999Y28550986D02*
X54819999Y28323862D01*
X54842427Y28096147D01*
X54931058Y27803971D01*
X55074986Y27534700D01*
X55268681Y27298682D01*
X55405083Y27186741D01*
X55317409Y27079910D01*
X55248527Y26951039D01*
X55205981Y26871442D01*
X55137363Y26645241D01*
X55120000Y26468950D01*
X55114194Y26410000D01*
X55120000Y26351053D01*
X55120000Y25900000D01*
X54294706Y25900000D01*
X54261963Y26064611D01*
X54167735Y26292097D01*
X54030938Y26496828D01*
X53856828Y26670938D01*
X53652097Y26807735D01*
X53424611Y26901963D01*
X53183114Y26950000D01*
X53030000Y26950000D01*
X53030000Y27720291D01*
X53030804Y27719958D01*
X53281961Y27670000D01*
X53538039Y27670000D01*
X53789196Y27719958D01*
X54025781Y27817955D01*
X54238702Y27960224D01*
X54419776Y28141298D01*
X54562045Y28354219D01*
X54660042Y28590804D01*
X54679974Y28691011D01*
X54819999Y28550986D01*
X54819999Y28550986D01*
G37*
X54819999Y28550986D02*
X54819999Y28323862D01*
X54842427Y28096147D01*
X54931058Y27803971D01*
X55074986Y27534700D01*
X55268681Y27298682D01*
X55405083Y27186741D01*
X55317409Y27079910D01*
X55248527Y26951039D01*
X55205981Y26871442D01*
X55137363Y26645241D01*
X55120000Y26468950D01*
X55114194Y26410000D01*
X55120000Y26351053D01*
X55120000Y25900000D01*
X54294706Y25900000D01*
X54261963Y26064611D01*
X54167735Y26292097D01*
X54030938Y26496828D01*
X53856828Y26670938D01*
X53652097Y26807735D01*
X53424611Y26901963D01*
X53183114Y26950000D01*
X53030000Y26950000D01*
X53030000Y27720291D01*
X53030804Y27719958D01*
X53281961Y27670000D01*
X53538039Y27670000D01*
X53789196Y27719958D01*
X54025781Y27817955D01*
X54238702Y27960224D01*
X54419776Y28141298D01*
X54562045Y28354219D01*
X54660042Y28590804D01*
X54679974Y28691011D01*
X54819999Y28550986D01*
G36*
X56787903Y31682265D02*
X57015389Y31588037D01*
X57256886Y31540000D01*
X57320001Y31540000D01*
X57320001Y30435046D01*
X56488290Y31266757D01*
X56528188Y31326468D01*
X56622416Y31553954D01*
X56664359Y31764815D01*
X56787903Y31682265D01*
X56787903Y31682265D01*
G37*
X56787903Y31682265D02*
X57015389Y31588037D01*
X57256886Y31540000D01*
X57320001Y31540000D01*
X57320001Y30435046D01*
X56488290Y31266757D01*
X56528188Y31326468D01*
X56622416Y31553954D01*
X56664359Y31764815D01*
X56787903Y31682265D01*
G36*
X85667070Y32311073D02*
X85667070Y31860697D01*
X83730685Y33797081D01*
X83691536Y33844784D01*
X83624255Y33900000D01*
X84078144Y33900000D01*
X85667070Y32311073D01*
X85667070Y32311073D01*
G37*
X85667070Y32311073D02*
X85667070Y31860697D01*
X83730685Y33797081D01*
X83691536Y33844784D01*
X83624255Y33900000D01*
X84078144Y33900000D01*
X85667070Y32311073D01*
G36*
X80328464Y33844784D02*
X80289315Y33797081D01*
X80232234Y33740000D01*
X79445686Y33740000D01*
X79460000Y33811961D01*
X79460000Y33900000D01*
X80395745Y33900000D01*
X80328464Y33844784D01*
X80328464Y33844784D01*
G37*
X80328464Y33844784D02*
X80289315Y33797081D01*
X80232234Y33740000D01*
X79445686Y33740000D01*
X79460000Y33811961D01*
X79460000Y33900000D01*
X80395745Y33900000D01*
X80328464Y33844784D01*
G36*
X24657695Y43954536D02*
X24696839Y43906839D01*
X24887176Y43750633D01*
X25081401Y43646818D01*
X25104330Y43634562D01*
X25339956Y43563086D01*
X25584999Y43538951D01*
X25646404Y43544999D01*
X29177233Y43544999D01*
X30142694Y42579538D01*
X30181838Y42531840D01*
X30372175Y42375634D01*
X30535828Y42288160D01*
X30589329Y42259563D01*
X30824954Y42188087D01*
X30844642Y42186148D01*
X31008593Y42170000D01*
X31008599Y42170000D01*
X31069997Y42163953D01*
X31131395Y42170000D01*
X33684364Y42170000D01*
X33612265Y42062097D01*
X33518037Y41834611D01*
X33470000Y41593114D01*
X33470000Y41346886D01*
X33518037Y41105389D01*
X33612265Y40877903D01*
X33749062Y40673172D01*
X33807541Y40614693D01*
X33728802Y40424601D01*
X33680765Y40183104D01*
X33680765Y39936876D01*
X33728802Y39695379D01*
X33823030Y39467893D01*
X33959827Y39263162D01*
X34133937Y39089052D01*
X34338668Y38952255D01*
X34566154Y38858027D01*
X34807651Y38809990D01*
X35053879Y38809990D01*
X35295376Y38858027D01*
X35522862Y38952255D01*
X35727593Y39089052D01*
X35839511Y39200970D01*
X35861609Y39191817D01*
X36012728Y39161757D01*
X36073196Y39015775D01*
X36209993Y38811044D01*
X36384103Y38636934D01*
X36588834Y38500137D01*
X36816320Y38405909D01*
X37057817Y38357872D01*
X37304045Y38357872D01*
X37545542Y38405909D01*
X37773028Y38500137D01*
X37977759Y38636934D01*
X38151869Y38811044D01*
X38288666Y39015775D01*
X38382894Y39243261D01*
X38430931Y39484758D01*
X38430931Y39730986D01*
X38382894Y39972483D01*
X38292796Y40189999D01*
X38447747Y40189999D01*
X38680001Y39957745D01*
X38680000Y38511398D01*
X38673953Y38450000D01*
X38680000Y38388602D01*
X38680000Y38388596D01*
X38698087Y38204958D01*
X38769563Y37969332D01*
X38885634Y37752178D01*
X39041840Y37561840D01*
X39089543Y37522691D01*
X39722692Y36889542D01*
X39761841Y36841839D01*
X39952178Y36685633D01*
X40128667Y36591298D01*
X40169332Y36569562D01*
X40404957Y36498086D01*
X40430539Y36495566D01*
X40588596Y36479999D01*
X40588602Y36479999D01*
X40650000Y36473952D01*
X40711398Y36479999D01*
X43288214Y36479999D01*
X43053971Y36408942D01*
X42784700Y36265014D01*
X42548682Y36071319D01*
X42500143Y36012174D01*
X42241298Y35753329D01*
X31922518Y35753329D01*
X32931490Y36762301D01*
X33057915Y36916350D01*
X33183271Y37150877D01*
X33260466Y37405353D01*
X33286532Y37669999D01*
X33260466Y37934646D01*
X33183271Y38189122D01*
X33057915Y38423649D01*
X32889212Y38629212D01*
X32683649Y38797915D01*
X32449122Y38923271D01*
X32194646Y39000466D01*
X31929999Y39026532D01*
X31665353Y39000466D01*
X31410877Y38923271D01*
X31176350Y38797915D01*
X31022301Y38671490D01*
X29230812Y36880000D01*
X26688478Y36880000D01*
X26689776Y36881298D01*
X26832045Y37094219D01*
X26871642Y37189813D01*
X26964219Y37127955D01*
X27200804Y37029958D01*
X27451961Y36980000D01*
X27708039Y36980000D01*
X27959196Y37029958D01*
X28195781Y37127955D01*
X28408702Y37270224D01*
X28589776Y37451298D01*
X28732045Y37664219D01*
X28830042Y37900804D01*
X28880000Y38151961D01*
X28880000Y38408039D01*
X28830042Y38659196D01*
X28732045Y38895781D01*
X28589776Y39108702D01*
X28408702Y39289776D01*
X28195781Y39432045D01*
X27959196Y39530042D01*
X27708039Y39580000D01*
X27451961Y39580000D01*
X27200804Y39530042D01*
X26964219Y39432045D01*
X26751298Y39289776D01*
X26570224Y39108702D01*
X26427955Y38895781D01*
X26388358Y38800187D01*
X26295781Y38862045D01*
X26059196Y38960042D01*
X25808039Y39010000D01*
X25551961Y39010000D01*
X25300804Y38960042D01*
X25064219Y38862045D01*
X24851298Y38719776D01*
X24835051Y38703529D01*
X24780000Y38758580D01*
X24780000Y42693681D01*
X24786532Y42760000D01*
X24777287Y42853863D01*
X24760467Y43024646D01*
X24683272Y43279122D01*
X24596166Y43442087D01*
X24557915Y43513650D01*
X24454342Y43639852D01*
X24389212Y43719213D01*
X24337696Y43761491D01*
X24132901Y43966286D01*
X24230042Y44200804D01*
X24260136Y44352096D01*
X24657695Y43954536D01*
X24657695Y43954536D01*
G37*
X24657695Y43954536D02*
X24696839Y43906839D01*
X24887176Y43750633D01*
X25081401Y43646818D01*
X25104330Y43634562D01*
X25339956Y43563086D01*
X25584999Y43538951D01*
X25646404Y43544999D01*
X29177233Y43544999D01*
X30142694Y42579538D01*
X30181838Y42531840D01*
X30372175Y42375634D01*
X30535828Y42288160D01*
X30589329Y42259563D01*
X30824954Y42188087D01*
X30844642Y42186148D01*
X31008593Y42170000D01*
X31008599Y42170000D01*
X31069997Y42163953D01*
X31131395Y42170000D01*
X33684364Y42170000D01*
X33612265Y42062097D01*
X33518037Y41834611D01*
X33470000Y41593114D01*
X33470000Y41346886D01*
X33518037Y41105389D01*
X33612265Y40877903D01*
X33749062Y40673172D01*
X33807541Y40614693D01*
X33728802Y40424601D01*
X33680765Y40183104D01*
X33680765Y39936876D01*
X33728802Y39695379D01*
X33823030Y39467893D01*
X33959827Y39263162D01*
X34133937Y39089052D01*
X34338668Y38952255D01*
X34566154Y38858027D01*
X34807651Y38809990D01*
X35053879Y38809990D01*
X35295376Y38858027D01*
X35522862Y38952255D01*
X35727593Y39089052D01*
X35839511Y39200970D01*
X35861609Y39191817D01*
X36012728Y39161757D01*
X36073196Y39015775D01*
X36209993Y38811044D01*
X36384103Y38636934D01*
X36588834Y38500137D01*
X36816320Y38405909D01*
X37057817Y38357872D01*
X37304045Y38357872D01*
X37545542Y38405909D01*
X37773028Y38500137D01*
X37977759Y38636934D01*
X38151869Y38811044D01*
X38288666Y39015775D01*
X38382894Y39243261D01*
X38430931Y39484758D01*
X38430931Y39730986D01*
X38382894Y39972483D01*
X38292796Y40189999D01*
X38447747Y40189999D01*
X38680001Y39957745D01*
X38680000Y38511398D01*
X38673953Y38450000D01*
X38680000Y38388602D01*
X38680000Y38388596D01*
X38698087Y38204958D01*
X38769563Y37969332D01*
X38885634Y37752178D01*
X39041840Y37561840D01*
X39089543Y37522691D01*
X39722692Y36889542D01*
X39761841Y36841839D01*
X39952178Y36685633D01*
X40128667Y36591298D01*
X40169332Y36569562D01*
X40404957Y36498086D01*
X40430539Y36495566D01*
X40588596Y36479999D01*
X40588602Y36479999D01*
X40650000Y36473952D01*
X40711398Y36479999D01*
X43288214Y36479999D01*
X43053971Y36408942D01*
X42784700Y36265014D01*
X42548682Y36071319D01*
X42500143Y36012174D01*
X42241298Y35753329D01*
X31922518Y35753329D01*
X32931490Y36762301D01*
X33057915Y36916350D01*
X33183271Y37150877D01*
X33260466Y37405353D01*
X33286532Y37669999D01*
X33260466Y37934646D01*
X33183271Y38189122D01*
X33057915Y38423649D01*
X32889212Y38629212D01*
X32683649Y38797915D01*
X32449122Y38923271D01*
X32194646Y39000466D01*
X31929999Y39026532D01*
X31665353Y39000466D01*
X31410877Y38923271D01*
X31176350Y38797915D01*
X31022301Y38671490D01*
X29230812Y36880000D01*
X26688478Y36880000D01*
X26689776Y36881298D01*
X26832045Y37094219D01*
X26871642Y37189813D01*
X26964219Y37127955D01*
X27200804Y37029958D01*
X27451961Y36980000D01*
X27708039Y36980000D01*
X27959196Y37029958D01*
X28195781Y37127955D01*
X28408702Y37270224D01*
X28589776Y37451298D01*
X28732045Y37664219D01*
X28830042Y37900804D01*
X28880000Y38151961D01*
X28880000Y38408039D01*
X28830042Y38659196D01*
X28732045Y38895781D01*
X28589776Y39108702D01*
X28408702Y39289776D01*
X28195781Y39432045D01*
X27959196Y39530042D01*
X27708039Y39580000D01*
X27451961Y39580000D01*
X27200804Y39530042D01*
X26964219Y39432045D01*
X26751298Y39289776D01*
X26570224Y39108702D01*
X26427955Y38895781D01*
X26388358Y38800187D01*
X26295781Y38862045D01*
X26059196Y38960042D01*
X25808039Y39010000D01*
X25551961Y39010000D01*
X25300804Y38960042D01*
X25064219Y38862045D01*
X24851298Y38719776D01*
X24835051Y38703529D01*
X24780000Y38758580D01*
X24780000Y42693681D01*
X24786532Y42760000D01*
X24777287Y42853863D01*
X24760467Y43024646D01*
X24683272Y43279122D01*
X24596166Y43442087D01*
X24557915Y43513650D01*
X24454342Y43639852D01*
X24389212Y43719213D01*
X24337696Y43761491D01*
X24132901Y43966286D01*
X24230042Y44200804D01*
X24260136Y44352096D01*
X24657695Y43954536D01*
G36*
X82872564Y39000691D02*
X82696136Y38670617D01*
X82587492Y38312465D01*
X82550807Y37940000D01*
X82587492Y37567535D01*
X82696136Y37209383D01*
X82808053Y37000000D01*
X81875795Y37000000D01*
X81860042Y37079196D01*
X81762045Y37315781D01*
X81742974Y37344323D01*
X81742974Y38125646D01*
X82757330Y39140000D01*
X82986892Y39140000D01*
X82872564Y39000691D01*
X82872564Y39000691D01*
G37*
X82872564Y39000691D02*
X82696136Y38670617D01*
X82587492Y38312465D01*
X82550807Y37940000D01*
X82587492Y37567535D01*
X82696136Y37209383D01*
X82808053Y37000000D01*
X81875795Y37000000D01*
X81860042Y37079196D01*
X81762045Y37315781D01*
X81742974Y37344323D01*
X81742974Y38125646D01*
X82757330Y39140000D01*
X82986892Y39140000D01*
X82872564Y39000691D01*
G36*
X70546136Y48660617D02*
X70437492Y48302465D01*
X70400807Y47930000D01*
X70437492Y47557535D01*
X70546136Y47199383D01*
X70722564Y46869309D01*
X70894340Y46660000D01*
X70722564Y46450691D01*
X70546136Y46120617D01*
X70437492Y45762465D01*
X70425788Y45643633D01*
X70401709Y45643633D01*
X70160212Y45595596D01*
X69932726Y45501368D01*
X69727995Y45364571D01*
X69553885Y45190461D01*
X69417088Y44985730D01*
X69391825Y44924741D01*
X69257711Y44924741D01*
X69016214Y44876704D01*
X68788728Y44782476D01*
X68583997Y44645679D01*
X68409887Y44471569D01*
X68375019Y44419386D01*
X68366398Y44432288D01*
X68192288Y44606398D01*
X67987557Y44743195D01*
X67760071Y44837423D01*
X67518574Y44885460D01*
X67272346Y44885460D01*
X67030849Y44837423D01*
X66803363Y44743195D01*
X66598632Y44606398D01*
X66424522Y44432288D01*
X66287725Y44227557D01*
X66193497Y44000071D01*
X66170647Y43885194D01*
X66062097Y43957725D01*
X65834611Y44051953D01*
X65593114Y44099990D01*
X65346886Y44099990D01*
X65105389Y44051953D01*
X64877903Y43957725D01*
X64673172Y43820928D01*
X64499062Y43646818D01*
X64362265Y43442087D01*
X64282301Y43249038D01*
X64201081Y43249038D01*
X63959584Y43201001D01*
X63732098Y43106773D01*
X63527367Y42969976D01*
X63353257Y42795866D01*
X63216460Y42591135D01*
X63122232Y42363649D01*
X63074195Y42122152D01*
X63074195Y41875924D01*
X63122232Y41634427D01*
X63216460Y41406941D01*
X63353257Y41202210D01*
X63527367Y41028100D01*
X63550000Y41012977D01*
X63550000Y40866886D01*
X63595747Y40636901D01*
X63472265Y40452097D01*
X63467868Y40441482D01*
X63382425Y40384391D01*
X63208315Y40210281D01*
X63117566Y40074466D01*
X60049858Y43142173D01*
X60001319Y43201318D01*
X59765301Y43395013D01*
X59496030Y43538941D01*
X59203854Y43627572D01*
X58976139Y43650000D01*
X58976129Y43650000D01*
X58972813Y43650327D01*
X59011284Y43707903D01*
X59105512Y43935389D01*
X59153549Y44176886D01*
X59153549Y44423114D01*
X59105512Y44664611D01*
X59011284Y44892097D01*
X58937812Y45002055D01*
X58942508Y45017535D01*
X58979193Y45390000D01*
X58942508Y45762465D01*
X58833864Y46120617D01*
X58781596Y46218404D01*
X58879383Y46166136D01*
X59237535Y46057492D01*
X59516663Y46030000D01*
X59703337Y46030000D01*
X59982465Y46057492D01*
X60340617Y46166136D01*
X60670691Y46342564D01*
X60880000Y46514340D01*
X61089309Y46342564D01*
X61419383Y46166136D01*
X61777535Y46057492D01*
X62056663Y46030000D01*
X62243337Y46030000D01*
X62522465Y46057492D01*
X62880617Y46166136D01*
X63210691Y46342564D01*
X63420000Y46514340D01*
X63629309Y46342564D01*
X63959383Y46166136D01*
X64317535Y46057492D01*
X64596663Y46030000D01*
X64783337Y46030000D01*
X65062465Y46057492D01*
X65420617Y46166136D01*
X65750691Y46342564D01*
X65960000Y46514340D01*
X66169309Y46342564D01*
X66499383Y46166136D01*
X66857535Y46057492D01*
X67136663Y46030000D01*
X67323337Y46030000D01*
X67602465Y46057492D01*
X67960617Y46166136D01*
X68290691Y46342564D01*
X68580003Y46579997D01*
X68817436Y46869309D01*
X68993864Y47199383D01*
X69102508Y47557535D01*
X69139193Y47930000D01*
X69102508Y48302465D01*
X68993864Y48660617D01*
X68903327Y48830000D01*
X70636673Y48830000D01*
X70546136Y48660617D01*
X70546136Y48660617D01*
G37*
X70546136Y48660617D02*
X70437492Y48302465D01*
X70400807Y47930000D01*
X70437492Y47557535D01*
X70546136Y47199383D01*
X70722564Y46869309D01*
X70894340Y46660000D01*
X70722564Y46450691D01*
X70546136Y46120617D01*
X70437492Y45762465D01*
X70425788Y45643633D01*
X70401709Y45643633D01*
X70160212Y45595596D01*
X69932726Y45501368D01*
X69727995Y45364571D01*
X69553885Y45190461D01*
X69417088Y44985730D01*
X69391825Y44924741D01*
X69257711Y44924741D01*
X69016214Y44876704D01*
X68788728Y44782476D01*
X68583997Y44645679D01*
X68409887Y44471569D01*
X68375019Y44419386D01*
X68366398Y44432288D01*
X68192288Y44606398D01*
X67987557Y44743195D01*
X67760071Y44837423D01*
X67518574Y44885460D01*
X67272346Y44885460D01*
X67030849Y44837423D01*
X66803363Y44743195D01*
X66598632Y44606398D01*
X66424522Y44432288D01*
X66287725Y44227557D01*
X66193497Y44000071D01*
X66170647Y43885194D01*
X66062097Y43957725D01*
X65834611Y44051953D01*
X65593114Y44099990D01*
X65346886Y44099990D01*
X65105389Y44051953D01*
X64877903Y43957725D01*
X64673172Y43820928D01*
X64499062Y43646818D01*
X64362265Y43442087D01*
X64282301Y43249038D01*
X64201081Y43249038D01*
X63959584Y43201001D01*
X63732098Y43106773D01*
X63527367Y42969976D01*
X63353257Y42795866D01*
X63216460Y42591135D01*
X63122232Y42363649D01*
X63074195Y42122152D01*
X63074195Y41875924D01*
X63122232Y41634427D01*
X63216460Y41406941D01*
X63353257Y41202210D01*
X63527367Y41028100D01*
X63550000Y41012977D01*
X63550000Y40866886D01*
X63595747Y40636901D01*
X63472265Y40452097D01*
X63467868Y40441482D01*
X63382425Y40384391D01*
X63208315Y40210281D01*
X63117566Y40074466D01*
X60049858Y43142173D01*
X60001319Y43201318D01*
X59765301Y43395013D01*
X59496030Y43538941D01*
X59203854Y43627572D01*
X58976139Y43650000D01*
X58976129Y43650000D01*
X58972813Y43650327D01*
X59011284Y43707903D01*
X59105512Y43935389D01*
X59153549Y44176886D01*
X59153549Y44423114D01*
X59105512Y44664611D01*
X59011284Y44892097D01*
X58937812Y45002055D01*
X58942508Y45017535D01*
X58979193Y45390000D01*
X58942508Y45762465D01*
X58833864Y46120617D01*
X58781596Y46218404D01*
X58879383Y46166136D01*
X59237535Y46057492D01*
X59516663Y46030000D01*
X59703337Y46030000D01*
X59982465Y46057492D01*
X60340617Y46166136D01*
X60670691Y46342564D01*
X60880000Y46514340D01*
X61089309Y46342564D01*
X61419383Y46166136D01*
X61777535Y46057492D01*
X62056663Y46030000D01*
X62243337Y46030000D01*
X62522465Y46057492D01*
X62880617Y46166136D01*
X63210691Y46342564D01*
X63420000Y46514340D01*
X63629309Y46342564D01*
X63959383Y46166136D01*
X64317535Y46057492D01*
X64596663Y46030000D01*
X64783337Y46030000D01*
X65062465Y46057492D01*
X65420617Y46166136D01*
X65750691Y46342564D01*
X65960000Y46514340D01*
X66169309Y46342564D01*
X66499383Y46166136D01*
X66857535Y46057492D01*
X67136663Y46030000D01*
X67323337Y46030000D01*
X67602465Y46057492D01*
X67960617Y46166136D01*
X68290691Y46342564D01*
X68580003Y46579997D01*
X68817436Y46869309D01*
X68993864Y47199383D01*
X69102508Y47557535D01*
X69139193Y47930000D01*
X69102508Y48302465D01*
X68993864Y48660617D01*
X68903327Y48830000D01*
X70636673Y48830000D01*
X70546136Y48660617D01*
G36*
X40482567Y46518151D02*
X40231849Y46267433D01*
X40034861Y45972620D01*
X39899173Y45645041D01*
X39830000Y45297284D01*
X39830000Y44942716D01*
X39899173Y44594959D01*
X40034861Y44267380D01*
X40231849Y43972567D01*
X40319502Y43884914D01*
X40239814Y43831668D01*
X40065704Y43657558D01*
X39928907Y43452827D01*
X39834679Y43225341D01*
X39792725Y43014425D01*
X39710938Y43136828D01*
X39536828Y43310938D01*
X39332097Y43447735D01*
X39104611Y43541963D01*
X38863114Y43590000D01*
X38616886Y43590000D01*
X38375389Y43541963D01*
X38147903Y43447735D01*
X37943172Y43310938D01*
X37769062Y43136828D01*
X37632265Y42932097D01*
X37630333Y42927434D01*
X36297309Y44260458D01*
X36258160Y44308160D01*
X36067823Y44464366D01*
X35850669Y44580437D01*
X35615043Y44651913D01*
X35431405Y44670000D01*
X35431398Y44670000D01*
X35370000Y44676047D01*
X35315896Y44670718D01*
X35370000Y44942716D01*
X35370000Y45297284D01*
X35300827Y45645041D01*
X35165139Y45972620D01*
X34968151Y46267433D01*
X34717433Y46518151D01*
X34452744Y46695011D01*
X40747256Y46695011D01*
X40482567Y46518151D01*
X40482567Y46518151D01*
G37*
X40482567Y46518151D02*
X40231849Y46267433D01*
X40034861Y45972620D01*
X39899173Y45645041D01*
X39830000Y45297284D01*
X39830000Y44942716D01*
X39899173Y44594959D01*
X40034861Y44267380D01*
X40231849Y43972567D01*
X40319502Y43884914D01*
X40239814Y43831668D01*
X40065704Y43657558D01*
X39928907Y43452827D01*
X39834679Y43225341D01*
X39792725Y43014425D01*
X39710938Y43136828D01*
X39536828Y43310938D01*
X39332097Y43447735D01*
X39104611Y43541963D01*
X38863114Y43590000D01*
X38616886Y43590000D01*
X38375389Y43541963D01*
X38147903Y43447735D01*
X37943172Y43310938D01*
X37769062Y43136828D01*
X37632265Y42932097D01*
X37630333Y42927434D01*
X36297309Y44260458D01*
X36258160Y44308160D01*
X36067823Y44464366D01*
X35850669Y44580437D01*
X35615043Y44651913D01*
X35431405Y44670000D01*
X35431398Y44670000D01*
X35370000Y44676047D01*
X35315896Y44670718D01*
X35370000Y44942716D01*
X35370000Y45297284D01*
X35300827Y45645041D01*
X35165139Y45972620D01*
X34968151Y46267433D01*
X34717433Y46518151D01*
X34452744Y46695011D01*
X40747256Y46695011D01*
X40482567Y46518151D01*
G04 #@! TD*
M02*
