M48
;DRILL file {KiCad 5.0.1+dfsg1-3~bpo9+1} date Fri 18 Jan 2019 03:45:41 PM +07
;FORMAT={3:3/ absolute / metric / suppress leading zeros}
FMAT,2
METRIC,TZ
T1C0.200
T2C0.300
T3C0.500
T4C0.550
T5C0.700
T6C0.800
T7C1.000
T8C1.200
T9C1.500
T10C1.800
T11C2.000
T12C2.500
T13C3.000
T14C1.500
T15C3.500
%
G90
G05
M71
T1
X10300Y26250
X11650Y26270
X15090Y27560
X19920Y20890
X20720Y20340
X25380Y46480
X25980Y19780
X25980Y19370
X25980Y18920
X26240Y15130
X26420Y31515
X26460Y27080
X26820Y27080
X27190Y15110
X27890Y1570
X27960Y3170
X29180Y28530
X30250Y31140
X30580Y19060
X30975Y27177
X31017Y28257
X31233Y27708
X31620Y20610
X31789Y15761
X32189Y27241
X32330Y19510
X33930Y13630
X34720Y41470
X34931Y40060
X35940Y14940
X36204Y19730
X36226Y40394
X37138Y19660
X37181Y39608
X37190Y31420
X37790Y31320
X38692Y30663
X38740Y42340
X39184Y30289
X40170Y30624
X40686Y30929
X41037Y42861
X41582Y40576
X41830Y30830
X41937Y12819
X43214Y40260
X43965Y44589
X44710Y10260
X45440Y30860
X46090Y19800
X46190Y20430
X46410Y15300
X46590Y40200
X47410Y17470
X48020Y39526
X48070Y44320
X48140Y10250
X48510Y39070
X48940Y10420
X49091Y39218
X49657Y17470
X49700Y39130
X49800Y7830
X50340Y22684
X50356Y39244
X50920Y18790
X51204Y39534
X52300Y10340
X52360Y39050
X52401Y12651
X52860Y11400
X53060Y25700
X53820Y14730
X54810Y10870
X55420Y31919
X55610Y40976
X56110Y40976
X56190Y20420
X56640Y40976
X57000Y25510
X57120Y31320
X57220Y35990
X57380Y32790
X57590Y10460
X57870Y14630
X57904Y44300
X58096Y25810
X58200Y25170
X58460Y33370
X60380Y8530
X60970Y36990
X61140Y25000
X61220Y25613
X61470Y23140
X61774Y21964
X61860Y25260
X61938Y21357
X61980Y23550
X61988Y22838
X62543Y23758
X62900Y27032
X63240Y24440
X63300Y25600
X63360Y19210
X63600Y27010
X64179Y39413
X64324Y41999
X64580Y39860
X64800Y40990
X65350Y41416
X65470Y42850
X65763Y7483
X66090Y8420
X66509Y42566
X66901Y42008
X67395Y43635
X67560Y9610
X68308Y25732
X68524Y7044
X68610Y28454
X68779Y6260
X68920Y35940
X68950Y13570
X68972Y23738
X69040Y7350
X69300Y28705
X69375Y36425
X69381Y43675
X69399Y25838
X69627Y24917
X69696Y13516
X69772Y37117
X69780Y14190
X69960Y9710
X70227Y43711
X70240Y28741
X70500Y8300
X70525Y44394
X70670Y29259
X71078Y6890
X71317Y29331
X71942Y25928
X72164Y26934
X72400Y36889
X72500Y42660
X72549Y27481
X72672Y25678
X72802Y25053
X73200Y42520
X73580Y44440
X73682Y29499
X73702Y23555
X73846Y36812
X74141Y21225
X74230Y31675
X74230Y26790
X74894Y36395
X75299Y35682
X75410Y34200
X75470Y13320
X76145Y33630
X77050Y34380
X77250Y23950
X78200Y33060
X78480Y6300
X79067Y18380
X80090Y17660
X80250Y33290
X81460Y29040
X81480Y14230
X81677Y13663
X81888Y29912
X82183Y32957
X82490Y22130
X82666Y29321
X82750Y27350
X82892Y24801
X82970Y23754
X83205Y21620
X83374Y25177
X83403Y22239
X83409Y24248
X83468Y27467
X83576Y28176
X83579Y25912
X83640Y23189
X83646Y26569
X84090Y21096
X84340Y24470
X84430Y26890
X85500Y39130
X85810Y20260
T2
X10510Y18410
X16330Y37420
X19140Y46840
X19140Y46300
X19140Y45720
X20100Y41400
X20108Y40231
X20110Y40860
X20138Y39653
X21320Y42250
X21630Y42550
X22980Y45040
X22980Y44580
X25304Y33071
X25540Y23640
X25610Y24880
X25680Y37710
X25730Y22260
X26100Y22630
X27180Y20430
X27580Y38280
X30540Y24346
X31020Y24346
X31930Y37670
X33020Y26800
X34614Y30795
X35280Y36010
X35706Y30886
X36210Y17720
X37440Y44620
X37570Y17720
X38930Y17720
X40500Y15910
X42850Y30460
X43850Y27846
X44030Y29910
X44100Y28850
X44120Y38680
X44240Y33720
X44250Y33260
X44420Y24346
X44450Y38970
X44940Y36779
X46510Y36780
X46640Y36300
X49410Y23290
X49410Y22880
X49410Y22370
X49410Y21870
X52583Y29360
X53300Y19570
X53410Y28970
X54630Y28440
X54640Y27080
X54690Y25680
X56650Y15490
X57100Y19471
X57620Y28775
X60820Y12840
X62330Y36480
X64040Y30535
X64480Y18620
X68680Y12750
X74440Y8020
X74920Y7450
X76055Y17990
X77480Y33460
X78160Y33940
X78420Y41630
X78490Y17990
X80610Y36700
X81340Y14930
X82660Y18435
X83990Y33130
X85276Y33044
T3
X17190Y15600
X17710Y15080
X18360Y5360
X18970Y7330
X19500Y18530
X19500Y17700
X26180Y32703
X26681Y32444
X35648Y27853
X35648Y26015
X35648Y24178
X35648Y22340
X37485Y27853
X37485Y26015
X37485Y24178
X37485Y22340
X39322Y27853
X39322Y26015
X39322Y24178
X39322Y22340
X56460Y28400
T4
X22730Y45870
X26730Y45870
T5
X10840Y12660
X10840Y10160
X10840Y8160
X10840Y5660
X13490Y12650
X13490Y10160
X13490Y8160
X13490Y5660
T6
X43460Y16630
X43460Y14090
X43460Y11550
X43460Y9010
X51080Y16630
X51080Y14090
X51080Y11550
X51080Y9010
T7
X82430Y8290
X84970Y8290
X87510Y8290
X49480Y4550
X49480Y2010
X52020Y4550
X52020Y2010
X54560Y4550
X54560Y2010
X57100Y4550
X57100Y2010
X59640Y4550
X59640Y2010
X62180Y4550
X62180Y2010
X64720Y4550
X64720Y2010
X67260Y4550
X67260Y2010
X69800Y4550
X69800Y2010
X72340Y4550
X72340Y2010
X74880Y4550
X74880Y2010
X77420Y4550
X77420Y2010
X79960Y4550
X79960Y2010
X82500Y4550
X82500Y2010
X85040Y4550
X85040Y2010
X87580Y4550
X87580Y2010
X47120Y29270
X47120Y26730
X84470Y41530
X87010Y41530
X5970Y34350
X5970Y31810
X5970Y23650
X5970Y21110
X17210Y32330
X17210Y29790
X17210Y27250
X17210Y24710
X19750Y31060
X19750Y28520
X19750Y25980
X19750Y23440
X82430Y11880
X84970Y11880
X87510Y11880
X79380Y37940
X81920Y37940
X84460Y37940
X87000Y37940
X49450Y47930
X49450Y45390
X51990Y47930
X51990Y45390
X54530Y47930
X54530Y45390
X57070Y47930
X57070Y45390
X59610Y47930
X59610Y45390
X62150Y47930
X62150Y45390
X64690Y47930
X64690Y45390
X67230Y47930
X67230Y45390
X69770Y47930
X69770Y45390
X72310Y47930
X72310Y45390
X74850Y47930
X74850Y45390
X77390Y47930
X77390Y45390
X79930Y47930
X79930Y45390
X82470Y47930
X82470Y45390
X85010Y47930
X85010Y45390
X87550Y47930
X87550Y45390
T8
X14660Y45910
X17200Y45910
T10
X13970Y35770
X13970Y19770
T12
X30730Y1780
X38230Y1780
T13
X27650Y41540
X77780Y10860
X44580Y3370
T14
X33570Y45120
X41630Y45120
T15
X10870Y33470
X10870Y22070
T7
X3960Y43930G85X3960Y41930
G05
X5960Y38230G85X7960Y38230
G05
X9960Y43930G85X9960Y41930
G05
T9
X30720Y10610G85X30720Y9610
G05
X34490Y10610G85X34490Y9610
G05
X38220Y10610G85X38220Y9610
G05
T11
X34240Y4610G85X34740Y4610
G05
X34255Y4610G85X34755Y4610
G05
T12
X8090Y15660G85X7590Y15660
G05
X8090Y2560G85X7590Y2560
G05
X13740Y15650G85X13240Y15650
G05
X13740Y2660G85X13240Y2660
G05
T0
M30
