G04 #@! TF.GenerationSoftware,KiCad,Pcbnew,5.0.1+dfsg1-3~bpo9+1*
G04 #@! TF.CreationDate,2019-01-18T15:45:32+07:00*
G04 #@! TF.ProjectId,DEV BOARD,44455620424F4152442E6B696361645F,rev?*
G04 #@! TF.SameCoordinates,PX6539160PY6d28560*
G04 #@! TF.FileFunction,Legend,Top*
G04 #@! TF.FilePolarity,Positive*
%FSLAX46Y46*%
G04 Gerber Fmt 4.6, Leading zero omitted, Abs format (unit mm)*
G04 Created by KiCad (PCBNEW 5.0.1+dfsg1-3~bpo9+1) date Fri 18 Jan 2019 03:45:32 PM +07*
%MOMM*%
%LPD*%
G01*
G04 APERTURE LIST*
%ADD10C,0.150000*%
%ADD11C,0.500000*%
%ADD12C,0.120000*%
%ADD13C,1.000000*%
%ADD14C,0.100000*%
%ADD15C,0.010000*%
G04 APERTURE END LIST*
D10*
X23970000Y35090000D02*
X24710000Y34350000D01*
X22050000Y21510000D02*
X24840000Y14870000D01*
X41661904Y9388572D02*
X41661904Y8931429D01*
X41661904Y9160000D02*
X40861904Y9160000D01*
X40976190Y9083810D01*
X41052380Y9007620D01*
X41090476Y8931429D01*
D11*
X60060278Y16970000D02*
G75*
G03X60060278Y16970000I-180278J0D01*
G01*
X60050278Y17140000D02*
G75*
G03X60050278Y17140000I-180278J0D01*
G01*
X33430278Y29630000D02*
G75*
G03X33430278Y29630000I-180278J0D01*
G01*
X27100278Y5860000D02*
G75*
G03X27100278Y5860000I-180278J0D01*
G01*
X20420278Y40340000D02*
G75*
G03X20420278Y40340000I-180278J0D01*
G01*
D10*
X86170000Y16690000D02*
X83910000Y17420000D01*
X86210000Y16680000D02*
X86210000Y13820000D01*
X86514761Y14106191D02*
X86629047Y14068096D01*
X86819523Y14068096D01*
X86895714Y14106191D01*
X86933809Y14144286D01*
X86971904Y14220477D01*
X86971904Y14296667D01*
X86933809Y14372858D01*
X86895714Y14410953D01*
X86819523Y14449048D01*
X86667142Y14487143D01*
X86590952Y14525239D01*
X86552857Y14563334D01*
X86514761Y14639524D01*
X86514761Y14715715D01*
X86552857Y14791905D01*
X86590952Y14830000D01*
X86667142Y14868096D01*
X86857619Y14868096D01*
X86971904Y14830000D01*
X87467142Y14868096D02*
X87619523Y14868096D01*
X87695714Y14830000D01*
X87771904Y14753810D01*
X87810000Y14601429D01*
X87810000Y14334762D01*
X87771904Y14182381D01*
X87695714Y14106191D01*
X87619523Y14068096D01*
X87467142Y14068096D01*
X87390952Y14106191D01*
X87314761Y14182381D01*
X87276666Y14334762D01*
X87276666Y14601429D01*
X87314761Y14753810D01*
X87390952Y14830000D01*
X87467142Y14868096D01*
X88419523Y14487143D02*
X88152857Y14487143D01*
X88152857Y14068096D02*
X88152857Y14868096D01*
X88533809Y14868096D01*
X88724285Y14868096D02*
X89181428Y14868096D01*
X88952857Y14068096D02*
X88952857Y14868096D01*
X88830000Y13820000D02*
X83710000Y13820000D01*
X88830000Y13200000D02*
X88830000Y13820000D01*
X83710000Y13200000D02*
X83710000Y13820000D01*
X30790000Y40970000D02*
X30790000Y37690000D01*
X30800000Y40560000D02*
X29060000Y38180000D01*
X24840000Y21430000D02*
X24840000Y14830000D01*
X53350000Y31050000D02*
X52570000Y29870000D01*
D12*
G04 #@! TO.C,R20*
X45630000Y24860000D02*
X45630000Y23510000D01*
X48860000Y24860000D02*
X48860000Y23500000D01*
X48850000Y23500000D02*
X45640000Y23500000D01*
X45640000Y24860000D02*
X48850000Y24860000D01*
G04 #@! TO.C,VIO-3V*
X85740000Y42860000D02*
X83140000Y42860000D01*
X83140000Y42860000D02*
X83140000Y40200000D01*
X83140000Y40200000D02*
X85740000Y40200000D01*
X85740000Y40200000D02*
X85740000Y42860000D01*
X87010000Y42860000D02*
X88340000Y42860000D01*
X88340000Y42860000D02*
X88340000Y41530000D01*
G04 #@! TO.C,REF\002A\002A*
X29936000Y41540000D02*
G75*
G03X29936000Y41540000I-2286000J0D01*
G01*
X80066000Y10860000D02*
G75*
G03X80066000Y10860000I-2286000J0D01*
G01*
D13*
G04 #@! TO.C,U1*
X60063961Y17130000D02*
G75*
G03X60063961Y17130000I-203961J0D01*
G01*
D10*
X61070000Y18100000D02*
X60670000Y18500000D01*
X60670000Y31700000D02*
X60670000Y32100000D01*
X60670000Y32100000D02*
X61070000Y32100000D01*
X74670000Y18500000D02*
X74670000Y18100000D01*
X74670000Y18100000D02*
X74270000Y18100000D01*
X74670000Y31700000D02*
X74670000Y32100000D01*
X74670000Y32100000D02*
X74270000Y32100000D01*
D12*
G04 #@! TO.C,5V*
X21460000Y3740000D02*
X21460000Y2740000D01*
X21460000Y2740000D02*
X23560000Y2740000D01*
X21460000Y3740000D02*
X23560000Y3740000D01*
G04 #@! TO.C,BATT*
X13290000Y48930000D02*
X13290000Y42930000D01*
X13290000Y42930000D02*
X18570000Y42930000D01*
X18570000Y42930000D02*
X18570000Y48930000D01*
X18570000Y48930000D02*
X13290000Y48930000D01*
X14660000Y42930000D02*
X14660000Y43930000D01*
X14660000Y43930000D02*
X17200000Y43930000D01*
X17200000Y43930000D02*
X17200000Y42930000D01*
X14660000Y43930000D02*
X14910000Y44360000D01*
X14910000Y44360000D02*
X16950000Y44360000D01*
X16950000Y44360000D02*
X17200000Y43930000D01*
X14910000Y42930000D02*
X14910000Y43930000D01*
X16950000Y42930000D02*
X16950000Y43930000D01*
X13860000Y48930000D02*
X13860000Y48310000D01*
X13860000Y48310000D02*
X15460000Y48310000D01*
X15460000Y48310000D02*
X15460000Y48930000D01*
X16400000Y48930000D02*
X16400000Y48310000D01*
X16400000Y48310000D02*
X18000000Y48310000D01*
X18000000Y48310000D02*
X18000000Y48930000D01*
G04 #@! TO.C,C5*
X59210000Y15350000D02*
X57860000Y15350000D01*
X59210000Y12120000D02*
X57850000Y12120000D01*
X57850000Y12130000D02*
X57850000Y15340000D01*
X59210000Y15340000D02*
X59210000Y12130000D01*
G04 #@! TO.C,C6*
X70190000Y13210000D02*
X68840000Y13210000D01*
X70190000Y9980000D02*
X68830000Y9980000D01*
X68830000Y9990000D02*
X68830000Y13200000D01*
X70190000Y13200000D02*
X70190000Y9990000D01*
G04 #@! TO.C,C7*
X84720000Y25140000D02*
X84720000Y23790000D01*
X87950000Y25140000D02*
X87950000Y23780000D01*
X87940000Y23780000D02*
X84730000Y23780000D01*
X84730000Y25140000D02*
X87940000Y25140000D01*
G04 #@! TO.C,C8*
X57570000Y36740000D02*
X58920000Y36740000D01*
X57570000Y39970000D02*
X58930000Y39970000D01*
X58930000Y39960000D02*
X58930000Y36750000D01*
X57570000Y36750000D02*
X57570000Y39960000D01*
G04 #@! TO.C,C9*
X52440000Y30080000D02*
X52440000Y31430000D01*
X49210000Y30080000D02*
X49210000Y31440000D01*
X49220000Y31440000D02*
X52430000Y31440000D01*
X52430000Y30080000D02*
X49220000Y30080000D01*
G04 #@! TO.C,C10*
X52440000Y25970000D02*
X52440000Y27320000D01*
X49210000Y25970000D02*
X49210000Y27330000D01*
X49220000Y27330000D02*
X52430000Y27330000D01*
X52430000Y25970000D02*
X49220000Y25970000D01*
G04 #@! TO.C,C11*
X57170000Y28400000D02*
X57170000Y29750000D01*
X53940000Y28400000D02*
X53940000Y29760000D01*
X53950000Y29760000D02*
X57160000Y29760000D01*
X57160000Y28400000D02*
X53950000Y28400000D01*
G04 #@! TO.C,C12*
X54840000Y36730000D02*
X56190000Y36730000D01*
X54840000Y39960000D02*
X56200000Y39960000D01*
X56200000Y39950000D02*
X56200000Y36740000D01*
X54840000Y36740000D02*
X54840000Y39950000D01*
G04 #@! TO.C,C13*
X57420000Y14020000D02*
X57420000Y15370000D01*
X54190000Y14020000D02*
X54190000Y15380000D01*
X54200000Y15380000D02*
X57410000Y15380000D01*
X57410000Y14020000D02*
X54200000Y14020000D01*
G04 #@! TO.C,C14*
X54060000Y19230000D02*
X52710000Y19230000D01*
X54060000Y16000000D02*
X52700000Y16000000D01*
X52700000Y16010000D02*
X52700000Y19220000D01*
X54060000Y19220000D02*
X54060000Y16010000D01*
G04 #@! TO.C,C15*
X52440000Y27330000D02*
X52440000Y28680000D01*
X49210000Y27330000D02*
X49210000Y28690000D01*
X49220000Y28690000D02*
X52430000Y28690000D01*
X52430000Y27330000D02*
X49220000Y27330000D01*
G04 #@! TO.C,C16*
X84710000Y26500000D02*
X84710000Y25150000D01*
X87940000Y26500000D02*
X87940000Y25140000D01*
X87930000Y25140000D02*
X84720000Y25140000D01*
X84720000Y26500000D02*
X87930000Y26500000D01*
G04 #@! TO.C,C17*
X60290000Y36740000D02*
X61640000Y36740000D01*
X60290000Y39970000D02*
X61650000Y39970000D01*
X61650000Y39960000D02*
X61650000Y36750000D01*
X60290000Y36750000D02*
X60290000Y39960000D01*
G04 #@! TO.C,C18*
X60570000Y15350000D02*
X59220000Y15350000D01*
X60570000Y12120000D02*
X59210000Y12120000D01*
X59210000Y12130000D02*
X59210000Y15340000D01*
X60570000Y15340000D02*
X60570000Y12130000D01*
G04 #@! TO.C,C19*
X52440000Y24600000D02*
X52440000Y25950000D01*
X49210000Y24600000D02*
X49210000Y25960000D01*
X49220000Y25960000D02*
X52430000Y25960000D01*
X52430000Y24600000D02*
X49220000Y24600000D01*
G04 #@! TO.C,C20*
X57170000Y20280000D02*
X57170000Y21630000D01*
X53940000Y20280000D02*
X53940000Y21640000D01*
X53950000Y21640000D02*
X57160000Y21640000D01*
X57160000Y20280000D02*
X53950000Y20280000D01*
G04 #@! TO.C,C21*
X57170000Y22990000D02*
X57170000Y24340000D01*
X53940000Y22990000D02*
X53940000Y24350000D01*
X53950000Y24350000D02*
X57160000Y24350000D01*
X57160000Y22990000D02*
X53950000Y22990000D01*
G04 #@! TO.C,C22*
X57170000Y21640000D02*
X57170000Y22990000D01*
X53940000Y21640000D02*
X53940000Y23000000D01*
X53950000Y23000000D02*
X57160000Y23000000D01*
X57160000Y21640000D02*
X53950000Y21640000D01*
G04 #@! TO.C,C23*
X84710000Y27860000D02*
X84710000Y26510000D01*
X87940000Y27860000D02*
X87940000Y26500000D01*
X87930000Y26500000D02*
X84720000Y26500000D01*
X84720000Y27860000D02*
X87930000Y27860000D01*
G04 #@! TO.C,C24*
X58930000Y36740000D02*
X60280000Y36740000D01*
X58930000Y39970000D02*
X60290000Y39970000D01*
X60290000Y39960000D02*
X60290000Y36750000D01*
X58930000Y36750000D02*
X58930000Y39960000D01*
G04 #@! TO.C,C25*
X52440000Y28680000D02*
X52440000Y30030000D01*
X49210000Y28680000D02*
X49210000Y30040000D01*
X49220000Y30040000D02*
X52430000Y30040000D01*
X52430000Y28680000D02*
X49220000Y28680000D01*
G04 #@! TO.C,C26*
X56200000Y36740000D02*
X57550000Y36740000D01*
X56200000Y39970000D02*
X57560000Y39970000D01*
X57560000Y39960000D02*
X57560000Y36750000D01*
X56200000Y36750000D02*
X56200000Y39960000D01*
G04 #@! TO.C,C27*
X61650000Y36740000D02*
X63000000Y36740000D01*
X61650000Y39970000D02*
X63010000Y39970000D01*
X63010000Y39960000D02*
X63010000Y36750000D01*
X61650000Y36750000D02*
X61650000Y39960000D01*
G04 #@! TO.C,C28*
X57170000Y24340000D02*
X57170000Y25690000D01*
X53940000Y24340000D02*
X53940000Y25700000D01*
X53950000Y25700000D02*
X57160000Y25700000D01*
X57160000Y24340000D02*
X53950000Y24340000D01*
G04 #@! TO.C,C29*
X57170000Y27040000D02*
X57170000Y28390000D01*
X53940000Y27040000D02*
X53940000Y28400000D01*
X53950000Y28400000D02*
X57160000Y28400000D01*
X57160000Y27040000D02*
X53950000Y27040000D01*
G04 #@! TO.C,C30*
X53480000Y36730000D02*
X54830000Y36730000D01*
X53480000Y39960000D02*
X54840000Y39960000D01*
X54840000Y39950000D02*
X54840000Y36740000D01*
X53480000Y36740000D02*
X53480000Y39950000D01*
G04 #@! TO.C,C31*
X57170000Y25700000D02*
X57170000Y27050000D01*
X53940000Y25700000D02*
X53940000Y27060000D01*
X53950000Y27060000D02*
X57160000Y27060000D01*
X57160000Y25700000D02*
X53950000Y25700000D01*
G04 #@! TO.C,C38*
X85040000Y19120000D02*
X85040000Y20470000D01*
X81810000Y19120000D02*
X81810000Y20480000D01*
X81820000Y20480000D02*
X85030000Y20480000D01*
X85030000Y19120000D02*
X81820000Y19120000D01*
G04 #@! TO.C,C39*
X85430000Y32110000D02*
X84080000Y32110000D01*
X85430000Y28880000D02*
X84070000Y28880000D01*
X84070000Y28890000D02*
X84070000Y32100000D01*
X85430000Y32100000D02*
X85430000Y28890000D01*
G04 #@! TO.C,C40*
X81880000Y33353948D02*
X81880000Y34703948D01*
X78650000Y33353948D02*
X78650000Y34713948D01*
X78660000Y34713948D02*
X81870000Y34713948D01*
X81870000Y33353948D02*
X78660000Y33353948D01*
G04 #@! TO.C,C41*
X81880000Y34713948D02*
X81880000Y33363948D01*
X85110000Y34713948D02*
X85110000Y33353948D01*
X85100000Y33353948D02*
X81890000Y33353948D01*
X81890000Y34713948D02*
X85100000Y34713948D01*
G04 #@! TO.C,C42*
X26600000Y29750000D02*
X25250000Y29750000D01*
X26600000Y26520000D02*
X25240000Y26520000D01*
X25240000Y26530000D02*
X25240000Y29740000D01*
X26600000Y29740000D02*
X26600000Y26530000D01*
G04 #@! TO.C,C43*
X29840000Y24600000D02*
X29840000Y25950000D01*
X26610000Y24600000D02*
X26610000Y25960000D01*
X26620000Y25960000D02*
X29830000Y25960000D01*
X29830000Y24600000D02*
X26620000Y24600000D01*
G04 #@! TO.C,C44*
X38930000Y18430000D02*
X37580000Y18430000D01*
X38930000Y15200000D02*
X37570000Y15200000D01*
X37570000Y15210000D02*
X37570000Y18420000D01*
X38930000Y18420000D02*
X38930000Y15210000D01*
G04 #@! TO.C,C45*
X37580000Y18430000D02*
X36230000Y18430000D01*
X37580000Y15200000D02*
X36220000Y15200000D01*
X36220000Y15210000D02*
X36220000Y18420000D01*
X37580000Y18420000D02*
X37580000Y15210000D01*
G04 #@! TO.C,C46*
X45630000Y23490000D02*
X45630000Y22140000D01*
X48860000Y23490000D02*
X48860000Y22130000D01*
X48850000Y22130000D02*
X45640000Y22130000D01*
X45640000Y23490000D02*
X48850000Y23490000D01*
G04 #@! TO.C,C47*
X45630000Y22130000D02*
X45630000Y20780000D01*
X48860000Y22130000D02*
X48860000Y20770000D01*
X48850000Y20770000D02*
X45640000Y20770000D01*
X45640000Y22130000D02*
X48850000Y22130000D01*
G04 #@! TO.C,C50*
X27640000Y13040000D02*
X27640000Y14390000D01*
X24410000Y13040000D02*
X24410000Y14400000D01*
X24420000Y14400000D02*
X27630000Y14400000D01*
X27630000Y13040000D02*
X24420000Y13040000D01*
G04 #@! TO.C,C51*
X36220000Y18430000D02*
X34870000Y18430000D01*
X36220000Y15200000D02*
X34860000Y15200000D01*
X34860000Y15210000D02*
X34860000Y18420000D01*
X36220000Y18420000D02*
X36220000Y15210000D01*
G04 #@! TO.C,C52*
X40290000Y18430000D02*
X38940000Y18430000D01*
X40290000Y15200000D02*
X38930000Y15200000D01*
X38930000Y15210000D02*
X38930000Y18420000D01*
X40290000Y18420000D02*
X40290000Y15210000D01*
G04 #@! TO.C,C53*
X30600000Y17020000D02*
X30600000Y18370000D01*
X27370000Y17020000D02*
X27370000Y18380000D01*
X27380000Y18380000D02*
X30590000Y18380000D01*
X30590000Y17020000D02*
X27380000Y17020000D01*
G04 #@! TO.C,C54*
X16870000Y5890000D02*
X16870000Y3890000D01*
X19830000Y3890000D02*
X19830000Y5890000D01*
G04 #@! TO.C,C55*
X16930000Y11770000D02*
X16930000Y9770000D01*
X19890000Y9770000D02*
X19890000Y11770000D01*
G04 #@! TO.C,C56*
X27370000Y23820000D02*
X27370000Y22470000D01*
X30600000Y23820000D02*
X30600000Y22460000D01*
X30590000Y22460000D02*
X27380000Y22460000D01*
X27380000Y23820000D02*
X30590000Y23820000D01*
G04 #@! TO.C,C57*
X41970000Y34970000D02*
X40620000Y34970000D01*
X41970000Y31740000D02*
X40610000Y31740000D01*
X40610000Y31750000D02*
X40610000Y34960000D01*
X41970000Y34960000D02*
X41970000Y31750000D01*
G04 #@! TO.C,C58*
X39250000Y34970000D02*
X37900000Y34970000D01*
X39250000Y31740000D02*
X37890000Y31740000D01*
X37890000Y31750000D02*
X37890000Y34960000D01*
X39250000Y34960000D02*
X39250000Y31750000D01*
G04 #@! TO.C,C59*
X33840000Y35720000D02*
X32490000Y35720000D01*
X33840000Y32490000D02*
X32480000Y32490000D01*
X32480000Y32500000D02*
X32480000Y35710000D01*
X33840000Y35710000D02*
X33840000Y32500000D01*
G04 #@! TO.C,C60*
X27370000Y22460000D02*
X27370000Y21110000D01*
X30600000Y22460000D02*
X30600000Y21100000D01*
X30590000Y21100000D02*
X27380000Y21100000D01*
X27380000Y22460000D02*
X30590000Y22460000D01*
G04 #@! TO.C,C61*
X40610000Y34970000D02*
X39260000Y34970000D01*
X40610000Y31740000D02*
X39250000Y31740000D01*
X39250000Y31750000D02*
X39250000Y34960000D01*
X40610000Y34960000D02*
X40610000Y31750000D01*
G04 #@! TO.C,C62*
X37890000Y34970000D02*
X36540000Y34970000D01*
X37890000Y31740000D02*
X36530000Y31740000D01*
X36530000Y31750000D02*
X36530000Y34960000D01*
X37890000Y34960000D02*
X37890000Y31750000D01*
G04 #@! TO.C,C63*
X25240000Y24310000D02*
X25240000Y25660000D01*
X22010000Y24310000D02*
X22010000Y25670000D01*
X22020000Y25670000D02*
X25230000Y25670000D01*
X25230000Y24310000D02*
X22020000Y24310000D01*
G04 #@! TO.C,C64*
X25240000Y22950000D02*
X25240000Y24300000D01*
X22010000Y22950000D02*
X22010000Y24310000D01*
X22020000Y24310000D02*
X25230000Y24310000D01*
X25230000Y22950000D02*
X22020000Y22950000D01*
G04 #@! TO.C,C65*
X25220000Y30250000D02*
X25220000Y31600000D01*
X21990000Y30250000D02*
X21990000Y31610000D01*
X22000000Y31610000D02*
X25210000Y31610000D01*
X25210000Y30250000D02*
X22000000Y30250000D01*
G04 #@! TO.C,C66*
X25220000Y31610000D02*
X25220000Y32960000D01*
X21990000Y31610000D02*
X21990000Y32970000D01*
X22000000Y32970000D02*
X25210000Y32970000D01*
X25210000Y31610000D02*
X22000000Y31610000D01*
G04 #@! TO.C,C68*
X45690000Y40330000D02*
X44340000Y40330000D01*
X45690000Y37100000D02*
X44330000Y37100000D01*
X44330000Y37110000D02*
X44330000Y40320000D01*
X45690000Y40320000D02*
X45690000Y37110000D01*
G04 #@! TO.C,C70*
X20570000Y42080000D02*
X20570000Y40730000D01*
X23800000Y42080000D02*
X23800000Y40720000D01*
X23790000Y40720000D02*
X20580000Y40720000D01*
X20580000Y42080000D02*
X23790000Y42080000D01*
G04 #@! TO.C,C73*
X27370000Y38160000D02*
X27370000Y36810000D01*
X30600000Y38160000D02*
X30600000Y36800000D01*
X30590000Y36800000D02*
X27380000Y36800000D01*
X27380000Y38160000D02*
X30590000Y38160000D01*
G04 #@! TO.C,C75*
X27390000Y36800000D02*
X27390000Y35450000D01*
X30620000Y36800000D02*
X30620000Y35440000D01*
X30610000Y35440000D02*
X27400000Y35440000D01*
X27400000Y36800000D02*
X30610000Y36800000D01*
G04 #@! TO.C,C76*
X29420000Y35430000D02*
X27420000Y35430000D01*
X27420000Y32470000D02*
X29420000Y32470000D01*
G04 #@! TO.C,EX-3V*
X21460000Y2380000D02*
X21460000Y1380000D01*
X21460000Y1380000D02*
X23560000Y1380000D01*
X21460000Y2380000D02*
X23560000Y2380000D01*
G04 #@! TO.C,EXT-3V*
X45790000Y28000000D02*
X45790000Y25400000D01*
X45790000Y25400000D02*
X48450000Y25400000D01*
X48450000Y25400000D02*
X48450000Y28000000D01*
X48450000Y28000000D02*
X45790000Y28000000D01*
X45790000Y29270000D02*
X45790000Y30600000D01*
X45790000Y30600000D02*
X47120000Y30600000D01*
G04 #@! TO.C,F1*
X17310000Y41480000D02*
X14910000Y41480000D01*
X17310000Y38680000D02*
X14910000Y38680000D01*
G04 #@! TO.C,GPIO1*
X50750000Y5880000D02*
X88910000Y5880000D01*
X88910000Y5880000D02*
X88910000Y680000D01*
X88910000Y680000D02*
X48150000Y680000D01*
X48150000Y680000D02*
X48150000Y3280000D01*
X48150000Y3280000D02*
X50750000Y3280000D01*
X50750000Y3280000D02*
X50750000Y5880000D01*
X49480000Y5880000D02*
X48150000Y5880000D01*
X48150000Y5880000D02*
X48150000Y4610000D01*
G04 #@! TO.C,GPIO2*
X86280000Y44060000D02*
X48120000Y44060000D01*
X48120000Y44060000D02*
X48120000Y49260000D01*
X48120000Y49260000D02*
X88880000Y49260000D01*
X88880000Y49260000D02*
X88880000Y46660000D01*
X88880000Y46660000D02*
X86280000Y46660000D01*
X86280000Y46660000D02*
X86280000Y44060000D01*
X87550000Y44060000D02*
X88880000Y44060000D01*
X88880000Y44060000D02*
X88880000Y45330000D01*
D10*
G04 #@! TO.C,ETHERNET*
X170000Y19770000D02*
X170000Y35770000D01*
X21570000Y19770000D02*
X21570000Y35770000D01*
X11570438Y19770000D02*
X170000Y19770000D01*
X170000Y35770000D02*
X11570000Y35770000D01*
X21570000Y19770000D02*
X15770000Y19770000D01*
X15866493Y35770000D02*
X21570000Y35770000D01*
X1870000Y19770000D02*
X1870000Y35770000D01*
D12*
G04 #@! TO.C,JTAG1*
X45840000Y47810000D02*
X46370000Y47810000D01*
X46370000Y47810000D02*
X46370000Y42610000D01*
X46370000Y42610000D02*
X45840000Y42610000D01*
X36620000Y47810000D02*
X36090000Y47810000D01*
X36090000Y47810000D02*
X36090000Y42610000D01*
X36090000Y42610000D02*
X36620000Y42610000D01*
X45840000Y41190000D02*
X45840000Y42610000D01*
D10*
G04 #@! TO.C,L1*
X53300000Y39730000D02*
X53300000Y31730000D01*
X47100000Y39730000D02*
X47100000Y31730000D01*
D12*
G04 #@! TO.C,L3*
X24410000Y12830000D02*
X22660000Y12830000D01*
X24410000Y14590000D02*
X24410000Y12830000D01*
X22690000Y14590000D02*
X24410000Y14590000D01*
X19740000Y14590000D02*
X19740000Y12830000D01*
X21480000Y14590000D02*
X19740000Y14590000D01*
X21500000Y12830000D02*
X19750000Y12830000D01*
X22680000Y12830000D02*
X21480000Y12830000D01*
X21480000Y14590000D02*
X22680000Y14590000D01*
G04 #@! TO.C,L4*
X30720000Y32490000D02*
X30720000Y34240000D01*
X32480000Y32490000D02*
X30720000Y32490000D01*
X32480000Y34210000D02*
X32480000Y32490000D01*
X32480000Y37160000D02*
X30720000Y37160000D01*
X32480000Y35420000D02*
X32480000Y37160000D01*
X30720000Y35400000D02*
X30720000Y37150000D01*
X30720000Y34220000D02*
X30720000Y35420000D01*
X32480000Y35420000D02*
X32480000Y34220000D01*
G04 #@! TO.C,LED*
X86290000Y28190000D02*
X87290000Y28190000D01*
X87290000Y28190000D02*
X87290000Y30290000D01*
X86290000Y28190000D02*
X86290000Y30290000D01*
G04 #@! TO.C,POWER*
X60120000Y11580000D02*
X60120000Y10930000D01*
X60120000Y7880000D02*
X60120000Y8530000D01*
X53920000Y8530000D02*
X53920000Y7880000D01*
X53920000Y11580000D02*
X53920000Y10930000D01*
X60120000Y11580000D02*
X53920000Y11580000D01*
X53920000Y7880000D02*
X60120000Y7880000D01*
G04 #@! TO.C,R4*
X56920000Y35520000D02*
X55570000Y35520000D01*
X56920000Y32290000D02*
X55560000Y32290000D01*
X55560000Y32300000D02*
X55560000Y35510000D01*
X56920000Y35510000D02*
X56920000Y32300000D01*
G04 #@! TO.C,R7*
X86100000Y30950000D02*
X87450000Y30950000D01*
X86100000Y34180000D02*
X87460000Y34180000D01*
X87460000Y34170000D02*
X87460000Y30960000D01*
X86100000Y30960000D02*
X86100000Y34170000D01*
G04 #@! TO.C,R8*
X52610000Y23950000D02*
X51260000Y23950000D01*
X52610000Y20720000D02*
X51250000Y20720000D01*
X51250000Y20730000D02*
X51250000Y23940000D01*
X52610000Y23940000D02*
X52610000Y20730000D01*
G04 #@! TO.C,R13*
X51250000Y23950000D02*
X49900000Y23950000D01*
X51250000Y20720000D02*
X49890000Y20720000D01*
X49890000Y20730000D02*
X49890000Y23940000D01*
X51250000Y23940000D02*
X51250000Y20730000D01*
G04 #@! TO.C,R16*
X82040000Y15130000D02*
X82040000Y16480000D01*
X78810000Y15130000D02*
X78810000Y16490000D01*
X78820000Y16490000D02*
X82030000Y16490000D01*
X82030000Y15130000D02*
X78820000Y15130000D01*
G04 #@! TO.C,R17*
X81880000Y31993948D02*
X81880000Y33343948D01*
X78650000Y31993948D02*
X78650000Y33353948D01*
X78660000Y33353948D02*
X81870000Y33353948D01*
X81870000Y31993948D02*
X78660000Y31993948D01*
G04 #@! TO.C,R18*
X81880000Y36073948D02*
X81880000Y34723948D01*
X85110000Y36073948D02*
X85110000Y34713948D01*
X85100000Y34713948D02*
X81890000Y34713948D01*
X81890000Y36073948D02*
X85100000Y36073948D01*
G04 #@! TO.C,R21*
X30600000Y18380000D02*
X30600000Y19730000D01*
X27370000Y18380000D02*
X27370000Y19740000D01*
X27380000Y19740000D02*
X30590000Y19740000D01*
X30590000Y18380000D02*
X27380000Y18380000D01*
G04 #@! TO.C,R22*
X45160000Y31790000D02*
X46510000Y31790000D01*
X45160000Y35020000D02*
X46520000Y35020000D01*
X46520000Y35010000D02*
X46520000Y31800000D01*
X45160000Y31800000D02*
X45160000Y35010000D01*
G04 #@! TO.C,R23*
X33580000Y30280000D02*
X33580000Y31630000D01*
X30350000Y30280000D02*
X30350000Y31640000D01*
X30360000Y31640000D02*
X33570000Y31640000D01*
X33570000Y30280000D02*
X30360000Y30280000D01*
G04 #@! TO.C,R24*
X30600000Y19740000D02*
X30600000Y21090000D01*
X27370000Y19740000D02*
X27370000Y21100000D01*
X27380000Y21100000D02*
X30590000Y21100000D01*
X30590000Y19740000D02*
X27380000Y19740000D01*
G04 #@! TO.C,R25*
X29970000Y30420000D02*
X29970000Y31770000D01*
X26740000Y30420000D02*
X26740000Y31780000D01*
X26750000Y31780000D02*
X29960000Y31780000D01*
X29960000Y30420000D02*
X26750000Y30420000D01*
G04 #@! TO.C,R28*
X22010000Y27020000D02*
X22010000Y25670000D01*
X25240000Y27020000D02*
X25240000Y25660000D01*
X25230000Y25660000D02*
X22020000Y25660000D01*
X22020000Y27020000D02*
X25230000Y27020000D01*
G04 #@! TO.C,R29*
X22010000Y22940000D02*
X22010000Y21590000D01*
X25240000Y22940000D02*
X25240000Y21580000D01*
X25230000Y21580000D02*
X22020000Y21580000D01*
X22020000Y22940000D02*
X25230000Y22940000D01*
G04 #@! TO.C,R30*
X21990000Y30250000D02*
X21990000Y28900000D01*
X25220000Y30250000D02*
X25220000Y28890000D01*
X25210000Y28890000D02*
X22000000Y28890000D01*
X22000000Y30250000D02*
X25210000Y30250000D01*
G04 #@! TO.C,R31*
X21990000Y34330000D02*
X21990000Y32980000D01*
X25220000Y34330000D02*
X25220000Y32970000D01*
X25210000Y32970000D02*
X22000000Y32970000D01*
X22000000Y34330000D02*
X25210000Y34330000D01*
G04 #@! TO.C,R32*
X22000000Y28670000D02*
X22000000Y27320000D01*
X25230000Y28670000D02*
X25230000Y27310000D01*
X25220000Y27310000D02*
X22010000Y27310000D01*
X22010000Y28670000D02*
X25220000Y28670000D01*
G04 #@! TO.C,R34*
X39670000Y36100000D02*
X41020000Y36100000D01*
X39670000Y39330000D02*
X41030000Y39330000D01*
X41030000Y39320000D02*
X41030000Y36110000D01*
X39670000Y36110000D02*
X39670000Y39320000D01*
G04 #@! TO.C,R35*
X41040000Y36100000D02*
X42390000Y36100000D01*
X41040000Y39330000D02*
X42400000Y39330000D01*
X42400000Y39320000D02*
X42400000Y36110000D01*
X41040000Y36110000D02*
X41040000Y39320000D01*
G04 #@! TO.C,R36*
X42400000Y36100000D02*
X43750000Y36100000D01*
X42400000Y39330000D02*
X43760000Y39330000D01*
X43760000Y39320000D02*
X43760000Y36110000D01*
X42400000Y36110000D02*
X42400000Y39320000D01*
G04 #@! TO.C,R37*
X38310000Y39330000D02*
X36960000Y39330000D01*
X38310000Y36100000D02*
X36950000Y36100000D01*
X36950000Y36110000D02*
X36950000Y39320000D01*
X38310000Y39320000D02*
X38310000Y36110000D01*
G04 #@! TO.C,R38*
X38320000Y36100000D02*
X39670000Y36100000D01*
X38320000Y39330000D02*
X39680000Y39330000D01*
X39680000Y39320000D02*
X39680000Y36110000D01*
X38320000Y36110000D02*
X38320000Y39320000D01*
G04 #@! TO.C,R39*
X16530000Y37960000D02*
X16530000Y36610000D01*
X19760000Y37960000D02*
X19760000Y36600000D01*
X19750000Y36600000D02*
X16540000Y36600000D01*
X16540000Y37960000D02*
X19750000Y37960000D01*
G04 #@! TO.C,R40*
X27400000Y35430000D02*
X27400000Y36780000D01*
X24170000Y35430000D02*
X24170000Y36790000D01*
X24180000Y36790000D02*
X27390000Y36790000D01*
X27390000Y35430000D02*
X24180000Y35430000D01*
G04 #@! TO.C,R41*
X24290000Y3920000D02*
X24290000Y2570000D01*
X27520000Y3920000D02*
X27520000Y2560000D01*
X27510000Y2560000D02*
X24300000Y2560000D01*
X24300000Y3920000D02*
X27510000Y3920000D01*
G04 #@! TO.C,R42*
X24290000Y2560000D02*
X24290000Y1210000D01*
X27520000Y2560000D02*
X27520000Y1200000D01*
X27510000Y1200000D02*
X24300000Y1200000D01*
X24300000Y2560000D02*
X27510000Y2560000D01*
G04 #@! TO.C,RESET*
X76010000Y42040000D02*
X76010000Y41390000D01*
X76010000Y38340000D02*
X76010000Y38990000D01*
X69810000Y38990000D02*
X69810000Y38340000D01*
X69810000Y42040000D02*
X69810000Y41390000D01*
X76010000Y42040000D02*
X69810000Y42040000D01*
X69810000Y38340000D02*
X76010000Y38340000D01*
D10*
G04 #@! TO.C,USB*
X470000Y17590000D02*
X16420000Y17590000D01*
X460000Y630000D02*
X470000Y17590000D01*
X16430000Y630000D02*
X470000Y630000D01*
X16440000Y17580000D02*
X16430000Y630000D01*
X470000Y17590000D02*
X16420000Y17590000D01*
D12*
G04 #@! TO.C,SCL*
X83700000Y10550000D02*
X88840000Y10550000D01*
X88840000Y10550000D02*
X88840000Y13210000D01*
X88840000Y13210000D02*
X83700000Y13210000D01*
X83700000Y13210000D02*
X83700000Y10550000D01*
X82430000Y10550000D02*
X81100000Y10550000D01*
X81100000Y10550000D02*
X81100000Y11880000D01*
G04 #@! TO.C,SDA*
X83700000Y6960000D02*
X88840000Y6960000D01*
X88840000Y6960000D02*
X88840000Y9620000D01*
X88840000Y9620000D02*
X83700000Y9620000D01*
X83700000Y9620000D02*
X83700000Y6960000D01*
X82430000Y6960000D02*
X81100000Y6960000D01*
X81100000Y6960000D02*
X81100000Y8290000D01*
G04 #@! TO.C,BOOT-SW*
X42060000Y19310000D02*
X42060000Y18040000D01*
X42060000Y19310000D02*
X44600000Y19310000D01*
X42260000Y19110000D02*
X52280000Y19110000D01*
X52280000Y19110000D02*
X52280000Y6530000D01*
X52280000Y6530000D02*
X42260000Y6530000D01*
X42260000Y6530000D02*
X42260000Y19110000D01*
X45240000Y17265000D02*
X45240000Y15995000D01*
X45240000Y15995000D02*
X49300000Y15995000D01*
X49300000Y15995000D02*
X49300000Y17265000D01*
X49300000Y17265000D02*
X45240000Y17265000D01*
X47270000Y17265000D02*
X47270000Y15995000D01*
X45240000Y14725000D02*
X45240000Y13455000D01*
X45240000Y13455000D02*
X49300000Y13455000D01*
X49300000Y13455000D02*
X49300000Y14725000D01*
X49300000Y14725000D02*
X45240000Y14725000D01*
X47270000Y14725000D02*
X47270000Y13455000D01*
X45240000Y12185000D02*
X45240000Y10915000D01*
X45240000Y10915000D02*
X49300000Y10915000D01*
X49300000Y10915000D02*
X49300000Y12185000D01*
X49300000Y12185000D02*
X45240000Y12185000D01*
X47270000Y12185000D02*
X47270000Y10915000D01*
X45240000Y9645000D02*
X45240000Y8375000D01*
X45240000Y8375000D02*
X49300000Y8375000D01*
X49300000Y8375000D02*
X49300000Y9645000D01*
X49300000Y9645000D02*
X45240000Y9645000D01*
X47270000Y9645000D02*
X47270000Y8375000D01*
D10*
G04 #@! TO.C,U3*
X43103750Y29796250D02*
X43103750Y29221250D01*
X33703750Y20396250D02*
X33703750Y20971250D01*
X43103750Y20396250D02*
X43103750Y20971250D01*
X33703750Y29796250D02*
X34278750Y29796250D01*
X33703750Y20396250D02*
X34278750Y20396250D01*
X43103750Y20396250D02*
X42528750Y20396250D01*
X43103750Y29796250D02*
X42528750Y29796250D01*
D14*
G04 #@! TO.C,U4*
X25270000Y6200000D02*
X25670000Y6200000D01*
X25670000Y6200000D02*
X25970000Y6500000D01*
X25970000Y6500000D02*
X26770000Y6500000D01*
X26170000Y11100000D02*
X26170000Y11400000D01*
X26170000Y11400000D02*
X25870000Y11400000D01*
X21970000Y6500000D02*
X21970000Y6200000D01*
X21970000Y6200000D02*
X22270000Y6200000D01*
X21970000Y11100000D02*
X21970000Y11400000D01*
X21970000Y11400000D02*
X22270000Y11400000D01*
D10*
G04 #@! TO.C,U5*
X21452500Y37055000D02*
X23902500Y37055000D01*
X20727500Y40305000D02*
X23902500Y40305000D01*
D12*
G04 #@! TO.C,U_DEBUG*
X85730000Y39270000D02*
X78050000Y39270000D01*
X78050000Y39270000D02*
X78050000Y36610000D01*
X78050000Y36610000D02*
X85730000Y36610000D01*
X85730000Y36610000D02*
X85730000Y39270000D01*
X87000000Y39270000D02*
X88330000Y39270000D01*
X88330000Y39270000D02*
X88330000Y37940000D01*
G04 #@! TO.C,VIN_5VDC*
X4960000Y38330000D02*
X-3840000Y38330000D01*
X-3840000Y38330000D02*
X-3840000Y47530000D01*
X10860000Y41030000D02*
X10860000Y38330000D01*
X10860000Y38330000D02*
X8960000Y38330000D01*
X-3840000Y47530000D02*
X10860000Y47530000D01*
X10860000Y47530000D02*
X10860000Y44930000D01*
G04 #@! TO.C,Y1*
X54060000Y15380000D02*
X57500000Y15380000D01*
X54060000Y15380000D02*
X54060000Y19820000D01*
X57500000Y15380000D02*
X57500000Y19820000D01*
X54060000Y19820000D02*
X57500000Y19820000D01*
G04 #@! TO.C,Y2*
X30050000Y30420000D02*
X26610000Y30420000D01*
X30050000Y30420000D02*
X30050000Y25980000D01*
X26610000Y30420000D02*
X26610000Y25980000D01*
X30050000Y25980000D02*
X26610000Y25980000D01*
G04 #@! TO.C,HOST_EN*
X24930000Y48010000D02*
X24930000Y48540000D01*
X24930000Y48540000D02*
X30130000Y48540000D01*
X30130000Y48540000D02*
X30130000Y48010000D01*
X24930000Y46410000D02*
X24930000Y45880000D01*
X24930000Y45880000D02*
X30130000Y45880000D01*
X30130000Y45880000D02*
X30130000Y46410000D01*
X31550000Y48010000D02*
X30130000Y48010000D01*
D10*
G04 #@! TO.C,VIDEO*
X28330000Y1750000D02*
X29400000Y1750000D01*
X28330000Y1750000D02*
X28330000Y12610000D01*
X36890000Y1750000D02*
X32070000Y1750000D01*
X40630000Y12610000D02*
X40640000Y1770000D01*
X28330000Y12610000D02*
X40630000Y12610000D01*
X39570000Y1770000D02*
X40640000Y1770000D01*
D12*
G04 #@! TO.C,REF\002A\002A*
X46866000Y3370000D02*
G75*
G03X46866000Y3370000I-2286000J0D01*
G01*
D15*
G04 #@! TO.C,REF\002A\002A\002A*
G36*
X63912094Y11408842D02*
X63944619Y11396264D01*
X63994193Y11371288D01*
X64065374Y11332124D01*
X64070916Y11329012D01*
X64136474Y11291524D01*
X64191798Y11258681D01*
X64231455Y11233795D01*
X64250012Y11220180D01*
X64250531Y11219513D01*
X64246048Y11200610D01*
X64225486Y11158395D01*
X64190183Y11095168D01*
X64141480Y11013228D01*
X64080718Y10914878D01*
X64009236Y10802415D01*
X63991445Y10774835D01*
X63945093Y10698301D01*
X63911342Y10632444D01*
X63893153Y10583218D01*
X63891286Y10573493D01*
X63892115Y10530688D01*
X63901394Y10462791D01*
X63917968Y10374157D01*
X63940680Y10269141D01*
X63968373Y10152098D01*
X63999890Y10027384D01*
X64034075Y9899355D01*
X64069771Y9772366D01*
X64105821Y9650772D01*
X64141068Y9538928D01*
X64174356Y9441190D01*
X64204528Y9361913D01*
X64225561Y9314878D01*
X64250337Y9264775D01*
X64273730Y9216832D01*
X64274997Y9214207D01*
X64313699Y9165780D01*
X64370184Y9133172D01*
X64435939Y9117546D01*
X64502451Y9120063D01*
X64561205Y9141886D01*
X64594258Y9170618D01*
X64641859Y9249417D01*
X64676739Y9347622D01*
X64695877Y9455221D01*
X64698588Y9516220D01*
X64687670Y9630065D01*
X64655624Y9724340D01*
X64600726Y9803621D01*
X64583607Y9821267D01*
X64532661Y9870765D01*
X64529163Y10220638D01*
X64525664Y10570511D01*
X64614818Y10705469D01*
X64656654Y10766555D01*
X64696945Y10821507D01*
X64729943Y10862664D01*
X64744126Y10877808D01*
X64784281Y10915190D01*
X64838665Y10885902D01*
X64873039Y10864916D01*
X64891846Y10848622D01*
X64893049Y10845693D01*
X64905903Y10833272D01*
X64927896Y10824023D01*
X64949150Y10815687D01*
X64981694Y10799851D01*
X65028322Y10774967D01*
X65091829Y10739491D01*
X65175008Y10691877D01*
X65280653Y10630578D01*
X65338062Y10597068D01*
X65405594Y10556929D01*
X65449885Y10528341D01*
X65474855Y10507961D01*
X65484423Y10492447D01*
X65482508Y10478454D01*
X65480911Y10475204D01*
X65465376Y10454734D01*
X65432136Y10416335D01*
X65385062Y10364304D01*
X65328028Y10302934D01*
X65278700Y10250910D01*
X65165030Y10127433D01*
X65076105Y10020409D01*
X65011134Y9928760D01*
X64969321Y9851412D01*
X64955217Y9812134D01*
X64949392Y9777751D01*
X64943375Y9719101D01*
X64937696Y9642883D01*
X64932884Y9555798D01*
X64930619Y9500732D01*
X64927459Y9405536D01*
X64926069Y9335938D01*
X64926858Y9286591D01*
X64930235Y9252146D01*
X64936608Y9227257D01*
X64946387Y9206575D01*
X64954067Y9193947D01*
X64998421Y9145274D01*
X65055574Y9111355D01*
X65115708Y9096562D01*
X65160773Y9101914D01*
X65201576Y9125070D01*
X65252724Y9166538D01*
X65307042Y9219088D01*
X65357357Y9275484D01*
X65396494Y9328495D01*
X65410905Y9354111D01*
X65432491Y9389186D01*
X65471753Y9442611D01*
X65525102Y9510211D01*
X65588952Y9587810D01*
X65659715Y9671232D01*
X65733804Y9756302D01*
X65807632Y9838845D01*
X65877611Y9914684D01*
X65940155Y9979644D01*
X65989260Y10027331D01*
X66043779Y10074968D01*
X66089642Y10110092D01*
X66121811Y10129051D01*
X66132489Y10131136D01*
X66148853Y10122726D01*
X66189671Y10100154D01*
X66252586Y10064776D01*
X66335244Y10017946D01*
X66435289Y9961019D01*
X66550366Y9895351D01*
X66678119Y9822297D01*
X66816194Y9743212D01*
X66962234Y9659452D01*
X67113884Y9572371D01*
X67268790Y9483324D01*
X67424595Y9393668D01*
X67578944Y9304757D01*
X67729482Y9217946D01*
X67873854Y9134591D01*
X68009704Y9056046D01*
X68134677Y8983667D01*
X68246417Y8918810D01*
X68342570Y8862829D01*
X68420779Y8817080D01*
X68478689Y8782917D01*
X68513946Y8761696D01*
X68524165Y8755037D01*
X68510402Y8753720D01*
X68467104Y8752441D01*
X68395714Y8751204D01*
X68297673Y8750017D01*
X68174422Y8748885D01*
X68027403Y8747814D01*
X67858057Y8746811D01*
X67667826Y8745881D01*
X67458151Y8745032D01*
X67230473Y8744268D01*
X66986235Y8743597D01*
X66726877Y8743024D01*
X66453841Y8742556D01*
X66168568Y8742198D01*
X65872500Y8741958D01*
X65567079Y8741841D01*
X65438924Y8741829D01*
X62338970Y8741829D01*
X62560053Y9125153D01*
X62606856Y9206320D01*
X62667102Y9310834D01*
X62738778Y9435199D01*
X62819869Y9575918D01*
X62908362Y9729497D01*
X63002240Y9892438D01*
X63099491Y10061246D01*
X63198100Y10232425D01*
X63296053Y10402479D01*
X63320825Y10445488D01*
X63411152Y10602143D01*
X63497289Y10751197D01*
X63577942Y10890432D01*
X63651816Y11017629D01*
X63717617Y11130568D01*
X63774050Y11227032D01*
X63819821Y11304800D01*
X63853635Y11361654D01*
X63874198Y11395375D01*
X63879953Y11403960D01*
X63892058Y11410811D01*
X63912094Y11408842D01*
X63912094Y11408842D01*
G37*
X63912094Y11408842D02*
X63944619Y11396264D01*
X63994193Y11371288D01*
X64065374Y11332124D01*
X64070916Y11329012D01*
X64136474Y11291524D01*
X64191798Y11258681D01*
X64231455Y11233795D01*
X64250012Y11220180D01*
X64250531Y11219513D01*
X64246048Y11200610D01*
X64225486Y11158395D01*
X64190183Y11095168D01*
X64141480Y11013228D01*
X64080718Y10914878D01*
X64009236Y10802415D01*
X63991445Y10774835D01*
X63945093Y10698301D01*
X63911342Y10632444D01*
X63893153Y10583218D01*
X63891286Y10573493D01*
X63892115Y10530688D01*
X63901394Y10462791D01*
X63917968Y10374157D01*
X63940680Y10269141D01*
X63968373Y10152098D01*
X63999890Y10027384D01*
X64034075Y9899355D01*
X64069771Y9772366D01*
X64105821Y9650772D01*
X64141068Y9538928D01*
X64174356Y9441190D01*
X64204528Y9361913D01*
X64225561Y9314878D01*
X64250337Y9264775D01*
X64273730Y9216832D01*
X64274997Y9214207D01*
X64313699Y9165780D01*
X64370184Y9133172D01*
X64435939Y9117546D01*
X64502451Y9120063D01*
X64561205Y9141886D01*
X64594258Y9170618D01*
X64641859Y9249417D01*
X64676739Y9347622D01*
X64695877Y9455221D01*
X64698588Y9516220D01*
X64687670Y9630065D01*
X64655624Y9724340D01*
X64600726Y9803621D01*
X64583607Y9821267D01*
X64532661Y9870765D01*
X64529163Y10220638D01*
X64525664Y10570511D01*
X64614818Y10705469D01*
X64656654Y10766555D01*
X64696945Y10821507D01*
X64729943Y10862664D01*
X64744126Y10877808D01*
X64784281Y10915190D01*
X64838665Y10885902D01*
X64873039Y10864916D01*
X64891846Y10848622D01*
X64893049Y10845693D01*
X64905903Y10833272D01*
X64927896Y10824023D01*
X64949150Y10815687D01*
X64981694Y10799851D01*
X65028322Y10774967D01*
X65091829Y10739491D01*
X65175008Y10691877D01*
X65280653Y10630578D01*
X65338062Y10597068D01*
X65405594Y10556929D01*
X65449885Y10528341D01*
X65474855Y10507961D01*
X65484423Y10492447D01*
X65482508Y10478454D01*
X65480911Y10475204D01*
X65465376Y10454734D01*
X65432136Y10416335D01*
X65385062Y10364304D01*
X65328028Y10302934D01*
X65278700Y10250910D01*
X65165030Y10127433D01*
X65076105Y10020409D01*
X65011134Y9928760D01*
X64969321Y9851412D01*
X64955217Y9812134D01*
X64949392Y9777751D01*
X64943375Y9719101D01*
X64937696Y9642883D01*
X64932884Y9555798D01*
X64930619Y9500732D01*
X64927459Y9405536D01*
X64926069Y9335938D01*
X64926858Y9286591D01*
X64930235Y9252146D01*
X64936608Y9227257D01*
X64946387Y9206575D01*
X64954067Y9193947D01*
X64998421Y9145274D01*
X65055574Y9111355D01*
X65115708Y9096562D01*
X65160773Y9101914D01*
X65201576Y9125070D01*
X65252724Y9166538D01*
X65307042Y9219088D01*
X65357357Y9275484D01*
X65396494Y9328495D01*
X65410905Y9354111D01*
X65432491Y9389186D01*
X65471753Y9442611D01*
X65525102Y9510211D01*
X65588952Y9587810D01*
X65659715Y9671232D01*
X65733804Y9756302D01*
X65807632Y9838845D01*
X65877611Y9914684D01*
X65940155Y9979644D01*
X65989260Y10027331D01*
X66043779Y10074968D01*
X66089642Y10110092D01*
X66121811Y10129051D01*
X66132489Y10131136D01*
X66148853Y10122726D01*
X66189671Y10100154D01*
X66252586Y10064776D01*
X66335244Y10017946D01*
X66435289Y9961019D01*
X66550366Y9895351D01*
X66678119Y9822297D01*
X66816194Y9743212D01*
X66962234Y9659452D01*
X67113884Y9572371D01*
X67268790Y9483324D01*
X67424595Y9393668D01*
X67578944Y9304757D01*
X67729482Y9217946D01*
X67873854Y9134591D01*
X68009704Y9056046D01*
X68134677Y8983667D01*
X68246417Y8918810D01*
X68342570Y8862829D01*
X68420779Y8817080D01*
X68478689Y8782917D01*
X68513946Y8761696D01*
X68524165Y8755037D01*
X68510402Y8753720D01*
X68467104Y8752441D01*
X68395714Y8751204D01*
X68297673Y8750017D01*
X68174422Y8748885D01*
X68027403Y8747814D01*
X67858057Y8746811D01*
X67667826Y8745881D01*
X67458151Y8745032D01*
X67230473Y8744268D01*
X66986235Y8743597D01*
X66726877Y8743024D01*
X66453841Y8742556D01*
X66168568Y8742198D01*
X65872500Y8741958D01*
X65567079Y8741841D01*
X65438924Y8741829D01*
X62338970Y8741829D01*
X62560053Y9125153D01*
X62606856Y9206320D01*
X62667102Y9310834D01*
X62738778Y9435199D01*
X62819869Y9575918D01*
X62908362Y9729497D01*
X63002240Y9892438D01*
X63099491Y10061246D01*
X63198100Y10232425D01*
X63296053Y10402479D01*
X63320825Y10445488D01*
X63411152Y10602143D01*
X63497289Y10751197D01*
X63577942Y10890432D01*
X63651816Y11017629D01*
X63717617Y11130568D01*
X63774050Y11227032D01*
X63819821Y11304800D01*
X63853635Y11361654D01*
X63874198Y11395375D01*
X63879953Y11403960D01*
X63892058Y11410811D01*
X63912094Y11408842D01*
G36*
X67577528Y11465381D02*
X67588908Y11446307D01*
X67614488Y11402579D01*
X67653002Y11336381D01*
X67703186Y11249898D01*
X67763775Y11145315D01*
X67833503Y11024817D01*
X67911107Y10890588D01*
X67995320Y10744813D01*
X68084879Y10589677D01*
X68176998Y10430000D01*
X68271076Y10266883D01*
X68361402Y10110291D01*
X68446665Y9962494D01*
X68525557Y9825760D01*
X68596769Y9702358D01*
X68658991Y9594556D01*
X68710913Y9504623D01*
X68751228Y9434827D01*
X68778624Y9387436D01*
X68791507Y9365214D01*
X68812507Y9327670D01*
X68823925Y9304169D01*
X68824551Y9300080D01*
X68810636Y9307758D01*
X68771941Y9329797D01*
X68710487Y9365029D01*
X68628298Y9412289D01*
X68527396Y9470411D01*
X68409805Y9538229D01*
X68277546Y9614576D01*
X68132642Y9698286D01*
X67977117Y9788194D01*
X67812992Y9883133D01*
X67750549Y9919268D01*
X67583487Y10015917D01*
X67424074Y10108062D01*
X67274355Y10194525D01*
X67136376Y10274129D01*
X67012185Y10345695D01*
X66903827Y10408045D01*
X66813348Y10460002D01*
X66742796Y10500387D01*
X66694215Y10528022D01*
X66669654Y10541728D01*
X66667085Y10543026D01*
X66674569Y10554780D01*
X66700614Y10586205D01*
X66742559Y10634406D01*
X66797746Y10696490D01*
X66863517Y10769561D01*
X66937212Y10850724D01*
X67016173Y10937084D01*
X67097740Y11025747D01*
X67179254Y11113818D01*
X67258057Y11198401D01*
X67331490Y11276603D01*
X67396893Y11345528D01*
X67451608Y11402281D01*
X67492977Y11443968D01*
X67507164Y11457637D01*
X67554180Y11501799D01*
X67577528Y11465381D01*
X67577528Y11465381D01*
G37*
X67577528Y11465381D02*
X67588908Y11446307D01*
X67614488Y11402579D01*
X67653002Y11336381D01*
X67703186Y11249898D01*
X67763775Y11145315D01*
X67833503Y11024817D01*
X67911107Y10890588D01*
X67995320Y10744813D01*
X68084879Y10589677D01*
X68176998Y10430000D01*
X68271076Y10266883D01*
X68361402Y10110291D01*
X68446665Y9962494D01*
X68525557Y9825760D01*
X68596769Y9702358D01*
X68658991Y9594556D01*
X68710913Y9504623D01*
X68751228Y9434827D01*
X68778624Y9387436D01*
X68791507Y9365214D01*
X68812507Y9327670D01*
X68823925Y9304169D01*
X68824551Y9300080D01*
X68810636Y9307758D01*
X68771941Y9329797D01*
X68710487Y9365029D01*
X68628298Y9412289D01*
X68527396Y9470411D01*
X68409805Y9538229D01*
X68277546Y9614576D01*
X68132642Y9698286D01*
X67977117Y9788194D01*
X67812992Y9883133D01*
X67750549Y9919268D01*
X67583487Y10015917D01*
X67424074Y10108062D01*
X67274355Y10194525D01*
X67136376Y10274129D01*
X67012185Y10345695D01*
X66903827Y10408045D01*
X66813348Y10460002D01*
X66742796Y10500387D01*
X66694215Y10528022D01*
X66669654Y10541728D01*
X66667085Y10543026D01*
X66674569Y10554780D01*
X66700614Y10586205D01*
X66742559Y10634406D01*
X66797746Y10696490D01*
X66863517Y10769561D01*
X66937212Y10850724D01*
X67016173Y10937084D01*
X67097740Y11025747D01*
X67179254Y11113818D01*
X67258057Y11198401D01*
X67331490Y11276603D01*
X67396893Y11345528D01*
X67451608Y11402281D01*
X67492977Y11443968D01*
X67507164Y11457637D01*
X67554180Y11501799D01*
X67577528Y11465381D01*
G36*
X65754043Y14614165D02*
X65777065Y14576755D01*
X65812534Y14517486D01*
X65858996Y14438882D01*
X65914996Y14343462D01*
X65979081Y14233750D01*
X66049796Y14112266D01*
X66125687Y13981532D01*
X66205299Y13844070D01*
X66287178Y13702402D01*
X66369870Y13559049D01*
X66451921Y13416533D01*
X66531876Y13277376D01*
X66608281Y13144099D01*
X66679682Y13019224D01*
X66744624Y12905273D01*
X66801653Y12804767D01*
X66849315Y12720228D01*
X66886155Y12654178D01*
X66910720Y12609138D01*
X66921554Y12587630D01*
X66921951Y12586286D01*
X66908501Y12568035D01*
X66871114Y12540118D01*
X66814235Y12505275D01*
X66742312Y12466246D01*
X66667015Y12429157D01*
X66564560Y12384183D01*
X66456817Y12343774D01*
X66340073Y12307031D01*
X66210618Y12273058D01*
X66064740Y12240956D01*
X65898726Y12209827D01*
X65708866Y12178773D01*
X65512469Y12149855D01*
X65341834Y12124200D01*
X65198545Y12098802D01*
X65079008Y12072398D01*
X64979630Y12043727D01*
X64896818Y12011527D01*
X64826978Y11974535D01*
X64766518Y11931488D01*
X64711845Y11881125D01*
X64694214Y11862417D01*
X64656000Y11818861D01*
X64627732Y11783318D01*
X64614618Y11762417D01*
X64614268Y11760703D01*
X64609680Y11750194D01*
X64593758Y11750076D01*
X64563266Y11761746D01*
X64514968Y11786604D01*
X64445627Y11826048D01*
X64397439Y11854413D01*
X64325583Y11898753D01*
X64269742Y11936721D01*
X64233667Y11965584D01*
X64221113Y11982612D01*
X64221121Y11982736D01*
X64228906Y11998963D01*
X64250892Y12039600D01*
X64285803Y12102433D01*
X64332363Y12185248D01*
X64389295Y12285828D01*
X64455323Y12401960D01*
X64529172Y12531429D01*
X64609564Y12672020D01*
X64695224Y12821518D01*
X64784876Y12977708D01*
X64877243Y13138376D01*
X64971049Y13301307D01*
X65065018Y13464287D01*
X65157874Y13625100D01*
X65248340Y13781532D01*
X65335141Y13931367D01*
X65417000Y14072392D01*
X65492641Y14202391D01*
X65560787Y14319151D01*
X65620163Y14420455D01*
X65669493Y14504089D01*
X65707500Y14567838D01*
X65732907Y14609489D01*
X65744440Y14626825D01*
X65744923Y14627195D01*
X65754043Y14614165D01*
X65754043Y14614165D01*
G37*
X65754043Y14614165D02*
X65777065Y14576755D01*
X65812534Y14517486D01*
X65858996Y14438882D01*
X65914996Y14343462D01*
X65979081Y14233750D01*
X66049796Y14112266D01*
X66125687Y13981532D01*
X66205299Y13844070D01*
X66287178Y13702402D01*
X66369870Y13559049D01*
X66451921Y13416533D01*
X66531876Y13277376D01*
X66608281Y13144099D01*
X66679682Y13019224D01*
X66744624Y12905273D01*
X66801653Y12804767D01*
X66849315Y12720228D01*
X66886155Y12654178D01*
X66910720Y12609138D01*
X66921554Y12587630D01*
X66921951Y12586286D01*
X66908501Y12568035D01*
X66871114Y12540118D01*
X66814235Y12505275D01*
X66742312Y12466246D01*
X66667015Y12429157D01*
X66564560Y12384183D01*
X66456817Y12343774D01*
X66340073Y12307031D01*
X66210618Y12273058D01*
X66064740Y12240956D01*
X65898726Y12209827D01*
X65708866Y12178773D01*
X65512469Y12149855D01*
X65341834Y12124200D01*
X65198545Y12098802D01*
X65079008Y12072398D01*
X64979630Y12043727D01*
X64896818Y12011527D01*
X64826978Y11974535D01*
X64766518Y11931488D01*
X64711845Y11881125D01*
X64694214Y11862417D01*
X64656000Y11818861D01*
X64627732Y11783318D01*
X64614618Y11762417D01*
X64614268Y11760703D01*
X64609680Y11750194D01*
X64593758Y11750076D01*
X64563266Y11761746D01*
X64514968Y11786604D01*
X64445627Y11826048D01*
X64397439Y11854413D01*
X64325583Y11898753D01*
X64269742Y11936721D01*
X64233667Y11965584D01*
X64221113Y11982612D01*
X64221121Y11982736D01*
X64228906Y11998963D01*
X64250892Y12039600D01*
X64285803Y12102433D01*
X64332363Y12185248D01*
X64389295Y12285828D01*
X64455323Y12401960D01*
X64529172Y12531429D01*
X64609564Y12672020D01*
X64695224Y12821518D01*
X64784876Y12977708D01*
X64877243Y13138376D01*
X64971049Y13301307D01*
X65065018Y13464287D01*
X65157874Y13625100D01*
X65248340Y13781532D01*
X65335141Y13931367D01*
X65417000Y14072392D01*
X65492641Y14202391D01*
X65560787Y14319151D01*
X65620163Y14420455D01*
X65669493Y14504089D01*
X65707500Y14567838D01*
X65732907Y14609489D01*
X65744440Y14626825D01*
X65744923Y14627195D01*
X65754043Y14614165D01*
G36*
X81667822Y22572178D02*
X78147029Y22572178D01*
X78147029Y23439802D01*
X81667822Y23439802D01*
X81667822Y22572178D01*
X81667822Y22572178D01*
G37*
X81667822Y22572178D02*
X78147029Y22572178D01*
X78147029Y23439802D01*
X81667822Y23439802D01*
X81667822Y22572178D01*
G36*
X82044430Y28525152D02*
X82043811Y28438069D01*
X81592086Y27979109D01*
X81140361Y27520148D01*
X81140032Y27309529D01*
X81139703Y27098911D01*
X80864610Y27098911D01*
X80857522Y27045470D01*
X80854838Y27021112D01*
X80850313Y26975241D01*
X80844191Y26910595D01*
X80836712Y26829909D01*
X80828119Y26735919D01*
X80818654Y26631363D01*
X80808558Y26518975D01*
X80798074Y26401493D01*
X80787444Y26281652D01*
X80776909Y26162189D01*
X80766713Y26045841D01*
X80757095Y25935343D01*
X80748300Y25833431D01*
X80740568Y25742842D01*
X80734142Y25666313D01*
X80729263Y25606579D01*
X80726175Y25566376D01*
X80725117Y25548441D01*
X80725118Y25548356D01*
X80732827Y25533965D01*
X80755981Y25504252D01*
X80794895Y25458869D01*
X80849884Y25397471D01*
X80921264Y25319712D01*
X81009349Y25225246D01*
X81114454Y25113728D01*
X81236895Y24984812D01*
X81271310Y24948713D01*
X81817137Y24376584D01*
X81728881Y24288564D01*
X81657485Y24366242D01*
X81631366Y24394314D01*
X81590566Y24437726D01*
X81537777Y24493634D01*
X81475691Y24559192D01*
X81407000Y24631559D01*
X81334396Y24707888D01*
X81290960Y24753476D01*
X81209416Y24838881D01*
X81143504Y24907290D01*
X81091544Y24959947D01*
X81051855Y24998095D01*
X81022757Y25022980D01*
X81002569Y25035844D01*
X80989610Y25037932D01*
X80982200Y25030487D01*
X80978658Y25014754D01*
X80977303Y24991977D01*
X80977121Y24985761D01*
X80967703Y24942939D01*
X80944497Y24891181D01*
X80912136Y24838672D01*
X80875252Y24793597D01*
X80860493Y24779672D01*
X80784767Y24730953D01*
X80696308Y24703694D01*
X80618100Y24697227D01*
X80529468Y24709424D01*
X80447612Y24745187D01*
X80375164Y24803278D01*
X80361797Y24817738D01*
X80312918Y24873267D01*
X79467326Y24873267D01*
X79467326Y24697227D01*
X79240990Y24697227D01*
X79240990Y24779469D01*
X79238150Y24835614D01*
X79228607Y24874584D01*
X79217009Y24895781D01*
X79208723Y24910948D01*
X79201627Y24932938D01*
X79195252Y24965013D01*
X79189128Y25010431D01*
X79182784Y25072452D01*
X79175750Y25154338D01*
X79170934Y25215254D01*
X79148839Y25500657D01*
X78606435Y24951195D01*
X78508363Y24851772D01*
X78414216Y24756185D01*
X78325715Y24666190D01*
X78244580Y24583543D01*
X78172531Y24509999D01*
X78111288Y24447316D01*
X78062573Y24397248D01*
X78028104Y24361552D01*
X78009621Y24342005D01*
X77979257Y24311056D01*
X77953929Y24289470D01*
X77940305Y24282277D01*
X77922905Y24290703D01*
X77897540Y24311755D01*
X77888942Y24320329D01*
X77852486Y24358380D01*
X78053198Y24562342D01*
X78104404Y24614301D01*
X78170431Y24681180D01*
X78248382Y24760050D01*
X78335362Y24847986D01*
X78428474Y24942059D01*
X78524821Y25039342D01*
X78621508Y25136907D01*
X78690866Y25206855D01*
X78796297Y25313450D01*
X78884871Y25403693D01*
X78957719Y25478808D01*
X79015977Y25540014D01*
X79060775Y25588534D01*
X79082979Y25613871D01*
X79261276Y25613871D01*
X79283599Y25328445D01*
X79290331Y25244781D01*
X79296843Y25168273D01*
X79302766Y25102919D01*
X79307732Y25052719D01*
X79311371Y25021671D01*
X79312542Y25014727D01*
X79319162Y24986435D01*
X80268636Y24986435D01*
X80274974Y25065394D01*
X80294110Y25158685D01*
X80334154Y25241209D01*
X80392582Y25309962D01*
X80466871Y25361937D01*
X80550252Y25393137D01*
X80577302Y25407772D01*
X80590844Y25439181D01*
X80591128Y25440566D01*
X80592753Y25453826D01*
X80590744Y25467405D01*
X80583142Y25483819D01*
X80567984Y25505589D01*
X80543312Y25535233D01*
X80507164Y25575268D01*
X80457580Y25628215D01*
X80392599Y25696591D01*
X80388401Y25700995D01*
X80318507Y25774389D01*
X80244200Y25852563D01*
X80170586Y25930136D01*
X80102771Y26001725D01*
X80045860Y26061949D01*
X80033168Y26075413D01*
X79984513Y26126180D01*
X79941291Y26169625D01*
X79906605Y26202759D01*
X79883556Y26222595D01*
X79875818Y26226954D01*
X79864278Y26217830D01*
X79837290Y26192800D01*
X79796979Y26153948D01*
X79745471Y26103357D01*
X79684891Y26043112D01*
X79617364Y25975296D01*
X79562174Y25919435D01*
X79261276Y25613871D01*
X79082979Y25613871D01*
X79093249Y25625589D01*
X79114529Y25652401D01*
X79125749Y25670192D01*
X79128246Y25678430D01*
X79127300Y25696410D01*
X79124427Y25737108D01*
X79119813Y25798181D01*
X79113642Y25877287D01*
X79106102Y25972086D01*
X79097379Y26080233D01*
X79087657Y26199388D01*
X79077124Y26327209D01*
X79068635Y26429365D01*
X79020604Y27005326D01*
X79144195Y27005326D01*
X79144727Y26992896D01*
X79147231Y26957890D01*
X79151504Y26902785D01*
X79157347Y26830057D01*
X79164557Y26742186D01*
X79172934Y26641649D01*
X79182277Y26530923D01*
X79191242Y26425795D01*
X79201398Y26306517D01*
X79210858Y26193920D01*
X79219404Y26090695D01*
X79226821Y25999527D01*
X79232892Y25923105D01*
X79237399Y25864117D01*
X79240127Y25825251D01*
X79240884Y25810156D01*
X79242065Y25800762D01*
X79246744Y25797034D01*
X79256724Y25800529D01*
X79273810Y25812801D01*
X79299804Y25835406D01*
X79336510Y25869900D01*
X79385733Y25917838D01*
X79449274Y25980776D01*
X79516695Y26048032D01*
X79792399Y26323523D01*
X79790467Y26325594D01*
X79972710Y26325594D01*
X79981016Y26314220D01*
X80004267Y26287437D01*
X80040135Y26247708D01*
X80086287Y26197493D01*
X80140394Y26139254D01*
X80200126Y26075453D01*
X80263152Y26008551D01*
X80327142Y25941010D01*
X80389764Y25875290D01*
X80448690Y25813854D01*
X80501588Y25759163D01*
X80546128Y25713678D01*
X80579980Y25679862D01*
X80600812Y25660174D01*
X80606494Y25656163D01*
X80608366Y25669109D01*
X80612254Y25704866D01*
X80617943Y25761196D01*
X80625219Y25835860D01*
X80633869Y25926620D01*
X80643678Y26031238D01*
X80654434Y26147474D01*
X80665921Y26273092D01*
X80675093Y26374382D01*
X80686826Y26505721D01*
X80697665Y26629448D01*
X80707430Y26743319D01*
X80715937Y26845089D01*
X80723005Y26932513D01*
X80728451Y27003347D01*
X80732092Y27055347D01*
X80733747Y27086268D01*
X80733558Y27094297D01*
X80723666Y27087146D01*
X80698476Y27064159D01*
X80660190Y27027561D01*
X80611011Y26979578D01*
X80553139Y26922434D01*
X80488778Y26858353D01*
X80420129Y26789562D01*
X80349395Y26718284D01*
X80278778Y26646745D01*
X80210480Y26577170D01*
X80146704Y26511783D01*
X80089650Y26452809D01*
X80041522Y26402473D01*
X80004522Y26363001D01*
X79980852Y26336617D01*
X79972710Y26325594D01*
X79790467Y26325594D01*
X79689591Y26433705D01*
X79637232Y26489623D01*
X79578465Y26552052D01*
X79515615Y26618557D01*
X79451005Y26686702D01*
X79386958Y26754052D01*
X79325797Y26818172D01*
X79269847Y26876628D01*
X79221430Y26926982D01*
X79182870Y26966802D01*
X79156491Y26993650D01*
X79144616Y27005092D01*
X79144195Y27005326D01*
X79020604Y27005326D01*
X79008599Y27149274D01*
X78408062Y27780842D01*
X77807525Y28412411D01*
X77807966Y28500685D01*
X77808408Y28588960D01*
X77905417Y28485334D01*
X77959709Y28427537D01*
X78023808Y28359632D01*
X78095984Y28283428D01*
X78174508Y28200731D01*
X78257651Y28113347D01*
X78343681Y28023085D01*
X78430870Y27931750D01*
X78517487Y27841151D01*
X78601803Y27753093D01*
X78682088Y27669385D01*
X78756613Y27591833D01*
X78823646Y27522243D01*
X78881459Y27462424D01*
X78928321Y27414182D01*
X78962504Y27379324D01*
X78982276Y27359657D01*
X78986610Y27355884D01*
X78986908Y27369008D01*
X78985269Y27402611D01*
X78981977Y27452120D01*
X78977318Y27512963D01*
X78975318Y27537268D01*
X78960423Y27715049D01*
X79077045Y27715049D01*
X79083066Y27686757D01*
X79086137Y27664382D01*
X79090452Y27622283D01*
X79095512Y27565822D01*
X79100819Y27500365D01*
X79102656Y27476138D01*
X79108073Y27406579D01*
X79113541Y27341982D01*
X79118512Y27288452D01*
X79122439Y27252090D01*
X79123325Y27245491D01*
X79126666Y27231944D01*
X79133899Y27216086D01*
X79146560Y27196139D01*
X79166189Y27170327D01*
X79194322Y27136871D01*
X79232498Y27093993D01*
X79282254Y27039917D01*
X79345129Y26972864D01*
X79422659Y26891057D01*
X79501749Y26808050D01*
X79580436Y26725906D01*
X79653888Y26649831D01*
X79720276Y26581675D01*
X79777773Y26523288D01*
X79824549Y26476519D01*
X79858776Y26443218D01*
X79878627Y26425233D01*
X79882860Y26422558D01*
X79893997Y26432259D01*
X79920029Y26457559D01*
X79958430Y26495918D01*
X80006672Y26544800D01*
X80062230Y26601666D01*
X80102408Y26643094D01*
X80312169Y26860000D01*
X79693663Y26860000D01*
X79693663Y27098911D01*
X80448119Y27098911D01*
X80448119Y26992458D01*
X80586435Y27130346D01*
X80684553Y27228160D01*
X80875643Y27228160D01*
X80877471Y27212730D01*
X80886723Y27204133D01*
X80909050Y27200387D01*
X80950105Y27199511D01*
X80957376Y27199505D01*
X81039109Y27199505D01*
X81039109Y27418828D01*
X80957376Y27337821D01*
X80911270Y27288572D01*
X80883694Y27250841D01*
X80875643Y27228160D01*
X80684553Y27228160D01*
X80724752Y27268234D01*
X80724752Y27391048D01*
X80725137Y27447550D01*
X80726900Y27483495D01*
X80730950Y27503470D01*
X80738199Y27512063D01*
X80749130Y27513861D01*
X80761288Y27516502D01*
X80770273Y27527088D01*
X80777174Y27549619D01*
X80783076Y27588091D01*
X80789065Y27646502D01*
X80790987Y27667896D01*
X80795148Y27715049D01*
X79077045Y27715049D01*
X78960423Y27715049D01*
X78800891Y27715049D01*
X78800891Y27828218D01*
X78868686Y27828218D01*
X78908338Y27829304D01*
X78929884Y27834546D01*
X78932520Y27837666D01*
X79071384Y27837666D01*
X79078692Y27830538D01*
X79104007Y27828338D01*
X79121092Y27828218D01*
X79178119Y27828218D01*
X79390779Y27828218D01*
X80805302Y27828218D01*
X80757458Y27877214D01*
X80683150Y27937676D01*
X80591184Y27984309D01*
X80480002Y28017751D01*
X80369529Y28036247D01*
X80297227Y28044878D01*
X80297227Y27953960D01*
X79718812Y27953960D01*
X79718812Y28057107D01*
X79633935Y28048504D01*
X79574632Y28041244D01*
X79511449Y28031621D01*
X79473614Y28024748D01*
X79398168Y28009593D01*
X79394474Y27918905D01*
X79390779Y27828218D01*
X79178119Y27828218D01*
X79178119Y27878515D01*
X79176456Y27910024D01*
X79172303Y27927537D01*
X79170629Y27928812D01*
X79152013Y27920746D01*
X79124817Y27901180D01*
X79097552Y27877056D01*
X79078733Y27855318D01*
X79077057Y27852492D01*
X79071384Y27837666D01*
X78932520Y27837666D01*
X78940338Y27846919D01*
X78944558Y27860396D01*
X78961781Y27895373D01*
X78994862Y27937421D01*
X79038107Y27980644D01*
X79085826Y28019146D01*
X79117170Y28039199D01*
X79152877Y28061149D01*
X79171181Y28079589D01*
X79177612Y28101332D01*
X79178106Y28114282D01*
X79178106Y28117425D01*
X79819406Y28117425D01*
X79819406Y28054554D01*
X80196633Y28054554D01*
X80196633Y28117425D01*
X79819406Y28117425D01*
X79178106Y28117425D01*
X79178119Y28155148D01*
X79283952Y28155148D01*
X79332645Y28153971D01*
X79370595Y28150835D01*
X79391692Y28146329D01*
X79393977Y28144505D01*
X79407359Y28141705D01*
X79439926Y28142852D01*
X79486084Y28147607D01*
X79517624Y28151997D01*
X79574812Y28160622D01*
X79627114Y28168409D01*
X79666418Y28174153D01*
X79677945Y28175785D01*
X79708063Y28185112D01*
X79718812Y28199728D01*
X79722080Y28205680D01*
X79733770Y28210222D01*
X79756712Y28213530D01*
X79793735Y28215785D01*
X79847668Y28217166D01*
X79921340Y28217850D01*
X80008020Y28218020D01*
X80100529Y28217923D01*
X80170906Y28217470D01*
X80222164Y28216410D01*
X80257320Y28214497D01*
X80279389Y28211481D01*
X80291385Y28207115D01*
X80296324Y28201151D01*
X80297227Y28194216D01*
X80304921Y28172205D01*
X80330121Y28159679D01*
X80376009Y28155212D01*
X80384264Y28155148D01*
X80461973Y28147132D01*
X80550233Y28125064D01*
X80641085Y28091916D01*
X80726570Y28050661D01*
X80798726Y28004269D01*
X80808072Y27996918D01*
X80838533Y27973002D01*
X80856572Y27963424D01*
X80869169Y27966520D01*
X80882100Y27979296D01*
X80920293Y28004322D01*
X80969998Y28013929D01*
X81023524Y28008933D01*
X81073178Y27990149D01*
X81111267Y27958394D01*
X81114025Y27954703D01*
X81142526Y27895425D01*
X81147828Y27834066D01*
X81130518Y27775573D01*
X81091180Y27724896D01*
X81086370Y27720711D01*
X81058440Y27700833D01*
X81030102Y27692079D01*
X80990263Y27691447D01*
X80980311Y27692008D01*
X80941332Y27693438D01*
X80921254Y27690161D01*
X80913985Y27680272D01*
X80913240Y27671039D01*
X80911716Y27644256D01*
X80907935Y27603975D01*
X80905218Y27579876D01*
X80901277Y27541599D01*
X80902916Y27522004D01*
X80912421Y27514842D01*
X80929351Y27513861D01*
X80939392Y27517099D01*
X80955590Y27527580D01*
X80979145Y27546452D01*
X81011257Y27574865D01*
X81053128Y27613965D01*
X81105957Y27664903D01*
X81170945Y27728827D01*
X81249291Y27806886D01*
X81342197Y27900228D01*
X81450863Y28010002D01*
X81503231Y28063048D01*
X82045049Y28612233D01*
X82044430Y28525152D01*
X82044430Y28525152D01*
G37*
X82044430Y28525152D02*
X82043811Y28438069D01*
X81592086Y27979109D01*
X81140361Y27520148D01*
X81140032Y27309529D01*
X81139703Y27098911D01*
X80864610Y27098911D01*
X80857522Y27045470D01*
X80854838Y27021112D01*
X80850313Y26975241D01*
X80844191Y26910595D01*
X80836712Y26829909D01*
X80828119Y26735919D01*
X80818654Y26631363D01*
X80808558Y26518975D01*
X80798074Y26401493D01*
X80787444Y26281652D01*
X80776909Y26162189D01*
X80766713Y26045841D01*
X80757095Y25935343D01*
X80748300Y25833431D01*
X80740568Y25742842D01*
X80734142Y25666313D01*
X80729263Y25606579D01*
X80726175Y25566376D01*
X80725117Y25548441D01*
X80725118Y25548356D01*
X80732827Y25533965D01*
X80755981Y25504252D01*
X80794895Y25458869D01*
X80849884Y25397471D01*
X80921264Y25319712D01*
X81009349Y25225246D01*
X81114454Y25113728D01*
X81236895Y24984812D01*
X81271310Y24948713D01*
X81817137Y24376584D01*
X81728881Y24288564D01*
X81657485Y24366242D01*
X81631366Y24394314D01*
X81590566Y24437726D01*
X81537777Y24493634D01*
X81475691Y24559192D01*
X81407000Y24631559D01*
X81334396Y24707888D01*
X81290960Y24753476D01*
X81209416Y24838881D01*
X81143504Y24907290D01*
X81091544Y24959947D01*
X81051855Y24998095D01*
X81022757Y25022980D01*
X81002569Y25035844D01*
X80989610Y25037932D01*
X80982200Y25030487D01*
X80978658Y25014754D01*
X80977303Y24991977D01*
X80977121Y24985761D01*
X80967703Y24942939D01*
X80944497Y24891181D01*
X80912136Y24838672D01*
X80875252Y24793597D01*
X80860493Y24779672D01*
X80784767Y24730953D01*
X80696308Y24703694D01*
X80618100Y24697227D01*
X80529468Y24709424D01*
X80447612Y24745187D01*
X80375164Y24803278D01*
X80361797Y24817738D01*
X80312918Y24873267D01*
X79467326Y24873267D01*
X79467326Y24697227D01*
X79240990Y24697227D01*
X79240990Y24779469D01*
X79238150Y24835614D01*
X79228607Y24874584D01*
X79217009Y24895781D01*
X79208723Y24910948D01*
X79201627Y24932938D01*
X79195252Y24965013D01*
X79189128Y25010431D01*
X79182784Y25072452D01*
X79175750Y25154338D01*
X79170934Y25215254D01*
X79148839Y25500657D01*
X78606435Y24951195D01*
X78508363Y24851772D01*
X78414216Y24756185D01*
X78325715Y24666190D01*
X78244580Y24583543D01*
X78172531Y24509999D01*
X78111288Y24447316D01*
X78062573Y24397248D01*
X78028104Y24361552D01*
X78009621Y24342005D01*
X77979257Y24311056D01*
X77953929Y24289470D01*
X77940305Y24282277D01*
X77922905Y24290703D01*
X77897540Y24311755D01*
X77888942Y24320329D01*
X77852486Y24358380D01*
X78053198Y24562342D01*
X78104404Y24614301D01*
X78170431Y24681180D01*
X78248382Y24760050D01*
X78335362Y24847986D01*
X78428474Y24942059D01*
X78524821Y25039342D01*
X78621508Y25136907D01*
X78690866Y25206855D01*
X78796297Y25313450D01*
X78884871Y25403693D01*
X78957719Y25478808D01*
X79015977Y25540014D01*
X79060775Y25588534D01*
X79082979Y25613871D01*
X79261276Y25613871D01*
X79283599Y25328445D01*
X79290331Y25244781D01*
X79296843Y25168273D01*
X79302766Y25102919D01*
X79307732Y25052719D01*
X79311371Y25021671D01*
X79312542Y25014727D01*
X79319162Y24986435D01*
X80268636Y24986435D01*
X80274974Y25065394D01*
X80294110Y25158685D01*
X80334154Y25241209D01*
X80392582Y25309962D01*
X80466871Y25361937D01*
X80550252Y25393137D01*
X80577302Y25407772D01*
X80590844Y25439181D01*
X80591128Y25440566D01*
X80592753Y25453826D01*
X80590744Y25467405D01*
X80583142Y25483819D01*
X80567984Y25505589D01*
X80543312Y25535233D01*
X80507164Y25575268D01*
X80457580Y25628215D01*
X80392599Y25696591D01*
X80388401Y25700995D01*
X80318507Y25774389D01*
X80244200Y25852563D01*
X80170586Y25930136D01*
X80102771Y26001725D01*
X80045860Y26061949D01*
X80033168Y26075413D01*
X79984513Y26126180D01*
X79941291Y26169625D01*
X79906605Y26202759D01*
X79883556Y26222595D01*
X79875818Y26226954D01*
X79864278Y26217830D01*
X79837290Y26192800D01*
X79796979Y26153948D01*
X79745471Y26103357D01*
X79684891Y26043112D01*
X79617364Y25975296D01*
X79562174Y25919435D01*
X79261276Y25613871D01*
X79082979Y25613871D01*
X79093249Y25625589D01*
X79114529Y25652401D01*
X79125749Y25670192D01*
X79128246Y25678430D01*
X79127300Y25696410D01*
X79124427Y25737108D01*
X79119813Y25798181D01*
X79113642Y25877287D01*
X79106102Y25972086D01*
X79097379Y26080233D01*
X79087657Y26199388D01*
X79077124Y26327209D01*
X79068635Y26429365D01*
X79020604Y27005326D01*
X79144195Y27005326D01*
X79144727Y26992896D01*
X79147231Y26957890D01*
X79151504Y26902785D01*
X79157347Y26830057D01*
X79164557Y26742186D01*
X79172934Y26641649D01*
X79182277Y26530923D01*
X79191242Y26425795D01*
X79201398Y26306517D01*
X79210858Y26193920D01*
X79219404Y26090695D01*
X79226821Y25999527D01*
X79232892Y25923105D01*
X79237399Y25864117D01*
X79240127Y25825251D01*
X79240884Y25810156D01*
X79242065Y25800762D01*
X79246744Y25797034D01*
X79256724Y25800529D01*
X79273810Y25812801D01*
X79299804Y25835406D01*
X79336510Y25869900D01*
X79385733Y25917838D01*
X79449274Y25980776D01*
X79516695Y26048032D01*
X79792399Y26323523D01*
X79790467Y26325594D01*
X79972710Y26325594D01*
X79981016Y26314220D01*
X80004267Y26287437D01*
X80040135Y26247708D01*
X80086287Y26197493D01*
X80140394Y26139254D01*
X80200126Y26075453D01*
X80263152Y26008551D01*
X80327142Y25941010D01*
X80389764Y25875290D01*
X80448690Y25813854D01*
X80501588Y25759163D01*
X80546128Y25713678D01*
X80579980Y25679862D01*
X80600812Y25660174D01*
X80606494Y25656163D01*
X80608366Y25669109D01*
X80612254Y25704866D01*
X80617943Y25761196D01*
X80625219Y25835860D01*
X80633869Y25926620D01*
X80643678Y26031238D01*
X80654434Y26147474D01*
X80665921Y26273092D01*
X80675093Y26374382D01*
X80686826Y26505721D01*
X80697665Y26629448D01*
X80707430Y26743319D01*
X80715937Y26845089D01*
X80723005Y26932513D01*
X80728451Y27003347D01*
X80732092Y27055347D01*
X80733747Y27086268D01*
X80733558Y27094297D01*
X80723666Y27087146D01*
X80698476Y27064159D01*
X80660190Y27027561D01*
X80611011Y26979578D01*
X80553139Y26922434D01*
X80488778Y26858353D01*
X80420129Y26789562D01*
X80349395Y26718284D01*
X80278778Y26646745D01*
X80210480Y26577170D01*
X80146704Y26511783D01*
X80089650Y26452809D01*
X80041522Y26402473D01*
X80004522Y26363001D01*
X79980852Y26336617D01*
X79972710Y26325594D01*
X79790467Y26325594D01*
X79689591Y26433705D01*
X79637232Y26489623D01*
X79578465Y26552052D01*
X79515615Y26618557D01*
X79451005Y26686702D01*
X79386958Y26754052D01*
X79325797Y26818172D01*
X79269847Y26876628D01*
X79221430Y26926982D01*
X79182870Y26966802D01*
X79156491Y26993650D01*
X79144616Y27005092D01*
X79144195Y27005326D01*
X79020604Y27005326D01*
X79008599Y27149274D01*
X78408062Y27780842D01*
X77807525Y28412411D01*
X77807966Y28500685D01*
X77808408Y28588960D01*
X77905417Y28485334D01*
X77959709Y28427537D01*
X78023808Y28359632D01*
X78095984Y28283428D01*
X78174508Y28200731D01*
X78257651Y28113347D01*
X78343681Y28023085D01*
X78430870Y27931750D01*
X78517487Y27841151D01*
X78601803Y27753093D01*
X78682088Y27669385D01*
X78756613Y27591833D01*
X78823646Y27522243D01*
X78881459Y27462424D01*
X78928321Y27414182D01*
X78962504Y27379324D01*
X78982276Y27359657D01*
X78986610Y27355884D01*
X78986908Y27369008D01*
X78985269Y27402611D01*
X78981977Y27452120D01*
X78977318Y27512963D01*
X78975318Y27537268D01*
X78960423Y27715049D01*
X79077045Y27715049D01*
X79083066Y27686757D01*
X79086137Y27664382D01*
X79090452Y27622283D01*
X79095512Y27565822D01*
X79100819Y27500365D01*
X79102656Y27476138D01*
X79108073Y27406579D01*
X79113541Y27341982D01*
X79118512Y27288452D01*
X79122439Y27252090D01*
X79123325Y27245491D01*
X79126666Y27231944D01*
X79133899Y27216086D01*
X79146560Y27196139D01*
X79166189Y27170327D01*
X79194322Y27136871D01*
X79232498Y27093993D01*
X79282254Y27039917D01*
X79345129Y26972864D01*
X79422659Y26891057D01*
X79501749Y26808050D01*
X79580436Y26725906D01*
X79653888Y26649831D01*
X79720276Y26581675D01*
X79777773Y26523288D01*
X79824549Y26476519D01*
X79858776Y26443218D01*
X79878627Y26425233D01*
X79882860Y26422558D01*
X79893997Y26432259D01*
X79920029Y26457559D01*
X79958430Y26495918D01*
X80006672Y26544800D01*
X80062230Y26601666D01*
X80102408Y26643094D01*
X80312169Y26860000D01*
X79693663Y26860000D01*
X79693663Y27098911D01*
X80448119Y27098911D01*
X80448119Y26992458D01*
X80586435Y27130346D01*
X80684553Y27228160D01*
X80875643Y27228160D01*
X80877471Y27212730D01*
X80886723Y27204133D01*
X80909050Y27200387D01*
X80950105Y27199511D01*
X80957376Y27199505D01*
X81039109Y27199505D01*
X81039109Y27418828D01*
X80957376Y27337821D01*
X80911270Y27288572D01*
X80883694Y27250841D01*
X80875643Y27228160D01*
X80684553Y27228160D01*
X80724752Y27268234D01*
X80724752Y27391048D01*
X80725137Y27447550D01*
X80726900Y27483495D01*
X80730950Y27503470D01*
X80738199Y27512063D01*
X80749130Y27513861D01*
X80761288Y27516502D01*
X80770273Y27527088D01*
X80777174Y27549619D01*
X80783076Y27588091D01*
X80789065Y27646502D01*
X80790987Y27667896D01*
X80795148Y27715049D01*
X79077045Y27715049D01*
X78960423Y27715049D01*
X78800891Y27715049D01*
X78800891Y27828218D01*
X78868686Y27828218D01*
X78908338Y27829304D01*
X78929884Y27834546D01*
X78932520Y27837666D01*
X79071384Y27837666D01*
X79078692Y27830538D01*
X79104007Y27828338D01*
X79121092Y27828218D01*
X79178119Y27828218D01*
X79390779Y27828218D01*
X80805302Y27828218D01*
X80757458Y27877214D01*
X80683150Y27937676D01*
X80591184Y27984309D01*
X80480002Y28017751D01*
X80369529Y28036247D01*
X80297227Y28044878D01*
X80297227Y27953960D01*
X79718812Y27953960D01*
X79718812Y28057107D01*
X79633935Y28048504D01*
X79574632Y28041244D01*
X79511449Y28031621D01*
X79473614Y28024748D01*
X79398168Y28009593D01*
X79394474Y27918905D01*
X79390779Y27828218D01*
X79178119Y27828218D01*
X79178119Y27878515D01*
X79176456Y27910024D01*
X79172303Y27927537D01*
X79170629Y27928812D01*
X79152013Y27920746D01*
X79124817Y27901180D01*
X79097552Y27877056D01*
X79078733Y27855318D01*
X79077057Y27852492D01*
X79071384Y27837666D01*
X78932520Y27837666D01*
X78940338Y27846919D01*
X78944558Y27860396D01*
X78961781Y27895373D01*
X78994862Y27937421D01*
X79038107Y27980644D01*
X79085826Y28019146D01*
X79117170Y28039199D01*
X79152877Y28061149D01*
X79171181Y28079589D01*
X79177612Y28101332D01*
X79178106Y28114282D01*
X79178106Y28117425D01*
X79819406Y28117425D01*
X79819406Y28054554D01*
X80196633Y28054554D01*
X80196633Y28117425D01*
X79819406Y28117425D01*
X79178106Y28117425D01*
X79178119Y28155148D01*
X79283952Y28155148D01*
X79332645Y28153971D01*
X79370595Y28150835D01*
X79391692Y28146329D01*
X79393977Y28144505D01*
X79407359Y28141705D01*
X79439926Y28142852D01*
X79486084Y28147607D01*
X79517624Y28151997D01*
X79574812Y28160622D01*
X79627114Y28168409D01*
X79666418Y28174153D01*
X79677945Y28175785D01*
X79708063Y28185112D01*
X79718812Y28199728D01*
X79722080Y28205680D01*
X79733770Y28210222D01*
X79756712Y28213530D01*
X79793735Y28215785D01*
X79847668Y28217166D01*
X79921340Y28217850D01*
X80008020Y28218020D01*
X80100529Y28217923D01*
X80170906Y28217470D01*
X80222164Y28216410D01*
X80257320Y28214497D01*
X80279389Y28211481D01*
X80291385Y28207115D01*
X80296324Y28201151D01*
X80297227Y28194216D01*
X80304921Y28172205D01*
X80330121Y28159679D01*
X80376009Y28155212D01*
X80384264Y28155148D01*
X80461973Y28147132D01*
X80550233Y28125064D01*
X80641085Y28091916D01*
X80726570Y28050661D01*
X80798726Y28004269D01*
X80808072Y27996918D01*
X80838533Y27973002D01*
X80856572Y27963424D01*
X80869169Y27966520D01*
X80882100Y27979296D01*
X80920293Y28004322D01*
X80969998Y28013929D01*
X81023524Y28008933D01*
X81073178Y27990149D01*
X81111267Y27958394D01*
X81114025Y27954703D01*
X81142526Y27895425D01*
X81147828Y27834066D01*
X81130518Y27775573D01*
X81091180Y27724896D01*
X81086370Y27720711D01*
X81058440Y27700833D01*
X81030102Y27692079D01*
X80990263Y27691447D01*
X80980311Y27692008D01*
X80941332Y27693438D01*
X80921254Y27690161D01*
X80913985Y27680272D01*
X80913240Y27671039D01*
X80911716Y27644256D01*
X80907935Y27603975D01*
X80905218Y27579876D01*
X80901277Y27541599D01*
X80902916Y27522004D01*
X80912421Y27514842D01*
X80929351Y27513861D01*
X80939392Y27517099D01*
X80955590Y27527580D01*
X80979145Y27546452D01*
X81011257Y27574865D01*
X81053128Y27613965D01*
X81105957Y27664903D01*
X81170945Y27728827D01*
X81249291Y27806886D01*
X81342197Y27900228D01*
X81450863Y28010002D01*
X81503231Y28063048D01*
X82045049Y28612233D01*
X82044430Y28525152D01*
G04 #@! TO.C,R20*
D10*
X45231904Y24555715D02*
X44850952Y24289048D01*
X45231904Y24098572D02*
X44431904Y24098572D01*
X44431904Y24403334D01*
X44470000Y24479524D01*
X44508095Y24517620D01*
X44584285Y24555715D01*
X44698571Y24555715D01*
X44774761Y24517620D01*
X44812857Y24479524D01*
X44850952Y24403334D01*
X44850952Y24098572D01*
X44508095Y24860477D02*
X44470000Y24898572D01*
X44431904Y24974762D01*
X44431904Y25165239D01*
X44470000Y25241429D01*
X44508095Y25279524D01*
X44584285Y25317620D01*
X44660476Y25317620D01*
X44774761Y25279524D01*
X45231904Y24822381D01*
X45231904Y25317620D01*
X44431904Y25812858D02*
X44431904Y25889048D01*
X44470000Y25965239D01*
X44508095Y26003334D01*
X44584285Y26041429D01*
X44736666Y26079524D01*
X44927142Y26079524D01*
X45079523Y26041429D01*
X45155714Y26003334D01*
X45193809Y25965239D01*
X45231904Y25889048D01*
X45231904Y25812858D01*
X45193809Y25736667D01*
X45155714Y25698572D01*
X45079523Y25660477D01*
X44927142Y25622381D01*
X44736666Y25622381D01*
X44584285Y25660477D01*
X44508095Y25698572D01*
X44470000Y25736667D01*
X44431904Y25812858D01*
G04 #@! TO.C,VIO-3V*
X78448095Y42248096D02*
X78714762Y41448096D01*
X78981429Y42248096D01*
X79248095Y41448096D02*
X79248095Y42248096D01*
X79781429Y42248096D02*
X79933810Y42248096D01*
X80010000Y42210000D01*
X80086191Y42133810D01*
X80124286Y41981429D01*
X80124286Y41714762D01*
X80086191Y41562381D01*
X80010000Y41486191D01*
X79933810Y41448096D01*
X79781429Y41448096D01*
X79705238Y41486191D01*
X79629048Y41562381D01*
X79590953Y41714762D01*
X79590953Y41981429D01*
X79629048Y42133810D01*
X79705238Y42210000D01*
X79781429Y42248096D01*
X80467143Y41752858D02*
X81076667Y41752858D01*
X81381429Y42248096D02*
X81876667Y42248096D01*
X81610000Y41943334D01*
X81724286Y41943334D01*
X81800476Y41905239D01*
X81838572Y41867143D01*
X81876667Y41790953D01*
X81876667Y41600477D01*
X81838572Y41524286D01*
X81800476Y41486191D01*
X81724286Y41448096D01*
X81495714Y41448096D01*
X81419524Y41486191D01*
X81381429Y41524286D01*
X82105238Y42248096D02*
X82371905Y41448096D01*
X82638572Y42248096D01*
G04 #@! TO.C,U1*
X59170476Y33408096D02*
X59170476Y32760477D01*
X59208571Y32684286D01*
X59246666Y32646191D01*
X59322857Y32608096D01*
X59475238Y32608096D01*
X59551428Y32646191D01*
X59589523Y32684286D01*
X59627619Y32760477D01*
X59627619Y33408096D01*
X60427619Y32608096D02*
X59970476Y32608096D01*
X60199047Y32608096D02*
X60199047Y33408096D01*
X60122857Y33293810D01*
X60046666Y33217620D01*
X59970476Y33179524D01*
G04 #@! TO.C,5V*
X20729523Y4778096D02*
X20348570Y4778096D01*
X20310475Y4397143D01*
X20348570Y4435239D01*
X20424761Y4473334D01*
X20615237Y4473334D01*
X20691427Y4435239D01*
X20729523Y4397143D01*
X20767618Y4320953D01*
X20767618Y4130477D01*
X20729523Y4054286D01*
X20691427Y4016191D01*
X20615237Y3978096D01*
X20424761Y3978096D01*
X20348570Y4016191D01*
X20310475Y4054286D01*
X20996189Y4778096D02*
X21262856Y3978096D01*
X21529523Y4778096D01*
G04 #@! TO.C,BATT*
X19534761Y45997143D02*
X19649047Y45959048D01*
X19687142Y45920953D01*
X19725238Y45844762D01*
X19725238Y45730477D01*
X19687142Y45654286D01*
X19649047Y45616191D01*
X19572857Y45578096D01*
X19268095Y45578096D01*
X19268095Y46378096D01*
X19534761Y46378096D01*
X19610952Y46340000D01*
X19649047Y46301905D01*
X19687142Y46225715D01*
X19687142Y46149524D01*
X19649047Y46073334D01*
X19610952Y46035239D01*
X19534761Y45997143D01*
X19268095Y45997143D01*
X20030000Y45806667D02*
X20410952Y45806667D01*
X19953809Y45578096D02*
X20220476Y46378096D01*
X20487142Y45578096D01*
X20639523Y46378096D02*
X21096666Y46378096D01*
X20868095Y45578096D02*
X20868095Y46378096D01*
X21249047Y46378096D02*
X21706190Y46378096D01*
X21477619Y45578096D02*
X21477619Y46378096D01*
G04 #@! TO.C,C5*
X61685714Y13255714D02*
X61723809Y13217619D01*
X61761904Y13103333D01*
X61761904Y13027143D01*
X61723809Y12912857D01*
X61647619Y12836667D01*
X61571428Y12798571D01*
X61419047Y12760476D01*
X61304761Y12760476D01*
X61152380Y12798571D01*
X61076190Y12836667D01*
X61000000Y12912857D01*
X60961904Y13027143D01*
X60961904Y13103333D01*
X61000000Y13217619D01*
X61038095Y13255714D01*
X60961904Y13979524D02*
X60961904Y13598571D01*
X61342857Y13560476D01*
X61304761Y13598571D01*
X61266666Y13674762D01*
X61266666Y13865238D01*
X61304761Y13941428D01*
X61342857Y13979524D01*
X61419047Y14017619D01*
X61609523Y14017619D01*
X61685714Y13979524D01*
X61723809Y13941428D01*
X61761904Y13865238D01*
X61761904Y13674762D01*
X61723809Y13598571D01*
X61685714Y13560476D01*
G04 #@! TO.C,C6*
X69386666Y13544286D02*
X69348571Y13506191D01*
X69234285Y13468096D01*
X69158095Y13468096D01*
X69043809Y13506191D01*
X68967619Y13582381D01*
X68929523Y13658572D01*
X68891428Y13810953D01*
X68891428Y13925239D01*
X68929523Y14077620D01*
X68967619Y14153810D01*
X69043809Y14230000D01*
X69158095Y14268096D01*
X69234285Y14268096D01*
X69348571Y14230000D01*
X69386666Y14191905D01*
X70072380Y14268096D02*
X69920000Y14268096D01*
X69843809Y14230000D01*
X69805714Y14191905D01*
X69729523Y14077620D01*
X69691428Y13925239D01*
X69691428Y13620477D01*
X69729523Y13544286D01*
X69767619Y13506191D01*
X69843809Y13468096D01*
X69996190Y13468096D01*
X70072380Y13506191D01*
X70110476Y13544286D01*
X70148571Y13620477D01*
X70148571Y13810953D01*
X70110476Y13887143D01*
X70072380Y13925239D01*
X69996190Y13963334D01*
X69843809Y13963334D01*
X69767619Y13925239D01*
X69729523Y13887143D01*
X69691428Y13810953D01*
G04 #@! TO.C,C7*
X82835713Y24184286D02*
X82797618Y24146191D01*
X82683332Y24108096D01*
X82607142Y24108096D01*
X82492856Y24146191D01*
X82416666Y24222381D01*
X82378570Y24298572D01*
X82340475Y24450953D01*
X82340475Y24565239D01*
X82378570Y24717620D01*
X82416666Y24793810D01*
X82492856Y24870000D01*
X82607142Y24908096D01*
X82683332Y24908096D01*
X82797618Y24870000D01*
X82835713Y24831905D01*
X83102380Y24908096D02*
X83635713Y24908096D01*
X83292856Y24108096D01*
G04 #@! TO.C,C8*
X58545714Y40685714D02*
X58583809Y40647619D01*
X58621904Y40533333D01*
X58621904Y40457143D01*
X58583809Y40342857D01*
X58507619Y40266667D01*
X58431428Y40228571D01*
X58279047Y40190476D01*
X58164761Y40190476D01*
X58012380Y40228571D01*
X57936190Y40266667D01*
X57860000Y40342857D01*
X57821904Y40457143D01*
X57821904Y40533333D01*
X57860000Y40647619D01*
X57898095Y40685714D01*
X58164761Y41142857D02*
X58126666Y41066667D01*
X58088571Y41028571D01*
X58012380Y40990476D01*
X57974285Y40990476D01*
X57898095Y41028571D01*
X57860000Y41066667D01*
X57821904Y41142857D01*
X57821904Y41295238D01*
X57860000Y41371428D01*
X57898095Y41409524D01*
X57974285Y41447619D01*
X58012380Y41447619D01*
X58088571Y41409524D01*
X58126666Y41371428D01*
X58164761Y41295238D01*
X58164761Y41142857D01*
X58202857Y41066667D01*
X58240952Y41028571D01*
X58317142Y40990476D01*
X58469523Y40990476D01*
X58545714Y41028571D01*
X58583809Y41066667D01*
X58621904Y41142857D01*
X58621904Y41295238D01*
X58583809Y41371428D01*
X58545714Y41409524D01*
X58469523Y41447619D01*
X58317142Y41447619D01*
X58240952Y41409524D01*
X58202857Y41371428D01*
X58164761Y41295238D01*
G04 #@! TO.C,C9*
X53905713Y34004286D02*
X53867618Y33966191D01*
X53753332Y33928096D01*
X53677142Y33928096D01*
X53562856Y33966191D01*
X53486666Y34042381D01*
X53448570Y34118572D01*
X53410475Y34270953D01*
X53410475Y34385239D01*
X53448570Y34537620D01*
X53486666Y34613810D01*
X53562856Y34690000D01*
X53677142Y34728096D01*
X53753332Y34728096D01*
X53867618Y34690000D01*
X53905713Y34651905D01*
X54286666Y33928096D02*
X54439047Y33928096D01*
X54515237Y33966191D01*
X54553332Y34004286D01*
X54629523Y34118572D01*
X54667618Y34270953D01*
X54667618Y34575715D01*
X54629523Y34651905D01*
X54591427Y34690000D01*
X54515237Y34728096D01*
X54362856Y34728096D01*
X54286666Y34690000D01*
X54248570Y34651905D01*
X54210475Y34575715D01*
X54210475Y34385239D01*
X54248570Y34309048D01*
X54286666Y34270953D01*
X54362856Y34232858D01*
X54515237Y34232858D01*
X54591427Y34270953D01*
X54629523Y34309048D01*
X54667618Y34385239D01*
G04 #@! TO.C,C10*
X53905714Y30994286D02*
X53867619Y30956191D01*
X53753333Y30918096D01*
X53677142Y30918096D01*
X53562857Y30956191D01*
X53486666Y31032381D01*
X53448571Y31108572D01*
X53410476Y31260953D01*
X53410476Y31375239D01*
X53448571Y31527620D01*
X53486666Y31603810D01*
X53562857Y31680000D01*
X53677142Y31718096D01*
X53753333Y31718096D01*
X53867619Y31680000D01*
X53905714Y31641905D01*
X54667619Y30918096D02*
X54210476Y30918096D01*
X54439047Y30918096D02*
X54439047Y31718096D01*
X54362857Y31603810D01*
X54286666Y31527620D01*
X54210476Y31489524D01*
X55162857Y31718096D02*
X55239047Y31718096D01*
X55315238Y31680000D01*
X55353333Y31641905D01*
X55391428Y31565715D01*
X55429523Y31413334D01*
X55429523Y31222858D01*
X55391428Y31070477D01*
X55353333Y30994286D01*
X55315238Y30956191D01*
X55239047Y30918096D01*
X55162857Y30918096D01*
X55086666Y30956191D01*
X55048571Y30994286D01*
X55010476Y31070477D01*
X54972380Y31222858D01*
X54972380Y31413334D01*
X55010476Y31565715D01*
X55048571Y31641905D01*
X55086666Y31680000D01*
X55162857Y31718096D01*
G04 #@! TO.C,C11*
X58105714Y28545715D02*
X58143809Y28507620D01*
X58181904Y28393334D01*
X58181904Y28317143D01*
X58143809Y28202858D01*
X58067619Y28126667D01*
X57991428Y28088572D01*
X57839047Y28050477D01*
X57724761Y28050477D01*
X57572380Y28088572D01*
X57496190Y28126667D01*
X57420000Y28202858D01*
X57381904Y28317143D01*
X57381904Y28393334D01*
X57420000Y28507620D01*
X57458095Y28545715D01*
X58181904Y29307620D02*
X58181904Y28850477D01*
X58181904Y29079048D02*
X57381904Y29079048D01*
X57496190Y29002858D01*
X57572380Y28926667D01*
X57610476Y28850477D01*
X58181904Y30069524D02*
X58181904Y29612381D01*
X58181904Y29840953D02*
X57381904Y29840953D01*
X57496190Y29764762D01*
X57572380Y29688572D01*
X57610476Y29612381D01*
G04 #@! TO.C,C12*
X55855714Y40685715D02*
X55893809Y40647620D01*
X55931904Y40533334D01*
X55931904Y40457143D01*
X55893809Y40342858D01*
X55817619Y40266667D01*
X55741428Y40228572D01*
X55589047Y40190477D01*
X55474761Y40190477D01*
X55322380Y40228572D01*
X55246190Y40266667D01*
X55170000Y40342858D01*
X55131904Y40457143D01*
X55131904Y40533334D01*
X55170000Y40647620D01*
X55208095Y40685715D01*
X55931904Y41447620D02*
X55931904Y40990477D01*
X55931904Y41219048D02*
X55131904Y41219048D01*
X55246190Y41142858D01*
X55322380Y41066667D01*
X55360476Y40990477D01*
X55208095Y41752381D02*
X55170000Y41790477D01*
X55131904Y41866667D01*
X55131904Y42057143D01*
X55170000Y42133334D01*
X55208095Y42171429D01*
X55284285Y42209524D01*
X55360476Y42209524D01*
X55474761Y42171429D01*
X55931904Y41714286D01*
X55931904Y42209524D01*
G04 #@! TO.C,C13*
X55375714Y11974286D02*
X55337619Y11936191D01*
X55223333Y11898096D01*
X55147142Y11898096D01*
X55032857Y11936191D01*
X54956666Y12012381D01*
X54918571Y12088572D01*
X54880476Y12240953D01*
X54880476Y12355239D01*
X54918571Y12507620D01*
X54956666Y12583810D01*
X55032857Y12660000D01*
X55147142Y12698096D01*
X55223333Y12698096D01*
X55337619Y12660000D01*
X55375714Y12621905D01*
X56137619Y11898096D02*
X55680476Y11898096D01*
X55909047Y11898096D02*
X55909047Y12698096D01*
X55832857Y12583810D01*
X55756666Y12507620D01*
X55680476Y12469524D01*
X56404285Y12698096D02*
X56899523Y12698096D01*
X56632857Y12393334D01*
X56747142Y12393334D01*
X56823333Y12355239D01*
X56861428Y12317143D01*
X56899523Y12240953D01*
X56899523Y12050477D01*
X56861428Y11974286D01*
X56823333Y11936191D01*
X56747142Y11898096D01*
X56518571Y11898096D01*
X56442380Y11936191D01*
X56404285Y11974286D01*
G04 #@! TO.C,C14*
X53605714Y14235715D02*
X53643809Y14197620D01*
X53681904Y14083334D01*
X53681904Y14007143D01*
X53643809Y13892858D01*
X53567619Y13816667D01*
X53491428Y13778572D01*
X53339047Y13740477D01*
X53224761Y13740477D01*
X53072380Y13778572D01*
X52996190Y13816667D01*
X52920000Y13892858D01*
X52881904Y14007143D01*
X52881904Y14083334D01*
X52920000Y14197620D01*
X52958095Y14235715D01*
X53681904Y14997620D02*
X53681904Y14540477D01*
X53681904Y14769048D02*
X52881904Y14769048D01*
X52996190Y14692858D01*
X53072380Y14616667D01*
X53110476Y14540477D01*
X53148571Y15683334D02*
X53681904Y15683334D01*
X52843809Y15492858D02*
X53415238Y15302381D01*
X53415238Y15797620D01*
G04 #@! TO.C,C15*
X53905714Y31994286D02*
X53867619Y31956191D01*
X53753333Y31918096D01*
X53677142Y31918096D01*
X53562857Y31956191D01*
X53486666Y32032381D01*
X53448571Y32108572D01*
X53410476Y32260953D01*
X53410476Y32375239D01*
X53448571Y32527620D01*
X53486666Y32603810D01*
X53562857Y32680000D01*
X53677142Y32718096D01*
X53753333Y32718096D01*
X53867619Y32680000D01*
X53905714Y32641905D01*
X54667619Y31918096D02*
X54210476Y31918096D01*
X54439047Y31918096D02*
X54439047Y32718096D01*
X54362857Y32603810D01*
X54286666Y32527620D01*
X54210476Y32489524D01*
X55391428Y32718096D02*
X55010476Y32718096D01*
X54972380Y32337143D01*
X55010476Y32375239D01*
X55086666Y32413334D01*
X55277142Y32413334D01*
X55353333Y32375239D01*
X55391428Y32337143D01*
X55429523Y32260953D01*
X55429523Y32070477D01*
X55391428Y31994286D01*
X55353333Y31956191D01*
X55277142Y31918096D01*
X55086666Y31918096D01*
X55010476Y31956191D01*
X54972380Y31994286D01*
G04 #@! TO.C,C16*
X82835714Y25534286D02*
X82797619Y25496191D01*
X82683333Y25458096D01*
X82607142Y25458096D01*
X82492857Y25496191D01*
X82416666Y25572381D01*
X82378571Y25648572D01*
X82340476Y25800953D01*
X82340476Y25915239D01*
X82378571Y26067620D01*
X82416666Y26143810D01*
X82492857Y26220000D01*
X82607142Y26258096D01*
X82683333Y26258096D01*
X82797619Y26220000D01*
X82835714Y26181905D01*
X83597619Y25458096D02*
X83140476Y25458096D01*
X83369047Y25458096D02*
X83369047Y26258096D01*
X83292857Y26143810D01*
X83216666Y26067620D01*
X83140476Y26029524D01*
X84283333Y26258096D02*
X84130952Y26258096D01*
X84054761Y26220000D01*
X84016666Y26181905D01*
X83940476Y26067620D01*
X83902380Y25915239D01*
X83902380Y25610477D01*
X83940476Y25534286D01*
X83978571Y25496191D01*
X84054761Y25458096D01*
X84207142Y25458096D01*
X84283333Y25496191D01*
X84321428Y25534286D01*
X84359523Y25610477D01*
X84359523Y25800953D01*
X84321428Y25877143D01*
X84283333Y25915239D01*
X84207142Y25953334D01*
X84054761Y25953334D01*
X83978571Y25915239D01*
X83940476Y25877143D01*
X83902380Y25800953D01*
G04 #@! TO.C,C17*
X61295714Y40685715D02*
X61333809Y40647620D01*
X61371904Y40533334D01*
X61371904Y40457143D01*
X61333809Y40342858D01*
X61257619Y40266667D01*
X61181428Y40228572D01*
X61029047Y40190477D01*
X60914761Y40190477D01*
X60762380Y40228572D01*
X60686190Y40266667D01*
X60610000Y40342858D01*
X60571904Y40457143D01*
X60571904Y40533334D01*
X60610000Y40647620D01*
X60648095Y40685715D01*
X61371904Y41447620D02*
X61371904Y40990477D01*
X61371904Y41219048D02*
X60571904Y41219048D01*
X60686190Y41142858D01*
X60762380Y41066667D01*
X60800476Y40990477D01*
X60571904Y41714286D02*
X60571904Y42247620D01*
X61371904Y41904762D01*
G04 #@! TO.C,C18*
X62725714Y13255715D02*
X62763809Y13217620D01*
X62801904Y13103334D01*
X62801904Y13027143D01*
X62763809Y12912858D01*
X62687619Y12836667D01*
X62611428Y12798572D01*
X62459047Y12760477D01*
X62344761Y12760477D01*
X62192380Y12798572D01*
X62116190Y12836667D01*
X62040000Y12912858D01*
X62001904Y13027143D01*
X62001904Y13103334D01*
X62040000Y13217620D01*
X62078095Y13255715D01*
X62801904Y14017620D02*
X62801904Y13560477D01*
X62801904Y13789048D02*
X62001904Y13789048D01*
X62116190Y13712858D01*
X62192380Y13636667D01*
X62230476Y13560477D01*
X62344761Y14474762D02*
X62306666Y14398572D01*
X62268571Y14360477D01*
X62192380Y14322381D01*
X62154285Y14322381D01*
X62078095Y14360477D01*
X62040000Y14398572D01*
X62001904Y14474762D01*
X62001904Y14627143D01*
X62040000Y14703334D01*
X62078095Y14741429D01*
X62154285Y14779524D01*
X62192380Y14779524D01*
X62268571Y14741429D01*
X62306666Y14703334D01*
X62344761Y14627143D01*
X62344761Y14474762D01*
X62382857Y14398572D01*
X62420952Y14360477D01*
X62497142Y14322381D01*
X62649523Y14322381D01*
X62725714Y14360477D01*
X62763809Y14398572D01*
X62801904Y14474762D01*
X62801904Y14627143D01*
X62763809Y14703334D01*
X62725714Y14741429D01*
X62649523Y14779524D01*
X62497142Y14779524D01*
X62420952Y14741429D01*
X62382857Y14703334D01*
X62344761Y14627143D01*
G04 #@! TO.C,C19*
X53905714Y29994286D02*
X53867619Y29956191D01*
X53753333Y29918096D01*
X53677142Y29918096D01*
X53562857Y29956191D01*
X53486666Y30032381D01*
X53448571Y30108572D01*
X53410476Y30260953D01*
X53410476Y30375239D01*
X53448571Y30527620D01*
X53486666Y30603810D01*
X53562857Y30680000D01*
X53677142Y30718096D01*
X53753333Y30718096D01*
X53867619Y30680000D01*
X53905714Y30641905D01*
X54667619Y29918096D02*
X54210476Y29918096D01*
X54439047Y29918096D02*
X54439047Y30718096D01*
X54362857Y30603810D01*
X54286666Y30527620D01*
X54210476Y30489524D01*
X55048571Y29918096D02*
X55200952Y29918096D01*
X55277142Y29956191D01*
X55315238Y29994286D01*
X55391428Y30108572D01*
X55429523Y30260953D01*
X55429523Y30565715D01*
X55391428Y30641905D01*
X55353333Y30680000D01*
X55277142Y30718096D01*
X55124761Y30718096D01*
X55048571Y30680000D01*
X55010476Y30641905D01*
X54972380Y30565715D01*
X54972380Y30375239D01*
X55010476Y30299048D01*
X55048571Y30260953D01*
X55124761Y30222858D01*
X55277142Y30222858D01*
X55353333Y30260953D01*
X55391428Y30299048D01*
X55429523Y30375239D01*
G04 #@! TO.C,C20*
X58105714Y20455715D02*
X58143809Y20417620D01*
X58181904Y20303334D01*
X58181904Y20227143D01*
X58143809Y20112858D01*
X58067619Y20036667D01*
X57991428Y19998572D01*
X57839047Y19960477D01*
X57724761Y19960477D01*
X57572380Y19998572D01*
X57496190Y20036667D01*
X57420000Y20112858D01*
X57381904Y20227143D01*
X57381904Y20303334D01*
X57420000Y20417620D01*
X57458095Y20455715D01*
X57458095Y20760477D02*
X57420000Y20798572D01*
X57381904Y20874762D01*
X57381904Y21065239D01*
X57420000Y21141429D01*
X57458095Y21179524D01*
X57534285Y21217620D01*
X57610476Y21217620D01*
X57724761Y21179524D01*
X58181904Y20722381D01*
X58181904Y21217620D01*
X57381904Y21712858D02*
X57381904Y21789048D01*
X57420000Y21865239D01*
X57458095Y21903334D01*
X57534285Y21941429D01*
X57686666Y21979524D01*
X57877142Y21979524D01*
X58029523Y21941429D01*
X58105714Y21903334D01*
X58143809Y21865239D01*
X58181904Y21789048D01*
X58181904Y21712858D01*
X58143809Y21636667D01*
X58105714Y21598572D01*
X58029523Y21560477D01*
X57877142Y21522381D01*
X57686666Y21522381D01*
X57534285Y21560477D01*
X57458095Y21598572D01*
X57420000Y21636667D01*
X57381904Y21712858D01*
G04 #@! TO.C,C21*
X58105714Y23145715D02*
X58143809Y23107620D01*
X58181904Y22993334D01*
X58181904Y22917143D01*
X58143809Y22802858D01*
X58067619Y22726667D01*
X57991428Y22688572D01*
X57839047Y22650477D01*
X57724761Y22650477D01*
X57572380Y22688572D01*
X57496190Y22726667D01*
X57420000Y22802858D01*
X57381904Y22917143D01*
X57381904Y22993334D01*
X57420000Y23107620D01*
X57458095Y23145715D01*
X57458095Y23450477D02*
X57420000Y23488572D01*
X57381904Y23564762D01*
X57381904Y23755239D01*
X57420000Y23831429D01*
X57458095Y23869524D01*
X57534285Y23907620D01*
X57610476Y23907620D01*
X57724761Y23869524D01*
X58181904Y23412381D01*
X58181904Y23907620D01*
X58181904Y24669524D02*
X58181904Y24212381D01*
X58181904Y24440953D02*
X57381904Y24440953D01*
X57496190Y24364762D01*
X57572380Y24288572D01*
X57610476Y24212381D01*
G04 #@! TO.C,C22*
X53715714Y21775715D02*
X53753809Y21737620D01*
X53791904Y21623334D01*
X53791904Y21547143D01*
X53753809Y21432858D01*
X53677619Y21356667D01*
X53601428Y21318572D01*
X53449047Y21280477D01*
X53334761Y21280477D01*
X53182380Y21318572D01*
X53106190Y21356667D01*
X53030000Y21432858D01*
X52991904Y21547143D01*
X52991904Y21623334D01*
X53030000Y21737620D01*
X53068095Y21775715D01*
X53068095Y22080477D02*
X53030000Y22118572D01*
X52991904Y22194762D01*
X52991904Y22385239D01*
X53030000Y22461429D01*
X53068095Y22499524D01*
X53144285Y22537620D01*
X53220476Y22537620D01*
X53334761Y22499524D01*
X53791904Y22042381D01*
X53791904Y22537620D01*
X53068095Y22842381D02*
X53030000Y22880477D01*
X52991904Y22956667D01*
X52991904Y23147143D01*
X53030000Y23223334D01*
X53068095Y23261429D01*
X53144285Y23299524D01*
X53220476Y23299524D01*
X53334761Y23261429D01*
X53791904Y22804286D01*
X53791904Y23299524D01*
G04 #@! TO.C,C23*
X82835714Y26904286D02*
X82797619Y26866191D01*
X82683333Y26828096D01*
X82607142Y26828096D01*
X82492857Y26866191D01*
X82416666Y26942381D01*
X82378571Y27018572D01*
X82340476Y27170953D01*
X82340476Y27285239D01*
X82378571Y27437620D01*
X82416666Y27513810D01*
X82492857Y27590000D01*
X82607142Y27628096D01*
X82683333Y27628096D01*
X82797619Y27590000D01*
X82835714Y27551905D01*
X83140476Y27551905D02*
X83178571Y27590000D01*
X83254761Y27628096D01*
X83445238Y27628096D01*
X83521428Y27590000D01*
X83559523Y27551905D01*
X83597619Y27475715D01*
X83597619Y27399524D01*
X83559523Y27285239D01*
X83102380Y26828096D01*
X83597619Y26828096D01*
X83864285Y27628096D02*
X84359523Y27628096D01*
X84092857Y27323334D01*
X84207142Y27323334D01*
X84283333Y27285239D01*
X84321428Y27247143D01*
X84359523Y27170953D01*
X84359523Y26980477D01*
X84321428Y26904286D01*
X84283333Y26866191D01*
X84207142Y26828096D01*
X83978571Y26828096D01*
X83902380Y26866191D01*
X83864285Y26904286D01*
G04 #@! TO.C,C24*
X59885714Y40685715D02*
X59923809Y40647620D01*
X59961904Y40533334D01*
X59961904Y40457143D01*
X59923809Y40342858D01*
X59847619Y40266667D01*
X59771428Y40228572D01*
X59619047Y40190477D01*
X59504761Y40190477D01*
X59352380Y40228572D01*
X59276190Y40266667D01*
X59200000Y40342858D01*
X59161904Y40457143D01*
X59161904Y40533334D01*
X59200000Y40647620D01*
X59238095Y40685715D01*
X59238095Y40990477D02*
X59200000Y41028572D01*
X59161904Y41104762D01*
X59161904Y41295239D01*
X59200000Y41371429D01*
X59238095Y41409524D01*
X59314285Y41447620D01*
X59390476Y41447620D01*
X59504761Y41409524D01*
X59961904Y40952381D01*
X59961904Y41447620D01*
X59428571Y42133334D02*
X59961904Y42133334D01*
X59123809Y41942858D02*
X59695238Y41752381D01*
X59695238Y42247620D01*
G04 #@! TO.C,C25*
X53905714Y33004286D02*
X53867619Y32966191D01*
X53753333Y32928096D01*
X53677142Y32928096D01*
X53562857Y32966191D01*
X53486666Y33042381D01*
X53448571Y33118572D01*
X53410476Y33270953D01*
X53410476Y33385239D01*
X53448571Y33537620D01*
X53486666Y33613810D01*
X53562857Y33690000D01*
X53677142Y33728096D01*
X53753333Y33728096D01*
X53867619Y33690000D01*
X53905714Y33651905D01*
X54210476Y33651905D02*
X54248571Y33690000D01*
X54324761Y33728096D01*
X54515238Y33728096D01*
X54591428Y33690000D01*
X54629523Y33651905D01*
X54667619Y33575715D01*
X54667619Y33499524D01*
X54629523Y33385239D01*
X54172380Y32928096D01*
X54667619Y32928096D01*
X55391428Y33728096D02*
X55010476Y33728096D01*
X54972380Y33347143D01*
X55010476Y33385239D01*
X55086666Y33423334D01*
X55277142Y33423334D01*
X55353333Y33385239D01*
X55391428Y33347143D01*
X55429523Y33270953D01*
X55429523Y33080477D01*
X55391428Y33004286D01*
X55353333Y32966191D01*
X55277142Y32928096D01*
X55086666Y32928096D01*
X55010476Y32966191D01*
X54972380Y33004286D01*
G04 #@! TO.C,C26*
X57205714Y40685715D02*
X57243809Y40647620D01*
X57281904Y40533334D01*
X57281904Y40457143D01*
X57243809Y40342858D01*
X57167619Y40266667D01*
X57091428Y40228572D01*
X56939047Y40190477D01*
X56824761Y40190477D01*
X56672380Y40228572D01*
X56596190Y40266667D01*
X56520000Y40342858D01*
X56481904Y40457143D01*
X56481904Y40533334D01*
X56520000Y40647620D01*
X56558095Y40685715D01*
X56558095Y40990477D02*
X56520000Y41028572D01*
X56481904Y41104762D01*
X56481904Y41295239D01*
X56520000Y41371429D01*
X56558095Y41409524D01*
X56634285Y41447620D01*
X56710476Y41447620D01*
X56824761Y41409524D01*
X57281904Y40952381D01*
X57281904Y41447620D01*
X56481904Y42133334D02*
X56481904Y41980953D01*
X56520000Y41904762D01*
X56558095Y41866667D01*
X56672380Y41790477D01*
X56824761Y41752381D01*
X57129523Y41752381D01*
X57205714Y41790477D01*
X57243809Y41828572D01*
X57281904Y41904762D01*
X57281904Y42057143D01*
X57243809Y42133334D01*
X57205714Y42171429D01*
X57129523Y42209524D01*
X56939047Y42209524D01*
X56862857Y42171429D01*
X56824761Y42133334D01*
X56786666Y42057143D01*
X56786666Y41904762D01*
X56824761Y41828572D01*
X56862857Y41790477D01*
X56939047Y41752381D01*
G04 #@! TO.C,C27*
X62605714Y40685715D02*
X62643809Y40647620D01*
X62681904Y40533334D01*
X62681904Y40457143D01*
X62643809Y40342858D01*
X62567619Y40266667D01*
X62491428Y40228572D01*
X62339047Y40190477D01*
X62224761Y40190477D01*
X62072380Y40228572D01*
X61996190Y40266667D01*
X61920000Y40342858D01*
X61881904Y40457143D01*
X61881904Y40533334D01*
X61920000Y40647620D01*
X61958095Y40685715D01*
X61958095Y40990477D02*
X61920000Y41028572D01*
X61881904Y41104762D01*
X61881904Y41295239D01*
X61920000Y41371429D01*
X61958095Y41409524D01*
X62034285Y41447620D01*
X62110476Y41447620D01*
X62224761Y41409524D01*
X62681904Y40952381D01*
X62681904Y41447620D01*
X61881904Y41714286D02*
X61881904Y42247620D01*
X62681904Y41904762D01*
G04 #@! TO.C,C28*
X53715714Y24485715D02*
X53753809Y24447620D01*
X53791904Y24333334D01*
X53791904Y24257143D01*
X53753809Y24142858D01*
X53677619Y24066667D01*
X53601428Y24028572D01*
X53449047Y23990477D01*
X53334761Y23990477D01*
X53182380Y24028572D01*
X53106190Y24066667D01*
X53030000Y24142858D01*
X52991904Y24257143D01*
X52991904Y24333334D01*
X53030000Y24447620D01*
X53068095Y24485715D01*
X53068095Y24790477D02*
X53030000Y24828572D01*
X52991904Y24904762D01*
X52991904Y25095239D01*
X53030000Y25171429D01*
X53068095Y25209524D01*
X53144285Y25247620D01*
X53220476Y25247620D01*
X53334761Y25209524D01*
X53791904Y24752381D01*
X53791904Y25247620D01*
X53334761Y25704762D02*
X53296666Y25628572D01*
X53258571Y25590477D01*
X53182380Y25552381D01*
X53144285Y25552381D01*
X53068095Y25590477D01*
X53030000Y25628572D01*
X52991904Y25704762D01*
X52991904Y25857143D01*
X53030000Y25933334D01*
X53068095Y25971429D01*
X53144285Y26009524D01*
X53182380Y26009524D01*
X53258571Y25971429D01*
X53296666Y25933334D01*
X53334761Y25857143D01*
X53334761Y25704762D01*
X53372857Y25628572D01*
X53410952Y25590477D01*
X53487142Y25552381D01*
X53639523Y25552381D01*
X53715714Y25590477D01*
X53753809Y25628572D01*
X53791904Y25704762D01*
X53791904Y25857143D01*
X53753809Y25933334D01*
X53715714Y25971429D01*
X53639523Y26009524D01*
X53487142Y26009524D01*
X53410952Y25971429D01*
X53372857Y25933334D01*
X53334761Y25857143D01*
G04 #@! TO.C,C29*
X53715714Y27195715D02*
X53753809Y27157620D01*
X53791904Y27043334D01*
X53791904Y26967143D01*
X53753809Y26852858D01*
X53677619Y26776667D01*
X53601428Y26738572D01*
X53449047Y26700477D01*
X53334761Y26700477D01*
X53182380Y26738572D01*
X53106190Y26776667D01*
X53030000Y26852858D01*
X52991904Y26967143D01*
X52991904Y27043334D01*
X53030000Y27157620D01*
X53068095Y27195715D01*
X53068095Y27500477D02*
X53030000Y27538572D01*
X52991904Y27614762D01*
X52991904Y27805239D01*
X53030000Y27881429D01*
X53068095Y27919524D01*
X53144285Y27957620D01*
X53220476Y27957620D01*
X53334761Y27919524D01*
X53791904Y27462381D01*
X53791904Y27957620D01*
X53791904Y28338572D02*
X53791904Y28490953D01*
X53753809Y28567143D01*
X53715714Y28605239D01*
X53601428Y28681429D01*
X53449047Y28719524D01*
X53144285Y28719524D01*
X53068095Y28681429D01*
X53030000Y28643334D01*
X52991904Y28567143D01*
X52991904Y28414762D01*
X53030000Y28338572D01*
X53068095Y28300477D01*
X53144285Y28262381D01*
X53334761Y28262381D01*
X53410952Y28300477D01*
X53449047Y28338572D01*
X53487142Y28414762D01*
X53487142Y28567143D01*
X53449047Y28643334D01*
X53410952Y28681429D01*
X53334761Y28719524D01*
G04 #@! TO.C,C30*
X54505714Y40685715D02*
X54543809Y40647620D01*
X54581904Y40533334D01*
X54581904Y40457143D01*
X54543809Y40342858D01*
X54467619Y40266667D01*
X54391428Y40228572D01*
X54239047Y40190477D01*
X54124761Y40190477D01*
X53972380Y40228572D01*
X53896190Y40266667D01*
X53820000Y40342858D01*
X53781904Y40457143D01*
X53781904Y40533334D01*
X53820000Y40647620D01*
X53858095Y40685715D01*
X53781904Y40952381D02*
X53781904Y41447620D01*
X54086666Y41180953D01*
X54086666Y41295239D01*
X54124761Y41371429D01*
X54162857Y41409524D01*
X54239047Y41447620D01*
X54429523Y41447620D01*
X54505714Y41409524D01*
X54543809Y41371429D01*
X54581904Y41295239D01*
X54581904Y41066667D01*
X54543809Y40990477D01*
X54505714Y40952381D01*
X53781904Y41942858D02*
X53781904Y42019048D01*
X53820000Y42095239D01*
X53858095Y42133334D01*
X53934285Y42171429D01*
X54086666Y42209524D01*
X54277142Y42209524D01*
X54429523Y42171429D01*
X54505714Y42133334D01*
X54543809Y42095239D01*
X54581904Y42019048D01*
X54581904Y41942858D01*
X54543809Y41866667D01*
X54505714Y41828572D01*
X54429523Y41790477D01*
X54277142Y41752381D01*
X54086666Y41752381D01*
X53934285Y41790477D01*
X53858095Y41828572D01*
X53820000Y41866667D01*
X53781904Y41942858D01*
G04 #@! TO.C,C31*
X58105714Y25865715D02*
X58143809Y25827620D01*
X58181904Y25713334D01*
X58181904Y25637143D01*
X58143809Y25522858D01*
X58067619Y25446667D01*
X57991428Y25408572D01*
X57839047Y25370477D01*
X57724761Y25370477D01*
X57572380Y25408572D01*
X57496190Y25446667D01*
X57420000Y25522858D01*
X57381904Y25637143D01*
X57381904Y25713334D01*
X57420000Y25827620D01*
X57458095Y25865715D01*
X57381904Y26132381D02*
X57381904Y26627620D01*
X57686666Y26360953D01*
X57686666Y26475239D01*
X57724761Y26551429D01*
X57762857Y26589524D01*
X57839047Y26627620D01*
X58029523Y26627620D01*
X58105714Y26589524D01*
X58143809Y26551429D01*
X58181904Y26475239D01*
X58181904Y26246667D01*
X58143809Y26170477D01*
X58105714Y26132381D01*
X58181904Y27389524D02*
X58181904Y26932381D01*
X58181904Y27160953D02*
X57381904Y27160953D01*
X57496190Y27084762D01*
X57572380Y27008572D01*
X57610476Y26932381D01*
G04 #@! TO.C,C38*
X82915714Y20834286D02*
X82877619Y20796191D01*
X82763333Y20758096D01*
X82687142Y20758096D01*
X82572857Y20796191D01*
X82496666Y20872381D01*
X82458571Y20948572D01*
X82420476Y21100953D01*
X82420476Y21215239D01*
X82458571Y21367620D01*
X82496666Y21443810D01*
X82572857Y21520000D01*
X82687142Y21558096D01*
X82763333Y21558096D01*
X82877619Y21520000D01*
X82915714Y21481905D01*
X83182380Y21558096D02*
X83677619Y21558096D01*
X83410952Y21253334D01*
X83525238Y21253334D01*
X83601428Y21215239D01*
X83639523Y21177143D01*
X83677619Y21100953D01*
X83677619Y20910477D01*
X83639523Y20834286D01*
X83601428Y20796191D01*
X83525238Y20758096D01*
X83296666Y20758096D01*
X83220476Y20796191D01*
X83182380Y20834286D01*
X84134761Y21215239D02*
X84058571Y21253334D01*
X84020476Y21291429D01*
X83982380Y21367620D01*
X83982380Y21405715D01*
X84020476Y21481905D01*
X84058571Y21520000D01*
X84134761Y21558096D01*
X84287142Y21558096D01*
X84363333Y21520000D01*
X84401428Y21481905D01*
X84439523Y21405715D01*
X84439523Y21367620D01*
X84401428Y21291429D01*
X84363333Y21253334D01*
X84287142Y21215239D01*
X84134761Y21215239D01*
X84058571Y21177143D01*
X84020476Y21139048D01*
X83982380Y21062858D01*
X83982380Y20910477D01*
X84020476Y20834286D01*
X84058571Y20796191D01*
X84134761Y20758096D01*
X84287142Y20758096D01*
X84363333Y20796191D01*
X84401428Y20834286D01*
X84439523Y20910477D01*
X84439523Y21062858D01*
X84401428Y21139048D01*
X84363333Y21177143D01*
X84287142Y21215239D01*
G04 #@! TO.C,C39*
X82235714Y30194286D02*
X82197619Y30156191D01*
X82083333Y30118096D01*
X82007142Y30118096D01*
X81892857Y30156191D01*
X81816666Y30232381D01*
X81778571Y30308572D01*
X81740476Y30460953D01*
X81740476Y30575239D01*
X81778571Y30727620D01*
X81816666Y30803810D01*
X81892857Y30880000D01*
X82007142Y30918096D01*
X82083333Y30918096D01*
X82197619Y30880000D01*
X82235714Y30841905D01*
X82502380Y30918096D02*
X82997619Y30918096D01*
X82730952Y30613334D01*
X82845238Y30613334D01*
X82921428Y30575239D01*
X82959523Y30537143D01*
X82997619Y30460953D01*
X82997619Y30270477D01*
X82959523Y30194286D01*
X82921428Y30156191D01*
X82845238Y30118096D01*
X82616666Y30118096D01*
X82540476Y30156191D01*
X82502380Y30194286D01*
X83378571Y30118096D02*
X83530952Y30118096D01*
X83607142Y30156191D01*
X83645238Y30194286D01*
X83721428Y30308572D01*
X83759523Y30460953D01*
X83759523Y30765715D01*
X83721428Y30841905D01*
X83683333Y30880000D01*
X83607142Y30918096D01*
X83454761Y30918096D01*
X83378571Y30880000D01*
X83340476Y30841905D01*
X83302380Y30765715D01*
X83302380Y30575239D01*
X83340476Y30499048D01*
X83378571Y30460953D01*
X83454761Y30422858D01*
X83607142Y30422858D01*
X83683333Y30460953D01*
X83721428Y30499048D01*
X83759523Y30575239D01*
G04 #@! TO.C,C40*
X79745714Y35014286D02*
X79707619Y34976191D01*
X79593333Y34938096D01*
X79517142Y34938096D01*
X79402857Y34976191D01*
X79326666Y35052381D01*
X79288571Y35128572D01*
X79250476Y35280953D01*
X79250476Y35395239D01*
X79288571Y35547620D01*
X79326666Y35623810D01*
X79402857Y35700000D01*
X79517142Y35738096D01*
X79593333Y35738096D01*
X79707619Y35700000D01*
X79745714Y35661905D01*
X80431428Y35471429D02*
X80431428Y34938096D01*
X80240952Y35776191D02*
X80050476Y35204762D01*
X80545714Y35204762D01*
X81002857Y35738096D02*
X81079047Y35738096D01*
X81155238Y35700000D01*
X81193333Y35661905D01*
X81231428Y35585715D01*
X81269523Y35433334D01*
X81269523Y35242858D01*
X81231428Y35090477D01*
X81193333Y35014286D01*
X81155238Y34976191D01*
X81079047Y34938096D01*
X81002857Y34938096D01*
X80926666Y34976191D01*
X80888571Y35014286D01*
X80850476Y35090477D01*
X80812380Y35242858D01*
X80812380Y35433334D01*
X80850476Y35585715D01*
X80888571Y35661905D01*
X80926666Y35700000D01*
X81002857Y35738096D01*
G04 #@! TO.C,C41*
X82975714Y32414286D02*
X82937619Y32376191D01*
X82823333Y32338096D01*
X82747142Y32338096D01*
X82632857Y32376191D01*
X82556666Y32452381D01*
X82518571Y32528572D01*
X82480476Y32680953D01*
X82480476Y32795239D01*
X82518571Y32947620D01*
X82556666Y33023810D01*
X82632857Y33100000D01*
X82747142Y33138096D01*
X82823333Y33138096D01*
X82937619Y33100000D01*
X82975714Y33061905D01*
X83661428Y32871429D02*
X83661428Y32338096D01*
X83470952Y33176191D02*
X83280476Y32604762D01*
X83775714Y32604762D01*
X84499523Y32338096D02*
X84042380Y32338096D01*
X84270952Y32338096D02*
X84270952Y33138096D01*
X84194761Y33023810D01*
X84118571Y32947620D01*
X84042380Y32909524D01*
G04 #@! TO.C,C42*
X30935714Y27605715D02*
X30973809Y27567620D01*
X31011904Y27453334D01*
X31011904Y27377143D01*
X30973809Y27262858D01*
X30897619Y27186667D01*
X30821428Y27148572D01*
X30669047Y27110477D01*
X30554761Y27110477D01*
X30402380Y27148572D01*
X30326190Y27186667D01*
X30250000Y27262858D01*
X30211904Y27377143D01*
X30211904Y27453334D01*
X30250000Y27567620D01*
X30288095Y27605715D01*
X30478571Y28291429D02*
X31011904Y28291429D01*
X30173809Y28100953D02*
X30745238Y27910477D01*
X30745238Y28405715D01*
X30288095Y28672381D02*
X30250000Y28710477D01*
X30211904Y28786667D01*
X30211904Y28977143D01*
X30250000Y29053334D01*
X30288095Y29091429D01*
X30364285Y29129524D01*
X30440476Y29129524D01*
X30554761Y29091429D01*
X31011904Y28634286D01*
X31011904Y29129524D01*
G04 #@! TO.C,C43*
X30545714Y24984286D02*
X30507619Y24946191D01*
X30393333Y24908096D01*
X30317142Y24908096D01*
X30202857Y24946191D01*
X30126666Y25022381D01*
X30088571Y25098572D01*
X30050476Y25250953D01*
X30050476Y25365239D01*
X30088571Y25517620D01*
X30126666Y25593810D01*
X30202857Y25670000D01*
X30317142Y25708096D01*
X30393333Y25708096D01*
X30507619Y25670000D01*
X30545714Y25631905D01*
X31231428Y25441429D02*
X31231428Y24908096D01*
X31040952Y25746191D02*
X30850476Y25174762D01*
X31345714Y25174762D01*
X31574285Y25708096D02*
X32069523Y25708096D01*
X31802857Y25403334D01*
X31917142Y25403334D01*
X31993333Y25365239D01*
X32031428Y25327143D01*
X32069523Y25250953D01*
X32069523Y25060477D01*
X32031428Y24984286D01*
X31993333Y24946191D01*
X31917142Y24908096D01*
X31688571Y24908096D01*
X31612380Y24946191D01*
X31574285Y24984286D01*
G04 #@! TO.C,C44*
X38555714Y13515715D02*
X38593809Y13477620D01*
X38631904Y13363334D01*
X38631904Y13287143D01*
X38593809Y13172858D01*
X38517619Y13096667D01*
X38441428Y13058572D01*
X38289047Y13020477D01*
X38174761Y13020477D01*
X38022380Y13058572D01*
X37946190Y13096667D01*
X37870000Y13172858D01*
X37831904Y13287143D01*
X37831904Y13363334D01*
X37870000Y13477620D01*
X37908095Y13515715D01*
X38098571Y14201429D02*
X38631904Y14201429D01*
X37793809Y14010953D02*
X38365238Y13820477D01*
X38365238Y14315715D01*
X38098571Y14963334D02*
X38631904Y14963334D01*
X37793809Y14772858D02*
X38365238Y14582381D01*
X38365238Y15077620D01*
G04 #@! TO.C,C45*
X37185714Y13515715D02*
X37223809Y13477620D01*
X37261904Y13363334D01*
X37261904Y13287143D01*
X37223809Y13172858D01*
X37147619Y13096667D01*
X37071428Y13058572D01*
X36919047Y13020477D01*
X36804761Y13020477D01*
X36652380Y13058572D01*
X36576190Y13096667D01*
X36500000Y13172858D01*
X36461904Y13287143D01*
X36461904Y13363334D01*
X36500000Y13477620D01*
X36538095Y13515715D01*
X36728571Y14201429D02*
X37261904Y14201429D01*
X36423809Y14010953D02*
X36995238Y13820477D01*
X36995238Y14315715D01*
X36461904Y15001429D02*
X36461904Y14620477D01*
X36842857Y14582381D01*
X36804761Y14620477D01*
X36766666Y14696667D01*
X36766666Y14887143D01*
X36804761Y14963334D01*
X36842857Y15001429D01*
X36919047Y15039524D01*
X37109523Y15039524D01*
X37185714Y15001429D01*
X37223809Y14963334D01*
X37261904Y14887143D01*
X37261904Y14696667D01*
X37223809Y14620477D01*
X37185714Y14582381D01*
G04 #@! TO.C,C46*
X45155714Y21885715D02*
X45193809Y21847620D01*
X45231904Y21733334D01*
X45231904Y21657143D01*
X45193809Y21542858D01*
X45117619Y21466667D01*
X45041428Y21428572D01*
X44889047Y21390477D01*
X44774761Y21390477D01*
X44622380Y21428572D01*
X44546190Y21466667D01*
X44470000Y21542858D01*
X44431904Y21657143D01*
X44431904Y21733334D01*
X44470000Y21847620D01*
X44508095Y21885715D01*
X44698571Y22571429D02*
X45231904Y22571429D01*
X44393809Y22380953D02*
X44965238Y22190477D01*
X44965238Y22685715D01*
X44431904Y23333334D02*
X44431904Y23180953D01*
X44470000Y23104762D01*
X44508095Y23066667D01*
X44622380Y22990477D01*
X44774761Y22952381D01*
X45079523Y22952381D01*
X45155714Y22990477D01*
X45193809Y23028572D01*
X45231904Y23104762D01*
X45231904Y23257143D01*
X45193809Y23333334D01*
X45155714Y23371429D01*
X45079523Y23409524D01*
X44889047Y23409524D01*
X44812857Y23371429D01*
X44774761Y23333334D01*
X44736666Y23257143D01*
X44736666Y23104762D01*
X44774761Y23028572D01*
X44812857Y22990477D01*
X44889047Y22952381D01*
G04 #@! TO.C,C47*
X46705714Y19714286D02*
X46667619Y19676191D01*
X46553333Y19638096D01*
X46477142Y19638096D01*
X46362857Y19676191D01*
X46286666Y19752381D01*
X46248571Y19828572D01*
X46210476Y19980953D01*
X46210476Y20095239D01*
X46248571Y20247620D01*
X46286666Y20323810D01*
X46362857Y20400000D01*
X46477142Y20438096D01*
X46553333Y20438096D01*
X46667619Y20400000D01*
X46705714Y20361905D01*
X47391428Y20171429D02*
X47391428Y19638096D01*
X47200952Y20476191D02*
X47010476Y19904762D01*
X47505714Y19904762D01*
X47734285Y20438096D02*
X48267619Y20438096D01*
X47924761Y19638096D01*
G04 #@! TO.C,C50*
X25505714Y11894286D02*
X25467619Y11856191D01*
X25353333Y11818096D01*
X25277142Y11818096D01*
X25162857Y11856191D01*
X25086666Y11932381D01*
X25048571Y12008572D01*
X25010476Y12160953D01*
X25010476Y12275239D01*
X25048571Y12427620D01*
X25086666Y12503810D01*
X25162857Y12580000D01*
X25277142Y12618096D01*
X25353333Y12618096D01*
X25467619Y12580000D01*
X25505714Y12541905D01*
X26229523Y12618096D02*
X25848571Y12618096D01*
X25810476Y12237143D01*
X25848571Y12275239D01*
X25924761Y12313334D01*
X26115238Y12313334D01*
X26191428Y12275239D01*
X26229523Y12237143D01*
X26267619Y12160953D01*
X26267619Y11970477D01*
X26229523Y11894286D01*
X26191428Y11856191D01*
X26115238Y11818096D01*
X25924761Y11818096D01*
X25848571Y11856191D01*
X25810476Y11894286D01*
X26762857Y12618096D02*
X26839047Y12618096D01*
X26915238Y12580000D01*
X26953333Y12541905D01*
X26991428Y12465715D01*
X27029523Y12313334D01*
X27029523Y12122858D01*
X26991428Y11970477D01*
X26953333Y11894286D01*
X26915238Y11856191D01*
X26839047Y11818096D01*
X26762857Y11818096D01*
X26686666Y11856191D01*
X26648571Y11894286D01*
X26610476Y11970477D01*
X26572380Y12122858D01*
X26572380Y12313334D01*
X26610476Y12465715D01*
X26648571Y12541905D01*
X26686666Y12580000D01*
X26762857Y12618096D01*
G04 #@! TO.C,C51*
X35815714Y13515715D02*
X35853809Y13477620D01*
X35891904Y13363334D01*
X35891904Y13287143D01*
X35853809Y13172858D01*
X35777619Y13096667D01*
X35701428Y13058572D01*
X35549047Y13020477D01*
X35434761Y13020477D01*
X35282380Y13058572D01*
X35206190Y13096667D01*
X35130000Y13172858D01*
X35091904Y13287143D01*
X35091904Y13363334D01*
X35130000Y13477620D01*
X35168095Y13515715D01*
X35091904Y14239524D02*
X35091904Y13858572D01*
X35472857Y13820477D01*
X35434761Y13858572D01*
X35396666Y13934762D01*
X35396666Y14125239D01*
X35434761Y14201429D01*
X35472857Y14239524D01*
X35549047Y14277620D01*
X35739523Y14277620D01*
X35815714Y14239524D01*
X35853809Y14201429D01*
X35891904Y14125239D01*
X35891904Y13934762D01*
X35853809Y13858572D01*
X35815714Y13820477D01*
X35891904Y15039524D02*
X35891904Y14582381D01*
X35891904Y14810953D02*
X35091904Y14810953D01*
X35206190Y14734762D01*
X35282380Y14658572D01*
X35320476Y14582381D01*
G04 #@! TO.C,C52*
X39895714Y13515715D02*
X39933809Y13477620D01*
X39971904Y13363334D01*
X39971904Y13287143D01*
X39933809Y13172858D01*
X39857619Y13096667D01*
X39781428Y13058572D01*
X39629047Y13020477D01*
X39514761Y13020477D01*
X39362380Y13058572D01*
X39286190Y13096667D01*
X39210000Y13172858D01*
X39171904Y13287143D01*
X39171904Y13363334D01*
X39210000Y13477620D01*
X39248095Y13515715D01*
X39171904Y14239524D02*
X39171904Y13858572D01*
X39552857Y13820477D01*
X39514761Y13858572D01*
X39476666Y13934762D01*
X39476666Y14125239D01*
X39514761Y14201429D01*
X39552857Y14239524D01*
X39629047Y14277620D01*
X39819523Y14277620D01*
X39895714Y14239524D01*
X39933809Y14201429D01*
X39971904Y14125239D01*
X39971904Y13934762D01*
X39933809Y13858572D01*
X39895714Y13820477D01*
X39248095Y14582381D02*
X39210000Y14620477D01*
X39171904Y14696667D01*
X39171904Y14887143D01*
X39210000Y14963334D01*
X39248095Y15001429D01*
X39324285Y15039524D01*
X39400476Y15039524D01*
X39514761Y15001429D01*
X39971904Y14544286D01*
X39971904Y15039524D01*
G04 #@! TO.C,C53*
X31365714Y17404286D02*
X31327619Y17366191D01*
X31213333Y17328096D01*
X31137142Y17328096D01*
X31022857Y17366191D01*
X30946666Y17442381D01*
X30908571Y17518572D01*
X30870476Y17670953D01*
X30870476Y17785239D01*
X30908571Y17937620D01*
X30946666Y18013810D01*
X31022857Y18090000D01*
X31137142Y18128096D01*
X31213333Y18128096D01*
X31327619Y18090000D01*
X31365714Y18051905D01*
X32089523Y18128096D02*
X31708571Y18128096D01*
X31670476Y17747143D01*
X31708571Y17785239D01*
X31784761Y17823334D01*
X31975238Y17823334D01*
X32051428Y17785239D01*
X32089523Y17747143D01*
X32127619Y17670953D01*
X32127619Y17480477D01*
X32089523Y17404286D01*
X32051428Y17366191D01*
X31975238Y17328096D01*
X31784761Y17328096D01*
X31708571Y17366191D01*
X31670476Y17404286D01*
X32394285Y18128096D02*
X32889523Y18128096D01*
X32622857Y17823334D01*
X32737142Y17823334D01*
X32813333Y17785239D01*
X32851428Y17747143D01*
X32889523Y17670953D01*
X32889523Y17480477D01*
X32851428Y17404286D01*
X32813333Y17366191D01*
X32737142Y17328096D01*
X32508571Y17328096D01*
X32432380Y17366191D01*
X32394285Y17404286D01*
G04 #@! TO.C,C54*
X17895714Y7414286D02*
X17857619Y7376191D01*
X17743333Y7338096D01*
X17667142Y7338096D01*
X17552857Y7376191D01*
X17476666Y7452381D01*
X17438571Y7528572D01*
X17400476Y7680953D01*
X17400476Y7795239D01*
X17438571Y7947620D01*
X17476666Y8023810D01*
X17552857Y8100000D01*
X17667142Y8138096D01*
X17743333Y8138096D01*
X17857619Y8100000D01*
X17895714Y8061905D01*
X18619523Y8138096D02*
X18238571Y8138096D01*
X18200476Y7757143D01*
X18238571Y7795239D01*
X18314761Y7833334D01*
X18505238Y7833334D01*
X18581428Y7795239D01*
X18619523Y7757143D01*
X18657619Y7680953D01*
X18657619Y7490477D01*
X18619523Y7414286D01*
X18581428Y7376191D01*
X18505238Y7338096D01*
X18314761Y7338096D01*
X18238571Y7376191D01*
X18200476Y7414286D01*
X19343333Y7871429D02*
X19343333Y7338096D01*
X19152857Y8176191D02*
X18962380Y7604762D01*
X19457619Y7604762D01*
G04 #@! TO.C,C55*
X17895714Y13264286D02*
X17857619Y13226191D01*
X17743333Y13188096D01*
X17667142Y13188096D01*
X17552857Y13226191D01*
X17476666Y13302381D01*
X17438571Y13378572D01*
X17400476Y13530953D01*
X17400476Y13645239D01*
X17438571Y13797620D01*
X17476666Y13873810D01*
X17552857Y13950000D01*
X17667142Y13988096D01*
X17743333Y13988096D01*
X17857619Y13950000D01*
X17895714Y13911905D01*
X18619523Y13988096D02*
X18238571Y13988096D01*
X18200476Y13607143D01*
X18238571Y13645239D01*
X18314761Y13683334D01*
X18505238Y13683334D01*
X18581428Y13645239D01*
X18619523Y13607143D01*
X18657619Y13530953D01*
X18657619Y13340477D01*
X18619523Y13264286D01*
X18581428Y13226191D01*
X18505238Y13188096D01*
X18314761Y13188096D01*
X18238571Y13226191D01*
X18200476Y13264286D01*
X19381428Y13988096D02*
X19000476Y13988096D01*
X18962380Y13607143D01*
X19000476Y13645239D01*
X19076666Y13683334D01*
X19267142Y13683334D01*
X19343333Y13645239D01*
X19381428Y13607143D01*
X19419523Y13530953D01*
X19419523Y13340477D01*
X19381428Y13264286D01*
X19343333Y13226191D01*
X19267142Y13188096D01*
X19076666Y13188096D01*
X19000476Y13226191D01*
X18962380Y13264286D01*
G04 #@! TO.C,C56*
X31365714Y22844286D02*
X31327619Y22806191D01*
X31213333Y22768096D01*
X31137142Y22768096D01*
X31022857Y22806191D01*
X30946666Y22882381D01*
X30908571Y22958572D01*
X30870476Y23110953D01*
X30870476Y23225239D01*
X30908571Y23377620D01*
X30946666Y23453810D01*
X31022857Y23530000D01*
X31137142Y23568096D01*
X31213333Y23568096D01*
X31327619Y23530000D01*
X31365714Y23491905D01*
X32089523Y23568096D02*
X31708571Y23568096D01*
X31670476Y23187143D01*
X31708571Y23225239D01*
X31784761Y23263334D01*
X31975238Y23263334D01*
X32051428Y23225239D01*
X32089523Y23187143D01*
X32127619Y23110953D01*
X32127619Y22920477D01*
X32089523Y22844286D01*
X32051428Y22806191D01*
X31975238Y22768096D01*
X31784761Y22768096D01*
X31708571Y22806191D01*
X31670476Y22844286D01*
X32813333Y23568096D02*
X32660952Y23568096D01*
X32584761Y23530000D01*
X32546666Y23491905D01*
X32470476Y23377620D01*
X32432380Y23225239D01*
X32432380Y22920477D01*
X32470476Y22844286D01*
X32508571Y22806191D01*
X32584761Y22768096D01*
X32737142Y22768096D01*
X32813333Y22806191D01*
X32851428Y22844286D01*
X32889523Y22920477D01*
X32889523Y23110953D01*
X32851428Y23187143D01*
X32813333Y23225239D01*
X32737142Y23263334D01*
X32584761Y23263334D01*
X32508571Y23225239D01*
X32470476Y23187143D01*
X32432380Y23110953D01*
G04 #@! TO.C,C57*
X44935714Y32835715D02*
X44973809Y32797620D01*
X45011904Y32683334D01*
X45011904Y32607143D01*
X44973809Y32492858D01*
X44897619Y32416667D01*
X44821428Y32378572D01*
X44669047Y32340477D01*
X44554761Y32340477D01*
X44402380Y32378572D01*
X44326190Y32416667D01*
X44250000Y32492858D01*
X44211904Y32607143D01*
X44211904Y32683334D01*
X44250000Y32797620D01*
X44288095Y32835715D01*
X44211904Y33559524D02*
X44211904Y33178572D01*
X44592857Y33140477D01*
X44554761Y33178572D01*
X44516666Y33254762D01*
X44516666Y33445239D01*
X44554761Y33521429D01*
X44592857Y33559524D01*
X44669047Y33597620D01*
X44859523Y33597620D01*
X44935714Y33559524D01*
X44973809Y33521429D01*
X45011904Y33445239D01*
X45011904Y33254762D01*
X44973809Y33178572D01*
X44935714Y33140477D01*
X44211904Y33864286D02*
X44211904Y34397620D01*
X45011904Y34054762D01*
G04 #@! TO.C,C58*
X42875714Y32835715D02*
X42913809Y32797620D01*
X42951904Y32683334D01*
X42951904Y32607143D01*
X42913809Y32492858D01*
X42837619Y32416667D01*
X42761428Y32378572D01*
X42609047Y32340477D01*
X42494761Y32340477D01*
X42342380Y32378572D01*
X42266190Y32416667D01*
X42190000Y32492858D01*
X42151904Y32607143D01*
X42151904Y32683334D01*
X42190000Y32797620D01*
X42228095Y32835715D01*
X42151904Y33559524D02*
X42151904Y33178572D01*
X42532857Y33140477D01*
X42494761Y33178572D01*
X42456666Y33254762D01*
X42456666Y33445239D01*
X42494761Y33521429D01*
X42532857Y33559524D01*
X42609047Y33597620D01*
X42799523Y33597620D01*
X42875714Y33559524D01*
X42913809Y33521429D01*
X42951904Y33445239D01*
X42951904Y33254762D01*
X42913809Y33178572D01*
X42875714Y33140477D01*
X42494761Y34054762D02*
X42456666Y33978572D01*
X42418571Y33940477D01*
X42342380Y33902381D01*
X42304285Y33902381D01*
X42228095Y33940477D01*
X42190000Y33978572D01*
X42151904Y34054762D01*
X42151904Y34207143D01*
X42190000Y34283334D01*
X42228095Y34321429D01*
X42304285Y34359524D01*
X42342380Y34359524D01*
X42418571Y34321429D01*
X42456666Y34283334D01*
X42494761Y34207143D01*
X42494761Y34054762D01*
X42532857Y33978572D01*
X42570952Y33940477D01*
X42647142Y33902381D01*
X42799523Y33902381D01*
X42875714Y33940477D01*
X42913809Y33978572D01*
X42951904Y34054762D01*
X42951904Y34207143D01*
X42913809Y34283334D01*
X42875714Y34321429D01*
X42799523Y34359524D01*
X42647142Y34359524D01*
X42570952Y34321429D01*
X42532857Y34283334D01*
X42494761Y34207143D01*
G04 #@! TO.C,C59*
X34805714Y33595715D02*
X34843809Y33557620D01*
X34881904Y33443334D01*
X34881904Y33367143D01*
X34843809Y33252858D01*
X34767619Y33176667D01*
X34691428Y33138572D01*
X34539047Y33100477D01*
X34424761Y33100477D01*
X34272380Y33138572D01*
X34196190Y33176667D01*
X34120000Y33252858D01*
X34081904Y33367143D01*
X34081904Y33443334D01*
X34120000Y33557620D01*
X34158095Y33595715D01*
X34081904Y34319524D02*
X34081904Y33938572D01*
X34462857Y33900477D01*
X34424761Y33938572D01*
X34386666Y34014762D01*
X34386666Y34205239D01*
X34424761Y34281429D01*
X34462857Y34319524D01*
X34539047Y34357620D01*
X34729523Y34357620D01*
X34805714Y34319524D01*
X34843809Y34281429D01*
X34881904Y34205239D01*
X34881904Y34014762D01*
X34843809Y33938572D01*
X34805714Y33900477D01*
X34881904Y34738572D02*
X34881904Y34890953D01*
X34843809Y34967143D01*
X34805714Y35005239D01*
X34691428Y35081429D01*
X34539047Y35119524D01*
X34234285Y35119524D01*
X34158095Y35081429D01*
X34120000Y35043334D01*
X34081904Y34967143D01*
X34081904Y34814762D01*
X34120000Y34738572D01*
X34158095Y34700477D01*
X34234285Y34662381D01*
X34424761Y34662381D01*
X34500952Y34700477D01*
X34539047Y34738572D01*
X34577142Y34814762D01*
X34577142Y34967143D01*
X34539047Y35043334D01*
X34500952Y35081429D01*
X34424761Y35119524D01*
G04 #@! TO.C,C60*
X31365714Y21484286D02*
X31327619Y21446191D01*
X31213333Y21408096D01*
X31137142Y21408096D01*
X31022857Y21446191D01*
X30946666Y21522381D01*
X30908571Y21598572D01*
X30870476Y21750953D01*
X30870476Y21865239D01*
X30908571Y22017620D01*
X30946666Y22093810D01*
X31022857Y22170000D01*
X31137142Y22208096D01*
X31213333Y22208096D01*
X31327619Y22170000D01*
X31365714Y22131905D01*
X32051428Y22208096D02*
X31899047Y22208096D01*
X31822857Y22170000D01*
X31784761Y22131905D01*
X31708571Y22017620D01*
X31670476Y21865239D01*
X31670476Y21560477D01*
X31708571Y21484286D01*
X31746666Y21446191D01*
X31822857Y21408096D01*
X31975238Y21408096D01*
X32051428Y21446191D01*
X32089523Y21484286D01*
X32127619Y21560477D01*
X32127619Y21750953D01*
X32089523Y21827143D01*
X32051428Y21865239D01*
X31975238Y21903334D01*
X31822857Y21903334D01*
X31746666Y21865239D01*
X31708571Y21827143D01*
X31670476Y21750953D01*
X32622857Y22208096D02*
X32699047Y22208096D01*
X32775238Y22170000D01*
X32813333Y22131905D01*
X32851428Y22055715D01*
X32889523Y21903334D01*
X32889523Y21712858D01*
X32851428Y21560477D01*
X32813333Y21484286D01*
X32775238Y21446191D01*
X32699047Y21408096D01*
X32622857Y21408096D01*
X32546666Y21446191D01*
X32508571Y21484286D01*
X32470476Y21560477D01*
X32432380Y21712858D01*
X32432380Y21903334D01*
X32470476Y22055715D01*
X32508571Y22131905D01*
X32546666Y22170000D01*
X32622857Y22208096D01*
G04 #@! TO.C,C61*
X43905714Y32835715D02*
X43943809Y32797620D01*
X43981904Y32683334D01*
X43981904Y32607143D01*
X43943809Y32492858D01*
X43867619Y32416667D01*
X43791428Y32378572D01*
X43639047Y32340477D01*
X43524761Y32340477D01*
X43372380Y32378572D01*
X43296190Y32416667D01*
X43220000Y32492858D01*
X43181904Y32607143D01*
X43181904Y32683334D01*
X43220000Y32797620D01*
X43258095Y32835715D01*
X43181904Y33521429D02*
X43181904Y33369048D01*
X43220000Y33292858D01*
X43258095Y33254762D01*
X43372380Y33178572D01*
X43524761Y33140477D01*
X43829523Y33140477D01*
X43905714Y33178572D01*
X43943809Y33216667D01*
X43981904Y33292858D01*
X43981904Y33445239D01*
X43943809Y33521429D01*
X43905714Y33559524D01*
X43829523Y33597620D01*
X43639047Y33597620D01*
X43562857Y33559524D01*
X43524761Y33521429D01*
X43486666Y33445239D01*
X43486666Y33292858D01*
X43524761Y33216667D01*
X43562857Y33178572D01*
X43639047Y33140477D01*
X43981904Y34359524D02*
X43981904Y33902381D01*
X43981904Y34130953D02*
X43181904Y34130953D01*
X43296190Y34054762D01*
X43372380Y33978572D01*
X43410476Y33902381D01*
G04 #@! TO.C,C62*
X36685714Y35224286D02*
X36647619Y35186191D01*
X36533333Y35148096D01*
X36457142Y35148096D01*
X36342857Y35186191D01*
X36266666Y35262381D01*
X36228571Y35338572D01*
X36190476Y35490953D01*
X36190476Y35605239D01*
X36228571Y35757620D01*
X36266666Y35833810D01*
X36342857Y35910000D01*
X36457142Y35948096D01*
X36533333Y35948096D01*
X36647619Y35910000D01*
X36685714Y35871905D01*
X37371428Y35948096D02*
X37219047Y35948096D01*
X37142857Y35910000D01*
X37104761Y35871905D01*
X37028571Y35757620D01*
X36990476Y35605239D01*
X36990476Y35300477D01*
X37028571Y35224286D01*
X37066666Y35186191D01*
X37142857Y35148096D01*
X37295238Y35148096D01*
X37371428Y35186191D01*
X37409523Y35224286D01*
X37447619Y35300477D01*
X37447619Y35490953D01*
X37409523Y35567143D01*
X37371428Y35605239D01*
X37295238Y35643334D01*
X37142857Y35643334D01*
X37066666Y35605239D01*
X37028571Y35567143D01*
X36990476Y35490953D01*
X37752380Y35871905D02*
X37790476Y35910000D01*
X37866666Y35948096D01*
X38057142Y35948096D01*
X38133333Y35910000D01*
X38171428Y35871905D01*
X38209523Y35795715D01*
X38209523Y35719524D01*
X38171428Y35605239D01*
X37714285Y35148096D01*
X38209523Y35148096D01*
G04 #@! TO.C,C63*
X25595714Y16614286D02*
X25557619Y16576191D01*
X25443333Y16538096D01*
X25367142Y16538096D01*
X25252857Y16576191D01*
X25176666Y16652381D01*
X25138571Y16728572D01*
X25100476Y16880953D01*
X25100476Y16995239D01*
X25138571Y17147620D01*
X25176666Y17223810D01*
X25252857Y17300000D01*
X25367142Y17338096D01*
X25443333Y17338096D01*
X25557619Y17300000D01*
X25595714Y17261905D01*
X26281428Y17338096D02*
X26129047Y17338096D01*
X26052857Y17300000D01*
X26014761Y17261905D01*
X25938571Y17147620D01*
X25900476Y16995239D01*
X25900476Y16690477D01*
X25938571Y16614286D01*
X25976666Y16576191D01*
X26052857Y16538096D01*
X26205238Y16538096D01*
X26281428Y16576191D01*
X26319523Y16614286D01*
X26357619Y16690477D01*
X26357619Y16880953D01*
X26319523Y16957143D01*
X26281428Y16995239D01*
X26205238Y17033334D01*
X26052857Y17033334D01*
X25976666Y16995239D01*
X25938571Y16957143D01*
X25900476Y16880953D01*
X26624285Y17338096D02*
X27119523Y17338096D01*
X26852857Y17033334D01*
X26967142Y17033334D01*
X27043333Y16995239D01*
X27081428Y16957143D01*
X27119523Y16880953D01*
X27119523Y16690477D01*
X27081428Y16614286D01*
X27043333Y16576191D01*
X26967142Y16538096D01*
X26738571Y16538096D01*
X26662380Y16576191D01*
X26624285Y16614286D01*
G04 #@! TO.C,C64*
X25595714Y15604286D02*
X25557619Y15566191D01*
X25443333Y15528096D01*
X25367142Y15528096D01*
X25252857Y15566191D01*
X25176666Y15642381D01*
X25138571Y15718572D01*
X25100476Y15870953D01*
X25100476Y15985239D01*
X25138571Y16137620D01*
X25176666Y16213810D01*
X25252857Y16290000D01*
X25367142Y16328096D01*
X25443333Y16328096D01*
X25557619Y16290000D01*
X25595714Y16251905D01*
X26281428Y16328096D02*
X26129047Y16328096D01*
X26052857Y16290000D01*
X26014761Y16251905D01*
X25938571Y16137620D01*
X25900476Y15985239D01*
X25900476Y15680477D01*
X25938571Y15604286D01*
X25976666Y15566191D01*
X26052857Y15528096D01*
X26205238Y15528096D01*
X26281428Y15566191D01*
X26319523Y15604286D01*
X26357619Y15680477D01*
X26357619Y15870953D01*
X26319523Y15947143D01*
X26281428Y15985239D01*
X26205238Y16023334D01*
X26052857Y16023334D01*
X25976666Y15985239D01*
X25938571Y15947143D01*
X25900476Y15870953D01*
X27043333Y16061429D02*
X27043333Y15528096D01*
X26852857Y16366191D02*
X26662380Y15794762D01*
X27157619Y15794762D01*
G04 #@! TO.C,C65*
X25595714Y20694286D02*
X25557619Y20656191D01*
X25443333Y20618096D01*
X25367142Y20618096D01*
X25252857Y20656191D01*
X25176666Y20732381D01*
X25138571Y20808572D01*
X25100476Y20960953D01*
X25100476Y21075239D01*
X25138571Y21227620D01*
X25176666Y21303810D01*
X25252857Y21380000D01*
X25367142Y21418096D01*
X25443333Y21418096D01*
X25557619Y21380000D01*
X25595714Y21341905D01*
X26281428Y21418096D02*
X26129047Y21418096D01*
X26052857Y21380000D01*
X26014761Y21341905D01*
X25938571Y21227620D01*
X25900476Y21075239D01*
X25900476Y20770477D01*
X25938571Y20694286D01*
X25976666Y20656191D01*
X26052857Y20618096D01*
X26205238Y20618096D01*
X26281428Y20656191D01*
X26319523Y20694286D01*
X26357619Y20770477D01*
X26357619Y20960953D01*
X26319523Y21037143D01*
X26281428Y21075239D01*
X26205238Y21113334D01*
X26052857Y21113334D01*
X25976666Y21075239D01*
X25938571Y21037143D01*
X25900476Y20960953D01*
X27081428Y21418096D02*
X26700476Y21418096D01*
X26662380Y21037143D01*
X26700476Y21075239D01*
X26776666Y21113334D01*
X26967142Y21113334D01*
X27043333Y21075239D01*
X27081428Y21037143D01*
X27119523Y20960953D01*
X27119523Y20770477D01*
X27081428Y20694286D01*
X27043333Y20656191D01*
X26967142Y20618096D01*
X26776666Y20618096D01*
X26700476Y20656191D01*
X26662380Y20694286D01*
G04 #@! TO.C,C66*
X22385714Y34584286D02*
X22347619Y34546191D01*
X22233333Y34508096D01*
X22157142Y34508096D01*
X22042857Y34546191D01*
X21966666Y34622381D01*
X21928571Y34698572D01*
X21890476Y34850953D01*
X21890476Y34965239D01*
X21928571Y35117620D01*
X21966666Y35193810D01*
X22042857Y35270000D01*
X22157142Y35308096D01*
X22233333Y35308096D01*
X22347619Y35270000D01*
X22385714Y35231905D01*
X23071428Y35308096D02*
X22919047Y35308096D01*
X22842857Y35270000D01*
X22804761Y35231905D01*
X22728571Y35117620D01*
X22690476Y34965239D01*
X22690476Y34660477D01*
X22728571Y34584286D01*
X22766666Y34546191D01*
X22842857Y34508096D01*
X22995238Y34508096D01*
X23071428Y34546191D01*
X23109523Y34584286D01*
X23147619Y34660477D01*
X23147619Y34850953D01*
X23109523Y34927143D01*
X23071428Y34965239D01*
X22995238Y35003334D01*
X22842857Y35003334D01*
X22766666Y34965239D01*
X22728571Y34927143D01*
X22690476Y34850953D01*
X23833333Y35308096D02*
X23680952Y35308096D01*
X23604761Y35270000D01*
X23566666Y35231905D01*
X23490476Y35117620D01*
X23452380Y34965239D01*
X23452380Y34660477D01*
X23490476Y34584286D01*
X23528571Y34546191D01*
X23604761Y34508096D01*
X23757142Y34508096D01*
X23833333Y34546191D01*
X23871428Y34584286D01*
X23909523Y34660477D01*
X23909523Y34850953D01*
X23871428Y34927143D01*
X23833333Y34965239D01*
X23757142Y35003334D01*
X23604761Y35003334D01*
X23528571Y34965239D01*
X23490476Y34927143D01*
X23452380Y34850953D01*
G04 #@! TO.C,C68*
X46615714Y38195715D02*
X46653809Y38157620D01*
X46691904Y38043334D01*
X46691904Y37967143D01*
X46653809Y37852858D01*
X46577619Y37776667D01*
X46501428Y37738572D01*
X46349047Y37700477D01*
X46234761Y37700477D01*
X46082380Y37738572D01*
X46006190Y37776667D01*
X45930000Y37852858D01*
X45891904Y37967143D01*
X45891904Y38043334D01*
X45930000Y38157620D01*
X45968095Y38195715D01*
X45891904Y38881429D02*
X45891904Y38729048D01*
X45930000Y38652858D01*
X45968095Y38614762D01*
X46082380Y38538572D01*
X46234761Y38500477D01*
X46539523Y38500477D01*
X46615714Y38538572D01*
X46653809Y38576667D01*
X46691904Y38652858D01*
X46691904Y38805239D01*
X46653809Y38881429D01*
X46615714Y38919524D01*
X46539523Y38957620D01*
X46349047Y38957620D01*
X46272857Y38919524D01*
X46234761Y38881429D01*
X46196666Y38805239D01*
X46196666Y38652858D01*
X46234761Y38576667D01*
X46272857Y38538572D01*
X46349047Y38500477D01*
X46234761Y39414762D02*
X46196666Y39338572D01*
X46158571Y39300477D01*
X46082380Y39262381D01*
X46044285Y39262381D01*
X45968095Y39300477D01*
X45930000Y39338572D01*
X45891904Y39414762D01*
X45891904Y39567143D01*
X45930000Y39643334D01*
X45968095Y39681429D01*
X46044285Y39719524D01*
X46082380Y39719524D01*
X46158571Y39681429D01*
X46196666Y39643334D01*
X46234761Y39567143D01*
X46234761Y39414762D01*
X46272857Y39338572D01*
X46310952Y39300477D01*
X46387142Y39262381D01*
X46539523Y39262381D01*
X46615714Y39300477D01*
X46653809Y39338572D01*
X46691904Y39414762D01*
X46691904Y39567143D01*
X46653809Y39643334D01*
X46615714Y39681429D01*
X46539523Y39719524D01*
X46387142Y39719524D01*
X46310952Y39681429D01*
X46272857Y39643334D01*
X46234761Y39567143D01*
G04 #@! TO.C,C70*
X21695714Y42354286D02*
X21657619Y42316191D01*
X21543333Y42278096D01*
X21467142Y42278096D01*
X21352857Y42316191D01*
X21276666Y42392381D01*
X21238571Y42468572D01*
X21200476Y42620953D01*
X21200476Y42735239D01*
X21238571Y42887620D01*
X21276666Y42963810D01*
X21352857Y43040000D01*
X21467142Y43078096D01*
X21543333Y43078096D01*
X21657619Y43040000D01*
X21695714Y43001905D01*
X21962380Y43078096D02*
X22495714Y43078096D01*
X22152857Y42278096D01*
X22952857Y43078096D02*
X23029047Y43078096D01*
X23105238Y43040000D01*
X23143333Y43001905D01*
X23181428Y42925715D01*
X23219523Y42773334D01*
X23219523Y42582858D01*
X23181428Y42430477D01*
X23143333Y42354286D01*
X23105238Y42316191D01*
X23029047Y42278096D01*
X22952857Y42278096D01*
X22876666Y42316191D01*
X22838571Y42354286D01*
X22800476Y42430477D01*
X22762380Y42582858D01*
X22762380Y42773334D01*
X22800476Y42925715D01*
X22838571Y43001905D01*
X22876666Y43040000D01*
X22952857Y43078096D01*
G04 #@! TO.C,C73*
X31495714Y40204286D02*
X31457619Y40166191D01*
X31343333Y40128096D01*
X31267142Y40128096D01*
X31152857Y40166191D01*
X31076666Y40242381D01*
X31038571Y40318572D01*
X31000476Y40470953D01*
X31000476Y40585239D01*
X31038571Y40737620D01*
X31076666Y40813810D01*
X31152857Y40890000D01*
X31267142Y40928096D01*
X31343333Y40928096D01*
X31457619Y40890000D01*
X31495714Y40851905D01*
X31762380Y40928096D02*
X32295714Y40928096D01*
X31952857Y40128096D01*
X32524285Y40928096D02*
X33019523Y40928096D01*
X32752857Y40623334D01*
X32867142Y40623334D01*
X32943333Y40585239D01*
X32981428Y40547143D01*
X33019523Y40470953D01*
X33019523Y40280477D01*
X32981428Y40204286D01*
X32943333Y40166191D01*
X32867142Y40128096D01*
X32638571Y40128096D01*
X32562380Y40166191D01*
X32524285Y40204286D01*
G04 #@! TO.C,C75*
X31495714Y38944286D02*
X31457619Y38906191D01*
X31343333Y38868096D01*
X31267142Y38868096D01*
X31152857Y38906191D01*
X31076666Y38982381D01*
X31038571Y39058572D01*
X31000476Y39210953D01*
X31000476Y39325239D01*
X31038571Y39477620D01*
X31076666Y39553810D01*
X31152857Y39630000D01*
X31267142Y39668096D01*
X31343333Y39668096D01*
X31457619Y39630000D01*
X31495714Y39591905D01*
X31762380Y39668096D02*
X32295714Y39668096D01*
X31952857Y38868096D01*
X32981428Y39668096D02*
X32600476Y39668096D01*
X32562380Y39287143D01*
X32600476Y39325239D01*
X32676666Y39363334D01*
X32867142Y39363334D01*
X32943333Y39325239D01*
X32981428Y39287143D01*
X33019523Y39210953D01*
X33019523Y39020477D01*
X32981428Y38944286D01*
X32943333Y38906191D01*
X32867142Y38868096D01*
X32676666Y38868096D01*
X32600476Y38906191D01*
X32562380Y38944286D01*
G04 #@! TO.C,C76*
X31515714Y37674286D02*
X31477619Y37636191D01*
X31363333Y37598096D01*
X31287142Y37598096D01*
X31172857Y37636191D01*
X31096666Y37712381D01*
X31058571Y37788572D01*
X31020476Y37940953D01*
X31020476Y38055239D01*
X31058571Y38207620D01*
X31096666Y38283810D01*
X31172857Y38360000D01*
X31287142Y38398096D01*
X31363333Y38398096D01*
X31477619Y38360000D01*
X31515714Y38321905D01*
X31782380Y38398096D02*
X32315714Y38398096D01*
X31972857Y37598096D01*
X32963333Y38398096D02*
X32810952Y38398096D01*
X32734761Y38360000D01*
X32696666Y38321905D01*
X32620476Y38207620D01*
X32582380Y38055239D01*
X32582380Y37750477D01*
X32620476Y37674286D01*
X32658571Y37636191D01*
X32734761Y37598096D01*
X32887142Y37598096D01*
X32963333Y37636191D01*
X33001428Y37674286D01*
X33039523Y37750477D01*
X33039523Y37940953D01*
X33001428Y38017143D01*
X32963333Y38055239D01*
X32887142Y38093334D01*
X32734761Y38093334D01*
X32658571Y38055239D01*
X32620476Y38017143D01*
X32582380Y37940953D01*
G04 #@! TO.C,EX-3V*
X17608571Y1907143D02*
X17875238Y1907143D01*
X17989523Y1488096D02*
X17608571Y1488096D01*
X17608571Y2288096D01*
X17989523Y2288096D01*
X18256190Y2288096D02*
X18789523Y1488096D01*
X18789523Y2288096D02*
X18256190Y1488096D01*
X19094285Y1792858D02*
X19703809Y1792858D01*
X20008571Y2288096D02*
X20503809Y2288096D01*
X20237142Y1983334D01*
X20351428Y1983334D01*
X20427619Y1945239D01*
X20465714Y1907143D01*
X20503809Y1830953D01*
X20503809Y1640477D01*
X20465714Y1564286D01*
X20427619Y1526191D01*
X20351428Y1488096D01*
X20122857Y1488096D01*
X20046666Y1526191D01*
X20008571Y1564286D01*
X20732380Y2288096D02*
X20999047Y1488096D01*
X21265714Y2288096D01*
G04 #@! TO.C,EXT-3V*
X44692857Y26933810D02*
X44692857Y27200477D01*
X45111904Y27314762D02*
X45111904Y26933810D01*
X44311904Y26933810D01*
X44311904Y27314762D01*
X44311904Y27581429D02*
X45111904Y28114762D01*
X44311904Y28114762D02*
X45111904Y27581429D01*
X44311904Y28305239D02*
X44311904Y28762381D01*
X45111904Y28533810D02*
X44311904Y28533810D01*
X44807142Y29029048D02*
X44807142Y29638572D01*
X44311904Y29943334D02*
X44311904Y30438572D01*
X44616666Y30171905D01*
X44616666Y30286191D01*
X44654761Y30362381D01*
X44692857Y30400477D01*
X44769047Y30438572D01*
X44959523Y30438572D01*
X45035714Y30400477D01*
X45073809Y30362381D01*
X45111904Y30286191D01*
X45111904Y30057620D01*
X45073809Y29981429D01*
X45035714Y29943334D01*
X44311904Y30667143D02*
X45111904Y30933810D01*
X44311904Y31200477D01*
G04 #@! TO.C,F1*
X11513333Y39397143D02*
X11246666Y39397143D01*
X11246666Y38978096D02*
X11246666Y39778096D01*
X11627619Y39778096D01*
X12351428Y38978096D02*
X11894285Y38978096D01*
X12122857Y38978096D02*
X12122857Y39778096D01*
X12046666Y39663810D01*
X11970476Y39587620D01*
X11894285Y39549524D01*
G04 #@! TO.C,GPIO1*
X65079047Y7230000D02*
X65002857Y7268096D01*
X64888571Y7268096D01*
X64774285Y7230000D01*
X64698095Y7153810D01*
X64660000Y7077620D01*
X64621904Y6925239D01*
X64621904Y6810953D01*
X64660000Y6658572D01*
X64698095Y6582381D01*
X64774285Y6506191D01*
X64888571Y6468096D01*
X64964761Y6468096D01*
X65079047Y6506191D01*
X65117142Y6544286D01*
X65117142Y6810953D01*
X64964761Y6810953D01*
X65460000Y6468096D02*
X65460000Y7268096D01*
X65764761Y7268096D01*
X65840952Y7230000D01*
X65879047Y7191905D01*
X65917142Y7115715D01*
X65917142Y7001429D01*
X65879047Y6925239D01*
X65840952Y6887143D01*
X65764761Y6849048D01*
X65460000Y6849048D01*
X66260000Y6468096D02*
X66260000Y7268096D01*
X66793333Y7268096D02*
X66945714Y7268096D01*
X67021904Y7230000D01*
X67098095Y7153810D01*
X67136190Y7001429D01*
X67136190Y6734762D01*
X67098095Y6582381D01*
X67021904Y6506191D01*
X66945714Y6468096D01*
X66793333Y6468096D01*
X66717142Y6506191D01*
X66640952Y6582381D01*
X66602857Y6734762D01*
X66602857Y7001429D01*
X66640952Y7153810D01*
X66717142Y7230000D01*
X66793333Y7268096D01*
X67898095Y6468096D02*
X67440952Y6468096D01*
X67669523Y6468096D02*
X67669523Y7268096D01*
X67593333Y7153810D01*
X67517142Y7077620D01*
X67440952Y7039524D01*
G04 #@! TO.C,GPIO2*
X65079047Y43360000D02*
X65002857Y43398096D01*
X64888571Y43398096D01*
X64774285Y43360000D01*
X64698095Y43283810D01*
X64660000Y43207620D01*
X64621904Y43055239D01*
X64621904Y42940953D01*
X64660000Y42788572D01*
X64698095Y42712381D01*
X64774285Y42636191D01*
X64888571Y42598096D01*
X64964761Y42598096D01*
X65079047Y42636191D01*
X65117142Y42674286D01*
X65117142Y42940953D01*
X64964761Y42940953D01*
X65460000Y42598096D02*
X65460000Y43398096D01*
X65764761Y43398096D01*
X65840952Y43360000D01*
X65879047Y43321905D01*
X65917142Y43245715D01*
X65917142Y43131429D01*
X65879047Y43055239D01*
X65840952Y43017143D01*
X65764761Y42979048D01*
X65460000Y42979048D01*
X66260000Y42598096D02*
X66260000Y43398096D01*
X66793333Y43398096D02*
X66945714Y43398096D01*
X67021904Y43360000D01*
X67098095Y43283810D01*
X67136190Y43131429D01*
X67136190Y42864762D01*
X67098095Y42712381D01*
X67021904Y42636191D01*
X66945714Y42598096D01*
X66793333Y42598096D01*
X66717142Y42636191D01*
X66640952Y42712381D01*
X66602857Y42864762D01*
X66602857Y43131429D01*
X66640952Y43283810D01*
X66717142Y43360000D01*
X66793333Y43398096D01*
X67440952Y43321905D02*
X67479047Y43360000D01*
X67555238Y43398096D01*
X67745714Y43398096D01*
X67821904Y43360000D01*
X67860000Y43321905D01*
X67898095Y43245715D01*
X67898095Y43169524D01*
X67860000Y43055239D01*
X67402857Y42598096D01*
X67898095Y42598096D01*
G04 #@! TO.C,IN-3V*
X48401904Y41808096D02*
X48401904Y42608096D01*
X48782857Y41808096D02*
X48782857Y42608096D01*
X49240000Y41808096D01*
X49240000Y42608096D01*
X49620952Y42112858D02*
X50230476Y42112858D01*
X50535238Y42608096D02*
X51030476Y42608096D01*
X50763809Y42303334D01*
X50878095Y42303334D01*
X50954285Y42265239D01*
X50992380Y42227143D01*
X51030476Y42150953D01*
X51030476Y41960477D01*
X50992380Y41884286D01*
X50954285Y41846191D01*
X50878095Y41808096D01*
X50649523Y41808096D01*
X50573333Y41846191D01*
X50535238Y41884286D01*
X51259047Y42608096D02*
X51525714Y41808096D01*
X51792380Y42608096D01*
G04 #@! TO.C,TEST-P*
X74058571Y14428096D02*
X74515714Y14428096D01*
X74287142Y13628096D02*
X74287142Y14428096D01*
X74782380Y14047143D02*
X75049047Y14047143D01*
X75163333Y13628096D02*
X74782380Y13628096D01*
X74782380Y14428096D01*
X75163333Y14428096D01*
X75468095Y13666191D02*
X75582380Y13628096D01*
X75772857Y13628096D01*
X75849047Y13666191D01*
X75887142Y13704286D01*
X75925238Y13780477D01*
X75925238Y13856667D01*
X75887142Y13932858D01*
X75849047Y13970953D01*
X75772857Y14009048D01*
X75620476Y14047143D01*
X75544285Y14085239D01*
X75506190Y14123334D01*
X75468095Y14199524D01*
X75468095Y14275715D01*
X75506190Y14351905D01*
X75544285Y14390000D01*
X75620476Y14428096D01*
X75810952Y14428096D01*
X75925238Y14390000D01*
X76153809Y14428096D02*
X76610952Y14428096D01*
X76382380Y13628096D02*
X76382380Y14428096D01*
X76877619Y13932858D02*
X77487142Y13932858D01*
X77868095Y13628096D02*
X77868095Y14428096D01*
X78172857Y14428096D01*
X78249047Y14390000D01*
X78287142Y14351905D01*
X78325238Y14275715D01*
X78325238Y14161429D01*
X78287142Y14085239D01*
X78249047Y14047143D01*
X78172857Y14009048D01*
X77868095Y14009048D01*
G04 #@! TO.C,ETHERNET*
X16327142Y18947143D02*
X16593809Y18947143D01*
X16708095Y18528096D02*
X16327142Y18528096D01*
X16327142Y19328096D01*
X16708095Y19328096D01*
X16936666Y19328096D02*
X17393809Y19328096D01*
X17165238Y18528096D02*
X17165238Y19328096D01*
X17660476Y18528096D02*
X17660476Y19328096D01*
X17660476Y18947143D02*
X18117619Y18947143D01*
X18117619Y18528096D02*
X18117619Y19328096D01*
X18498571Y18947143D02*
X18765238Y18947143D01*
X18879523Y18528096D02*
X18498571Y18528096D01*
X18498571Y19328096D01*
X18879523Y19328096D01*
X19679523Y18528096D02*
X19412857Y18909048D01*
X19222380Y18528096D02*
X19222380Y19328096D01*
X19527142Y19328096D01*
X19603333Y19290000D01*
X19641428Y19251905D01*
X19679523Y19175715D01*
X19679523Y19061429D01*
X19641428Y18985239D01*
X19603333Y18947143D01*
X19527142Y18909048D01*
X19222380Y18909048D01*
X20022380Y18528096D02*
X20022380Y19328096D01*
X20479523Y18528096D01*
X20479523Y19328096D01*
X20860476Y18947143D02*
X21127142Y18947143D01*
X21241428Y18528096D02*
X20860476Y18528096D01*
X20860476Y19328096D01*
X21241428Y19328096D01*
X21470000Y19328096D02*
X21927142Y19328096D01*
X21698571Y18528096D02*
X21698571Y19328096D01*
G04 #@! TO.C,JTAG1*
X33005714Y49008096D02*
X33005714Y48436667D01*
X32967619Y48322381D01*
X32891428Y48246191D01*
X32777142Y48208096D01*
X32700952Y48208096D01*
X33272380Y49008096D02*
X33729523Y49008096D01*
X33500952Y48208096D02*
X33500952Y49008096D01*
X33958095Y48436667D02*
X34339047Y48436667D01*
X33881904Y48208096D02*
X34148571Y49008096D01*
X34415238Y48208096D01*
X35100952Y48970000D02*
X35024761Y49008096D01*
X34910476Y49008096D01*
X34796190Y48970000D01*
X34720000Y48893810D01*
X34681904Y48817620D01*
X34643809Y48665239D01*
X34643809Y48550953D01*
X34681904Y48398572D01*
X34720000Y48322381D01*
X34796190Y48246191D01*
X34910476Y48208096D01*
X34986666Y48208096D01*
X35100952Y48246191D01*
X35139047Y48284286D01*
X35139047Y48550953D01*
X34986666Y48550953D01*
X35900952Y48208096D02*
X35443809Y48208096D01*
X35672380Y48208096D02*
X35672380Y49008096D01*
X35596190Y48893810D01*
X35520000Y48817620D01*
X35443809Y48779524D01*
G04 #@! TO.C,L1*
X47586666Y40028096D02*
X47205714Y40028096D01*
X47205714Y40828096D01*
X48272380Y40028096D02*
X47815238Y40028096D01*
X48043809Y40028096D02*
X48043809Y40828096D01*
X47967619Y40713810D01*
X47891428Y40637620D01*
X47815238Y40599524D01*
G04 #@! TO.C,L3*
X21936666Y11818096D02*
X21555714Y11818096D01*
X21555714Y12618096D01*
X22127142Y12618096D02*
X22622380Y12618096D01*
X22355714Y12313334D01*
X22470000Y12313334D01*
X22546190Y12275239D01*
X22584285Y12237143D01*
X22622380Y12160953D01*
X22622380Y11970477D01*
X22584285Y11894286D01*
X22546190Y11856191D01*
X22470000Y11818096D01*
X22241428Y11818096D01*
X22165238Y11856191D01*
X22127142Y11894286D01*
G04 #@! TO.C,L4*
X32996666Y35978096D02*
X32615714Y35978096D01*
X32615714Y36778096D01*
X33606190Y36511429D02*
X33606190Y35978096D01*
X33415714Y36816191D02*
X33225238Y36244762D01*
X33720476Y36244762D01*
G04 #@! TO.C,LED*
X88611904Y28865715D02*
X88611904Y28484762D01*
X87811904Y28484762D01*
X88192857Y29132381D02*
X88192857Y29399048D01*
X88611904Y29513334D02*
X88611904Y29132381D01*
X87811904Y29132381D01*
X87811904Y29513334D01*
X88611904Y29856191D02*
X87811904Y29856191D01*
X87811904Y30046667D01*
X87850000Y30160953D01*
X87926190Y30237143D01*
X88002380Y30275239D01*
X88154761Y30313334D01*
X88269047Y30313334D01*
X88421428Y30275239D01*
X88497619Y30237143D01*
X88573809Y30160953D01*
X88611904Y30046667D01*
X88611904Y29856191D01*
G04 #@! TO.C,POWER*
X55172380Y6868096D02*
X55172380Y7668096D01*
X55477142Y7668096D01*
X55553333Y7630000D01*
X55591428Y7591905D01*
X55629523Y7515715D01*
X55629523Y7401429D01*
X55591428Y7325239D01*
X55553333Y7287143D01*
X55477142Y7249048D01*
X55172380Y7249048D01*
X56124761Y7668096D02*
X56277142Y7668096D01*
X56353333Y7630000D01*
X56429523Y7553810D01*
X56467619Y7401429D01*
X56467619Y7134762D01*
X56429523Y6982381D01*
X56353333Y6906191D01*
X56277142Y6868096D01*
X56124761Y6868096D01*
X56048571Y6906191D01*
X55972380Y6982381D01*
X55934285Y7134762D01*
X55934285Y7401429D01*
X55972380Y7553810D01*
X56048571Y7630000D01*
X56124761Y7668096D01*
X56734285Y7668096D02*
X56924761Y6868096D01*
X57077142Y7439524D01*
X57229523Y6868096D01*
X57420000Y7668096D01*
X57724761Y7287143D02*
X57991428Y7287143D01*
X58105714Y6868096D02*
X57724761Y6868096D01*
X57724761Y7668096D01*
X58105714Y7668096D01*
X58905714Y6868096D02*
X58639047Y7249048D01*
X58448571Y6868096D02*
X58448571Y7668096D01*
X58753333Y7668096D01*
X58829523Y7630000D01*
X58867619Y7591905D01*
X58905714Y7515715D01*
X58905714Y7401429D01*
X58867619Y7325239D01*
X58829523Y7287143D01*
X58753333Y7249048D01*
X58448571Y7249048D01*
G04 #@! TO.C,R4*
X56136666Y35628096D02*
X55870000Y36009048D01*
X55679523Y35628096D02*
X55679523Y36428096D01*
X55984285Y36428096D01*
X56060476Y36390000D01*
X56098571Y36351905D01*
X56136666Y36275715D01*
X56136666Y36161429D01*
X56098571Y36085239D01*
X56060476Y36047143D01*
X55984285Y36009048D01*
X55679523Y36009048D01*
X56822380Y36161429D02*
X56822380Y35628096D01*
X56631904Y36466191D02*
X56441428Y35894762D01*
X56936666Y35894762D01*
G04 #@! TO.C,R7*
X88641904Y32416667D02*
X88260952Y32150000D01*
X88641904Y31959524D02*
X87841904Y31959524D01*
X87841904Y32264286D01*
X87880000Y32340477D01*
X87918095Y32378572D01*
X87994285Y32416667D01*
X88108571Y32416667D01*
X88184761Y32378572D01*
X88222857Y32340477D01*
X88260952Y32264286D01*
X88260952Y31959524D01*
X87841904Y32683334D02*
X87841904Y33216667D01*
X88641904Y32873810D01*
G04 #@! TO.C,R8*
X52206666Y19638096D02*
X51940000Y20019048D01*
X51749523Y19638096D02*
X51749523Y20438096D01*
X52054285Y20438096D01*
X52130476Y20400000D01*
X52168571Y20361905D01*
X52206666Y20285715D01*
X52206666Y20171429D01*
X52168571Y20095239D01*
X52130476Y20057143D01*
X52054285Y20019048D01*
X51749523Y20019048D01*
X52663809Y20095239D02*
X52587619Y20133334D01*
X52549523Y20171429D01*
X52511428Y20247620D01*
X52511428Y20285715D01*
X52549523Y20361905D01*
X52587619Y20400000D01*
X52663809Y20438096D01*
X52816190Y20438096D01*
X52892380Y20400000D01*
X52930476Y20361905D01*
X52968571Y20285715D01*
X52968571Y20247620D01*
X52930476Y20171429D01*
X52892380Y20133334D01*
X52816190Y20095239D01*
X52663809Y20095239D01*
X52587619Y20057143D01*
X52549523Y20019048D01*
X52511428Y19942858D01*
X52511428Y19790477D01*
X52549523Y19714286D01*
X52587619Y19676191D01*
X52663809Y19638096D01*
X52816190Y19638096D01*
X52892380Y19676191D01*
X52930476Y19714286D01*
X52968571Y19790477D01*
X52968571Y19942858D01*
X52930476Y20019048D01*
X52892380Y20057143D01*
X52816190Y20095239D01*
G04 #@! TO.C,R13*
X49435714Y19638096D02*
X49169047Y20019048D01*
X48978571Y19638096D02*
X48978571Y20438096D01*
X49283333Y20438096D01*
X49359523Y20400000D01*
X49397619Y20361905D01*
X49435714Y20285715D01*
X49435714Y20171429D01*
X49397619Y20095239D01*
X49359523Y20057143D01*
X49283333Y20019048D01*
X48978571Y20019048D01*
X50197619Y19638096D02*
X49740476Y19638096D01*
X49969047Y19638096D02*
X49969047Y20438096D01*
X49892857Y20323810D01*
X49816666Y20247620D01*
X49740476Y20209524D01*
X50464285Y20438096D02*
X50959523Y20438096D01*
X50692857Y20133334D01*
X50807142Y20133334D01*
X50883333Y20095239D01*
X50921428Y20057143D01*
X50959523Y19980953D01*
X50959523Y19790477D01*
X50921428Y19714286D01*
X50883333Y19676191D01*
X50807142Y19638096D01*
X50578571Y19638096D01*
X50502380Y19676191D01*
X50464285Y19714286D01*
G04 #@! TO.C,R16*
X79895714Y16728096D02*
X79629047Y17109048D01*
X79438571Y16728096D02*
X79438571Y17528096D01*
X79743333Y17528096D01*
X79819523Y17490000D01*
X79857619Y17451905D01*
X79895714Y17375715D01*
X79895714Y17261429D01*
X79857619Y17185239D01*
X79819523Y17147143D01*
X79743333Y17109048D01*
X79438571Y17109048D01*
X80657619Y16728096D02*
X80200476Y16728096D01*
X80429047Y16728096D02*
X80429047Y17528096D01*
X80352857Y17413810D01*
X80276666Y17337620D01*
X80200476Y17299524D01*
X81343333Y17528096D02*
X81190952Y17528096D01*
X81114761Y17490000D01*
X81076666Y17451905D01*
X81000476Y17337620D01*
X80962380Y17185239D01*
X80962380Y16880477D01*
X81000476Y16804286D01*
X81038571Y16766191D01*
X81114761Y16728096D01*
X81267142Y16728096D01*
X81343333Y16766191D01*
X81381428Y16804286D01*
X81419523Y16880477D01*
X81419523Y17070953D01*
X81381428Y17147143D01*
X81343333Y17185239D01*
X81267142Y17223334D01*
X81114761Y17223334D01*
X81038571Y17185239D01*
X81000476Y17147143D01*
X80962380Y17070953D01*
G04 #@! TO.C,R17*
X79775714Y30958096D02*
X79509047Y31339048D01*
X79318571Y30958096D02*
X79318571Y31758096D01*
X79623333Y31758096D01*
X79699523Y31720000D01*
X79737619Y31681905D01*
X79775714Y31605715D01*
X79775714Y31491429D01*
X79737619Y31415239D01*
X79699523Y31377143D01*
X79623333Y31339048D01*
X79318571Y31339048D01*
X80537619Y30958096D02*
X80080476Y30958096D01*
X80309047Y30958096D02*
X80309047Y31758096D01*
X80232857Y31643810D01*
X80156666Y31567620D01*
X80080476Y31529524D01*
X80804285Y31758096D02*
X81337619Y31758096D01*
X80994761Y30958096D01*
G04 #@! TO.C,R18*
X85875714Y35058096D02*
X85609047Y35439048D01*
X85418571Y35058096D02*
X85418571Y35858096D01*
X85723333Y35858096D01*
X85799523Y35820000D01*
X85837619Y35781905D01*
X85875714Y35705715D01*
X85875714Y35591429D01*
X85837619Y35515239D01*
X85799523Y35477143D01*
X85723333Y35439048D01*
X85418571Y35439048D01*
X86637619Y35058096D02*
X86180476Y35058096D01*
X86409047Y35058096D02*
X86409047Y35858096D01*
X86332857Y35743810D01*
X86256666Y35667620D01*
X86180476Y35629524D01*
X87094761Y35515239D02*
X87018571Y35553334D01*
X86980476Y35591429D01*
X86942380Y35667620D01*
X86942380Y35705715D01*
X86980476Y35781905D01*
X87018571Y35820000D01*
X87094761Y35858096D01*
X87247142Y35858096D01*
X87323333Y35820000D01*
X87361428Y35781905D01*
X87399523Y35705715D01*
X87399523Y35667620D01*
X87361428Y35591429D01*
X87323333Y35553334D01*
X87247142Y35515239D01*
X87094761Y35515239D01*
X87018571Y35477143D01*
X86980476Y35439048D01*
X86942380Y35362858D01*
X86942380Y35210477D01*
X86980476Y35134286D01*
X87018571Y35096191D01*
X87094761Y35058096D01*
X87247142Y35058096D01*
X87323333Y35096191D01*
X87361428Y35134286D01*
X87399523Y35210477D01*
X87399523Y35362858D01*
X87361428Y35439048D01*
X87323333Y35477143D01*
X87247142Y35515239D01*
G04 #@! TO.C,R21*
X31365714Y18678096D02*
X31099047Y19059048D01*
X30908571Y18678096D02*
X30908571Y19478096D01*
X31213333Y19478096D01*
X31289523Y19440000D01*
X31327619Y19401905D01*
X31365714Y19325715D01*
X31365714Y19211429D01*
X31327619Y19135239D01*
X31289523Y19097143D01*
X31213333Y19059048D01*
X30908571Y19059048D01*
X31670476Y19401905D02*
X31708571Y19440000D01*
X31784761Y19478096D01*
X31975238Y19478096D01*
X32051428Y19440000D01*
X32089523Y19401905D01*
X32127619Y19325715D01*
X32127619Y19249524D01*
X32089523Y19135239D01*
X31632380Y18678096D01*
X32127619Y18678096D01*
X32889523Y18678096D02*
X32432380Y18678096D01*
X32660952Y18678096D02*
X32660952Y19478096D01*
X32584761Y19363810D01*
X32508571Y19287620D01*
X32432380Y19249524D01*
G04 #@! TO.C,R22*
X45275714Y35148096D02*
X45009047Y35529048D01*
X44818571Y35148096D02*
X44818571Y35948096D01*
X45123333Y35948096D01*
X45199523Y35910000D01*
X45237619Y35871905D01*
X45275714Y35795715D01*
X45275714Y35681429D01*
X45237619Y35605239D01*
X45199523Y35567143D01*
X45123333Y35529048D01*
X44818571Y35529048D01*
X45580476Y35871905D02*
X45618571Y35910000D01*
X45694761Y35948096D01*
X45885238Y35948096D01*
X45961428Y35910000D01*
X45999523Y35871905D01*
X46037619Y35795715D01*
X46037619Y35719524D01*
X45999523Y35605239D01*
X45542380Y35148096D01*
X46037619Y35148096D01*
X46342380Y35871905D02*
X46380476Y35910000D01*
X46456666Y35948096D01*
X46647142Y35948096D01*
X46723333Y35910000D01*
X46761428Y35871905D01*
X46799523Y35795715D01*
X46799523Y35719524D01*
X46761428Y35605239D01*
X46304285Y35148096D01*
X46799523Y35148096D01*
G04 #@! TO.C,R23*
X34295714Y30588096D02*
X34029047Y30969048D01*
X33838571Y30588096D02*
X33838571Y31388096D01*
X34143333Y31388096D01*
X34219523Y31350000D01*
X34257619Y31311905D01*
X34295714Y31235715D01*
X34295714Y31121429D01*
X34257619Y31045239D01*
X34219523Y31007143D01*
X34143333Y30969048D01*
X33838571Y30969048D01*
X34600476Y31311905D02*
X34638571Y31350000D01*
X34714761Y31388096D01*
X34905238Y31388096D01*
X34981428Y31350000D01*
X35019523Y31311905D01*
X35057619Y31235715D01*
X35057619Y31159524D01*
X35019523Y31045239D01*
X34562380Y30588096D01*
X35057619Y30588096D01*
X35324285Y31388096D02*
X35819523Y31388096D01*
X35552857Y31083334D01*
X35667142Y31083334D01*
X35743333Y31045239D01*
X35781428Y31007143D01*
X35819523Y30930953D01*
X35819523Y30740477D01*
X35781428Y30664286D01*
X35743333Y30626191D01*
X35667142Y30588096D01*
X35438571Y30588096D01*
X35362380Y30626191D01*
X35324285Y30664286D01*
G04 #@! TO.C,R24*
X31365714Y20118096D02*
X31099047Y20499048D01*
X30908571Y20118096D02*
X30908571Y20918096D01*
X31213333Y20918096D01*
X31289523Y20880000D01*
X31327619Y20841905D01*
X31365714Y20765715D01*
X31365714Y20651429D01*
X31327619Y20575239D01*
X31289523Y20537143D01*
X31213333Y20499048D01*
X30908571Y20499048D01*
X31670476Y20841905D02*
X31708571Y20880000D01*
X31784761Y20918096D01*
X31975238Y20918096D01*
X32051428Y20880000D01*
X32089523Y20841905D01*
X32127619Y20765715D01*
X32127619Y20689524D01*
X32089523Y20575239D01*
X31632380Y20118096D01*
X32127619Y20118096D01*
X32813333Y20651429D02*
X32813333Y20118096D01*
X32622857Y20956191D02*
X32432380Y20384762D01*
X32927619Y20384762D01*
G04 #@! TO.C,R25*
X26331904Y30775715D02*
X25950952Y30509048D01*
X26331904Y30318572D02*
X25531904Y30318572D01*
X25531904Y30623334D01*
X25570000Y30699524D01*
X25608095Y30737620D01*
X25684285Y30775715D01*
X25798571Y30775715D01*
X25874761Y30737620D01*
X25912857Y30699524D01*
X25950952Y30623334D01*
X25950952Y30318572D01*
X25608095Y31080477D02*
X25570000Y31118572D01*
X25531904Y31194762D01*
X25531904Y31385239D01*
X25570000Y31461429D01*
X25608095Y31499524D01*
X25684285Y31537620D01*
X25760476Y31537620D01*
X25874761Y31499524D01*
X26331904Y31042381D01*
X26331904Y31537620D01*
X25531904Y32261429D02*
X25531904Y31880477D01*
X25912857Y31842381D01*
X25874761Y31880477D01*
X25836666Y31956667D01*
X25836666Y32147143D01*
X25874761Y32223334D01*
X25912857Y32261429D01*
X25989047Y32299524D01*
X26179523Y32299524D01*
X26255714Y32261429D01*
X26293809Y32223334D01*
X26331904Y32147143D01*
X26331904Y31956667D01*
X26293809Y31880477D01*
X26255714Y31842381D01*
G04 #@! TO.C,R28*
X25595714Y17548096D02*
X25329047Y17929048D01*
X25138571Y17548096D02*
X25138571Y18348096D01*
X25443333Y18348096D01*
X25519523Y18310000D01*
X25557619Y18271905D01*
X25595714Y18195715D01*
X25595714Y18081429D01*
X25557619Y18005239D01*
X25519523Y17967143D01*
X25443333Y17929048D01*
X25138571Y17929048D01*
X25900476Y18271905D02*
X25938571Y18310000D01*
X26014761Y18348096D01*
X26205238Y18348096D01*
X26281428Y18310000D01*
X26319523Y18271905D01*
X26357619Y18195715D01*
X26357619Y18119524D01*
X26319523Y18005239D01*
X25862380Y17548096D01*
X26357619Y17548096D01*
X26814761Y18005239D02*
X26738571Y18043334D01*
X26700476Y18081429D01*
X26662380Y18157620D01*
X26662380Y18195715D01*
X26700476Y18271905D01*
X26738571Y18310000D01*
X26814761Y18348096D01*
X26967142Y18348096D01*
X27043333Y18310000D01*
X27081428Y18271905D01*
X27119523Y18195715D01*
X27119523Y18157620D01*
X27081428Y18081429D01*
X27043333Y18043334D01*
X26967142Y18005239D01*
X26814761Y18005239D01*
X26738571Y17967143D01*
X26700476Y17929048D01*
X26662380Y17852858D01*
X26662380Y17700477D01*
X26700476Y17624286D01*
X26738571Y17586191D01*
X26814761Y17548096D01*
X26967142Y17548096D01*
X27043333Y17586191D01*
X27081428Y17624286D01*
X27119523Y17700477D01*
X27119523Y17852858D01*
X27081428Y17929048D01*
X27043333Y17967143D01*
X26967142Y18005239D01*
G04 #@! TO.C,R29*
X25595714Y14538096D02*
X25329047Y14919048D01*
X25138571Y14538096D02*
X25138571Y15338096D01*
X25443333Y15338096D01*
X25519523Y15300000D01*
X25557619Y15261905D01*
X25595714Y15185715D01*
X25595714Y15071429D01*
X25557619Y14995239D01*
X25519523Y14957143D01*
X25443333Y14919048D01*
X25138571Y14919048D01*
X25900476Y15261905D02*
X25938571Y15300000D01*
X26014761Y15338096D01*
X26205238Y15338096D01*
X26281428Y15300000D01*
X26319523Y15261905D01*
X26357619Y15185715D01*
X26357619Y15109524D01*
X26319523Y14995239D01*
X25862380Y14538096D01*
X26357619Y14538096D01*
X26738571Y14538096D02*
X26890952Y14538096D01*
X26967142Y14576191D01*
X27005238Y14614286D01*
X27081428Y14728572D01*
X27119523Y14880953D01*
X27119523Y15185715D01*
X27081428Y15261905D01*
X27043333Y15300000D01*
X26967142Y15338096D01*
X26814761Y15338096D01*
X26738571Y15300000D01*
X26700476Y15261905D01*
X26662380Y15185715D01*
X26662380Y14995239D01*
X26700476Y14919048D01*
X26738571Y14880953D01*
X26814761Y14842858D01*
X26967142Y14842858D01*
X27043333Y14880953D01*
X27081428Y14919048D01*
X27119523Y14995239D01*
G04 #@! TO.C,R30*
X25595714Y19588096D02*
X25329047Y19969048D01*
X25138571Y19588096D02*
X25138571Y20388096D01*
X25443333Y20388096D01*
X25519523Y20350000D01*
X25557619Y20311905D01*
X25595714Y20235715D01*
X25595714Y20121429D01*
X25557619Y20045239D01*
X25519523Y20007143D01*
X25443333Y19969048D01*
X25138571Y19969048D01*
X25862380Y20388096D02*
X26357619Y20388096D01*
X26090952Y20083334D01*
X26205238Y20083334D01*
X26281428Y20045239D01*
X26319523Y20007143D01*
X26357619Y19930953D01*
X26357619Y19740477D01*
X26319523Y19664286D01*
X26281428Y19626191D01*
X26205238Y19588096D01*
X25976666Y19588096D01*
X25900476Y19626191D01*
X25862380Y19664286D01*
X26852857Y20388096D02*
X26929047Y20388096D01*
X27005238Y20350000D01*
X27043333Y20311905D01*
X27081428Y20235715D01*
X27119523Y20083334D01*
X27119523Y19892858D01*
X27081428Y19740477D01*
X27043333Y19664286D01*
X27005238Y19626191D01*
X26929047Y19588096D01*
X26852857Y19588096D01*
X26776666Y19626191D01*
X26738571Y19664286D01*
X26700476Y19740477D01*
X26662380Y19892858D01*
X26662380Y20083334D01*
X26700476Y20235715D01*
X26738571Y20311905D01*
X26776666Y20350000D01*
X26852857Y20388096D01*
G04 #@! TO.C,R31*
X22385714Y35468096D02*
X22119047Y35849048D01*
X21928571Y35468096D02*
X21928571Y36268096D01*
X22233333Y36268096D01*
X22309523Y36230000D01*
X22347619Y36191905D01*
X22385714Y36115715D01*
X22385714Y36001429D01*
X22347619Y35925239D01*
X22309523Y35887143D01*
X22233333Y35849048D01*
X21928571Y35849048D01*
X22652380Y36268096D02*
X23147619Y36268096D01*
X22880952Y35963334D01*
X22995238Y35963334D01*
X23071428Y35925239D01*
X23109523Y35887143D01*
X23147619Y35810953D01*
X23147619Y35620477D01*
X23109523Y35544286D01*
X23071428Y35506191D01*
X22995238Y35468096D01*
X22766666Y35468096D01*
X22690476Y35506191D01*
X22652380Y35544286D01*
X23909523Y35468096D02*
X23452380Y35468096D01*
X23680952Y35468096D02*
X23680952Y36268096D01*
X23604761Y36153810D01*
X23528571Y36077620D01*
X23452380Y36039524D01*
G04 #@! TO.C,R32*
X25595714Y18558096D02*
X25329047Y18939048D01*
X25138571Y18558096D02*
X25138571Y19358096D01*
X25443333Y19358096D01*
X25519523Y19320000D01*
X25557619Y19281905D01*
X25595714Y19205715D01*
X25595714Y19091429D01*
X25557619Y19015239D01*
X25519523Y18977143D01*
X25443333Y18939048D01*
X25138571Y18939048D01*
X25862380Y19358096D02*
X26357619Y19358096D01*
X26090952Y19053334D01*
X26205238Y19053334D01*
X26281428Y19015239D01*
X26319523Y18977143D01*
X26357619Y18900953D01*
X26357619Y18710477D01*
X26319523Y18634286D01*
X26281428Y18596191D01*
X26205238Y18558096D01*
X25976666Y18558096D01*
X25900476Y18596191D01*
X25862380Y18634286D01*
X26662380Y19281905D02*
X26700476Y19320000D01*
X26776666Y19358096D01*
X26967142Y19358096D01*
X27043333Y19320000D01*
X27081428Y19281905D01*
X27119523Y19205715D01*
X27119523Y19129524D01*
X27081428Y19015239D01*
X26624285Y18558096D01*
X27119523Y18558096D01*
G04 #@! TO.C,R34*
X36681904Y37205715D02*
X36300952Y36939048D01*
X36681904Y36748572D02*
X35881904Y36748572D01*
X35881904Y37053334D01*
X35920000Y37129524D01*
X35958095Y37167620D01*
X36034285Y37205715D01*
X36148571Y37205715D01*
X36224761Y37167620D01*
X36262857Y37129524D01*
X36300952Y37053334D01*
X36300952Y36748572D01*
X35881904Y37472381D02*
X35881904Y37967620D01*
X36186666Y37700953D01*
X36186666Y37815239D01*
X36224761Y37891429D01*
X36262857Y37929524D01*
X36339047Y37967620D01*
X36529523Y37967620D01*
X36605714Y37929524D01*
X36643809Y37891429D01*
X36681904Y37815239D01*
X36681904Y37586667D01*
X36643809Y37510477D01*
X36605714Y37472381D01*
X36148571Y38653334D02*
X36681904Y38653334D01*
X35843809Y38462858D02*
X36415238Y38272381D01*
X36415238Y38767620D01*
G04 #@! TO.C,R35*
X41235714Y39568096D02*
X40969047Y39949048D01*
X40778571Y39568096D02*
X40778571Y40368096D01*
X41083333Y40368096D01*
X41159523Y40330000D01*
X41197619Y40291905D01*
X41235714Y40215715D01*
X41235714Y40101429D01*
X41197619Y40025239D01*
X41159523Y39987143D01*
X41083333Y39949048D01*
X40778571Y39949048D01*
X41502380Y40368096D02*
X41997619Y40368096D01*
X41730952Y40063334D01*
X41845238Y40063334D01*
X41921428Y40025239D01*
X41959523Y39987143D01*
X41997619Y39910953D01*
X41997619Y39720477D01*
X41959523Y39644286D01*
X41921428Y39606191D01*
X41845238Y39568096D01*
X41616666Y39568096D01*
X41540476Y39606191D01*
X41502380Y39644286D01*
X42721428Y40368096D02*
X42340476Y40368096D01*
X42302380Y39987143D01*
X42340476Y40025239D01*
X42416666Y40063334D01*
X42607142Y40063334D01*
X42683333Y40025239D01*
X42721428Y39987143D01*
X42759523Y39910953D01*
X42759523Y39720477D01*
X42721428Y39644286D01*
X42683333Y39606191D01*
X42607142Y39568096D01*
X42416666Y39568096D01*
X42340476Y39606191D01*
X42302380Y39644286D01*
G04 #@! TO.C,R36*
X44495714Y36128096D02*
X44229047Y36509048D01*
X44038571Y36128096D02*
X44038571Y36928096D01*
X44343333Y36928096D01*
X44419523Y36890000D01*
X44457619Y36851905D01*
X44495714Y36775715D01*
X44495714Y36661429D01*
X44457619Y36585239D01*
X44419523Y36547143D01*
X44343333Y36509048D01*
X44038571Y36509048D01*
X44762380Y36928096D02*
X45257619Y36928096D01*
X44990952Y36623334D01*
X45105238Y36623334D01*
X45181428Y36585239D01*
X45219523Y36547143D01*
X45257619Y36470953D01*
X45257619Y36280477D01*
X45219523Y36204286D01*
X45181428Y36166191D01*
X45105238Y36128096D01*
X44876666Y36128096D01*
X44800476Y36166191D01*
X44762380Y36204286D01*
X45943333Y36928096D02*
X45790952Y36928096D01*
X45714761Y36890000D01*
X45676666Y36851905D01*
X45600476Y36737620D01*
X45562380Y36585239D01*
X45562380Y36280477D01*
X45600476Y36204286D01*
X45638571Y36166191D01*
X45714761Y36128096D01*
X45867142Y36128096D01*
X45943333Y36166191D01*
X45981428Y36204286D01*
X46019523Y36280477D01*
X46019523Y36470953D01*
X45981428Y36547143D01*
X45943333Y36585239D01*
X45867142Y36623334D01*
X45714761Y36623334D01*
X45638571Y36585239D01*
X45600476Y36547143D01*
X45562380Y36470953D01*
G04 #@! TO.C,R37*
X34711904Y37195715D02*
X34330952Y36929048D01*
X34711904Y36738572D02*
X33911904Y36738572D01*
X33911904Y37043334D01*
X33950000Y37119524D01*
X33988095Y37157620D01*
X34064285Y37195715D01*
X34178571Y37195715D01*
X34254761Y37157620D01*
X34292857Y37119524D01*
X34330952Y37043334D01*
X34330952Y36738572D01*
X33911904Y37462381D02*
X33911904Y37957620D01*
X34216666Y37690953D01*
X34216666Y37805239D01*
X34254761Y37881429D01*
X34292857Y37919524D01*
X34369047Y37957620D01*
X34559523Y37957620D01*
X34635714Y37919524D01*
X34673809Y37881429D01*
X34711904Y37805239D01*
X34711904Y37576667D01*
X34673809Y37500477D01*
X34635714Y37462381D01*
X33911904Y38224286D02*
X33911904Y38757620D01*
X34711904Y38414762D01*
G04 #@! TO.C,R38*
X35701904Y37205715D02*
X35320952Y36939048D01*
X35701904Y36748572D02*
X34901904Y36748572D01*
X34901904Y37053334D01*
X34940000Y37129524D01*
X34978095Y37167620D01*
X35054285Y37205715D01*
X35168571Y37205715D01*
X35244761Y37167620D01*
X35282857Y37129524D01*
X35320952Y37053334D01*
X35320952Y36748572D01*
X34901904Y37472381D02*
X34901904Y37967620D01*
X35206666Y37700953D01*
X35206666Y37815239D01*
X35244761Y37891429D01*
X35282857Y37929524D01*
X35359047Y37967620D01*
X35549523Y37967620D01*
X35625714Y37929524D01*
X35663809Y37891429D01*
X35701904Y37815239D01*
X35701904Y37586667D01*
X35663809Y37510477D01*
X35625714Y37472381D01*
X35244761Y38424762D02*
X35206666Y38348572D01*
X35168571Y38310477D01*
X35092380Y38272381D01*
X35054285Y38272381D01*
X34978095Y38310477D01*
X34940000Y38348572D01*
X34901904Y38424762D01*
X34901904Y38577143D01*
X34940000Y38653334D01*
X34978095Y38691429D01*
X35054285Y38729524D01*
X35092380Y38729524D01*
X35168571Y38691429D01*
X35206666Y38653334D01*
X35244761Y38577143D01*
X35244761Y38424762D01*
X35282857Y38348572D01*
X35320952Y38310477D01*
X35397142Y38272381D01*
X35549523Y38272381D01*
X35625714Y38310477D01*
X35663809Y38348572D01*
X35701904Y38424762D01*
X35701904Y38577143D01*
X35663809Y38653334D01*
X35625714Y38691429D01*
X35549523Y38729524D01*
X35397142Y38729524D01*
X35320952Y38691429D01*
X35282857Y38653334D01*
X35244761Y38577143D01*
G04 #@! TO.C,R39*
X14845714Y37318096D02*
X14579047Y37699048D01*
X14388571Y37318096D02*
X14388571Y38118096D01*
X14693333Y38118096D01*
X14769523Y38080000D01*
X14807619Y38041905D01*
X14845714Y37965715D01*
X14845714Y37851429D01*
X14807619Y37775239D01*
X14769523Y37737143D01*
X14693333Y37699048D01*
X14388571Y37699048D01*
X15112380Y38118096D02*
X15607619Y38118096D01*
X15340952Y37813334D01*
X15455238Y37813334D01*
X15531428Y37775239D01*
X15569523Y37737143D01*
X15607619Y37660953D01*
X15607619Y37470477D01*
X15569523Y37394286D01*
X15531428Y37356191D01*
X15455238Y37318096D01*
X15226666Y37318096D01*
X15150476Y37356191D01*
X15112380Y37394286D01*
X15988571Y37318096D02*
X16140952Y37318096D01*
X16217142Y37356191D01*
X16255238Y37394286D01*
X16331428Y37508572D01*
X16369523Y37660953D01*
X16369523Y37965715D01*
X16331428Y38041905D01*
X16293333Y38080000D01*
X16217142Y38118096D01*
X16064761Y38118096D01*
X15988571Y38080000D01*
X15950476Y38041905D01*
X15912380Y37965715D01*
X15912380Y37775239D01*
X15950476Y37699048D01*
X15988571Y37660953D01*
X16064761Y37622858D01*
X16217142Y37622858D01*
X16293333Y37660953D01*
X16331428Y37699048D01*
X16369523Y37775239D01*
G04 #@! TO.C,R40*
X25485714Y37028096D02*
X25219047Y37409048D01*
X25028571Y37028096D02*
X25028571Y37828096D01*
X25333333Y37828096D01*
X25409523Y37790000D01*
X25447619Y37751905D01*
X25485714Y37675715D01*
X25485714Y37561429D01*
X25447619Y37485239D01*
X25409523Y37447143D01*
X25333333Y37409048D01*
X25028571Y37409048D01*
X26171428Y37561429D02*
X26171428Y37028096D01*
X25980952Y37866191D02*
X25790476Y37294762D01*
X26285714Y37294762D01*
X26742857Y37828096D02*
X26819047Y37828096D01*
X26895238Y37790000D01*
X26933333Y37751905D01*
X26971428Y37675715D01*
X27009523Y37523334D01*
X27009523Y37332858D01*
X26971428Y37180477D01*
X26933333Y37104286D01*
X26895238Y37066191D01*
X26819047Y37028096D01*
X26742857Y37028096D01*
X26666666Y37066191D01*
X26628571Y37104286D01*
X26590476Y37180477D01*
X26552380Y37332858D01*
X26552380Y37523334D01*
X26590476Y37675715D01*
X26628571Y37751905D01*
X26666666Y37790000D01*
X26742857Y37828096D01*
G04 #@! TO.C,R41*
X24745714Y5048096D02*
X24479047Y5429048D01*
X24288571Y5048096D02*
X24288571Y5848096D01*
X24593333Y5848096D01*
X24669523Y5810000D01*
X24707619Y5771905D01*
X24745714Y5695715D01*
X24745714Y5581429D01*
X24707619Y5505239D01*
X24669523Y5467143D01*
X24593333Y5429048D01*
X24288571Y5429048D01*
X25431428Y5581429D02*
X25431428Y5048096D01*
X25240952Y5886191D02*
X25050476Y5314762D01*
X25545714Y5314762D01*
X26269523Y5048096D02*
X25812380Y5048096D01*
X26040952Y5048096D02*
X26040952Y5848096D01*
X25964761Y5733810D01*
X25888571Y5657620D01*
X25812380Y5619524D01*
G04 #@! TO.C,R42*
X24745714Y4068096D02*
X24479047Y4449048D01*
X24288571Y4068096D02*
X24288571Y4868096D01*
X24593333Y4868096D01*
X24669523Y4830000D01*
X24707619Y4791905D01*
X24745714Y4715715D01*
X24745714Y4601429D01*
X24707619Y4525239D01*
X24669523Y4487143D01*
X24593333Y4449048D01*
X24288571Y4449048D01*
X25431428Y4601429D02*
X25431428Y4068096D01*
X25240952Y4906191D02*
X25050476Y4334762D01*
X25545714Y4334762D01*
X25812380Y4791905D02*
X25850476Y4830000D01*
X25926666Y4868096D01*
X26117142Y4868096D01*
X26193333Y4830000D01*
X26231428Y4791905D01*
X26269523Y4715715D01*
X26269523Y4639524D01*
X26231428Y4525239D01*
X25774285Y4068096D01*
X26269523Y4068096D01*
G04 #@! TO.C,RESET*
X71778095Y37148096D02*
X71511428Y37529048D01*
X71320952Y37148096D02*
X71320952Y37948096D01*
X71625714Y37948096D01*
X71701904Y37910000D01*
X71740000Y37871905D01*
X71778095Y37795715D01*
X71778095Y37681429D01*
X71740000Y37605239D01*
X71701904Y37567143D01*
X71625714Y37529048D01*
X71320952Y37529048D01*
X72120952Y37567143D02*
X72387619Y37567143D01*
X72501904Y37148096D02*
X72120952Y37148096D01*
X72120952Y37948096D01*
X72501904Y37948096D01*
X72806666Y37186191D02*
X72920952Y37148096D01*
X73111428Y37148096D01*
X73187619Y37186191D01*
X73225714Y37224286D01*
X73263809Y37300477D01*
X73263809Y37376667D01*
X73225714Y37452858D01*
X73187619Y37490953D01*
X73111428Y37529048D01*
X72959047Y37567143D01*
X72882857Y37605239D01*
X72844761Y37643334D01*
X72806666Y37719524D01*
X72806666Y37795715D01*
X72844761Y37871905D01*
X72882857Y37910000D01*
X72959047Y37948096D01*
X73149523Y37948096D01*
X73263809Y37910000D01*
X73606666Y37567143D02*
X73873333Y37567143D01*
X73987619Y37148096D02*
X73606666Y37148096D01*
X73606666Y37948096D01*
X73987619Y37948096D01*
X74216190Y37948096D02*
X74673333Y37948096D01*
X74444761Y37148096D02*
X74444761Y37948096D01*
G04 #@! TO.C,USB*
X17297142Y17058096D02*
X17297142Y16410477D01*
X17335237Y16334286D01*
X17373332Y16296191D01*
X17449523Y16258096D01*
X17601904Y16258096D01*
X17678094Y16296191D01*
X17716189Y16334286D01*
X17754285Y16410477D01*
X17754285Y17058096D01*
X18097142Y16296191D02*
X18211427Y16258096D01*
X18401904Y16258096D01*
X18478094Y16296191D01*
X18516189Y16334286D01*
X18554285Y16410477D01*
X18554285Y16486667D01*
X18516189Y16562858D01*
X18478094Y16600953D01*
X18401904Y16639048D01*
X18249523Y16677143D01*
X18173332Y16715239D01*
X18135237Y16753334D01*
X18097142Y16829524D01*
X18097142Y16905715D01*
X18135237Y16981905D01*
X18173332Y17020000D01*
X18249523Y17058096D01*
X18439999Y17058096D01*
X18554285Y17020000D01*
X19163808Y16677143D02*
X19278094Y16639048D01*
X19316189Y16600953D01*
X19354285Y16524762D01*
X19354285Y16410477D01*
X19316189Y16334286D01*
X19278094Y16296191D01*
X19201904Y16258096D01*
X18897142Y16258096D01*
X18897142Y17058096D01*
X19163808Y17058096D01*
X19239999Y17020000D01*
X19278094Y16981905D01*
X19316189Y16905715D01*
X19316189Y16829524D01*
X19278094Y16753334D01*
X19239999Y16715239D01*
X19163808Y16677143D01*
X18897142Y16677143D01*
G04 #@! TO.C,SCL*
X83788572Y15726191D02*
X83902857Y15688096D01*
X84093333Y15688096D01*
X84169524Y15726191D01*
X84207619Y15764286D01*
X84245714Y15840477D01*
X84245714Y15916667D01*
X84207619Y15992858D01*
X84169524Y16030953D01*
X84093333Y16069048D01*
X83940953Y16107143D01*
X83864762Y16145239D01*
X83826667Y16183334D01*
X83788572Y16259524D01*
X83788572Y16335715D01*
X83826667Y16411905D01*
X83864762Y16450000D01*
X83940953Y16488096D01*
X84131429Y16488096D01*
X84245714Y16450000D01*
X85045714Y15764286D02*
X85007619Y15726191D01*
X84893333Y15688096D01*
X84817143Y15688096D01*
X84702857Y15726191D01*
X84626667Y15802381D01*
X84588572Y15878572D01*
X84550476Y16030953D01*
X84550476Y16145239D01*
X84588572Y16297620D01*
X84626667Y16373810D01*
X84702857Y16450000D01*
X84817143Y16488096D01*
X84893333Y16488096D01*
X85007619Y16450000D01*
X85045714Y16411905D01*
X85769524Y15688096D02*
X85388572Y15688096D01*
X85388572Y16488096D01*
G04 #@! TO.C,SDA*
X83788571Y14536191D02*
X83902857Y14498096D01*
X84093333Y14498096D01*
X84169523Y14536191D01*
X84207619Y14574286D01*
X84245714Y14650477D01*
X84245714Y14726667D01*
X84207619Y14802858D01*
X84169523Y14840953D01*
X84093333Y14879048D01*
X83940952Y14917143D01*
X83864761Y14955239D01*
X83826666Y14993334D01*
X83788571Y15069524D01*
X83788571Y15145715D01*
X83826666Y15221905D01*
X83864761Y15260000D01*
X83940952Y15298096D01*
X84131428Y15298096D01*
X84245714Y15260000D01*
X84588571Y14498096D02*
X84588571Y15298096D01*
X84779047Y15298096D01*
X84893333Y15260000D01*
X84969523Y15183810D01*
X85007619Y15107620D01*
X85045714Y14955239D01*
X85045714Y14840953D01*
X85007619Y14688572D01*
X84969523Y14612381D01*
X84893333Y14536191D01*
X84779047Y14498096D01*
X84588571Y14498096D01*
X85350476Y14726667D02*
X85731428Y14726667D01*
X85274285Y14498096D02*
X85540952Y15298096D01*
X85807619Y14498096D01*
G04 #@! TO.C,BOOT-SW*
X41242857Y14190953D02*
X41280952Y14305239D01*
X41319047Y14343334D01*
X41395238Y14381429D01*
X41509523Y14381429D01*
X41585714Y14343334D01*
X41623809Y14305239D01*
X41661904Y14229048D01*
X41661904Y13924286D01*
X40861904Y13924286D01*
X40861904Y14190953D01*
X40900000Y14267143D01*
X40938095Y14305239D01*
X41014285Y14343334D01*
X41090476Y14343334D01*
X41166666Y14305239D01*
X41204761Y14267143D01*
X41242857Y14190953D01*
X41242857Y13924286D01*
X40861904Y14876667D02*
X40861904Y15029048D01*
X40900000Y15105239D01*
X40976190Y15181429D01*
X41128571Y15219524D01*
X41395238Y15219524D01*
X41547619Y15181429D01*
X41623809Y15105239D01*
X41661904Y15029048D01*
X41661904Y14876667D01*
X41623809Y14800477D01*
X41547619Y14724286D01*
X41395238Y14686191D01*
X41128571Y14686191D01*
X40976190Y14724286D01*
X40900000Y14800477D01*
X40861904Y14876667D01*
X40861904Y15714762D02*
X40861904Y15867143D01*
X40900000Y15943334D01*
X40976190Y16019524D01*
X41128571Y16057620D01*
X41395238Y16057620D01*
X41547619Y16019524D01*
X41623809Y15943334D01*
X41661904Y15867143D01*
X41661904Y15714762D01*
X41623809Y15638572D01*
X41547619Y15562381D01*
X41395238Y15524286D01*
X41128571Y15524286D01*
X40976190Y15562381D01*
X40900000Y15638572D01*
X40861904Y15714762D01*
X40861904Y16286191D02*
X40861904Y16743334D01*
X41661904Y16514762D02*
X40861904Y16514762D01*
X41357142Y17010000D02*
X41357142Y17619524D01*
X41623809Y17962381D02*
X41661904Y18076667D01*
X41661904Y18267143D01*
X41623809Y18343334D01*
X41585714Y18381429D01*
X41509523Y18419524D01*
X41433333Y18419524D01*
X41357142Y18381429D01*
X41319047Y18343334D01*
X41280952Y18267143D01*
X41242857Y18114762D01*
X41204761Y18038572D01*
X41166666Y18000477D01*
X41090476Y17962381D01*
X41014285Y17962381D01*
X40938095Y18000477D01*
X40900000Y18038572D01*
X40861904Y18114762D01*
X40861904Y18305239D01*
X40900000Y18419524D01*
X40861904Y18686191D02*
X41661904Y18876667D01*
X41090476Y19029048D01*
X41661904Y19181429D01*
X40861904Y19371905D01*
G04 #@! TO.C,U3*
X42220476Y31428096D02*
X42220476Y30780477D01*
X42258571Y30704286D01*
X42296666Y30666191D01*
X42372857Y30628096D01*
X42525238Y30628096D01*
X42601428Y30666191D01*
X42639523Y30704286D01*
X42677619Y30780477D01*
X42677619Y31428096D01*
X42982380Y31428096D02*
X43477619Y31428096D01*
X43210952Y31123334D01*
X43325238Y31123334D01*
X43401428Y31085239D01*
X43439523Y31047143D01*
X43477619Y30970953D01*
X43477619Y30780477D01*
X43439523Y30704286D01*
X43401428Y30666191D01*
X43325238Y30628096D01*
X43096666Y30628096D01*
X43020476Y30666191D01*
X42982380Y30704286D01*
G04 #@! TO.C,U4*
X21880476Y5868096D02*
X21880476Y5220477D01*
X21918571Y5144286D01*
X21956666Y5106191D01*
X22032857Y5068096D01*
X22185238Y5068096D01*
X22261428Y5106191D01*
X22299523Y5144286D01*
X22337619Y5220477D01*
X22337619Y5868096D01*
X23061428Y5601429D02*
X23061428Y5068096D01*
X22870952Y5906191D02*
X22680476Y5334762D01*
X23175714Y5334762D01*
G04 #@! TO.C,U5*
X25028571Y39098096D02*
X25028571Y38450477D01*
X25066666Y38374286D01*
X25104761Y38336191D01*
X25180952Y38298096D01*
X25333333Y38298096D01*
X25409523Y38336191D01*
X25447618Y38374286D01*
X25485714Y38450477D01*
X25485714Y39098096D01*
X26247618Y39098096D02*
X25866666Y39098096D01*
X25828571Y38717143D01*
X25866666Y38755239D01*
X25942856Y38793334D01*
X26133333Y38793334D01*
X26209523Y38755239D01*
X26247618Y38717143D01*
X26285714Y38640953D01*
X26285714Y38450477D01*
X26247618Y38374286D01*
X26209523Y38336191D01*
X26133333Y38298096D01*
X25942856Y38298096D01*
X25866666Y38336191D01*
X25828571Y38374286D01*
G04 #@! TO.C,U_DEBUG*
X77495714Y40648096D02*
X77495714Y40000477D01*
X77533809Y39924286D01*
X77571904Y39886191D01*
X77648095Y39848096D01*
X77800476Y39848096D01*
X77876666Y39886191D01*
X77914761Y39924286D01*
X77952857Y40000477D01*
X77952857Y40648096D01*
X78143333Y39771905D02*
X78752857Y39771905D01*
X78943333Y39848096D02*
X78943333Y40648096D01*
X79133809Y40648096D01*
X79248095Y40610000D01*
X79324285Y40533810D01*
X79362380Y40457620D01*
X79400476Y40305239D01*
X79400476Y40190953D01*
X79362380Y40038572D01*
X79324285Y39962381D01*
X79248095Y39886191D01*
X79133809Y39848096D01*
X78943333Y39848096D01*
X79743333Y40267143D02*
X80010000Y40267143D01*
X80124285Y39848096D02*
X79743333Y39848096D01*
X79743333Y40648096D01*
X80124285Y40648096D01*
X80733809Y40267143D02*
X80848095Y40229048D01*
X80886190Y40190953D01*
X80924285Y40114762D01*
X80924285Y40000477D01*
X80886190Y39924286D01*
X80848095Y39886191D01*
X80771904Y39848096D01*
X80467142Y39848096D01*
X80467142Y40648096D01*
X80733809Y40648096D01*
X80810000Y40610000D01*
X80848095Y40571905D01*
X80886190Y40495715D01*
X80886190Y40419524D01*
X80848095Y40343334D01*
X80810000Y40305239D01*
X80733809Y40267143D01*
X80467142Y40267143D01*
X81267142Y40648096D02*
X81267142Y40000477D01*
X81305238Y39924286D01*
X81343333Y39886191D01*
X81419523Y39848096D01*
X81571904Y39848096D01*
X81648095Y39886191D01*
X81686190Y39924286D01*
X81724285Y40000477D01*
X81724285Y40648096D01*
X82524285Y40610000D02*
X82448095Y40648096D01*
X82333809Y40648096D01*
X82219523Y40610000D01*
X82143333Y40533810D01*
X82105238Y40457620D01*
X82067142Y40305239D01*
X82067142Y40190953D01*
X82105238Y40038572D01*
X82143333Y39962381D01*
X82219523Y39886191D01*
X82333809Y39848096D01*
X82410000Y39848096D01*
X82524285Y39886191D01*
X82562380Y39924286D01*
X82562380Y40190953D01*
X82410000Y40190953D01*
G04 #@! TO.C,VIN_5VDC*
X3655238Y48918096D02*
X3921904Y48118096D01*
X4188571Y48918096D01*
X4455238Y48118096D02*
X4455238Y48918096D01*
X4836190Y48118096D02*
X4836190Y48918096D01*
X5293333Y48118096D01*
X5293333Y48918096D01*
X5483809Y48041905D02*
X6093333Y48041905D01*
X6664761Y48918096D02*
X6283809Y48918096D01*
X6245714Y48537143D01*
X6283809Y48575239D01*
X6359999Y48613334D01*
X6550476Y48613334D01*
X6626666Y48575239D01*
X6664761Y48537143D01*
X6702857Y48460953D01*
X6702857Y48270477D01*
X6664761Y48194286D01*
X6626666Y48156191D01*
X6550476Y48118096D01*
X6359999Y48118096D01*
X6283809Y48156191D01*
X6245714Y48194286D01*
X6931428Y48918096D02*
X7198095Y48118096D01*
X7464761Y48918096D01*
X7731428Y48118096D02*
X7731428Y48918096D01*
X7921904Y48918096D01*
X8036190Y48880000D01*
X8112380Y48803810D01*
X8150476Y48727620D01*
X8188571Y48575239D01*
X8188571Y48460953D01*
X8150476Y48308572D01*
X8112380Y48232381D01*
X8036190Y48156191D01*
X7921904Y48118096D01*
X7731428Y48118096D01*
X8988571Y48194286D02*
X8950476Y48156191D01*
X8836190Y48118096D01*
X8760000Y48118096D01*
X8645714Y48156191D01*
X8569523Y48232381D01*
X8531428Y48308572D01*
X8493333Y48460953D01*
X8493333Y48575239D01*
X8531428Y48727620D01*
X8569523Y48803810D01*
X8645714Y48880000D01*
X8760000Y48918096D01*
X8836190Y48918096D01*
X8950476Y48880000D01*
X8988571Y48841905D01*
G04 #@! TO.C,Y1*
X55070951Y13269048D02*
X55070951Y12888096D01*
X54804284Y13688096D02*
X55070951Y13269048D01*
X55337618Y13688096D01*
X56023332Y12888096D02*
X55566189Y12888096D01*
X55794761Y12888096D02*
X55794761Y13688096D01*
X55718570Y13573810D01*
X55642380Y13497620D01*
X55566189Y13459524D01*
G04 #@! TO.C,Y2*
X31796190Y27386667D02*
X32272380Y27386667D01*
X31272380Y27053334D02*
X31796190Y27386667D01*
X31272380Y27720000D01*
X31367619Y28005715D02*
X31320000Y28053334D01*
X31272380Y28148572D01*
X31272380Y28386667D01*
X31320000Y28481905D01*
X31367619Y28529524D01*
X31462857Y28577143D01*
X31558095Y28577143D01*
X31700952Y28529524D01*
X32272380Y27958096D01*
X32272380Y28577143D01*
G04 #@! TO.C,HOST_EN*
X25100952Y44288096D02*
X25100952Y45088096D01*
X25100952Y44707143D02*
X25558095Y44707143D01*
X25558095Y44288096D02*
X25558095Y45088096D01*
X26091428Y45088096D02*
X26243809Y45088096D01*
X26320000Y45050000D01*
X26396190Y44973810D01*
X26434285Y44821429D01*
X26434285Y44554762D01*
X26396190Y44402381D01*
X26320000Y44326191D01*
X26243809Y44288096D01*
X26091428Y44288096D01*
X26015238Y44326191D01*
X25939047Y44402381D01*
X25900952Y44554762D01*
X25900952Y44821429D01*
X25939047Y44973810D01*
X26015238Y45050000D01*
X26091428Y45088096D01*
X26739047Y44326191D02*
X26853333Y44288096D01*
X27043809Y44288096D01*
X27120000Y44326191D01*
X27158095Y44364286D01*
X27196190Y44440477D01*
X27196190Y44516667D01*
X27158095Y44592858D01*
X27120000Y44630953D01*
X27043809Y44669048D01*
X26891428Y44707143D01*
X26815238Y44745239D01*
X26777142Y44783334D01*
X26739047Y44859524D01*
X26739047Y44935715D01*
X26777142Y45011905D01*
X26815238Y45050000D01*
X26891428Y45088096D01*
X27081904Y45088096D01*
X27196190Y45050000D01*
X27424761Y45088096D02*
X27881904Y45088096D01*
X27653333Y44288096D02*
X27653333Y45088096D01*
X27958095Y44211905D02*
X28567619Y44211905D01*
X28758095Y44707143D02*
X29024761Y44707143D01*
X29139047Y44288096D02*
X28758095Y44288096D01*
X28758095Y45088096D01*
X29139047Y45088096D01*
X29481904Y44288096D02*
X29481904Y45088096D01*
X29939047Y44288096D01*
X29939047Y45088096D01*
G04 #@! TO.C,VIDEO*
X29001904Y14008096D02*
X29268571Y13208096D01*
X29535238Y14008096D01*
X29801904Y13208096D02*
X29801904Y14008096D01*
X30182857Y13208096D02*
X30182857Y14008096D01*
X30373333Y14008096D01*
X30487619Y13970000D01*
X30563809Y13893810D01*
X30601904Y13817620D01*
X30640000Y13665239D01*
X30640000Y13550953D01*
X30601904Y13398572D01*
X30563809Y13322381D01*
X30487619Y13246191D01*
X30373333Y13208096D01*
X30182857Y13208096D01*
X30982857Y13627143D02*
X31249523Y13627143D01*
X31363809Y13208096D02*
X30982857Y13208096D01*
X30982857Y14008096D01*
X31363809Y14008096D01*
X31859047Y14008096D02*
X32011428Y14008096D01*
X32087619Y13970000D01*
X32163809Y13893810D01*
X32201904Y13741429D01*
X32201904Y13474762D01*
X32163809Y13322381D01*
X32087619Y13246191D01*
X32011428Y13208096D01*
X31859047Y13208096D01*
X31782857Y13246191D01*
X31706666Y13322381D01*
X31668571Y13474762D01*
X31668571Y13741429D01*
X31706666Y13893810D01*
X31782857Y13970000D01*
X31859047Y14008096D01*
G04 #@! TD*
M02*
